<svg width="97" height="127" viewBox="0 0 97 127" fill="none" xmlns="http://www.w3.org/2000/svg">
<path d="M39.3784 9.86972C40.4324 9.17612 40.1271 9.13807 41.1231 9.22893C42.1646 10.106 49.6512 19.0683 50.3848 20.3544C49.8244 20.7476 49.8 20.8377 49.108 20.8766C46.7683 19.625 40.8988 12.2163 39.3784 9.86972Z" fill="#E9967B"/>
<path d="M51.8417 1.12542C52.4366 0.353925 52.1128 0.557066 53.0128 0.303229C54.8621 1.4187 55.8034 10.112 56.8786 13.2898L56.3855 14.0613C55.5434 14.3312 55.947 14.3576 55.1377 13.9527C54.009 12.3257 52.509 3.76703 51.8417 1.12542Z" fill="#E9967B"/>
<path d="M93.3529 7.29748C94.3238 7.2164 93.9554 7.1143 94.7498 7.60757C95.1735 9.72531 89.3899 16.2834 87.7688 19.2206L86.8666 19.3769C86.0994 18.9371 86.3521 19.2529 86.1052 18.3823C86.5453 16.4517 91.8526 9.57176 93.3529 7.29748Z" fill="#E9967B"/>
<path d="M25.6557 50.1379C25.4826 48.3289 25.056 45.9854 24.7725 44.1559C24.2725 40.9939 23.819 37.8248 23.4121 34.6495C22.936 30.9344 22.1169 25.6373 24.3739 22.3926C25.583 20.6544 30.128 20.6252 31.6442 22.2027C34.2356 24.8986 34.2918 29.0612 34.8527 32.5475C35.1308 34.276 35.4175 36.0143 35.6826 37.7554C36.64 44.3127 37.7285 50.8502 38.9478 57.3639C39.5289 60.3998 39.9837 63.1532 40.8027 66.1733C44.746 67.658 47.9465 69.6355 49.6832 73.6711C52.0058 79.0688 51.3452 85.1634 49.347 90.5433C47.9494 94.3071 46.5075 97.9399 44.4299 101.384C43.8343 102.371 42.9675 103.505 42.6629 104.648C42.4025 106.404 42.6578 108.987 42.8177 110.759C43.0656 113.506 43.3986 116.153 43.9025 118.849C44.1101 119.938 44.3312 121.024 44.566 122.108C44.7784 123.073 45.6231 125.606 44.335 126.262C43.5641 126.655 42.7111 125.88 42.238 125.282C35.0282 126.73 27.5856 126.543 20.4574 124.736C18.8686 124.317 17.2677 123.742 15.7141 123.198C15.3811 123.681 15.2561 123.812 14.6805 123.933C13.4775 124.184 13.1204 123.003 13.0633 122.032C12.9463 120.04 12.9951 117.952 12.9975 115.95L12.9699 106.149C4.92182 98.0739 -0.0225119 84.0821 7.70713e-05 72.7505C0.00674268 69.3962 0.400605 66.0259 2.90302 63.5024C3.77674 62.6213 5.10808 61.9433 6.36877 61.9616L7.41483 61.9739C7.90697 58.3216 11.1288 54.3834 15.1684 55.0313C15.4446 55.0755 15.5712 55.1138 15.8185 55.2386C16.1104 55.0662 16.45 53.7083 16.6981 53.3081C18.2868 50.7462 21.5806 48.906 24.5943 49.7014C24.966 49.799 25.3229 49.9458 25.6557 50.1379Z" fill="#FE9F7F"/>
<path d="M37.377 77.8255L37.4876 77.8269C38.5162 77.8336 39.3063 76.9619 38.3695 76.1813C37.7934 75.7006 36.7507 75.4288 36.1013 75.0222C33.3065 73.3669 29.1172 71.5746 28.2514 68.144C28.1249 67.6425 28.3522 66.7934 28.6928 66.3998C29.5483 65.4108 31.2462 65.5803 32.3937 65.8665C34.1525 66.3052 35.8654 66.9595 37.5832 67.5339C39.137 68.0877 41.1187 68.7276 42.5639 69.452C43.4601 69.8956 44.2902 70.4622 45.0306 71.1347C47.6524 73.541 48.63 77.2626 48.7263 80.7146C48.9188 87.695 45.6268 94.2614 42.3346 100.214C41.7857 101.206 41.1172 102.192 40.4774 103.129C39.6086 104.401 39.9481 106.176 40.0156 107.68C40.2057 111.916 40.644 116.136 41.3282 120.32C41.4258 120.908 42.2867 125.135 42.238 125.282C35.0281 126.73 27.5855 126.543 20.4573 124.735C18.8686 124.317 17.2676 123.741 15.714 123.198C15.8923 121.542 15.5829 119.067 15.5628 117.337C15.5269 114.227 15.4593 110.953 15.6157 107.853C16.0904 108.091 20.0477 109.914 19.3219 107.687C19.2415 107.44 17.5058 106.748 17.2498 106.497C16.1925 105.757 15.1747 104.879 14.3048 103.944C9.18379 98.4407 5.87194 90.7108 4.09593 83.4883C3.77894 82.1996 3.31131 79.8822 3.23096 78.6053L5.76204 80.9331C6.51184 81.633 7.12523 82.3129 7.96947 82.9098C10.8225 84.928 14.4337 84.2852 14.9558 80.4058C16.5895 82.4788 19.0539 83.6942 21.5807 81.8841C22.466 81.2501 22.8056 80.1547 23.0554 79.126C27.2324 81.2442 29.7309 77.6529 30.362 73.9187C31.4482 74.5934 34.0512 76.0739 34.9254 76.773L34.8777 76.8604C34.3859 77.7418 33.5239 78.101 32.6858 78.6068C28.8013 80.9516 25.6838 84.0326 24.8222 88.66C24.5157 90.342 24.5888 92.0706 25.0363 93.72C25.1653 94.1814 25.7397 96.1137 26.7335 94.7598C26.9448 94.4717 26.614 92.6046 26.6834 92.1795C26.7892 86.8588 29.6511 83.7238 33.5932 80.7072C33.4567 81.7308 33.356 82.758 33.2912 83.7882C33.1852 85.7227 33.2906 87.7594 33.2797 89.7013C33.2761 90.3353 34.798 90.8367 34.8747 89.5703C35.1077 85.7242 35.6725 81.3138 37.377 77.8255Z" fill="#FDF9F7"/>
<path d="M28.0788 23.1608C30.3446 23.3002 30.9385 24.9461 31.5034 26.8844C32.0338 28.7043 32.2738 30.6764 32.5517 32.5487L33.5149 38.8848C34.2203 43.6105 34.973 48.3291 35.7729 53.0398C36.4531 57.2237 37.1445 61.5629 38.062 65.6941C37.3111 65.4448 36.5565 65.2073 35.7983 64.9815C33.4706 64.2451 32.5731 64.0151 30.1196 63.6083C29.7905 62.6793 29.5273 60.6093 29.3668 59.5685C28.9945 57.1711 28.6358 54.7717 28.2906 52.3703C27.4891 46.8082 26.538 41.3163 25.7648 35.6677C25.3787 32.8472 24.5044 26.5478 26.0886 23.9466C26.4421 23.3661 27.4286 23.223 28.0788 23.1608Z" fill="#FDF9F7"/>
<path d="M22.3811 51.8106C23.4975 51.6592 24.8538 51.8558 25.5226 53.4118C26.6002 55.9191 27.7014 61.287 27.986 63.9608C28.0359 64.4299 26.0702 66.1594 26.2893 67.9632C26.585 70.3987 26.9424 70.8297 28.5373 72.4273C28.457 74.5166 28.0868 76.8273 25.8659 77.5805C24.4872 77.8257 23.8032 77.2458 23.3176 76.0089C22.2138 73.1975 21.4712 70.2209 20.6707 67.3104C19.7986 64.2189 19.0291 61.0966 18.2352 57.9878C17.4097 54.7551 19.2067 52.4567 22.3811 51.8106Z" fill="#FDF9F7"/>
<path d="M13.9254 57.2947C14.3001 57.2423 14.6455 57.2914 14.9724 57.4894C16.599 58.4748 18.9903 69.1493 19.5944 71.4452C20.0587 73.2094 20.6496 74.9706 21.0547 76.7444C21.2699 77.6872 21.219 79.0359 20.6916 79.8617C20.412 80.2994 19.9835 80.6564 19.4674 80.766C18.8056 80.906 18.2188 80.6327 17.6704 80.2905C16.5581 79.4403 15.4216 77.765 14.656 76.5859C12.2884 72.9413 10.2405 68.8782 9.82425 64.4933C9.66086 62.7727 9.52652 60.9659 10.5992 59.4784C11.4297 58.3266 12.5149 57.5387 13.9254 57.2947Z" fill="#FDF9F7"/>
<path d="M5.9094 64.3189C7.57773 64.2323 7.67986 65.2983 7.99284 66.6989C8.54424 69.1663 9.32915 71.2615 10.5107 73.496C11.4096 75.1957 12.7539 76.9102 12.9741 78.8314C13.2541 81.2718 12.3748 82.8056 9.75612 81.7235C8.38019 80.9622 6.68498 79.1091 5.4791 78.0612C5.09545 77.5857 3.55992 76.5088 3.31025 76.0437C1.9621 73.533 2.00757 69.3648 3.30862 66.8483C3.96148 65.5855 4.74114 64.7075 5.9094 64.3189Z" fill="#FDF9F7"/>
<path d="M67.0256 19.0141C67.2234 19.0084 67.4211 19.0043 67.6188 19.0021C72.4425 18.9351 77.147 20.501 80.9686 23.4455C81.4729 23.8328 82.258 24.4139 82.6905 24.8625C86.1633 28.4634 88.0215 32.9427 88.0252 37.9586C88.0275 41.1019 87.2587 44.3273 85.6197 47.0073C84.9146 48.1744 84.0014 49.1599 83.1231 50.175C82.1232 51.33 81.2974 52.2709 80.0665 53.2013C79.6466 53.5191 79.0356 54.1965 78.6423 54.5904L78.4556 54.5739C77.878 55.0296 77.3766 55.602 76.8492 56.1152C74.4829 58.4202 73.649 60.184 73.6209 63.5204C73.6112 64.6318 73.7016 65.8163 73.2742 66.8681C72.9476 67.6718 72.4359 68.1863 71.6323 68.5026C70.2244 69.0558 65.1311 69.0284 63.7432 68.3967C63.0544 68.0826 62.6004 67.5601 62.3434 66.8483C62.0108 65.9258 62.0708 64.8905 62.0664 63.9246C62.0494 60.3174 62.4308 57.0312 64.0276 53.7437C64.4771 52.7306 64.9348 52.2633 65.531 51.4248C67.4307 48.7545 69.8059 47.0167 72.1574 44.8015C73.0002 44.0352 73.8342 43.3204 74.5578 42.4335C77.0092 39.4288 76.65 33.9295 73.389 31.586C69.0549 28.5578 61.4087 29.8225 60.5792 35.8025C60.2371 38.2647 60.2 40.4433 56.985 40.7634C54.4306 41.0175 49.0907 41.4464 48.87 37.7317C48.61 33.3478 49.9283 28.813 52.8938 25.5145C56.8146 21.0668 61.3176 19.5208 67.0256 19.0141Z" fill="#FE9F7F"/>
<path d="M66.7897 21.5327C67.5074 21.4458 68.4509 21.5051 69.1797 21.5277C77.0414 21.7717 84.2321 27.4151 85.4186 35.3793C85.6675 37.0384 85.6823 38.7241 85.4631 40.3874C84.441 48.789 77.1399 51.1049 72.7873 57.4101C71.2164 59.6852 71.3934 62.2812 71.3097 64.8848C71.3001 65.1792 71.1542 65.9603 70.9535 66.1168C70.0144 66.8482 65.1877 66.6599 64.5123 66.1302C64.1938 65.5651 64.5375 61.0705 64.5649 60.1099C64.6575 56.869 66.1528 53.906 68.388 51.587C71.1601 48.779 74.4944 46.4567 76.8696 43.3767C78.5641 41.1121 78.7278 38.3137 78.2783 35.6314C77.2318 29.3973 71.4534 26.9424 65.6632 27.9629C61.652 28.6698 59.0946 31.4131 58.3496 35.3925C58.1792 36.0305 58.234 37.3967 57.8326 37.9096C57.2001 38.7168 54.7657 38.454 53.8592 38.4657C52.9919 38.4769 51.1603 38.4717 51.1789 37.3715C51.3322 28.2133 57.7534 22.0906 66.7897 21.5327Z" fill="#FDF9F7"/>
<path d="M66.1275 72.3356C69.5218 71.966 73.0234 72.8133 73.3908 76.7897C73.6982 80.1173 72.8812 83.6634 68.9389 83.9738C67.0074 83.9878 65.0203 84.2189 63.402 83.0139C62.3992 82.2681 61.7571 81.0535 61.6119 79.8211C61.175 76.115 61.8348 72.8377 66.1275 72.3356Z" fill="#FE9F7F"/>
<path d="M66.2599 74.7727C69.6638 74.6127 71.3791 74.8327 71.0251 78.8624C70.8829 80.4829 70.6414 81.2227 68.9306 81.562C65.7392 81.6427 63.6996 81.9174 63.8958 77.7848C63.9803 76.0125 64.3683 75.0497 66.2599 74.7727Z" fill="#FDF9F7"/>
</svg>
