<svg width="112" height="113" viewBox="0 0 112 113" fill="none" xmlns="http://www.w3.org/2000/svg">
<path d="M54.4536 15.2109C75.5921 14.0026 93.7112 30.1533 94.9389 51.2965C96.1666 72.4393 80.0327 90.5783 58.897 91.8235C37.7336 93.0702 19.573 76.9112 18.3453 55.742C17.1176 34.5732 33.2874 16.4209 54.4536 15.2109Z" fill="#E9967B"/>
<path d="M47.9391 43.0774C52.7529 42.4133 54.506 44.6485 56.8451 48.4467C58.4323 45.5731 60.5973 42.9438 64.1973 42.9352C65.7789 42.9186 67.2996 43.5478 68.4084 44.6781C73.0758 49.4158 68.2011 55.266 64.6038 58.636C61.7392 61.3198 60.1106 62.5843 56.7926 64.6649C50.6211 61.1207 35.8449 48.507 47.9391 43.0774Z" fill="#FEF8F3"/>
<path d="M39.1685 36.1676C42.3344 36.5722 45.3013 36.9365 48.4893 37.1066C50.776 37.2282 53.5687 37.1135 55.7724 37.3986C55.7724 38.865 55.8609 42.1794 55.6424 43.4831C52.3852 41.2681 48.9234 40.1817 45.293 42.3658C43.5344 43.4112 42.2819 45.1323 41.8257 47.1272C39.1187 58.7005 57.4895 64.1196 55.847 69.1658C52.1613 69.7867 43.8718 69.7046 39.0247 70.3285C37.3851 64.2938 37.1943 60.5211 36.6357 54.381C37.9712 54.3774 40.6035 54.7403 41.2395 53.4343C40.3353 52.2802 38.0514 52.6226 36.6745 52.6696C37.0394 45.9722 37.4542 42.6075 39.1685 36.1676Z" fill="#FEF8F3"/>
<path d="M75.7661 36.0918C80.1791 36.1974 84.3708 36.2981 88.7838 36.2027C92.0852 42.0137 92.7709 46.0662 93.3986 52.5725C90.4898 52.9188 81.5035 52.6889 78.1136 52.6707C78.1578 46.7438 77.2067 41.7822 75.7661 36.0918Z" fill="#FEF8F3"/>
<path d="M78.1028 54.4222C83.1849 54.352 88.2698 54.3445 93.3519 54.3995C93.2247 60.1112 91.986 64.5311 89.5196 69.5931L89.0053 70.3974C87.1362 71.3175 78.2632 70.7414 75.9517 70.609C77.2955 65.3154 78.0171 59.8831 78.1028 54.4222Z" fill="#FEF8F3"/>
<path d="M27.8456 36.2387C31.0973 36.1242 34.089 36.0514 37.3407 36.0901C35.8724 41.4982 35.1093 47.073 35.0651 52.6768L28.8161 52.6798L19.9736 52.6135C20.0179 46.4211 21.605 41.7573 24.2815 36.3238L27.8456 36.2387Z" fill="#FEF8F3"/>
<path d="M19.9155 54.3918C24.9257 54.2989 30.1239 54.3666 35.148 54.3672C35.1701 60.8483 35.7424 64.2507 37.1885 70.617C33.1489 70.9774 28.2824 70.5379 24.1294 70.385C21.3146 64.7966 20.2224 60.6168 19.9155 54.3918Z" fill="#FEF8F3"/>
<path d="M57.495 71.237C63.3735 71.2254 67.6592 71.427 73.5819 71.9854C71.7376 77.2779 70.6206 79.6765 67.2168 84.1423C64.0426 87.5994 61.8914 88.8227 57.4121 89.9231C57.8103 85.4607 57.5227 76.09 57.495 71.237Z" fill="#FEF8F3"/>
<path d="M47.972 71.3325C49.9656 71.1215 53.6679 71.2268 55.8025 71.2321L55.7776 89.9464C53.1979 89.333 52.2522 88.8916 49.9628 87.5386C44.5766 83.9872 41.8281 77.8139 39.4917 72.0875C41.759 71.7161 45.5747 71.5244 47.972 71.3325Z" fill="#FEF8F3"/>
<path d="M54.9319 17.2906L55.4821 17.3637C56.0434 18.4887 55.7863 33.0703 55.778 35.4969C50.1595 35.5196 47.1345 35.2695 41.6073 34.6271C41.0294 34.5543 40.634 34.5845 40.2303 34.1857C40.0699 32.4001 41.2312 30.3544 42.1022 28.8377C45.2295 23.3871 48.6636 19.0142 54.9319 17.2906Z" fill="#FEF8F3"/>
<path d="M57.4951 17.1562C64.8252 18.2902 71.6188 27.2734 73.17 34.1578L72.7912 34.6066C67.2418 34.949 63.3984 35.5329 57.5559 35.4925C57.4481 29.408 57.6251 23.2961 57.4951 17.1562Z" fill="#FEF8F3"/>
<path d="M70.8913 54.3459L76.4517 54.4645C76.0923 60.7072 75.4923 64.3394 74.0406 70.3609C71.1595 69.8348 66.8931 69.6623 63.9732 69.5301L57.5943 69.4944L57.2681 66.4571C62.6737 63.5819 67.2553 59.2317 70.8913 54.3459Z" fill="#FEF8F3"/>
<path d="M57.4974 37.3405C63.0717 36.8347 67.8192 36.9337 73.9714 36.2503C75.5281 42.4576 76.1225 46.2593 76.2193 52.6406L71.5907 52.6959C72.2819 49.7817 72.5778 47.6809 70.8939 44.9293C69.8045 43.1153 68.0321 41.8146 65.9777 41.319C62.6265 40.515 59.7868 41.853 57.3896 44.1245L57.0661 44.4121C56.267 44.3693 56.408 44.2387 55.6421 43.4831C55.8605 42.1794 55.772 38.865 55.772 37.3986C56.3665 37.421 56.9278 37.4882 57.4974 37.3405Z" fill="#FEF8F3"/>
<path d="M55.772 37.3986C56.3665 37.421 56.9278 37.4882 57.4974 37.3405C57.5085 38.7662 57.6108 42.8857 57.3896 44.1245L57.0661 44.4121C56.267 44.3692 56.408 44.2387 55.6421 43.4831C55.8605 42.1794 55.772 38.865 55.772 37.3986Z" fill="#E9967B"/>
<path d="M64.6729 18.1088C64.8305 18.1375 64.9881 18.1663 65.1484 18.1951C74.5909 20.3393 82.7781 26.1909 87.8658 34.4338C83.7846 34.6739 79.3053 34.5004 75.2241 34.2557C72.8158 27.6957 70.2222 22.6185 64.6729 18.1088Z" fill="#FEF8F3"/>
<path d="M25.1831 72.3516C30.2956 72.1323 31.8025 73.3174 37.7999 72.2512C40.2109 79.1347 42.4534 83.8491 48.3345 88.6457L48.2958 88.7657L47.8396 88.868C38.4469 86.0025 30.326 80.9429 25.1831 72.3516Z" fill="#FEF8F3"/>
<path d="M75.3405 72.2648C80.2153 72.9941 83.066 72.8129 87.9324 72.624C84.8024 78.1316 79.2779 82.5492 73.8253 85.6003C70.2585 87.3826 68.4335 87.941 64.5874 89.0118C70.1755 84.9524 73.2474 78.6626 75.3405 72.2648Z" fill="#FEF8F3"/>
<path d="M47.9223 18.1779L48.1352 18.405C41.9969 24.3012 41.0789 26.129 37.8909 34.1556C33.7599 33.7949 29.2253 34.7065 25.899 34.319L25.8188 33.8881L26.7119 32.6046L27.1958 32.3377C28.2935 33.0446 28.9848 33.2078 30.276 33.2233L30.2898 32.8731C29.4189 32.0407 28.8991 31.6404 27.9451 30.9269C34.0724 23.7906 38.8946 20.7766 47.9223 18.1779Z" fill="#FEF8F3"/>
<path d="M7.12188 19.381C11.8888 18.4224 16.5395 21.486 17.5432 26.2465C18.5469 31.0071 15.5275 35.6872 10.7772 36.7357C5.96333 37.7983 1.2075 34.7295 0.192742 29.9047C-0.824783 25.08 2.28864 20.3523 7.12188 19.381Z" fill="#E9967B"/>
<path d="M7.27102 21.2865C9.72911 20.7118 12.3061 21.508 14.0121 23.3699C15.7181 25.2318 16.2877 27.8691 15.5025 30.2689C14.7144 32.669 12.696 34.4581 10.2185 34.9487C6.48023 35.6899 2.83595 33.2951 2.03133 29.5675C1.22672 25.8397 3.55761 22.1547 7.27102 21.2865Z" fill="#FEF8F3"/>
<path d="M93.6974 6.62289C98.4671 5.66458 103.115 8.73449 104.108 13.4981C105.1 18.2615 102.067 22.9341 97.3113 23.9624C92.5057 25.0012 87.7748 21.9268 86.7738 17.1137C85.7701 12.3008 88.878 7.59143 93.6974 6.62289Z" fill="#E9967B"/>
<path d="M93.7303 8.56467C96.158 7.94598 98.7322 8.68138 100.469 10.4899C102.205 12.2986 102.833 14.9011 102.117 17.3031C101.398 19.7051 99.4456 21.5355 97.0013 22.095C94.9414 22.5665 92.7819 22.0775 91.1257 20.7655C89.4722 19.4537 88.5017 17.4611 88.4879 15.3486C88.4713 12.1518 90.6335 9.35372 93.7303 8.56467Z" fill="#FEF8F3"/>
<path d="M63.7715 96.4651C68.0711 95.4479 72.3845 98.1074 73.4075 102.408C74.4278 106.708 71.7761 111.025 67.4766 112.053C63.1714 113.083 58.847 110.423 57.8212 106.115C56.7981 101.807 59.4636 97.484 63.7715 96.4651Z" fill="#E9967B"/>
<path d="M65.1431 98.1773C68.5192 97.8933 71.4805 100.414 71.7377 103.792C71.9976 107.17 69.4565 110.113 66.0777 110.346C62.732 110.578 59.8288 108.068 59.5716 104.725C59.3172 101.382 61.803 98.4583 65.1431 98.1773Z" fill="#FEF8F3"/>
<path d="M51.4311 0.243834C52.7998 0.123804 56.0514 -0.525027 56.6459 0.962636C56.5381 1.15292 56.4275 1.34292 56.3196 1.5332C54.6413 2.01277 50.2173 2.12091 48.6357 2.34604C38.1203 3.91833 28.3018 8.55639 20.4076 15.6802C19.3735 16.7417 18.8288 17.6718 17.2666 17.5996L17.0288 17.1458C17.5818 14.9194 20.7256 12.7315 22.5173 11.3497C30.9617 4.83322 40.8743 1.33269 51.4311 0.243834Z" fill="#E9967B"/>
<path d="M102.612 25.9758C104.876 26.1594 106.563 31.3083 107.412 33.2988C112.027 44.156 112.864 59.7561 108.327 70.7036C107.655 70.5761 107.661 70.5194 107.144 70.1006C107.008 69.423 108.493 63.5106 108.739 62.219C110.332 53.8757 109.674 44.9937 106.881 36.9788C105.805 33.8956 104.121 30.8118 102.816 27.8119C102.363 26.767 102.454 27.0964 102.612 25.9758Z" fill="#E9967B"/>
<path d="M8.73413 77.9894C8.91109 78 9.69082 78.0389 9.79589 78.1883C14.3747 84.6647 18.9204 90.9768 25.7113 95.3928C26.9749 96.2164 32.8174 99.6 33.2681 100.669L32.8257 101.608C31.7058 101.324 29.6597 100.13 28.609 99.5059C21.9924 95.5651 16.2245 90.3499 11.6402 84.163C10.3987 82.5155 8.45763 79.9926 8.73413 77.9894Z" fill="#E9967B"/>
<path d="M86.674 96.9034C87.0058 97.0262 87.1911 97.2538 87.4703 97.5016L87.4288 98.1377C86.6961 99.0775 85.4795 99.6945 84.4399 100.326C83.7735 100.013 83.732 99.7957 83.6353 99.1643C84.3154 98.2063 85.6316 97.5395 86.674 96.9034Z" fill="#E9967B"/>
<path d="M80.3532 100.539C80.826 100.872 80.7624 100.887 81.1136 101.381L80.9836 101.916C80.121 102.734 79.0343 103.041 77.9062 103.488C77.2702 103.076 77.1541 102.875 77.1983 102.189C78.0195 101.32 79.2057 100.994 80.3532 100.539Z" fill="#E9967B"/>
<path d="M42.7324 103.764C44.8891 103.975 46.8661 103.641 47.021 106.058C45.0301 106.008 42.8734 106.039 42.7324 103.764Z" fill="#E9967B"/>
<path d="M67.5289 1.04834C68.7261 1.22451 69.8598 1.2779 70.8856 1.87141C71.3971 2.71909 71.2672 2.37256 71.0515 3.59775C69.6414 3.15469 67.9132 3.34497 67.1943 1.98204L67.5289 1.04834Z" fill="#E9967B"/>
<path d="M1.93734 46.6564C2.58435 46.8359 2.56498 46.7922 3.03227 47.2618C3.50785 48.7246 3.15669 50.0593 2.71152 51.4917C2.12534 51.3697 2.16407 51.3318 1.7355 50.8959C1.21844 49.3234 1.57235 48.2318 1.93734 46.6564Z" fill="#E9967B"/>
<path d="M92.5748 92.1584C93.0504 92.274 93.0726 92.3429 93.515 92.6028L93.6035 93.1695C93.067 94.1524 91.8836 95.0187 90.9933 95.7706C90.396 95.2728 90.3822 95.3151 90.1914 94.5869C90.5564 93.5194 91.6292 92.8963 92.5748 92.1584Z" fill="#E9967B"/>
<path d="M101.829 81.0027C102.144 81.0487 102.465 81.1963 102.772 81.3128L102.988 81.849C102.708 83.0372 101.873 83.9405 101.121 84.9458C100.48 84.6388 100.422 84.6756 100.073 84.0381C100.176 82.9567 101.132 81.932 101.829 81.0027Z" fill="#E9967B"/>
<path d="M2.02322 56.4282C2.73382 56.603 2.70064 56.5797 3.19281 57.1171C3.73199 58.4684 3.54951 59.8095 3.27577 61.2122C2.81678 61.0872 2.71724 60.9907 2.30802 60.7415C1.71078 59.362 1.53657 57.8746 2.02322 56.4282Z" fill="#E9967B"/>
<path d="M80.9919 5.80231C82.8334 6.21163 84.5422 6.72853 84.6058 8.77597C82.6454 8.86309 80.8398 7.95014 80.9919 5.80231Z" fill="#E9967B"/>
<path d="M50.085 105.187C51.2131 105.162 52.2583 105.091 53.3698 105.305C54.2546 105.969 53.9753 105.603 54.2739 106.961C52.9854 106.933 52.1504 107.1 50.8453 106.818C50.0214 106.168 50.2675 106.537 50.085 105.187Z" fill="#E9967B"/>
<path d="M60.3652 0.115784C61.5652 0.14593 62.6048 0.0610234 63.6832 0.537828C64.2666 1.30531 64.1063 0.973978 64.0786 2.12478C62.9256 2.0891 61.7864 2.13806 60.7136 1.73371C60.1302 1.00523 60.2961 1.30918 60.3652 0.115784Z" fill="#E9967B"/>
<path d="M3.30051 63.8756C4.9374 64.2849 5.39085 67.2567 4.77979 68.5507C3.15396 67.7199 2.65903 65.48 3.30051 63.8756Z" fill="#E9967B"/>
<path d="M74.3115 3.07837C76.294 3.18291 78.0056 3.62929 78.1079 5.77988C76.1254 5.34346 74.3862 5.36504 74.3115 3.07837Z" fill="#E9967B"/>
<path d="M105.346 74.3006C106.245 74.6364 106.037 74.4085 106.441 75.0993C106.4 76.2322 105.6 77.4596 105.042 78.5067C104.207 78.1518 104.447 78.3825 103.958 77.6808C103.994 76.553 104.788 75.3416 105.346 74.3006Z" fill="#E9967B"/>
<path d="M5.15869 71.3643C7.25457 71.4392 7.94586 73.3072 7.33479 75.1129L6.49975 74.7926C5.48499 73.7704 5.15869 72.7996 5.15869 71.3643Z" fill="#E9967B"/>
<path d="M3.18175 39.4535C3.9283 39.6313 3.9034 39.5981 4.40386 40.1662C4.63059 41.3596 4.06653 42.4769 3.64349 43.6775C2.98265 43.4532 3.02414 43.4781 2.55962 42.9537C2.3246 41.8688 2.84995 40.5813 3.18175 39.4535Z" fill="#E9967B"/>
<path d="M97.3554 87.1422C98.2872 87.4553 98.0439 87.2216 98.4669 87.9409C98.2181 88.9891 97.3581 89.6828 96.5812 90.5C95.9148 90.4054 95.7904 90.1137 95.5747 89.5937C95.9065 88.5641 96.6116 87.9564 97.3554 87.1422Z" fill="#E9967B"/>
<path d="M36.4087 101.792C38.2557 101.965 39.7599 102.12 39.8346 104.177C37.794 104.079 36.4032 104.064 36.4087 101.792Z" fill="#E9967B"/>
</svg>
