<svg width="117" height="109" viewBox="0 0 117 109" fill="none" xmlns="http://www.w3.org/2000/svg">
<path d="M25.4752 2.45038C25.7365 2.48937 25.8261 2.49325 26.0583 2.55631C27.8437 3.04003 34.6343 15.5445 36.0525 17.8929C47.7999 14.3716 59.8661 21.4667 71.7418 21.7286C73.8695 21.7756 75.1956 21.915 77.2918 22.4095C80.2456 19.8858 81.8643 21.4042 84.0713 23.6972C86.1904 21.8378 86.4434 21.649 89.1418 22.7431C91.651 20.3707 98.5718 11.8695 100.881 11.2414L101.145 11.4281C101.325 12.0086 100.842 13.5814 100.463 13.9462C97.3077 16.9783 94.0007 21.1948 90.7618 24.0072C92.118 26.4062 92.832 29.2266 94.2841 31.5025C94.4005 31.6851 95.7811 32.369 96.103 32.4711C97.2327 32.8292 98.0614 33.9975 98.8746 34.9522C99.3754 37.2684 99.4099 38.8867 99.4215 41.199C102.906 40.0618 112.791 33.7339 115.646 33.3298L116.286 33.8202C116.427 34.2862 116.566 34.4533 116.298 34.903C115.896 35.5778 100.665 43.3784 99.1027 43.7921C96.568 53.9137 92.5853 58.2724 85.7845 65.8366C81.843 70.2208 78.1094 74.9979 73.9478 79.2151C71.8864 81.304 69.4394 82.9994 67.4174 85.137C67.3986 85.1574 67.0629 86.9692 67.0504 86.9786C62.7522 90.1724 66.4496 92.8872 60.4072 94.3483C60.8554 96.9594 63.7521 107.31 63.1443 108.533C62.3043 108.739 62.7249 108.745 61.8464 108.414L61.4994 107.627C59.9499 102.58 59.2797 99.5838 58.8143 94.4031C58.3091 93.6483 57.6035 93.0136 56.8896 92.4605C55.8264 92.9774 55.5242 94.6224 54.622 95.3996C51.6079 97.9955 47.5477 92.5335 45.8693 90.5331C45.8046 91.4731 45.5414 93.4323 45.0893 94.1957C43.6665 96.5982 38.9704 107.55 36.7158 108.195L36.2173 107.881C35.4466 105.307 42.7665 95.8957 42.8016 93.7109C42.308 93.6165 40.9822 93.4918 40.7198 93.3502C37.276 91.4933 33.1052 84.0171 31.5812 80.7561C29.7391 82.2355 18.9298 88.8208 16.6097 89.8569C15.6649 89.8013 15.916 89.96 15.4128 89.4102C15.7714 87.4698 20.2808 85.2166 21.9058 84.2992C25.1088 82.4907 27.9427 80.7943 30.9189 78.6166C28.2067 69.6217 28.1354 61.0749 26.2419 51.915C24.8237 45.0558 20.1641 42.1737 19.6554 35.5023C19.5105 33.5989 19.0985 33.3907 19.4917 31.2854C16.0401 27.476 8.28649 23.815 4.25095 20.3557C4.194 20.1463 4.13704 19.9367 4.08008 19.7274C4.45806 18.891 4.22496 19.1178 4.92977 18.6385C6.31752 18.8935 18.2679 27.242 19.8664 28.6807C23.3552 22.8379 27.8547 20.9072 33.7918 18.5002C31.0599 14.1089 28.3643 9.35049 25.6179 4.9359C24.9249 3.82244 25.1519 3.53204 25.4752 2.45038Z" fill="#E9967B"/>
<path d="M36.5632 42.4975L36.7462 42.713C36.6525 43.9304 36.5427 46.7525 37.712 47.3801C40.4281 48.8376 45.2008 47.1491 47.8776 46.3819C49.8361 47.4072 54.2744 50.1966 55.3713 51.9686C58.7057 57.3556 61.2744 63.6354 64.3233 69.2716C63.8795 70.2227 64.1508 69.9417 63.3329 70.5385C58.9667 71.1387 54.2147 59.2595 52.6594 58.5042L52.3506 58.8582C51.6286 63.301 54.6986 64.5563 56.4406 67.9244C58.0105 70.9608 65.4172 83.0898 64.688 86.1569C63.968 86.9966 64.3289 86.7939 63.3525 87.0209C59.1309 85.7811 53.5315 70.0786 51.061 68.4067L50.5998 68.5547L50.3396 69.2317C51.4682 75.1002 58.5284 84.9729 62.4055 89.7946C62.5833 90.6431 62.6248 90.6957 62.3328 91.4773C60.6594 92.6308 59.526 91.9035 58.1726 90.7435C52.6055 85.0158 48.8575 80.4361 45.8577 73.0586C45.6045 72.4361 44.8955 71.7773 44.2178 71.5917L43.9972 71.8257C43.6316 74.8574 48.7876 83.0986 50.8016 85.9202C52.1009 87.7408 54.9074 90.2117 54.502 92.6383C53.8163 93.5974 54.1802 93.2846 53.0996 93.8082C49.8239 93.6776 43.3916 84.0793 41.7188 81.1333C40.8334 79.5746 39.5331 75.4374 38.1624 74.8541L37.605 75.1929C36.9627 78.293 42.4836 86.2319 43.8656 89.1806C44.1528 89.7935 43.6421 90.9573 43.1588 91.48C41.1135 92.0794 39.6647 89.4193 38.4707 87.953C28.3826 75.5621 32.1386 59.79 26.3901 45.881C30.1561 46.0096 33.1669 44.132 36.5632 42.4975Z" fill="#FCF7F4"/>
<path d="M79.7787 22.9655C84.4637 25.4053 85.278 35.486 84.981 40.108C84.8497 42.1546 84.2712 44.2947 84.3346 46.2879C84.3431 46.551 84.7869 46.6469 85.0032 46.7407C87.2757 45.4914 86.9506 36.9872 86.8117 34.7304C86.6591 32.2493 84.6713 25.9787 86.6832 24.2454C91.7246 23.5042 92.0086 37.542 91.3212 40.3915C90.9803 41.8045 89.7957 47.5458 89.9357 48.4189L90.3299 48.6996L90.9053 48.5251C93.6081 46.0108 92.7471 36.6661 95.2627 35.1829C96.2355 35.158 95.8533 35.0839 96.7072 35.5455C99.2568 38.8646 95.3119 50.0902 93.0325 53.5274C91.1774 56.3249 87.667 60.3249 85.3554 62.8973C80.3026 68.5205 75.2811 75.1924 69.6402 80.1682C68.5643 81.2435 67.4611 82.1899 66.3175 83.1877C65.3622 80.3457 62.3193 74.7759 60.8007 71.8022C62.5203 72.1974 65.2612 72.7415 66.012 70.6423C66.8177 68.3902 63.9589 64.6809 63.0456 62.7244C62.1219 60.745 61.2625 58.9202 60.4006 56.992C61.8252 53.8585 63.7269 51.4612 65.2886 48.3995C66.7621 45.5108 66.9924 37.4496 70.7346 36.9853C73.2308 38.8704 68.986 49.0431 69.6374 51.3223L70.053 51.3226C73.2018 48.8155 73.1468 41.6466 73.363 37.9101C73.4921 35.681 71.4051 27.1956 76.0865 28.7679C79.0033 31.5167 78.2222 42.0714 77.5017 45.9646C77.3463 46.8043 77.1259 47.5947 77.4409 48.3929C78.191 48.6388 77.8622 48.6454 78.6879 48.2546C80.6115 45.659 80.1027 36.3663 79.717 33.1177C79.2829 29.4621 76.5754 25.485 79.7787 22.9655Z" fill="#FCF7F4"/>
<path d="M41.6035 18.7633C45.8951 18.3835 62.103 22.8673 67.4121 23.5244C69.1806 23.7432 75.2957 23.9202 76.1238 24.2908C76.3301 24.8472 76.1957 25.1808 76.0785 25.7663C75.1099 26.8883 74.4527 26.5055 73.1854 27.0446C69.7958 28.486 71.997 32.6141 71.005 34.8679C70.5695 34.9389 68.8648 35.2174 68.6016 35.3662C65.8394 36.9261 64.7157 43.4326 63.6097 46.5233C56.5332 47.1345 55.9047 44.7242 49.2946 44.2532C45.8483 44.0076 41.893 46.7022 39.5319 45.8479C38.7967 45.2425 38.6565 45.1565 38.3831 44.256C39.527 39.0532 52.7802 39.6802 52.415 36.847C50.198 35.66 41.9986 38.2268 39.3771 39.0778C35.3156 40.3962 31.2917 43.7009 26.9171 43.9468C25.927 44.0026 25.1611 43.0438 24.5923 42.3764C26.8137 38.7727 35.13 35.1007 39.0649 33.4112C40.9803 32.5886 45.6705 31.8082 46.5108 30.0061L46.267 29.5635C43.3305 28.7748 33.4677 33.396 30.6247 35.1804C28.0975 36.7665 25.6472 38.5636 22.8705 39.8953L21.6445 37.5694C24.4698 33.4383 28.5537 30.8015 32.8348 28.3353C34.8618 27.1676 41.2548 25.6542 41.99 24.2244L41.7362 23.7349C39.2659 23.01 33.0508 25.9206 30.7469 27.127C29.2829 27.8933 23.3121 32.7955 22.3421 29.8255C23.4647 23.8911 36.2092 19.7407 41.6035 18.7633Z" fill="#FCF7F4"/>
<path d="M53.9451 47.603C55.1285 47.8293 57.6836 48.1371 58.3539 49.1109L58.1003 49.9118L57.3654 50.33C56.3092 50.0518 54.8219 48.43 53.9451 47.603Z" fill="#FCF7F4"/>
<path d="M90.2765 73.0031C93.0598 73.4951 101.557 79.0203 104.139 81.0838C104.59 81.4445 104.333 82.444 104.26 83.0397C102.656 82.8312 92.4233 75.9255 90.3907 74.5181C90.0672 74.2941 90.2386 73.4804 90.2765 73.0031Z" fill="#E9967B"/>
<path d="M78.0511 0C79.1693 0.584666 79.0543 0.299243 79.4585 1.21413C79.1975 2.55051 74.998 13.447 74.2299 14.7129C73.6141 14.4139 73.5234 14.4363 73.1534 13.8503C73.1114 11.1972 76.738 2.46865 78.0511 0Z" fill="#E9967B"/>
<path d="M91.7472 6.64929C92.7105 6.79477 92.3756 6.61029 93.0345 7.27378C92.9574 9.43212 85.8148 14.4762 83.5588 16.9592L82.645 16.9028C82.0002 16.2977 82.173 16.6633 82.134 15.7592C83.0083 13.9825 89.7619 8.5153 91.7472 6.64929Z" fill="#E9967B"/>
<path d="M0.124054 35.733C2.38335 35.7521 13.5598 37.9237 14.6561 39.5524L14.4029 40.5608C12.7798 40.3898 1.54831 38.0888 0.323688 37.4864C-0.151617 36.6531 0.00322333 36.8946 0.124054 35.733Z" fill="#E9967B"/>
<path d="M84.9149 78.7922C87.2746 79.2469 90.9706 86.2167 92.5071 88.1682C93.3665 89.2595 93.5946 89.7515 93.2852 91.0475C90.6819 90.8393 86.653 82.7646 84.9285 80.6361C84.4078 79.9934 84.6819 79.4483 84.9149 78.7922Z" fill="#E9967B"/>
<path d="M78.7425 84.6403L79.515 84.8825C80.0293 85.3837 80.2389 85.7205 80.6083 86.6327C81.8819 89.777 83.4743 93.1561 84.4157 96.4024C84.2601 96.8093 84.132 97.1445 84.0308 97.4086L83.2099 97.2471C81.7793 96.2326 77.9796 86.5187 78.7425 84.6403Z" fill="#E9967B"/>
<path d="M15.7989 46.6444C16.5449 46.6389 16.6223 46.7816 17.0141 47.3113L16.8416 47.9706C15.3385 49.2439 8.05356 50.8245 5.85592 51.2587L5.17905 51.1699C4.59536 50.4412 4.6913 50.8306 4.76126 49.9989C5.99473 48.7898 13.674 47.1716 15.7989 46.6444Z" fill="#E9967B"/>
<path d="M14.3117 66.5587C14.6015 66.6527 15.0278 66.8563 15.3206 66.9838C16.13 68.7516 16.9174 68.4726 17.8993 70.2694C17.8006 70.975 16.1349 72.1957 15.4473 73.9799L14.4743 73.5603C13.4119 71.714 12.7141 72.0107 11.6882 70.2667C11.8638 69.1385 13.4847 69.1908 14.2166 66.8674L14.3117 66.5587Z" fill="#E9967B"/>
<path d="M108.074 50.8455L109.065 51.1511C109.455 51.6215 111.723 54.3579 111.804 54.5858C111.6 54.7185 111.422 54.8386 111.224 54.9818L110.979 55.1622C109.952 55.9064 109.86 56.1614 109.397 57.3216L109.271 57.6419C108.891 57.5426 108.54 57.3866 108.172 57.2417C107.297 55.7006 105.797 54.8878 105.469 53.8216C107.048 52.8816 107.382 52.8301 107.972 51.1428L108.074 50.8455Z" fill="#E9967B"/>
<path d="M49.2133 3.28619C50.2361 3.48477 51.6764 4.68065 52.0795 5.63205C52.0187 7.39739 51.1704 7.96214 49.9601 9.39587C48.5348 8.5587 47.1973 7.19494 47.5244 5.49376C48.3667 4.63944 48.5873 4.2658 49.2133 3.28619Z" fill="#E9967B"/>
<path d="M75.7413 93.9448C76.0189 93.9996 76.1621 94.1965 76.4281 94.4197C76.9374 95.9156 76.2926 96.7036 74.9334 97.3203C73.9485 96.5991 73.3012 96.3194 73.404 95.0765C74.0909 94.2742 74.7041 94.2313 75.7413 93.9448Z" fill="#E9967B"/>
<path d="M99.2173 65.3194C99.811 64.9602 100.581 65.1201 100.983 65.6856C101.385 66.2512 101.283 67.0314 100.748 67.4742C100.366 67.7911 99.8378 67.8672 99.3813 67.6717C98.9245 67.4759 98.6157 67.0411 98.5811 66.5455C98.5465 66.0499 98.7921 65.5764 99.2173 65.3194Z" fill="#E9967B"/>
<path d="M62.8176 9.7217C63.4635 9.43019 64.2233 9.7181 64.5139 10.3647C64.8045 11.0111 64.5156 11.7708 63.8688 12.0604C63.2235 12.3496 62.4658 12.0612 62.1758 11.416C61.8857 10.771 62.173 10.0126 62.8176 9.7217Z" fill="#E9967B"/>
<path d="M17.973 56.47C18.6231 56.3967 19.2209 56.8348 19.347 57.477C19.4733 58.1192 19.0857 58.7509 18.4561 58.9293C18.0004 59.0582 17.5107 58.9202 17.1897 58.5717C16.8684 58.2235 16.7705 57.7243 16.9359 57.2801C17.1012 56.8362 17.5021 56.5231 17.973 56.47Z" fill="#E9967B"/>
<path d="M21.8324 74.442C22.4376 74.1458 23.1687 74.3795 23.4897 74.9719C23.8107 75.5643 23.6078 76.3047 23.0296 76.6502C22.6334 76.8869 22.1393 76.8874 21.7428 76.6515C21.346 76.4156 21.1104 75.9814 21.1292 75.5201C21.148 75.0588 21.4179 74.645 21.8324 74.442Z" fill="#E9967B"/>
<path d="M37.957 7.4928C38.4921 7.14598 39.2066 7.29117 39.5638 7.81969C39.9213 8.34794 39.7902 9.06536 39.269 9.4332C38.9226 9.67769 38.4713 9.71585 38.0887 9.53304C37.7063 9.34995 37.4524 8.97464 37.4251 8.55149C37.3977 8.12834 37.6012 7.72345 37.957 7.4928Z" fill="#E9967B"/>
</svg>
