<svg width="220" height="616" viewBox="0 0 220 616" fill="none" xmlns="http://www.w3.org/2000/svg">
<path d="M21.1128 616C20.5852 592.798 29.0952 570.324 44.7875 553.477C59.5202 537.652 79.169 527.482 100.417 524.69C109.715 523.559 117.464 524.056 126.679 521.312C192.08 501.829 184.391 407.735 116.681 399.327C105.898 397.985 95.3849 398.506 84.9719 394.92C48.6447 383.65 23.1794 350.031 21.4101 311.47C20.1877 284.822 28.8291 264.426 46.2393 244.871C61.0879 228.193 79.4829 220.25 101.161 217.536C110.427 216.376 116.497 216.843 126 214.196C153.137 206.813 171.725 181.42 170.907 152.851C170.344 135.674 164.232 120.842 151.83 108.878C142.054 99.4489 126.934 93.0467 113.492 91.9658C103.076 91.1285 95.6238 91.5465 85.0884 88.4142C64.8814 82.4065 44.379 66.7077 33.224 48.5467C25.0195 35.1891 20.8211 17.5171 20.0934 1.91541C20.0709 1.42849 20.1411 0.935095 20.2004 0.455538L20.5505 0.174454C21.0639 0.810293 21.0165 0.633599 21.1024 1.68146C21.7184 9.20878 22.3533 16.161 24.1558 23.5398C26.6181 34.0241 30.9837 43.9477 37.0285 52.8C50.3278 71.9457 75.7175 88.0472 98.5901 90.0163C104.567 90.5308 110.622 90.4693 116.58 91.3309C151.059 96.3193 175.028 125.477 171.595 160.996C169.882 177.605 161.701 192.823 148.875 203.246C139.144 211.121 127.411 216.017 115.048 217.363C109.549 218.004 104.098 218.017 98.4244 218.849C73.0815 222.566 53.9665 233.935 38.9863 255.133C30.1603 267.622 24.2578 281.48 22.6802 296.839C20.1302 321.296 27.2533 345.779 42.476 364.885C57.2031 383.391 78.6624 395.047 101.97 397.2C107.202 397.704 112.19 397.608 117.479 398.377C152.266 403.446 175.955 432.526 172.478 468.217C170.762 484.726 162.629 499.851 149.886 510.222C139.908 518.471 127.417 523.242 114.677 524.566C111.515 524.895 108.278 524.877 105.109 525.13C99.923 525.588 94.7779 526.43 89.7136 527.648C54.8813 536.376 26.5502 566.644 22.7647 603.354C22.3622 607.257 22.3207 612.357 21.6982 616H21.1128Z" fill="url(#paint0_linear_382_1295)"/>
<path d="M54.7502 616C54.8332 601.029 61.0048 585.488 71.5083 574.944C80.4449 566.056 91.9609 560.341 104.344 558.643C110.003 557.904 116.085 557.826 121.854 557.129C128.197 556.339 134.454 554.979 140.56 553.063C149.459 550.364 157.853 546.178 165.403 540.68C181.409 529.011 196.992 507.619 202.093 488.318C204.298 479.976 205.291 470.644 205.377 461.989C205.745 435.949 195.658 410.887 177.452 392.586C162.365 377.15 142.493 367.506 121.207 365.292C112.848 364.384 104.448 364.517 96.2943 362.327C71.9286 356.033 54.9008 333.673 54.993 308.095C54.9924 275.589 78.7942 252.741 110.098 251.079C113.874 250.879 117.71 250.549 121.465 250.069C128.063 249.22 134.567 247.736 140.889 245.637C167.158 236.892 189.558 213.793 199.079 187.685C211.561 153.458 201.631 110.753 176.299 85.128C160.616 69.2643 141.203 60.7165 119.441 58.0296C111.111 57.0003 104.516 57.8125 95.9664 55.4923C76.6962 50.2811 61.5612 35.1065 56.1564 15.5783C55.5072 13.3068 52.8727 1.81055 54.2614 0.176437C54.6316 0.653451 55.9584 10.7402 56.4483 12.7969C62.0773 36.4223 80.3068 53.345 104.155 56.0159C110.827 56.7635 116.871 56.5497 123.768 57.659C148.184 61.5839 168.237 72.8598 183.781 92.4748C200.143 113.49 207.683 140.234 204.752 166.88C201.921 193.086 188.064 214.903 168.349 231.584C154.655 243.173 135.492 249.673 117.902 251.527C111.529 252.103 105.491 251.999 99.1876 253.49C75.6768 259.048 59.0604 276.272 56.3461 300.908C52.8185 332.925 74.5466 360.527 106.185 363.102C112.712 363.633 119.236 363.763 125.689 364.918C149.749 368.706 169.606 380.821 185.005 399.954C202.197 421.319 208.104 445.054 205.822 472.291C203.534 499.585 189.282 521.378 169.152 538.846C155.402 550.78 136.031 556.674 118.288 558.534C111.695 559.174 106.197 558.993 99.4724 560.486C81.4581 564.367 66.5659 577.197 59.8373 594.635C58.0991 599.129 56.9128 603.825 56.3055 608.614C56.0752 610.366 55.7076 614.483 55.3543 616H54.7502Z" fill="url(#paint1_linear_382_1295)"/>
<path d="M14.4733 616C13.9676 613.047 14.6064 608.445 14.8657 605.378C16.2705 588.754 21.2745 573.744 30.7483 560.003C46.2007 537.848 69.6886 522.865 96.0209 518.368C102.847 517.15 109.38 517.31 116.112 516.489C131.081 514.674 146.432 506.398 155.221 493.722C163.547 481.716 166.594 465.339 164.051 450.932C161.484 436.601 153.475 423.87 141.755 415.498C124.966 403.724 109.2 406.978 90.6543 403.305C25.3073 390.366 -7.22222 309.422 30.6614 253.621C45.2862 231.609 66.5587 216.446 92.5155 211.965C100.537 210.58 108.293 210.291 116.325 209.248C166.505 202.726 181.178 137.974 140.64 108.359C123.902 96.1295 107.418 100.122 88.647 96.2598C53.416 88.5291 21.9367 57.4702 15.6755 20.9777C15.1023 17.6357 12.6023 2.57925 13.6063 0.301865L14.0293 0.306654C14.4084 1.26485 15.0409 10.0857 15.2324 11.7586C15.6545 15.4691 16.2678 19.1545 17.0702 22.7994C23.8566 53.0349 44.5508 78.0885 72.6557 90.0943C89.7025 97.493 101.134 96.3663 118.694 98.5803C137.143 100.907 153.964 115.271 160.963 132.875C166.506 146.858 166.414 162.501 160.705 176.416C155.073 190.084 144.23 200.84 130.66 206.219C118.178 211.248 108.31 210.684 95.4666 212.405C62.8755 216.771 35.8567 239.654 22.74 269.927C12.843 292.768 13.6184 320.961 22.7204 344.141C31.7913 367.771 49.8063 386.708 72.7239 396.706C83.3608 401.317 97.6281 404.312 109.226 404.541C132.305 405 153.042 417.471 161.84 439.752C167.504 454.105 167.3 470.168 161.271 484.367C155.277 498.584 145.03 507.357 131.357 513.398C118.966 518.872 107.403 517.328 94.8854 519.545C53.4498 526.879 18.8828 561.517 15.8626 605.055C15.7028 607.356 15.369 614.281 14.8554 616H14.4733Z" fill="url(#paint2_linear_382_1295)"/>
<path d="M34.8626 616C34.4841 613.307 34.8146 609.63 35.1065 606.916C36.6046 593.021 41.689 579.776 49.8437 568.523C62.428 551.368 79.4514 541.754 100.204 538.478C107.137 537.384 114.449 537.547 121.06 536.563C140.549 533.849 158.185 523.387 170.11 507.469C182.625 490.664 187.175 469.344 184.311 448.628C181.54 429.616 171.483 412.494 156.336 401.01C146.341 393.4 134.698 388.34 122.384 386.253C116.993 385.336 111.032 385.158 105.527 384.657C92.1961 383.448 80.7331 379.75 69.3857 372.461C62.0299 367.786 55.5461 361.824 50.2353 354.848C42.5895 344.621 37.3693 333.043 35.5594 320.276C32.434 299.174 37.7962 277.681 50.4347 260.65C62.621 244.149 80.8363 234.089 100.831 231.308C107.413 230.507 114.215 230.496 120.76 229.398C139.63 226.232 157.127 216.651 168.797 200.955C193.441 167.808 188.364 119.01 155.284 93.8386C146.468 87.1137 136.334 82.3992 125.565 80.0148C118.045 78.4187 110.786 78.1591 103.328 77.498C67.3479 74.3086 39.208 47.0739 34.3252 10.6062C33.9597 7.87639 33.446 3.38941 34.0071 0.751724C34.4016 1.07554 34.6821 3.64197 34.7126 4.18583C36.8969 43.2582 65.4728 73.4841 103.986 76.5655C111.45 77.1629 118.576 77.3324 125.909 79.0569C157.222 86.4212 181.442 112.117 184.786 144.942C187.127 166.035 180.992 187.196 167.766 203.615C154.928 219.52 135.735 228.972 115.724 231.034C109.731 231.651 104.193 231.68 98.1451 232.694C80.5301 235.516 64.5142 244.73 53.0586 258.635C40.335 274.41 34.2167 294.643 36.0242 314.968C38.0434 335.606 46.2906 352.682 62.0341 366.061C77.8697 379.518 94.4192 383.209 114.2 384.199C149.883 385.981 182.486 415.058 185.716 451.849C187.732 473.024 182.527 493.499 169.016 510.183C155.894 526.264 137.001 536.343 116.536 538.177C111.951 538.596 107.555 538.536 102.883 539.07C62.562 543.681 36.4727 575.363 35.4065 616H34.8626Z" fill="url(#paint3_linear_382_1295)"/>
<path d="M48.1078 616C47.868 614.245 48.157 611.853 48.3355 610.046C49.527 597.98 53.9742 586.402 61.1524 576.763C71.4123 563.107 86.5816 554.158 103.325 551.878C109.372 551.055 115.973 551.043 122.112 550.168C146.702 546.664 165.222 536.361 180.336 516.152C195.039 496.497 201.038 474.435 197.884 449.88C194.707 425.882 182.325 404.137 163.444 389.395C150.576 379.406 135.187 373.341 119.062 371.906C111.408 371.227 104.763 371.239 97.1956 369.484C71.8492 363.597 52.1257 343.134 48.62 316.603C46.3622 299.547 50.9397 282.284 61.3226 268.697C71.8939 254.797 87.7441 246.651 104.742 244.668C111.052 243.931 116.83 243.956 123.312 242.879C147.019 238.942 164.167 228.952 178.958 209.676C194.867 188.944 199.956 168.372 196.903 142.355C194.102 118.469 182.358 98.193 163.936 83.3375C153.164 74.6224 140.454 68.7292 126.922 66.1747C117.737 64.4536 111.467 64.7971 102.676 63.7174C85.687 61.6376 70.2791 52.566 60.0412 38.617C52.8273 28.8024 48.3497 16.5743 47.2841 4.35392C47.1741 3.09211 46.926 1.35892 47.4572 0.236572L47.8256 0.495556C48.3749 5.2422 48.7048 9.29316 49.7983 14.0401C52.9251 27.6175 60.6319 40.8117 71.4449 49.4747C81.0531 57.2268 92.6955 61.9229 104.914 62.9751C115.22 63.9185 120.467 63.4004 131.312 66.0888C166.82 75.205 193.251 105.459 197.991 142.404C201.047 168.136 195.418 189.682 179.59 210.243C164.816 230.235 143.199 241.794 118.922 244.5C113.593 245.095 108.073 245.221 102.649 245.908C69.1067 250.157 45.4 280.872 49.4971 315.312C51.2969 331.689 59.5391 346.623 72.3436 356.712C82.1994 364.484 95.5594 369.264 107.955 370.136C115.937 370.697 122.654 370.793 130.447 372.654C192.86 387.549 221.289 464.742 180.992 516.652C164.97 537.29 147.2 547.728 121.445 551.236C115.561 552.05 109.594 552.038 103.935 552.786C87.3211 554.988 72.2164 563.303 62.0159 576.953C52.8362 589.237 49.8774 601.011 48.7039 616H48.1078Z" fill="url(#paint4_linear_382_1295)"/>
<path d="M7.88311 616C7.21114 613.548 7.8342 608.904 8.0491 606.274C9.29286 591.049 13.3339 577.297 20.7158 563.963C34.4564 539.332 57.321 521.324 84.2023 513.965C89.8558 512.364 95.6412 511.287 101.487 510.756C113.93 509.661 120.122 510.183 131.922 504.667C166.579 488.468 166.532 437.729 134.398 418.951C121.361 411.324 108.93 413.158 94.6918 410.92C54.1339 403.691 23.0018 376.852 11.6242 336.294C4.04395 309.561 7.38958 280.846 20.9031 256.658C37.0634 227.192 66.8768 206.914 99.8272 203.914C105.586 203.268 111.579 203.213 117.277 202.154C131.101 199.584 144.384 191.445 151.329 178.683C164.001 155.4 155.867 124.8 133.052 111.567C119.523 103.721 105.21 106.338 90.6102 103.561C54.9799 96.9692 22.2939 68.4234 11.7579 32.9754C9.71556 26.1042 5.43532 6.93611 7.18032 0.443344C7.49808 0.811432 7.78471 6.15649 7.87126 7.07994C8.41755 13.4008 9.40076 19.6747 10.8138 25.855C21.4162 69.5803 58.7032 101.232 102.883 104.007C120.988 105.211 132.518 106.209 145.578 120.962C163.633 141.359 162.619 172.895 142.184 191.231C124.331 207.25 104.753 202.21 83.6453 207.879C42.39 219.193 12.5318 255.606 8.98607 298.93C6.78756 326.414 15.2464 353.681 32.5534 374.898C49.7203 395.687 76.7815 409.174 103.41 411.013C121.643 412.274 134.063 413.471 147.09 428.533C164.555 448.722 163.227 481.197 142.709 498.644C130.63 508.916 116.417 511.522 101.145 511.676C97.3527 511.751 90.0977 513.404 86.1607 514.39C44.076 524.825 13.1205 561.261 9.05869 605.14C8.90041 606.717 8.5708 614.957 8.19494 616H7.88311Z" fill="url(#paint5_linear_382_1295)"/>
<path d="M1.25129 616C0.60362 612.782 1.22313 607.239 1.53348 603.891C3.19222 585.998 8.78883 569.142 18.5536 554.086C34.5597 528.948 59.9311 511.525 88.8286 505.822C105.382 502.384 120.229 505.496 134.709 494.92C148.397 484.919 154.083 470.011 150.739 453.224C148.513 441.954 141.992 432.034 132.604 425.638C123.792 419.745 115.614 419.476 105.557 419.033C101.676 418.864 94.4916 417.92 90.6489 417.193C47.198 409.135 12.7967 375.239 3.48744 331.312C-2.77166 302.531 2.52974 272.397 18.2128 247.612C33.8768 222.611 58.7952 205.101 87.3219 199.05C90.7947 198.302 96.6937 197.237 100.142 196.979C113.548 195.979 123.214 196.01 134.573 187.249C138.429 184.32 141.761 180.737 144.419 176.655C150.211 167.57 152.111 156.025 149.874 145.469C147.443 134.418 140.803 124.8 131.413 118.722C121.486 112.292 114.114 112.49 102.892 111.92C53.8223 109.425 12.9816 72.4497 2.74849 23.9158C1.89422 19.8628 -1.03703 3.24122 0.381617 0.314423L0.747088 0.336493C1.09982 2.62157 0.932061 5.08573 1.17275 7.54208C1.72705 12.9226 2.56115 18.2696 3.67122 23.5604C9.29006 50.4461 24.3927 74.3063 46.1259 90.6327C57.9917 99.3593 71.5198 105.466 85.8417 108.56C107.605 113.25 125.618 106.93 142.066 127.19C146.755 132.966 150.143 140.325 151.284 147.8C152.986 158.898 150.229 170.227 143.631 179.232C136.677 188.803 124.954 195.464 113.486 196.823C105.974 197.713 99.8636 197.683 92.1111 199.014C64.2603 203.796 40.4282 218.406 23.4003 241.489C6.071 264.935 -1.24334 294.495 3.10982 323.494C7.09956 352.345 22.153 378.417 44.9799 396.009C57.649 405.576 72.2036 412.238 87.6433 415.54C92.9289 416.689 98.2828 417.486 103.671 417.923C109.081 418.336 115.306 418.303 120.549 419.533C138.304 423.698 149.796 439.243 152.352 456.961C153.768 467.324 151.053 477.837 144.811 486.155C136.686 497.145 124.035 503.394 110.679 504.212C104.315 504.601 98.1773 505.026 91.8749 506.112C64.8335 510.639 40.5239 525.534 23.9454 547.734C11.6952 563.951 4.90639 582.249 2.57924 602.464C2.00745 607.435 2.13136 611.452 1.74394 616H1.25129Z" fill="url(#paint6_linear_382_1295)"/>
<path d="M40.4918 0C41.4834 0.948081 41.6656 6.31772 41.9007 8.04914C42.6314 13.4334 43.643 18.7787 45.343 23.9404C48.2472 32.6042 52.8535 40.5761 58.8808 47.3719C69.8111 59.3343 84.4701 67.0834 100.374 69.3065C104.623 69.9386 107.975 70.0258 112.241 70.2106C134.727 71.1851 155.168 80.8897 170.303 97.9104C185.361 114.969 193.141 137.416 191.932 160.312C191.016 176.675 185.565 189.589 176.527 202.876C162.163 223.998 143.184 234.342 118.403 237.684C113.166 238.39 107.469 238.364 101.998 239.072C88.5244 240.816 75.1211 246.739 64.9722 255.973C51.2301 268.45 43.0499 286.065 42.3023 304.789C40.4658 341.71 67.5412 372.22 103.185 376.466C107.392 376.967 111.091 377.136 115.306 377.347C136.588 378.399 156.561 388.114 170.735 404.3C185.719 421.171 194.111 444.146 192.999 466.874C191.173 504.151 163.77 533.846 129 542.84C120.505 545.035 115.232 544.945 106.695 545.587C91.3943 546.736 76.5368 552.506 65.0083 562.977C49.6434 576.935 43.1089 594.867 42.1049 615.424L41.9624 615.539L41.534 615.43C41.1739 614.139 41.438 611.365 41.5548 609.977C44.1535 579.103 64.347 554.101 94.1 546.667C102.154 544.348 110.415 544.646 118.658 543.711C157.171 539.338 189.057 508.033 191.846 468.443C193.242 445.763 185.864 423.427 171.287 406.209C155.595 387.963 135.684 378.912 112.176 378.33C91.4666 377.817 71.3374 369.065 57.5642 352.972C45.8486 339.102 40.0695 321.042 41.5139 302.814C42.3797 289.099 47.2489 275.959 55.4976 265.077C66.603 250.426 82.9986 240.895 100.882 238.242C106.482 237.412 112.632 237.318 118.35 236.647C133.965 234.812 150.41 228.941 162.175 218.126C177.903 203.672 190.077 182.182 191.016 160.411C191.997 137.721 184.711 115.805 169.986 98.8785C157.616 84.6186 140.744 75.1954 122.278 72.2322C117.47 71.4668 112.671 71.2382 107.783 71.0741C83.7886 70.2692 60.2135 56.2062 48.8795 34.503C44.0595 25.2734 39.8024 10.6768 40.4918 0Z" fill="url(#paint7_linear_382_1295)"/>
<path d="M27.217 0.0211945C28.3632 0.987612 28.0048 5.12511 28.1759 6.93512C28.6134 11.4577 29.3858 15.9403 30.4867 20.3445C33.7144 33.266 39.8277 45.2558 48.3514 55.3815C61.6228 70.9065 78.4197 80.5934 98.533 83.1217C102.729 83.6772 106.967 83.6295 111.194 83.9025C151.406 86.4995 181.747 119.114 178.353 160.657C177.242 173.315 172.724 185.417 165.302 195.636C152.209 213.646 132.643 223.316 110.981 224.578C106.896 224.816 102.23 225.044 98.2149 225.778C82.8164 228.45 68.4166 235.316 56.5449 245.645C41.053 259.013 30.5833 278.816 29.0491 299.51C27.3815 322.49 34.7314 345.209 49.489 362.689C61.6838 377.238 78.6056 386.856 97.178 389.79C103.316 390.734 107.128 390.58 113.115 391.015C132.222 392.396 151.009 401.308 163.47 416.318C175.22 430.388 180.935 448.664 179.337 467.055C176.702 498.086 155.236 522.657 125.579 529.705C118.889 531.403 112.359 531.539 105.479 531.928C67.9394 534.045 38.3921 561.258 30.2149 598.118C28.935 603.888 29.0343 609.666 28.5621 615.565C28.2793 615.638 28.4752 615.611 27.9731 615.487C27.5916 614.386 28.0739 607.226 28.2434 605.435C29.6221 590.847 34.9783 578.319 43.1078 566.508C57.7196 545.282 76.9145 534.543 102.025 531.267C107.213 530.589 112.712 530.706 117.855 530.115C131.588 528.565 144.553 522.868 155.076 513.757C169.514 501.265 177.087 484.448 178.472 465.384C179.61 447.545 173.845 429.959 162.403 416.391C151.225 403.226 134.979 394.775 118.136 392.604C113.278 391.98 108.174 391.832 103.268 391.464C81.8815 389.763 62.0677 379.373 48.295 362.635C33.4915 344.883 26.2566 321.856 28.1937 298.658C30.8563 264.059 58.0237 235.126 90.3288 226.606C100.666 223.879 106.381 224.106 116.844 223.001C130.79 221.441 143.942 215.615 154.569 206.29C182.805 181.367 185.612 136.435 160.426 108.114C144.597 90.314 124.299 84.8685 101.673 84.445C82.6077 84.0882 60.7815 71.4292 48.603 56.9847C36.0507 42.53 25.9192 19.7097 27.217 0.0211945Z" fill="url(#paint8_linear_382_1295)"/>
<path d="M60.8146 0.00302124C60.9222 0.0859653 61.411 0.614368 61.4137 0.637051C61.8198 4.32377 62.3536 8.67172 63.2485 12.1865C64.9179 19.0047 67.981 25.3884 72.2379 30.9211C82.3803 43.8483 95.8432 49.049 111.696 49.6341C142.146 50.7587 170.795 64.5376 189.902 88.909C206.892 110.867 214.709 138.746 211.662 166.52C206.845 210.411 174.435 245.552 132.661 255.84C112.665 260.764 97.3297 255.883 80.0683 270.033C70.3177 277.906 64.1146 289.46 62.8726 302.063C60.0419 329.403 78.7092 353.768 105.818 356.166C114.029 356.89 121.225 357.14 129.386 358.714C152.601 363.193 174.811 375.95 189.727 394.649C207.467 416.723 215.729 445.133 212.643 473.47C208.152 515.277 176.723 551.903 136.449 562.259C130.204 563.834 123.846 564.91 117.437 565.486C103.049 566.85 92.9863 566.705 80.903 576.742C67.893 587.548 63.9317 599.235 62.2753 615.635C61.9697 615.475 62.1784 615.605 61.7637 615.098C61.5675 613.039 61.7827 611.129 62.0634 609.088C64.8272 587.515 80.8543 570.164 101.846 566.02C111.055 564.19 121.128 564.841 131.194 562.531C146.96 558.909 157.931 554.409 171.032 544.601C191.98 528.927 207.906 502.683 211.312 476.278C215.103 448.393 207.82 420.122 191.079 397.713C174.903 376.382 151.86 363.386 125.888 359.076C118.475 357.846 111.346 357.936 104.196 356.977C91.1248 355.3 79.2736 348.325 71.3332 337.627C63.5212 326.896 60.2277 313.442 62.1796 300.234C65.2902 278.292 81.4312 263.072 102.48 258.884C107.341 257.917 111.888 257.868 116.809 257.451C121.741 257.036 126.638 256.276 131.467 255.176C145.431 252.024 158.592 245.921 170.092 237.265C191.817 221.147 206.294 196.852 210.298 169.801C214.27 141.663 206.967 113.081 190.032 90.4715C174.551 69.6834 151.113 56.486 125.995 52.1156C118.626 50.8821 111.616 51.0494 104.17 50.0512C85.6554 47.5685 69.9353 34.8482 63.6166 16.9321C62.0391 12.4586 60.1228 4.81878 60.8146 0.00302124Z" fill="url(#paint9_linear_382_1295)"/>
<path d="M67.4009 0.0020752C68.2625 0.606364 69.4953 9.69783 70.1374 11.9604C71.7095 17.713 74.4704 23.0581 78.2354 27.6383C85.1392 35.8452 94.827 41.1064 105.37 42.3756C108.701 42.7902 113.044 42.8346 116.544 43.1081C146.26 45.4289 173.415 58.5783 192.762 81.9192C211.827 104.819 221.12 134.512 218.582 164.412C214.216 211.495 181.098 250.638 135.986 262.034C126.554 264.498 118.519 265.287 108.912 265.87C88.9022 267.354 70.8307 282.487 69.418 303.52C68.098 323.169 79.6363 342.784 98.7263 348.128C104.886 349.854 111.742 349.658 118.124 350.197C147.164 352.649 174.734 366.007 193.63 388.792C212.947 412.163 222.216 442.458 219.35 472.855C214.729 519.469 181.723 558.055 136.982 569.142C130.897 570.637 124.714 571.687 118.48 572.278C115.311 572.58 111.944 572.655 108.769 572.89C92.1903 574.124 77.7487 584.375 72.0012 600.438C70.1691 605.556 69.554 610.17 69.086 615.614C68.2362 614.99 68.2362 614.332 68.3073 613.292C69.7348 592.449 84.7634 575.394 105.183 572.366C110.675 571.548 116.39 571.473 121.942 570.882C127.728 570.233 133.461 569.16 139.099 567.673C156.134 563.179 171.784 554.397 184.61 542.134C206.492 521.43 217.96 494.338 218.914 464.115C220.328 414.69 189.083 370.407 142.608 355.958C130.731 352.152 118.637 351.039 106.271 350.402C96.1436 349.884 86.9681 344.88 80.1073 337.383C72.193 328.639 67.9786 317.082 68.3749 305.203C69.2386 282.305 88.1472 266.29 109.694 264.855C113.026 264.633 116.441 264.363 119.763 264.053C126.237 263.386 132.64 262.157 138.906 260.38C155.754 255.501 171.212 246.602 184 234.422C204.959 214.619 217.245 187.098 218.114 158.01C219.753 108.57 188.861 64.0586 142.522 49.0857C135.66 46.9073 128.611 45.3918 121.471 44.5594C116.011 43.9707 110.269 43.9547 104.848 43.2396C94.9423 41.9147 85.7967 37.129 78.9756 29.7014C71.9413 22.0154 67.057 10.57 67.4009 0.0020752Z" fill="url(#paint10_linear_382_1295)"/>
<defs>
<linearGradient id="paint0_linear_382_1295" x1="73.6632" y1="-40.8139" x2="24.1707" y2="617.079" gradientUnits="userSpaceOnUse">
<stop stop-color="#FFC19A" stop-opacity="0"/>
<stop offset="0.5" stop-color="#FFC19A"/>
<stop offset="1" stop-color="#FFC19A" stop-opacity="0"/>
</linearGradient>
<linearGradient id="paint1_linear_382_1295" x1="107.332" y1="-40.8118" x2="57.7438" y2="617.064" gradientUnits="userSpaceOnUse">
<stop stop-color="#FFC19A" stop-opacity="0"/>
<stop offset="0.5" stop-color="#FFC19A"/>
<stop offset="1" stop-color="#FFC19A" stop-opacity="0"/>
</linearGradient>
<linearGradient id="paint2_linear_382_1295" x1="66.8914" y1="-40.678" x2="17.3702" y2="617.073" gradientUnits="userSpaceOnUse">
<stop stop-color="#FFC19A" stop-opacity="0"/>
<stop offset="0.5" stop-color="#FFC19A"/>
<stop offset="1" stop-color="#FFC19A" stop-opacity="0"/>
</linearGradient>
<linearGradient id="paint3_linear_382_1295" x1="87.2098" y1="-40.1982" x2="37.6972" y2="617.068" gradientUnits="userSpaceOnUse">
<stop stop-color="#FFC19A" stop-opacity="0"/>
<stop offset="0.5" stop-color="#FFC19A"/>
<stop offset="1" stop-color="#FFC19A" stop-opacity="0"/>
</linearGradient>
<linearGradient id="paint4_linear_382_1295" x1="100.65" y1="-40.7477" x2="51.1178" y2="617.072" gradientUnits="userSpaceOnUse">
<stop stop-color="#FFC19A" stop-opacity="0"/>
<stop offset="0.5" stop-color="#FFC19A"/>
<stop offset="1" stop-color="#FFC19A" stop-opacity="0"/>
</linearGradient>
<linearGradient id="paint5_linear_382_1295" x1="60.249" y1="-40.5271" x2="10.7111" y2="617.068" gradientUnits="userSpaceOnUse">
<stop stop-color="#FFC19A" stop-opacity="0"/>
<stop offset="0.5" stop-color="#FFC19A"/>
<stop offset="1" stop-color="#FFC19A" stop-opacity="0"/>
</linearGradient>
<linearGradient id="paint6_linear_382_1295" x1="53.5712" y1="-40.6646" x2="4.09841" y2="617.08" gradientUnits="userSpaceOnUse">
<stop stop-color="#FFC19A" stop-opacity="0"/>
<stop offset="0.5" stop-color="#FFC19A"/>
<stop offset="1" stop-color="#FFC19A" stop-opacity="0"/>
</linearGradient>
<linearGradient id="paint7_linear_382_1295" x1="93.9754" y1="-40.9693" x2="44.5133" y2="616.618" gradientUnits="userSpaceOnUse">
<stop stop-color="#FFC19A" stop-opacity="0"/>
<stop offset="0.5" stop-color="#FFC19A"/>
<stop offset="1" stop-color="#FFC19A" stop-opacity="0"/>
</linearGradient>
<linearGradient id="paint8_linear_382_1295" x1="80.5977" y1="-40.9511" x2="31.0696" y2="616.675" gradientUnits="userSpaceOnUse">
<stop stop-color="#FFC19A" stop-opacity="0"/>
<stop offset="0.5" stop-color="#FFC19A"/>
<stop offset="1" stop-color="#FFC19A" stop-opacity="0"/>
</linearGradient>
<linearGradient id="paint9_linear_382_1295" x1="114.201" y1="-40.9725" x2="64.7015" y2="616.71" gradientUnits="userSpaceOnUse">
<stop stop-color="#FFC19A" stop-opacity="0"/>
<stop offset="0.5" stop-color="#FFC19A"/>
<stop offset="1" stop-color="#FFC19A" stop-opacity="0"/>
</linearGradient>
<linearGradient id="paint10_linear_382_1295" x1="120.87" y1="-40.9721" x2="71.3318" y2="616.683" gradientUnits="userSpaceOnUse">
<stop stop-color="#FFC19A" stop-opacity="0"/>
<stop offset="0.5" stop-color="#FFC19A"/>
<stop offset="1" stop-color="#FFC19A" stop-opacity="0"/>
</linearGradient>
</defs>
</svg>
