<svg width="1528" height="1113" viewBox="0 0 1528 1113" fill="none" xmlns="http://www.w3.org/2000/svg">
<path d="M410.981 187.071C383 154.24 338.036 132.38 295.216 128.985C246.038 125.088 200.147 140.708 162.855 172.759C127.77 202.835 106.191 245.71 102.931 291.808C102.377 299.404 102.799 307.063 101.938 314.587C101.853 315.336 100.719 316.879 100.127 317.363C96.2417 320.538 92.3446 318.409 89.4456 315.513C89.1827 283.031 90.9549 249.892 91.4427 217.341C91.9725 182.132 94.8118 148.991 79.3043 115.866C77.4271 118.167 77.2604 115.702 77.1892 117.444L76.5554 117.965C89.5143 156.173 88.5896 174.741 87.6936 214.289L86.2246 280.538C86.0128 290.685 85.4383 302.218 85.5656 312.229C85.7279 325.105 105.791 327.869 105.541 309.469C104.871 259.897 125.265 212.603 161.436 178.684C194.958 147.301 239.623 130.614 285.504 132.33C334.656 133.975 375.668 154.101 409.11 189.817C410.243 187.74 408.538 189.413 409.436 187.427C409.978 187.362 410.46 187.227 410.981 187.071Z" fill="#D1F1F5"/>
<path d="M79.3038 115.867C78.2494 113.514 77.1313 111.163 76.1134 108.797C57.8826 66.4206 20.8778 31.8959 -22.4285 15.4042C-36.8502 9.90125 -51.9482 6.39439 -67.3161 4.98374C-79.4828 3.75003 -93.2196 4.09268 -105.572 3.85369L-167.63 2.45229L-242.726 0.796355C-245.881 0.756675 -262.367 0.197007 -264.403 0.691201L-264.456 3.02386C-250.401 4.49557 -228.139 4.4051 -213.446 4.73344L-125.718 6.73458C-86.5571 7.59908 -51.8705 6.17369 -15.2087 22.7691C26.9313 41.8452 59.2383 75.1147 76.5549 117.966L77.1887 117.444C77.2599 115.702 77.4266 118.167 79.3038 115.867Z" fill="#D1F1F5"/>
<path d="M434.452 219.203C431.184 212.631 416.306 189.635 410.981 187.072C410.46 187.228 409.978 187.362 409.436 187.427C408.538 189.414 410.243 187.741 409.11 189.817C412.404 194.446 416.722 199.407 420.232 204.304C422.92 208.056 428.647 217.246 431.262 220.138C432.074 219.688 433.485 219.435 434.452 219.203Z" fill="#D1F1F5"/>
<path d="M165.546 475.222C163.347 474.496 163.861 473.83 162.43 473.269C118.245 490.966 68.8197 490.253 25.1608 471.289C11.841 465.444 -10.4916 451.417 -20.9011 441.157C-22.5201 441.08 -23.9652 440.942 -25.534 441.448C-15.9193 449.917 -6.56603 458.102 4.54132 464.611C55.1316 494.253 111.611 497.619 165.546 475.222Z" fill="#D1F1F5"/>
<path d="M165.546 475.222C167.727 474.746 176.018 470.87 178.237 469.723C201.287 457.82 223.089 438.26 238.38 417.41C238.029 416.768 237.313 415.37 236.945 414.82C220.684 435.875 205.174 449.917 182.089 463.033C177.499 465.642 165.833 470.942 162.43 473.269C163.861 473.83 163.347 474.496 165.546 475.222Z" fill="#D1F1F5"/>
<path d="M238.38 417.41C249.347 402.102 254.552 393.574 261.287 376.289L260.66 375.762C258.807 379.878 257.159 383.487 254.705 387.305C253.235 389.592 253.956 390.253 251.296 391.298C250.142 393.014 249.04 395.06 248.084 396.914C244.806 403.272 241.072 408.979 236.945 414.82C237.313 415.37 238.029 416.768 238.38 417.41Z" fill="#D1F1F5"/>
<path d="M651.399 618.752L651.495 614.55L646.784 614.466L525.564 611.745L478.084 610.675C468.225 610.464 457.734 610.536 448.071 609.822C402.168 606.431 361.206 585.283 330.525 551.197C329.79 550.381 327.727 548.05 326.905 547.537L326.062 547.772C323.627 545.129 318.987 538.119 317.015 536.879L316.858 537.146C317.432 538.238 318.513 539.985 318.575 541.122L318.401 541.418C320.32 545.281 331.081 557.447 334.331 560.977C347.504 575.283 361.713 584.581 378.548 593.512C413.098 611.843 435.434 613.701 472.925 614.551L517.649 615.564L595.306 617.31C610.037 617.633 625.193 617.745 639.868 618.373C643.36 618.252 647.839 618.585 651.399 618.752Z" fill="#D1F1F5"/>
<path d="M651.717 604.745L651.815 600.408C635.869 600.718 618.847 600.007 602.803 599.647L526.962 597.932L481.63 596.941C465.364 596.584 448.322 596.576 432.413 592.915C404.207 586.423 375.417 572.955 354.426 552.684C349.768 548.187 345.84 543.978 341.605 539.134C340.538 537.914 336.031 532.675 335.115 531.892C334.212 533.728 334.726 533.068 332.914 534.345C334.192 536.456 337.052 540.045 338.72 541.925C370.733 578.005 408.798 595.827 456.392 600.154C466.622 600.06 478.408 600.601 488.749 600.845L548.296 602.211C581.654 602.959 618.632 602.974 651.717 604.745Z" fill="#D1F1F5"/>
<path d="M310.744 524.674C285.682 474.805 286.536 455.1 287.777 400.199L289.102 342.524C289.251 336.234 290.439 306.333 289.496 302.334C287.922 303.198 288.316 303.28 286.768 303.229C286.345 306.618 286.389 319.122 286.307 322.971L285.401 364.99L284.338 410.375C283.805 432.358 282.637 451.443 287.601 473.153C292.002 492.403 297.108 508.784 307.85 525.535C308.331 524.854 308.562 524.664 309.165 524.079L310.744 524.674Z" fill="#D1F1F5"/>
<path d="M275.944 300.156L275.76 299.711C277.112 297.909 279.398 298.856 281.162 297.045C279.051 296.63 278.495 297.544 276.594 297.502L277.377 296.203C275.184 297.128 271.993 299.101 271.343 301.396C269.292 308.639 270.103 317.766 269.429 325.206C267.806 343.11 263.949 360.56 257.724 377.408C256.009 382.049 253.267 386.712 251.295 391.298C253.955 390.253 253.234 389.592 254.705 387.305C257.158 383.487 258.806 379.879 260.66 375.762L261.286 376.29C261.958 375.217 263.537 371.079 264.04 369.73C269.679 354.621 272.325 338.475 273.143 322.409C273.454 316.289 273.13 309.871 273.875 303.818C274.049 302.406 275.043 301.241 275.944 300.156Z" fill="#D1F1F5"/>
<path d="M325.329 518.017C324.082 515.45 318.105 503.383 316.651 501.504C315.778 502.684 315.552 503.105 313.837 503.431C316.529 509.759 318.702 513.251 322.373 519.008C322.431 518.337 322.591 517.751 322.736 517.093L323.344 516.827L325.329 518.017Z" fill="#D1F1F5"/>
<path d="M318.401 541.418L318.575 541.122C318.513 539.985 317.432 538.238 316.858 537.146L317.015 536.879C318.987 538.119 323.627 545.129 326.062 547.772L326.905 547.537C321.133 540.3 315.24 532.804 310.743 524.674L309.165 524.08C308.562 524.664 308.331 524.854 307.85 525.535C311.394 531.475 314.3 535.87 318.401 541.418Z" fill="#D1F1F5"/>
<path d="M289.495 302.333C286.193 297.139 283.573 295.698 277.377 296.203L276.594 297.502C278.495 297.543 279.052 296.629 281.162 297.044C279.398 298.855 277.112 297.908 275.76 299.711L275.944 300.156C281.047 298.446 283.543 298.343 286.767 303.228C288.315 303.279 287.922 303.198 289.495 302.333Z" fill="#D1F1F5"/>
<path d="M331.468 527.3C329.877 525.039 326.818 519.742 325.329 518.017L323.344 516.827L322.736 517.093C322.591 517.751 322.431 518.337 322.374 519.008L329.043 528.562C329.952 528.165 330.613 527.782 331.468 527.3Z" fill="#D1F1F5"/>
<path d="M332.914 534.346C334.727 533.069 334.212 533.729 335.115 531.892L331.468 527.301C330.613 527.782 329.952 528.165 329.043 528.562L332.914 534.346Z" fill="#D1F1F5"/>
<path d="M309.07 281.381C286.007 255.089 244.745 269.074 242.141 303.988C241.753 312.922 241.895 321.776 240.684 330.659C235.848 366.128 218.382 400.307 190.48 423.087C184.819 427.712 179.183 432.572 172.922 436.399C146.644 452.455 116.782 459.52 86.1189 457.712C47.248 455.057 11.0025 437.117 -14.6796 407.813C-34.7056 385.159 -47.2412 354.725 -50.2738 324.658C-51.2045 315.44 -50.8079 304.944 -50.6641 295.589C-50.4393 281.662 -50.1374 267.735 -49.7675 253.811C-49.3985 238.728 -48.381 224.874 -51.3479 210.146C-58.481 174.701 -93.2379 144.164 -129.589 142.895C-173.865 141.352 -218.92 141.13 -263.263 139.753C-264.361 139.719 -266.051 139.754 -266.959 140.36C-267.069 142.01 -267.291 141.574 -266.507 142.654C-260.058 143.549 -240.438 143.472 -233.232 143.63L-166.169 145.154C-153.65 145.438 -140.346 145.167 -127.927 146.506C-90.8686 150.602 -61.6054 178.149 -53.9205 214.482C-50.8694 228.904 -52.9938 244.317 -52.9205 258.917C-52.8172 279.006 -55.0201 300.092 -53.77 320.063C-51.4428 358.819 -34.2928 395.194 -5.87194 421.644C16.2315 442.78 44.4485 456.383 74.7509 460.505C164.885 473.338 245.64 402.573 245.482 313.34C245.458 299.503 246.933 288.132 258.738 279.11C266.145 273.409 275.526 270.913 284.786 272.179C293.861 273.437 299.328 277.141 305.956 283.059C306.628 281.125 307.441 281.39 309.07 281.381Z" fill="#D1F1F5"/>
<path d="M-68.139 320.461C-67.5189 322.348 -67.0998 331.1 -66.8033 333.647C-63.7694 359.446 -51.2309 388.153 -36.0024 409.145C-14.6722 438.359 15.8283 459.587 50.6316 469.443C91.3627 480.767 137.887 476.639 174.838 455.646C201.183 440.657 223.149 419.033 238.548 392.923C240.986 388.717 245.098 381.153 246.371 376.504C244.348 373.143 244.667 376.469 243.907 373.25C238.586 384.324 232.332 396.885 225.134 406.673C179.809 468.301 95.0939 490.417 26.2321 455.865C-10.34 437.514 -39.2101 407.249 -54.0692 368.751C-68.627 331.181 -64.0401 294.042 -63.536 254.955C-63.3956 244.153 -62.3366 232.077 -64.2245 221.421C-68.8187 196.557 -84.8955 175.333 -107.579 164.176C-124.874 155.834 -134.857 156.207 -153.555 155.72L-192.018 154.88L-239.16 153.812C-247.963 153.59 -259.228 153.013 -267.861 153.312L-267.879 154.12C-267.515 154.7 -267.588 154.49 -267.427 155.029C-267.068 156.218 -266.938 156.888 -265.584 157.032C-254.678 158.215 -243.121 157.677 -232.135 157.926L-164.518 159.449C-149.775 159.788 -134.406 159.169 -120.066 163.062C-110.135 165.757 -100.38 171.445 -92.6278 178.164C-81.0864 188.16 -68.9729 206.97 -67.8462 222.568C-65.0166 233.337 -66.8967 252.397 -67.163 263.951C-67.5944 282.792 -68.2749 301.612 -68.139 320.461Z" fill="#D1F1F5"/>
<path d="M361.562 518.771C362.58 517.19 358.579 515.417 358.739 512.725C359.914 513.029 361.323 514.756 362.167 515.671L362.974 515.393C345.827 494.345 334.726 469.029 330.859 442.157C328.648 426.49 329.431 408.792 329.809 392.861L331.264 333.653C331.563 318.961 333.189 302.436 328.783 288.392C323.202 270.089 303.845 255.793 285.11 254.084C257.115 251.531 229.15 273.073 228.304 302.009C227.857 317.311 227.286 330.57 223.951 345.736L225.162 344.377C225.87 346.285 222.189 351.29 223.536 353.561C224.693 352.015 224.995 347.535 226.465 345.201L227.019 346.028C227.691 344.323 229.023 338.488 229.423 336.551C234.411 311.603 226.037 289.818 247.687 270.153C269.408 250.424 303.185 254.5 319.702 278.608C328.445 291.366 329.338 300.444 328.637 315.489C328.316 322.369 328.283 329.769 328.109 336.652L326.828 393.472C326.523 408.039 325.573 422.513 326.913 437.036C329.034 460.035 336.112 482.587 349.262 501.715C353.238 507.497 356.795 513.599 361.562 518.771Z" fill="#D1F1F5"/>
<path d="M316.651 501.505C299.192 464.166 301.172 434.097 302.06 394.79L303.363 337.362C303.576 328.43 305.357 308.267 303.554 300.281C298.476 277.788 265.079 274.632 257.741 298.091C254.746 306.891 256.287 316.909 255.236 326.058C253.852 341.847 250.478 358.825 243.907 373.25C244.667 376.469 244.348 373.143 246.371 376.504C253.054 362.512 257.503 341.271 258.926 325.867C260.264 311.369 255.276 294.709 271.823 287.36C282.823 282.474 297.538 288.457 299.704 300.613C301.497 310.672 300.259 323.854 300.056 334.236L298.5 402.505C297.525 444.865 296.631 463.503 313.837 503.431C315.552 503.106 315.778 502.685 316.651 501.505Z" fill="#D1F1F5"/>
<path d="M652.346 576.994L652.442 572.762C639.371 572.893 625.63 572.362 612.504 572.065L544.492 570.504L496.515 569.431C476.948 568.988 459.689 569.404 440.599 564.416C412.72 557.132 392.356 545.342 371.963 525.077C368.799 521.933 366.048 518.592 362.974 515.394L362.168 515.671C361.324 514.756 359.915 513.029 358.739 512.725C358.579 515.417 362.58 517.19 361.563 518.771C373.714 538.844 414.438 561.484 436.496 567.337C463.262 574.439 495.919 573.244 523.804 573.874L602.481 575.67C618.918 576.037 635.968 576.204 652.346 576.994Z" fill="#D1F1F5"/>
<path d="M387.402 562.094C388.136 560.703 387.168 561.371 386.426 559.762C387.385 558.622 386.867 560.398 389.32 559.463C357.12 540.669 329.9 503.455 320.608 467.355C313.826 441.01 315.507 418.68 316.1 391.853L317.359 336.013C317.632 324.618 318.528 310.875 317.42 299.658C316.841 293.797 312.624 286.092 309.071 281.381C307.442 281.389 306.629 281.124 305.957 283.059C315.038 293.444 314.741 302.844 314.243 315.832C314.001 322.12 313.899 328.664 313.75 334.969L312.52 389.714C311.856 417.965 309.74 439.31 317.1 466.999C325.729 500.522 345.214 530.243 372.512 551.524C376.853 554.925 382.646 559.327 387.402 562.094Z" fill="#D1F1F5"/>
<path d="M652.034 590.766L652.126 586.702C611.389 586.551 569.052 585.023 528.236 584.094L487.62 583.174C469.825 582.778 456.844 582.941 439.179 579.228C418.179 574.814 407.563 568.862 389.32 559.463C386.867 560.399 387.385 558.622 386.426 559.762C387.168 561.371 388.136 560.704 387.402 562.095C387.42 562.119 387.436 562.143 387.453 562.167C401.745 573.089 430.45 582.783 447.701 584.782C468.358 587.176 491.541 586.968 511.99 587.425L599.253 589.378C616.518 589.758 634.903 589.854 652.034 590.766Z" fill="#D1F1F5"/>
<path d="M141.41 439.787C140.762 439.498 140.128 439.229 139.447 439.037C139.205 437.492 140.517 438.519 139.008 437.381C105.875 447.971 68.5127 446.677 37.3316 430.641C27.9122 425.779 19.0939 419.832 11.0557 412.921C8.4815 410.714 1.71067 404.171 -0.774924 402.664C-1.90571 403.679 -2.25985 403.679 -3.70982 403.954C6.92516 417.286 22.2061 427.347 37.451 434.591C69.9688 450.338 107.482 452.213 141.41 439.787Z" fill="#D1F1F5"/>
<path d="M141.41 439.787C161.998 434.847 187.735 414.457 200.917 398.288C203.675 394.903 207.773 390.017 209.729 386.139C208.755 384.32 208.777 382.501 208.954 380.459C193.117 404.515 174.613 421.923 148.278 433.249C145.229 434.559 142.01 435.977 139.009 437.381C140.518 438.519 139.206 437.492 139.448 439.037C140.129 439.228 140.763 439.498 141.41 439.787Z" fill="#D1F1F5"/>
<path d="M217.366 371.982C221.606 364.319 224.67 354.382 227.019 346.028L226.465 345.201C224.994 347.535 224.693 352.015 223.536 353.561C222.188 351.29 225.87 346.285 225.162 344.377L223.951 345.736C222.478 351.647 221.029 356.073 218.676 361.74C218.291 362.666 215.628 368.964 215.484 369.494L215.906 369.898C216.555 369.462 217.044 368.996 217.634 368.483C217.276 369.906 217.251 370.156 217.341 371.633L217.366 371.982Z" fill="#D1F1F5"/>
<path d="M217.366 371.982L217.341 371.633C217.251 370.156 217.276 369.906 217.633 368.483C217.044 368.996 216.555 369.462 215.906 369.898L215.483 369.494C213.538 372.673 210.9 377.605 208.953 380.459C208.776 382.501 208.755 384.32 209.729 386.139C212.04 382.628 215.856 375.814 217.366 371.982Z" fill="#D1F1F5"/>
<path d="M464.677 461.279C466.231 460.44 465.729 460.756 466.663 458.871C447.78 446.244 434.829 428.86 430.227 406.368C427.231 391.722 428.617 370.387 428.965 354.968L429.701 323.156C429.93 313.901 430.339 304.767 429.6 295.523C425.776 247.662 401.022 207.315 361.342 180.771C328.743 159.073 288.839 151.281 250.473 159.111C211.468 167.227 177.216 190.353 155.109 223.5C151.245 229.327 141.472 247.071 140.088 253.288L140.69 253.37C140.481 254.746 140.388 255.839 140.289 257.229L140.574 257.447C141.209 255.896 141.796 254.24 142.699 252.844L143.359 253.371C144.378 251.861 148.389 241.765 149.621 239.269C152.629 233.177 155.132 229.487 158.992 223.843C180.825 191.806 214.551 169.826 252.671 162.789C291.008 155.517 330.662 163.793 362.89 185.796C398.53 210.762 421.465 250.071 425.665 293.386C427.507 313.214 425.357 334.351 425.371 354.341C425.387 377.736 421.4 400.606 432.048 422.597C439.983 438.983 449.734 450.996 464.677 461.279Z" fill="#D1F1F5"/>
<path d="M68.026 332.916C64.9212 328.279 62.9889 324.795 61.692 319.318C61.4104 318.12 61.1458 315.171 60.8377 314.342C61.5527 290.396 62.1271 266.447 62.5698 242.495C63.4991 203.281 67.8093 166.932 51.8171 129.95C49.1681 123.833 44.8359 114.659 40.7175 109.475C40.9658 110.539 41.1949 111.248 41.1563 112.35C40.3149 112.418 39.7586 112.523 38.9369 112.318C60.7461 151.852 60.6912 177.124 59.7071 220.358L58.4505 275.425C58.2828 282.424 57.2453 308.781 58.074 314.286C58.1665 322.026 60.8344 329.514 65.6642 335.564L66.5062 334.873C65.7399 334.028 65.8837 334.49 65.7056 333.534L66.4824 333.118C66.9839 333.827 66.8108 333.649 67.4786 334.233L68.026 332.916Z" fill="#D1F1F5"/>
<path d="M68.026 332.916C64.9212 328.279 62.9889 324.795 61.692 319.318C61.4104 318.12 61.1458 315.171 60.8377 314.342C60.2142 312.002 60.6695 307.338 60.1045 306.225C59.261 312.794 61.4332 319.518 60.8522 322.719C58.5409 320.73 59.6058 310.599 58.4891 307.189C58.4148 309.664 58.3658 311.828 58.074 314.286C58.1665 322.026 60.8344 329.514 65.6642 335.564L66.5062 334.873C65.7399 334.028 65.8837 334.49 65.7056 333.534L66.4824 333.118C66.9839 333.827 66.8108 333.649 67.4786 334.233L68.026 332.916Z" fill="#D1F1F5"/>
<path d="M654.557 479.416L654.65 475.31L650.399 475.256C618.014 475.087 584.931 473.518 552.436 473.041C534.432 472.777 513.455 473.008 495.837 470.376C486.972 469.051 474.615 463.16 466.663 458.871C465.729 460.756 466.231 460.44 464.677 461.279C471.66 468.014 491.575 474.305 501.249 475.212C516.172 476.611 532.605 476.564 547.678 476.913L644.516 479.074C647.713 478.929 651.329 479.231 654.557 479.416Z" fill="#D1F1F5"/>
<path d="M65.6637 335.564C68.263 340.466 76.3132 345.85 81.5289 347.893C91.1656 351.581 101.872 351.319 111.319 347.163C116.291 344.938 120.71 341.641 124.259 337.509C137.455 322.379 132.28 306.703 134.875 287.736C136.861 273.231 138.141 266.83 143.358 253.37L142.699 252.843C141.795 254.239 141.208 255.895 140.574 257.446L140.288 257.228C140.388 255.838 140.481 254.745 140.689 253.369L140.087 253.287C135.112 264.488 132.272 279.794 130.781 291.902C129.813 299.782 130.313 307.972 129.521 315.87C127.229 338.281 103.253 352.726 82.4841 343.803C75.4294 340.774 73.2581 337.618 68.0255 332.916L67.4781 334.233C66.8103 333.649 66.9834 333.827 66.4819 333.118L65.7051 333.534C65.8832 334.49 65.7394 334.028 66.5057 334.873L65.6637 335.564Z" fill="#D1F1F5"/>
<path d="M655.188 451.55L655.277 447.589L650.908 447.506L560.135 445.417C540.557 444.973 516.983 446.592 498.768 439.725C479.536 432.475 463.555 414.784 458.829 394.773C455.85 382.622 456.645 370.169 456.927 357.627L457.71 323.731C458.771 279.174 453.913 259.169 434.451 219.203C433.484 219.435 432.073 219.688 431.262 220.138C442.569 239.289 450.905 264.554 453.151 286.655C455.483 309.594 453.324 333.562 453.147 356.581C452.847 372.947 451.072 388.012 457.526 403.628C469.075 431.572 492.423 446.774 522.34 448.346C528.56 448.284 535.388 448.412 541.608 448.711C579.107 450.514 617.814 449.083 655.188 451.55Z" fill="#D1F1F5"/>
<path d="M445.475 413.69L445.841 413.199C447.256 413.925 450.6 424.822 453.072 424.885C453.053 423.751 448.412 415.34 447.395 413.127L447.829 412.079C441.139 393.117 442.22 382.26 442.626 362.407C442.996 344.309 443.876 325.623 443.825 307.559C443.805 243.63 407.112 185.381 349.462 157.767C310.952 139.4 264.627 137.733 224.545 151.972C183.225 167.01 149.578 197.863 131.024 237.729C122.951 254.778 118.137 274.06 116.684 292.909C116.101 300.422 117.223 313.011 114.918 319.586C113.028 325.044 108.758 329.344 103.312 331.272C89.8624 336.166 75.7248 327.539 75.4167 312.88C75.2062 302.938 75.6434 292.858 75.8645 282.899L77.2779 221.311C78.2206 180.1 79.9331 152.61 61.1972 113.69C57.2516 105.487 52.7535 95.8182 46.3434 88.9847C45.8349 89.5862 44.8304 90.8393 44.3196 91.3408C44.8574 92.6516 46.4716 95.1491 47.297 96.3892C60.016 115.525 67.6694 134.615 71.8751 157.39C73.4607 166.362 74.2897 175.457 74.3603 184.567C74.5194 195.177 73.9514 207.423 73.7043 218.131L72.311 279.229C72.099 288.386 70.1905 314.713 73.5513 322.079C76.3005 328.181 81.3869 332.923 87.6632 335.241C93.6078 337.372 100.073 336.974 105.827 334.093C123.635 325.176 118.581 305.374 120.92 288.719C122.511 277.414 123.727 266.834 127.754 256.006C130.897 247.541 134.672 237.222 139.129 229.428C150.967 208.728 168.894 188.371 188.331 174.476C193.947 170.458 203.776 165.273 209.873 162.314C247.998 143.636 292.02 141.028 332.084 155.071C385.698 173.785 421.989 216.271 436.36 270.651C441.27 289.233 440.546 305.806 440.113 324.764L439.134 366.873C438.773 382.445 438.139 398.756 445.243 413.224L445.475 413.69Z" fill="#D1F1F5"/>
<path d="M654.875 465.372L654.96 461.598L650.928 461.535L560.584 459.506L531.121 458.851C504.578 458.247 483.306 456.456 463.902 435.404C456.397 427.259 452.493 422.508 447.83 412.078L447.396 413.127C448.412 415.34 453.054 423.75 453.073 424.884C450.601 424.822 447.257 413.924 445.842 413.198L445.476 413.69C453.418 435.174 475.292 453.842 497.462 459.476C514.123 463.709 535.831 462.229 553.324 462.843C583.589 463.906 613.987 463.956 644.274 465.031C647.267 464.899 651.777 465.232 654.875 465.372Z" fill="#D1F1F5"/>
<path d="M11.5306 52.8797C-1.60354 41.0446 -23.6722 29.9969 -40.6964 25.5429C-40.8245 26.7887 -40.676 27.8499 -41.5911 28.7645L-42.6025 28.9142C-29.8637 33.3529 -17.5053 38.5458 -5.84716 45.3937C-0.761814 48.3785 3.98894 51.9052 9.06026 54.9079C9.74457 53.9608 10.5452 53.4886 11.5306 52.8797Z" fill="#D1F1F5"/>
<path d="M26.6445 89.5599C22.1049 82.124 1.52982 64.2675 -5.94586 59.9799C-6.20654 60.4644 -5.89246 62.8326 -5.98645 63.7749C7.38676 72.8729 14.0795 80.857 25.1938 92.6736C25.2604 90.7317 25.4845 90.864 26.6445 89.5599Z" fill="#D1F1F5"/>
<path d="M46.3435 88.9847C32.7139 71.9621 28.106 67.1446 11.531 52.8795C10.5457 53.4883 9.745 53.9606 9.0607 54.9077C21.2209 64.0418 36.1581 78.4514 44.3197 91.3408C44.8305 90.8392 45.835 89.5861 46.3435 88.9847Z" fill="#D1F1F5"/>
<path d="M38.937 112.319C39.7587 112.523 40.315 112.418 41.1564 112.351C41.195 111.248 40.9659 110.539 40.7176 109.476C38.4081 104.806 30.1898 94.0173 26.6451 89.5599C25.4851 90.864 25.2611 90.7317 25.1944 92.6736C30.451 98.7226 35.0552 105.306 38.937 112.319Z" fill="#D1F1F5"/>
<path d="M652.665 562.913L652.752 559.069C615.409 558.797 577.074 557.505 539.654 556.662L499.306 555.746C482.441 555.359 465.84 555.575 449.427 551.191C430.896 546.241 412.35 538.024 397.156 526.19C384.296 516.173 372.927 502.298 363.505 489.138C363.789 490.329 364.017 491.088 364.063 492.33C362.849 492.173 362.592 491.973 361.529 491.431C364.629 497.999 371.785 507.005 376.649 512.314C394.335 531.583 416.91 545.701 441.975 553.167C461.335 558.752 477.051 558.802 496.819 559.244L531.234 560.013C570.984 560.9 613.144 561.134 652.665 562.913Z" fill="#D1F1F5"/>
<path d="M361.529 491.43C362.591 491.973 362.848 492.173 364.062 492.33C364.017 491.087 363.788 490.328 363.504 489.137C360.779 484.32 358.679 479.931 356.117 475.233L355.377 475.466L356.263 477.347L355.96 477.77C354.572 476.977 354.935 477.019 354.07 475.292C353.402 475.775 353.642 475.473 353.319 476.174C354.915 480.234 359.25 487.703 361.529 491.43Z" fill="#D1F1F5"/>
<path d="M353.319 476.174C353.642 475.473 353.402 475.775 354.07 475.292C354.935 477.019 354.572 476.977 355.96 477.77L356.263 477.347L355.377 475.466L356.117 475.233C342.543 440.132 343.317 424.708 344.15 387.763L345.471 330.412C345.754 318.437 347.171 301.61 344.313 290.36C334.828 253.025 292.431 229.234 256.427 244.428C219.789 259.89 212.962 288.051 213.45 323.707C213.625 336.48 205.049 359.759 198.579 370.859C198.634 371.2 198.855 371.68 198.992 372.026L200.041 371.054C200.758 371.831 200.499 372.876 200.505 374.201C209.717 360.302 216.563 336.076 217.188 319.504C217.909 300.356 216.628 291.226 226.869 273.965C255.543 225.634 328.952 237.867 340.998 292.496C343.695 304.725 342.501 318.188 342.228 330.685L341.043 381.179C340.364 408.45 337.609 436.713 347.477 462.719C349.112 467.029 350.708 472.356 353.319 476.174Z" fill="#D1F1F5"/>
<path d="M-10.5546 370.62C0.0523749 392.403 22.3202 412.496 44.2809 422.696C74.1354 436.364 108.184 437.65 138.983 426.273C161.219 418.105 190.605 395.552 200.504 374.201C200.498 372.876 200.758 371.832 200.04 371.054L198.992 372.026C198.854 371.681 198.634 371.2 198.578 370.86C178.801 400.758 155.377 420.473 119.302 427.849C88.8309 433.991 57.1614 427.893 31.151 410.874C14.1836 399.707 0.230739 384.531 -9.47574 366.688L-10.1455 367.191C-11.1742 366.109 -11.2708 363.959 -12.3778 363.321L-12.8085 364.097C-12.1249 365.988 -9.69073 368.762 -10.5546 370.62Z" fill="#D1F1F5"/>
<path d="M652.974 549.286L653.071 544.986C612.774 544.832 570.898 543.258 530.487 542.366L495.862 541.616C491.939 541.53 480.708 541.466 477.306 540.729C458.262 539.742 440.508 533.531 423.82 524.814C422.657 524.206 420.58 523.077 419.416 522.684C418.775 523.831 418.652 524.241 417.57 525.02C450.889 548.094 488.52 545.369 526.991 546.237L604.404 547.971C620.465 548.328 636.974 548.48 652.974 549.286Z" fill="#D1F1F5"/>
<path d="M417.569 525.02C418.651 524.241 418.774 523.831 419.415 522.684C413.358 519.041 407.665 514.823 402.416 510.089C400.838 510.655 400.842 510.484 400.105 512.197C406.04 517.078 411.19 520.75 417.569 525.02Z" fill="#D1F1F5"/>
<path d="M394.771 265.641C385.355 236.895 361.716 210.578 334.781 197.064C261.32 160.21 172.009 206.008 159.337 287.381C157.563 298.78 158.58 309.991 157.182 321.369C154.293 343.704 137.505 363.885 116.161 371.132C100.224 376.436 82.8314 375.206 67.7966 367.709C59.2177 363.42 51.5285 357.734 46.1377 349.798C45.8126 349.317 41.4546 343.286 41.3877 343.232L40.8462 343.889L39.5826 342.549L38.6762 342.681L39.5444 345.037L39.1081 345.859C41.2109 351.837 54.3903 364.279 59.6415 367.761C99.6291 394.267 155.811 368.058 161.09 320.238C162.152 310.606 161.75 300.918 162.904 291.251C164.162 281.211 166.633 271.36 170.261 261.915C177.712 242.435 193.913 222.101 210.917 209.992C216.976 205.678 226.477 200.713 233.271 197.702C261.581 185.294 293.675 184.713 322.415 196.089C333.721 200.459 340.232 204.28 349.964 211.246C371.958 226.99 381.483 244.071 392.075 268.071L392.511 267.49L393.43 268.455C394.475 267.572 394.281 267.227 394.771 265.641Z" fill="#D1F1F5"/>
<path d="M41.3868 343.232C30.7982 323.444 33.0814 311.043 33.5957 289.344L34.9896 229.62C35.2927 216.238 36.0672 200.69 34.9752 187.57C32.1641 156.744 19.101 127.747 -2.13106 105.222C-16.2243 90.0323 -26.4698 82.3537 -45.0972 73.114C-75.411 58.0745 -104.546 59.326 -137.395 58.5954L-209.35 56.997L-245.425 56.1661C-249.799 56.0624 -262.122 55.5245 -265.662 56.2389L-265.725 59.048C-262.954 59.5785 -255.233 59.6535 -252.243 59.7258L-228.084 60.264L-143.301 62.1985C-120 62.7264 -94.9008 61.6513 -72.5016 67.3259C-13.4701 82.285 30.5994 135.432 32.0366 196.639C32.281 207.095 31.7454 218.11 31.5052 228.713L30.1088 290.351C29.6329 311.356 28.1259 326.574 39.1072 345.859L39.5435 345.037L38.6753 342.68L39.5817 342.549L40.8453 343.889L41.3868 343.232Z" fill="#D1F1F5"/>
<path d="M654.239 493.448L654.331 489.366C621.205 489.519 585.971 488.041 552.659 487.276L520.73 486.572C517.247 486.496 507.415 486.471 504.363 485.971C479.202 485.447 455.643 474.264 438.515 456.086C424.065 440.751 415.619 418.151 414.403 397.308C413.865 388.077 414.304 377.81 414.513 368.512L415.489 326.307C415.771 313.933 416.306 302.045 414.842 289.734C412.715 271.858 404.079 247.865 393.92 232.939L393.12 234.441C392.714 234.492 391.332 234.519 391.119 234.617C411.968 267.518 412.886 289.419 412.007 326.676L410.909 372.849C410.682 382.399 410.12 392.574 410.886 402.086C414.076 441.11 445.197 476.547 482.822 486.444C501.538 491.367 526.773 490.373 546.653 490.799L611.638 492.206C625.739 492.512 640.189 492.631 654.239 493.448Z" fill="#D1F1F5"/>
<path d="M29.1989 120.898C24.9887 111.344 19.0781 105.312 12.553 97.5407C-3.85265 78.0079 -23.3677 65.2654 -46.8295 55.5892C-73.3229 44.6638 -99.6802 45.3652 -127.796 44.7192L-193.389 43.2286L-240.686 42.1616C-246.712 42.0296 -259.747 41.4392 -265.339 41.9799L-265.405 44.9343C-262.631 45.9144 -234.903 46.2293 -230.011 46.3356L-138.295 48.4316C-115.67 48.9441 -91.5719 48.1779 -69.4664 52.7924C-40.7365 58.7876 -14.634 74.3446 5.85174 95.1414C12.7573 102.15 21.2847 114.525 26.6284 122.937C26.5229 121.781 26.2617 120.486 26.7428 119.489C27.5583 119.966 28.374 120.434 29.1989 120.898Z" fill="#D1F1F5"/>
<path d="M393.92 232.939C389.394 224.035 383.106 218.072 376.541 211.184C361.582 195.492 342.466 183.317 321.687 176.762C285.843 165.452 248.149 168.916 215.019 186.831C204.338 192.606 189.765 202.81 182.297 212.396C177.274 217.457 173.42 222.481 169.026 228.044C168.536 230.449 168.417 230.881 169.97 232.684C174.039 225.813 177.936 221.307 183.25 215.43C183.674 215.133 188.131 210.982 188.859 210.312C192.786 206.698 196.241 203.905 200.463 200.714C230.103 178.324 265.034 170.329 301.748 175.701C328.116 179.559 353.032 193.613 372.474 211.706C378.065 216.908 386.386 228.205 391.119 234.617C391.332 234.518 392.714 234.492 393.12 234.441L393.92 232.939Z" fill="#D1F1F5"/>
<path d="M183.249 215.43L182.419 215.217C180.714 216.895 172.461 227.074 171.612 227.313L171.459 226.436C171.686 226.222 182.923 212.571 182.938 212.542L182.296 212.396C177.274 217.457 173.419 222.481 169.025 228.044C168.535 230.449 168.416 230.881 169.969 232.684C174.038 225.813 177.936 221.307 183.249 215.43Z" fill="#D1F1F5"/>
<path d="M45.554 325.644C45.779 324.73 45.7005 324.99 46.1506 324.163C47.6052 326.287 47.9586 331.128 49.6556 333.776C51.1497 332.556 46.729 325.884 47.8574 321.769C47.8695 319.428 47.5495 317.122 47.5473 314.814C47.5308 289.691 48.7601 264.488 49.0794 239.372C49.3537 218.045 51.1111 196.586 48.368 175.383C46.127 158.069 38.5406 136.425 29.4923 121.195C29.3946 121.097 29.2969 121 29.1993 120.898C28.3745 120.434 27.5588 119.966 26.7433 119.489C26.2622 120.486 26.5234 121.782 26.6289 122.937C42.0663 149.136 47.6377 177.759 45.7699 207.7C45.4114 213.504 45.4781 219.777 45.3412 225.618L43.9872 284.184C43.6898 296.91 42.3966 313.713 45.554 325.644Z" fill="#D1F1F5"/>
<path d="M169.969 232.684C168.416 230.881 168.535 230.449 169.025 228.044C154.454 246.801 146.42 272.175 144.411 295.697C143.248 309.359 145.87 321.874 138.46 334.939C131.503 347.213 124.285 350.815 113.303 357.412L113.141 358.156C112.112 358.648 111.909 358.614 111.373 359.616L111.77 360.342L114.098 359.804L114.286 360.516C120.697 358.889 127.4 353.975 132.083 349.497C153.276 329.245 145.054 301.968 151.087 276.568C153.742 265.399 158.245 254.178 163.378 243.877C165.108 240.431 167.967 236.29 169.969 232.684Z" fill="#D1F1F5"/>
<path d="M114.286 360.516L114.098 359.804L111.77 360.342L111.374 359.616C111.909 358.614 112.113 358.648 113.141 358.156L113.303 357.412C84.6002 367.861 54.8095 351.18 47.8576 321.769C46.7292 325.884 51.1499 332.556 49.6558 333.776C47.9588 331.128 47.6054 326.287 46.1508 324.162C45.7007 324.99 45.7792 324.73 45.5542 325.644C46.5668 328.845 47.7623 331.985 49.1275 335.05C54.4613 346.908 64.3498 356.115 76.5565 360.59C87.5631 364.733 103.466 365.367 114.286 360.516Z" fill="#D1F1F5"/>
<path d="M409.521 475.779C412.837 476.711 412.787 480.479 416.543 480.462C413.777 477.482 403.812 467.231 403.663 463.571C402.748 461.506 401.371 459.296 400.205 457.327C386.036 433.392 385.831 408.859 386.548 382.101L387.75 331.824C387.971 322.363 388.332 312.871 388.163 303.373C387.399 260.647 357.932 220.832 318.626 205.139C293.389 195.064 262.137 195.995 237.27 206.931C217.769 215.557 192.171 236.461 184.008 257.286C183.963 257.472 183.923 257.658 183.877 257.844C185.658 258.811 183.797 257.801 184.531 259.838C185.518 259.186 185.663 258.802 186.18 257.799L187.249 257.714C188.129 256.949 192.721 249.242 193.877 247.531C213.079 218.995 243.329 202.738 278.393 202.089C306.032 201.625 332.731 212.117 352.662 231.271C370.594 248.654 383.594 275.863 384.074 300.897C384.725 334.924 382.164 370.01 382.29 404.165C382.368 425.237 388.53 445.05 399.881 462.782C402.655 467.116 405.852 472.225 409.521 475.779Z" fill="#D1F1F5"/>
<path d="M653.919 507.559L654.019 503.153C621.62 503.183 587.632 501.868 555.099 501.127L519.346 500.319C505.418 500.011 490.875 500.28 477.399 496.677C459.464 491.882 444.516 484.554 431.378 471.475C427.638 467.705 424.057 463.781 420.644 459.712L418.972 462.307C430.79 478.275 453.805 494.174 472.915 499.477C494.291 505.409 520.087 504.225 542.426 504.734L608.957 506.218C623.819 506.545 639.125 506.686 653.919 507.559Z" fill="#D1F1F5"/>
<path d="M653.606 521.359L653.706 516.954C641.363 517.237 627.783 516.681 615.374 516.404L553.308 514.994L513.668 514.11C489.355 513.573 469.356 513.248 447.431 501.664C445.384 500.582 437.833 496.276 436.284 495.903C435.296 496.969 435.073 497.063 433.814 497.84C448.551 510.004 473.662 515.95 492.278 517.486C500.871 517.317 511.842 517.853 520.625 518.051L574.387 519.257L623.029 520.352C632.73 520.573 644.014 520.599 653.606 521.359Z" fill="#D1F1F5"/>
<path d="M418.971 462.307L420.644 459.712C414.652 452.215 412.852 448.268 408.902 439.799C398.305 417.075 399.93 396.86 400.495 372.528L401.456 330.387C402.037 304.135 402.282 291.047 394.77 265.641C394.28 267.227 394.474 267.572 393.429 268.455L392.51 267.49L392.074 268.071C399.036 286.992 398.664 300.406 398.197 319.944L396.879 374.268C395.912 414.034 396.048 428.529 418.971 462.307Z" fill="#D1F1F5"/>
<path d="M18.8366 303.567C19.7049 284.877 19.9438 265.92 20.2581 247.238C20.7114 220.414 24.5236 192.019 15.6354 166.114C12.9311 158.229 3.31746 136.289 -2.35879 130.73C-2.47069 130.66 -2.58259 130.589 -2.69449 130.518C-4.17108 129.563 -5.73247 128.343 -6.66528 126.832L-6.26025 127.191L-6.66198 126.887L-6.72227 127.344C-6.62944 127.455 -6.53218 127.571 -6.444 127.686C-5.34577 129.11 -4.67773 131.286 -4.33604 133.038C-0.940403 138.663 2.71336 144.117 5.54799 150.057C19.0319 178.314 17.9375 205.578 17.4831 235.856L16.1202 302.029C16.9434 303.169 17.6541 305.463 17.5541 306.871C17.5026 307.54 17.3682 307.259 17.6682 307.645L17.5221 306.678L18.0045 306.428L17.4564 307.175C17.6499 305.848 17.8698 304.962 18.6396 303.844C18.7053 303.751 18.7709 303.66 18.8366 303.567Z" fill="#D1F1F5"/>
<path d="M436.284 495.902C423.184 487.626 412.532 476.185 403.663 463.571C403.813 467.231 413.778 477.482 416.544 480.462C412.788 480.479 412.837 476.711 409.522 475.779C416.108 484.252 425.281 491.472 433.814 497.839C435.073 497.063 435.296 496.968 436.284 495.902Z" fill="#D1F1F5"/>
<path d="M402.417 510.09C394.964 502.451 387.708 495.311 381.268 486.722C365.462 465.641 357.399 437.09 357.744 410.885L359.373 339.657C359.706 325.233 361.196 301.74 358.122 288.365C354.945 274.579 348.084 261.915 338.272 251.724C321.793 234.775 304.644 226.577 280.828 226.009C259.591 225.501 240.131 233.712 224.927 248.46C210.933 262.034 201.559 280.823 200.303 300.379C199.341 315.404 200.276 324.421 196.247 339.537C183.901 385.268 142.149 416.824 94.7874 416.209C67.666 416.164 41.6742 405.341 22.5374 386.123C7.20265 370.423 -1.67073 353.482 -6.96207 332.335L-7.49186 333.074C-8.92449 328.776 -10.3285 321.013 -9.67259 316.508L-10.1453 316.733C-10.9377 320.45 -9.87316 331.774 -8.09103 335.074L-8.47541 335.208C-8.93126 334.287 -9.3536 333.288 -9.92451 332.436C-5.67933 359.08 9.79136 382.209 31.0664 398.428C53.6698 415.531 82.1212 422.995 110.206 419.189C155.602 412.984 192.147 378.804 201.373 333.917C207.222 305.328 198.148 286.077 219.087 259.712C260.563 207.487 343.996 227.362 355.281 293.941C357.375 306.291 356.3 318.634 356.007 331.088L354.733 385.654C354.408 399.698 353.554 416.678 355.384 430.382C359.264 459.441 376.897 494.057 400.106 512.198C400.843 510.484 400.839 510.656 402.417 510.09Z" fill="#D1F1F5"/>
<path d="M-0.45829 168.074C-7.52789 151.273 -16.2138 135.075 -29.6022 122.44C-31.6069 120.546 -33.883 118.211 -36.2537 116.84L-36.9388 117.224C-38.0967 116.227 -40.3093 114.097 -41.8223 113.945C-42.5289 113.874 -43.5712 114.391 -44.2218 114.653C-26.536 128.58 -11.4595 147.261 -3.5638 168.481C-2.11027 168.65 -1.79244 168.648 -0.45829 168.074Z" fill="#D1F1F5"/>
<path d="M653.291 535.254L653.383 531.174C650.953 531.135 647.491 531.181 645.159 530.905C633.953 531.022 621.726 530.519 610.436 530.256L552.197 528.928L507.858 527.925C493.589 527.598 479.537 527.765 465.553 524.486C435.135 517.354 406.301 498.132 389.916 471.163C388.962 470.436 388.368 469.998 387.346 469.377C386.981 470.607 387.726 471.137 387.55 472.776C390.174 478.251 397.889 487.526 402.087 492.003C409.274 499.608 417.365 506.303 426.18 511.939C453.765 529.741 475.321 531.12 506.693 531.799L544.561 532.651L645.06 534.969C647.589 534.906 650.719 535.135 653.291 535.254Z" fill="#D1F1F5"/>
<path d="M169.273 342.565L168.173 341.809C168.096 339.212 168.953 338.838 168.469 336.573C159.264 358.312 147.129 373.52 124.559 382.604C105.602 390.303 84.3628 390.136 65.5302 382.14C46.6768 374.057 31.7942 358.838 24.1303 339.81C19.1179 327.193 18.838 316.903 18.836 303.567C18.7703 303.66 18.7047 303.751 18.6391 303.844C17.8692 304.962 17.6493 305.848 17.4558 307.175L18.0039 306.428L17.5215 306.678L17.6676 307.645C17.3676 307.259 17.502 307.54 17.5535 306.871C17.6535 305.463 16.9428 303.169 16.1196 302.029C15.6385 318.255 16.3251 330.431 23.3467 345.544C32.0392 364.255 47.4344 379.693 66.8372 386.969C86.9494 394.599 109.26 393.947 128.896 385.156C146.526 377.066 162.47 360.885 169.273 342.565Z" fill="#D1F1F5"/>
<path d="M389.916 471.163C370.98 434.021 371.241 421.579 372.175 380.869L373.448 325.218C373.82 308.767 374.981 292.32 369.142 276.607C367.248 271.509 364.121 263.895 361.082 259.426C359.284 258.693 358.656 257.489 357.514 255.98C357.579 257.539 358.467 259.195 358.664 261.494C364.935 271.926 369.883 289.023 370.522 301.135C370.995 310.094 370.41 320.622 370.199 329.73L369.046 378.1C368.246 410.714 366.587 445.208 387.55 472.776C387.726 471.137 386.981 470.607 387.346 469.376C388.368 469.998 388.962 470.436 389.916 471.163Z" fill="#D1F1F5"/>
<path d="M9.29997 338.544C4.47036 321.666 5.50603 305.611 5.91749 288.251L6.96401 244.463C7.49129 221.991 10.1656 188.315 -0.458138 168.073C-1.79229 168.647 -2.11012 168.649 -3.56364 168.48C-0.76694 177.697 2.02801 187.191 2.9815 196.807C4.18634 208.955 3.50473 221.206 3.23332 233.386L2.10088 282.97C1.65632 302.593 -0.336797 325.04 7.2178 343.68C7.89803 341.309 6.19348 339.395 5.99976 337.124C5.91702 336.167 6.21316 335.72 6.84541 335.067C7.74407 336.281 8.2229 337.589 8.77708 338.98L9.29997 338.544Z" fill="#D1F1F5"/>
<path d="M258.774 217.814C255.157 216.838 252.323 219.685 249.939 218.993L249.901 218.457C252.254 217.583 255.689 216.8 257.646 215.714L257.015 215.326C218.92 225.339 187.981 259.283 186.552 299.08C185.527 327.691 185.676 340.781 169.143 365.126L169.24 366.039C169.797 366.73 169.929 366.915 170.315 367.686L170.624 368.312C181.208 354.603 188.03 336.235 189.13 318.969C189.738 309.555 189.523 300.037 191.118 290.714C196.096 261.603 214.758 236.87 241.423 224.152C247.146 221.423 252.679 219.692 258.774 217.814Z" fill="#D1F1F5"/>
<path d="M361.082 259.426C343.39 225.904 302.594 206.742 265.694 213.276C263.443 213.675 259.003 214.328 257.015 215.327L257.646 215.714C255.689 216.8 252.254 217.584 249.901 218.458L249.939 218.993C252.323 219.685 255.157 216.838 258.774 217.815C262.456 217.563 266.999 216.701 270.929 216.326C280.597 215.503 290.333 216.095 299.831 218.081C325.642 223.503 344.568 239.873 358.664 261.494C358.467 259.196 357.579 257.539 357.514 255.981C358.656 257.489 359.284 258.693 361.082 259.426Z" fill="#D1F1F5"/>
<path d="M170.623 368.312L170.315 367.686C169.929 366.915 169.797 366.73 169.24 366.039L169.143 365.126C146.752 391.93 118.302 406.643 82.7332 401.539C79.0722 401.014 74.7618 399.693 71.231 399.432C69.2764 399.938 68.3558 399.494 66.3415 399.025L65.5702 399.603C66.3659 400.551 70.1943 401.507 71.5874 401.935L71.5232 402.769C82.2398 407.687 107.994 405.964 119.521 402.96C138.036 398.136 160.639 384.997 170.623 368.312Z" fill="#D1F1F5"/>
<path d="M47.8609 388.949L47.4875 388.594C45.8693 387.078 41.429 383.878 39.4194 382.201C29.0417 373.545 23.3704 367.364 16.9929 355.488C14.9853 351.718 13.1568 347.858 11.5117 343.919C11.1539 343.08 9.54068 338.939 9.29991 338.545L8.77701 338.98C8.22285 337.59 7.74401 336.282 6.84534 335.068C6.2131 335.721 5.91696 336.168 5.99971 337.124C6.19342 339.396 7.89797 341.31 7.21774 343.68C7.23647 344.056 7.46824 344.848 7.58306 345.19C13.3534 362.428 30.0016 383.08 45.9066 391.644L46.0498 391.134C46.5488 390.754 46.5904 390.719 47.0638 390.262L47.058 389.518L47.8609 388.949Z" fill="#D1F1F5"/>
<path d="M169.273 342.565C177.798 320.991 173.695 308.281 177.266 286.359C178.974 275.881 182.698 267.189 187.249 257.714L186.18 257.799C185.662 258.802 185.518 259.186 184.531 259.838C183.797 257.801 185.658 258.811 183.877 257.844C177.04 272.049 173.087 286.253 172.435 302.004C171.924 314.326 172.262 324.647 168.469 336.573C168.953 338.838 168.096 339.212 168.173 341.809L169.273 342.565Z" fill="#D1F1F5"/>
<path d="M71.524 402.769L71.5882 401.936C70.1951 401.508 66.3668 400.551 65.571 399.604L66.3423 399.026C68.3566 399.495 69.2772 399.938 71.2319 399.432C64.7674 397.402 61.4456 396.333 55.3056 393.207C53.7235 393.903 54.1664 393.793 53.0335 395.502C59.1067 398.37 65.0061 401.093 71.524 402.769Z" fill="#D1F1F5"/>
<path d="M55.3051 393.206C52.8361 391.768 50.3531 390.349 47.8605 388.949L47.0577 389.517L47.0635 390.262C46.59 390.719 46.5484 390.754 46.0495 391.134L45.9062 391.644C48.3024 393.088 50.5421 394.229 53.033 395.501C54.1659 393.793 53.723 393.902 55.3051 393.206Z" fill="#D1F1F5"/>
<path d="M1330.55 634.123C1302.57 601.292 1257.6 579.432 1214.78 576.037C1165.61 572.139 1119.71 587.759 1082.42 619.811C1047.34 649.887 1025.76 692.761 1022.5 738.86C1021.94 746.455 1022.37 754.115 1021.51 761.639C1021.42 762.387 1020.29 763.931 1019.69 764.414C1015.81 767.59 1011.91 765.461 1009.01 762.565C1008.75 730.083 1010.52 696.944 1011.01 664.393C1011.54 629.184 1014.38 596.043 998.872 562.918C996.994 565.218 996.828 562.754 996.757 564.495L996.123 565.017C1009.08 603.224 1008.16 621.792 1007.26 661.34L1005.79 727.589C1005.58 737.737 1005.01 749.269 1005.13 759.28C1005.3 772.157 1025.36 774.92 1025.11 756.521C1024.44 706.948 1044.83 659.655 1081 625.736C1114.53 594.352 1159.19 577.665 1205.07 579.381C1254.22 581.026 1295.24 601.153 1328.68 636.868C1329.81 634.791 1328.11 636.465 1329 634.478C1329.54 634.413 1330.03 634.279 1330.55 634.123Z" fill="#D1F1F5"/>
<path d="M998.869 562.918C997.815 560.565 996.697 558.215 995.679 555.849C977.448 513.472 940.443 478.947 897.137 462.456C882.715 456.953 867.617 453.446 852.249 452.035C840.083 450.801 826.346 451.144 813.993 450.905L751.935 449.504L676.839 447.848C673.685 447.808 657.199 447.248 655.163 447.743L655.11 450.075C669.164 451.547 691.426 451.456 706.119 451.785L793.847 453.786C833.008 454.65 867.695 453.225 904.357 469.82C946.497 488.897 978.804 522.166 996.12 565.017L996.754 564.496C996.825 562.754 996.992 565.219 998.869 562.918Z" fill="#D1F1F5"/>
<path d="M1354.02 666.254C1350.75 659.682 1335.87 636.687 1330.55 634.123C1330.03 634.279 1329.55 634.414 1329 634.479C1328.11 636.465 1329.81 634.792 1328.68 636.869C1331.97 641.497 1336.29 646.458 1339.8 651.355C1342.49 655.108 1348.21 664.298 1350.83 667.19C1351.64 666.74 1353.05 666.487 1354.02 666.254Z" fill="#D1F1F5"/>
<path d="M1085.11 922.273C1082.91 921.547 1083.43 920.882 1082 920.321C1037.81 938.017 988.385 937.304 944.726 918.34C931.406 912.495 909.074 898.468 898.664 888.208C897.045 888.131 895.6 887.993 894.031 888.499C903.646 896.968 912.999 905.153 924.107 911.662C974.697 941.305 1031.18 944.67 1085.11 922.273Z" fill="#D1F1F5"/>
<path d="M1085.11 922.273C1087.29 921.797 1095.58 917.921 1097.8 916.775C1120.85 904.872 1142.65 885.311 1157.95 864.462C1157.59 863.82 1156.88 862.421 1156.51 861.872C1140.25 882.927 1124.74 896.968 1101.65 910.085C1097.06 912.693 1085.4 917.993 1082 920.321C1083.43 920.882 1082.91 921.547 1085.11 922.273Z" fill="#D1F1F5"/>
<path d="M1157.95 864.461C1168.91 849.153 1174.12 840.625 1180.85 823.341L1180.23 822.813C1178.37 826.93 1176.72 830.538 1174.27 834.356C1172.8 836.643 1173.52 837.304 1170.86 838.349C1169.71 840.065 1168.61 842.111 1167.65 843.965C1164.37 850.324 1160.64 856.031 1156.51 861.872C1156.88 862.421 1157.59 863.82 1157.95 864.461Z" fill="#D1F1F5"/>
<path d="M1570.97 1065.8L1571.06 1061.6L1566.35 1061.52L1445.13 1058.8L1397.65 1057.73C1387.79 1057.52 1377.3 1057.59 1367.64 1056.87C1321.74 1053.48 1280.77 1032.33 1250.09 998.249C1249.36 997.432 1247.3 995.101 1246.47 994.588L1245.63 994.823C1243.2 992.181 1238.56 985.171 1236.58 983.931L1236.43 984.197C1237 985.289 1238.08 987.037 1238.14 988.174L1237.97 988.47C1239.89 992.333 1250.65 1004.5 1253.9 1008.03C1267.07 1022.33 1281.28 1031.63 1298.12 1040.56C1332.67 1058.89 1355 1060.75 1392.49 1061.6L1437.22 1062.62L1514.87 1064.36C1529.61 1064.68 1544.76 1064.8 1559.44 1065.42C1562.93 1065.3 1567.41 1065.64 1570.97 1065.8Z" fill="#D1F1F5"/>
<path d="M1571.28 1051.8L1571.38 1047.46C1555.44 1047.77 1538.41 1047.06 1522.37 1046.7L1446.53 1044.98L1401.2 1043.99C1384.93 1043.64 1367.89 1043.63 1351.98 1039.97C1323.77 1033.47 1294.98 1020.01 1273.99 999.735C1269.34 995.238 1265.41 991.03 1261.17 986.186C1260.11 984.965 1255.6 979.726 1254.68 978.943C1253.78 980.78 1254.29 980.12 1252.48 981.397C1253.76 983.508 1256.62 987.097 1258.29 988.977C1290.3 1025.06 1328.37 1042.88 1375.96 1047.21C1386.19 1047.11 1397.98 1047.65 1408.32 1047.9L1467.86 1049.26C1501.22 1050.01 1538.2 1050.03 1571.28 1051.8Z" fill="#D1F1F5"/>
<path d="M845.709 812.051C845.821 812.121 845.942 812.185 846.054 812.263C846.867 812.843 847.463 813.571 847.627 814.576C847.658 814.782 847.681 814.991 847.708 815.199L847.948 815.223C849.278 811.413 846.247 806.15 846.312 802.065C846.315 801.925 846.318 801.784 846.326 801.643C843.505 787.293 840.91 773.584 840.785 758.865C840.646 742.921 841.409 726.896 841.779 710.95C842.017 700.848 842.858 690.417 841.841 680.362C839.827 660.448 829.034 640.669 812.291 629.442C804.728 624.367 795.457 620.161 786.516 618.451C774.292 616.113 761.107 616.568 748.692 616.282L694.834 615.044L666.251 614.401C662.13 614.325 657.234 613.783 653.188 614.418C652.523 614.521 651.954 614.808 651.37 615.13L651.314 617.608C659.418 619.204 669.74 618.498 678.089 618.687L746.424 620.19C758.381 620.452 771.29 619.795 783.098 621.602C790.338 622.683 797.325 625.075 803.709 628.657C819.475 637.555 832.002 652.141 836.76 669.777C840.387 683.234 838.897 697.903 838.566 711.706C838.007 734.983 836.105 758.998 839.123 782.119C840.454 792.313 842.927 802.169 845.709 812.051Z" fill="#D1F1F5"/>
<path d="M1230.31 971.725C1205.25 921.856 1206.1 902.151 1207.34 847.25L1208.67 789.575C1208.82 783.286 1210 753.384 1209.06 749.385C1207.49 750.249 1207.88 750.331 1206.33 750.28C1205.91 753.669 1205.95 766.174 1205.87 770.023L1204.97 812.041L1203.9 857.426C1203.37 879.409 1202.2 898.494 1207.17 920.204C1211.57 939.454 1216.67 955.835 1227.42 972.586C1227.9 971.905 1228.13 971.715 1228.73 971.131L1230.31 971.725Z" fill="#D1F1F5"/>
<path d="M1195.51 747.208L1195.33 746.763C1196.68 744.96 1198.96 745.907 1200.73 744.096C1198.62 743.681 1198.06 744.595 1196.16 744.554L1196.94 743.255C1194.75 744.179 1191.56 746.153 1190.91 748.447C1188.86 755.691 1189.67 764.817 1188.99 772.257C1187.37 790.162 1183.51 807.612 1177.29 824.46C1175.57 829.101 1172.83 833.763 1170.86 838.349C1173.52 837.305 1172.8 836.643 1174.27 834.356C1176.72 830.539 1178.37 826.93 1180.23 822.813L1180.85 823.341C1181.52 822.268 1183.1 818.131 1183.61 816.782C1189.24 801.672 1191.89 785.526 1192.71 769.461C1193.02 763.34 1192.7 756.922 1193.44 750.87C1193.61 749.458 1194.61 748.292 1195.51 747.208Z" fill="#D1F1F5"/>
<path d="M869.863 860.131C870.432 858.245 869.922 856.498 869.488 854.631C862.097 843.206 856.093 829.838 851.461 817.064C849.615 811.973 848.195 806.715 846.326 801.644C846.318 801.784 846.315 801.925 846.312 802.066C846.247 806.151 849.278 811.413 847.948 815.223L847.708 815.199C847.681 814.992 847.658 814.783 847.627 814.576C847.463 813.572 846.867 812.843 846.054 812.263C845.942 812.185 845.821 812.122 845.709 812.051C849.264 828.283 860.105 846.75 869.863 860.131Z" fill="#D1F1F5"/>
<path d="M898.664 888.208C892.152 881.667 885.453 874.972 879.59 867.841C876.099 863.594 873.132 858.703 869.488 854.631C869.922 856.498 870.432 858.245 869.863 860.131C872.091 866.183 888.29 883.811 894.031 888.499C895.6 887.993 897.045 888.131 898.664 888.208Z" fill="#D1F1F5"/>
<path d="M1244.89 965.068C1243.65 962.502 1237.67 950.434 1236.22 948.555C1235.34 949.736 1235.12 950.157 1233.4 950.482C1236.09 956.811 1238.27 960.302 1241.94 966.059C1242 965.388 1242.16 964.802 1242.3 964.144L1242.91 963.878L1244.89 965.068Z" fill="#D1F1F5"/>
<path d="M1237.97 988.469L1238.14 988.174C1238.08 987.037 1237 985.289 1236.42 984.197L1236.58 983.931C1238.55 985.171 1243.19 992.181 1245.63 994.823L1246.47 994.588C1240.7 987.352 1234.81 979.855 1230.31 971.725L1228.73 971.131C1228.13 971.715 1227.9 971.906 1227.42 972.586C1230.96 978.527 1233.87 982.921 1237.97 988.469Z" fill="#D1F1F5"/>
<path d="M1209.06 749.385C1205.76 744.191 1203.14 742.749 1196.94 743.254L1196.16 744.553C1198.06 744.595 1198.62 743.681 1200.73 744.095C1198.96 745.907 1196.68 744.959 1195.33 746.762L1195.51 747.207C1200.61 745.497 1203.11 745.394 1206.33 750.279C1207.88 750.33 1207.49 750.249 1209.06 749.385Z" fill="#D1F1F5"/>
<path d="M1251.03 974.352C1249.44 972.091 1246.38 966.793 1244.89 965.069L1242.91 963.879L1242.3 964.144C1242.16 964.803 1242 965.389 1241.94 966.06L1248.61 975.613C1249.52 975.216 1250.18 974.833 1251.03 974.352Z" fill="#D1F1F5"/>
<path d="M1252.48 981.397C1254.29 980.12 1253.78 980.78 1254.68 978.943L1251.03 974.352C1250.18 974.833 1249.52 975.216 1248.61 975.613L1252.48 981.397Z" fill="#D1F1F5"/>
<path d="M1228.64 728.432C1205.57 702.14 1164.31 716.125 1161.71 751.04C1161.32 759.973 1161.46 768.827 1160.25 777.71C1155.41 813.179 1137.95 847.359 1110.05 870.138C1104.38 874.763 1098.75 879.623 1092.49 883.451C1066.21 899.506 1036.35 906.571 1005.68 904.763C966.813 902.108 930.568 884.168 904.886 854.864C884.86 832.211 872.324 801.776 869.292 771.709C868.361 762.491 868.758 751.995 868.901 742.641C869.126 728.713 869.428 714.787 869.798 700.862C870.167 685.779 871.184 671.925 868.218 657.198C861.084 621.752 826.328 591.215 789.977 589.947C745.701 588.403 700.646 588.182 656.302 586.805C655.204 586.771 653.515 586.805 652.606 587.411C652.496 589.061 652.275 588.625 653.058 589.705C659.508 590.601 679.127 590.523 686.333 590.682L753.396 592.205C765.916 592.489 779.22 592.218 791.638 593.558C828.697 597.653 857.96 625.2 865.645 661.533C868.696 675.956 866.572 691.368 866.645 705.969C866.748 726.057 864.545 747.143 865.795 767.114C868.123 805.871 885.273 842.245 913.693 868.695C935.797 889.831 964.014 903.434 994.316 907.556C1084.45 920.389 1165.21 849.624 1165.05 760.391C1165.02 746.555 1166.5 735.183 1178.3 726.161C1185.71 720.46 1195.09 717.964 1204.35 719.231C1213.43 720.489 1218.89 724.192 1225.52 730.11C1226.19 728.176 1227.01 728.441 1228.64 728.432Z" fill="#D1F1F5"/>
<path d="M851.426 767.513C852.046 769.4 852.466 778.151 852.762 780.698C855.796 806.497 868.335 835.204 883.563 856.197C904.893 885.411 935.394 906.639 970.197 916.495C1010.93 927.818 1057.45 923.69 1094.4 902.697C1120.75 887.708 1142.71 866.084 1158.11 839.974C1160.55 835.768 1164.66 828.204 1165.94 823.555C1163.91 820.194 1164.23 823.52 1163.47 820.301C1158.15 831.376 1151.9 843.936 1144.7 853.725C1099.37 915.352 1014.66 937.469 945.798 902.916C909.225 884.565 880.355 854.301 865.496 815.802C850.938 778.232 855.525 741.093 856.029 702.007C856.17 691.204 857.229 679.128 855.341 668.473C850.747 643.608 834.67 622.384 811.986 611.227C794.692 602.885 784.709 603.258 766.01 602.771L727.547 601.932L680.405 600.863C671.602 600.641 660.338 600.064 651.705 600.363L651.687 601.171C652.05 601.751 651.978 601.541 652.138 602.08C652.497 603.269 652.627 603.939 653.981 604.083C664.887 605.266 676.445 604.729 687.431 604.978L755.048 606.5C769.791 606.839 785.159 606.22 799.499 610.114C809.431 612.809 819.186 618.497 826.938 625.215C838.479 635.212 850.593 654.022 851.719 669.619C854.549 680.389 852.669 699.449 852.402 711.002C851.971 729.844 851.29 748.663 851.426 767.513Z" fill="#D1F1F5"/>
<path d="M1281.13 965.822C1282.15 964.241 1278.15 962.468 1278.31 959.777C1279.48 960.08 1280.89 961.807 1281.74 962.722L1282.54 962.445C1265.4 941.396 1254.29 916.081 1250.43 889.208C1248.22 873.541 1249 855.844 1249.38 839.912L1250.83 780.704C1251.13 766.012 1252.76 749.487 1248.35 735.444C1242.77 717.141 1223.41 702.844 1204.68 701.135C1176.68 698.582 1148.72 720.124 1147.87 749.06C1147.43 764.362 1146.85 777.621 1143.52 792.787L1144.73 791.429C1145.44 793.337 1141.76 798.342 1143.1 800.613C1144.26 799.067 1144.56 794.586 1146.03 792.252L1146.59 793.079C1147.26 791.374 1148.59 785.539 1148.99 783.602C1153.98 758.655 1145.61 736.87 1167.26 717.205C1188.98 697.475 1222.75 701.552 1239.27 725.659C1248.01 738.418 1248.91 747.496 1248.21 762.541C1247.88 769.421 1247.85 776.821 1247.68 783.703L1246.4 840.524C1246.09 855.09 1245.14 869.564 1246.48 884.087C1248.6 907.086 1255.68 929.639 1268.83 948.767C1272.81 954.549 1276.36 960.651 1281.13 965.822Z" fill="#D1F1F5"/>
<path d="M1236.22 948.556C1218.76 911.217 1220.74 881.148 1221.63 841.841L1222.93 784.414C1223.14 775.481 1224.92 755.318 1223.12 747.332C1218.04 724.839 1184.64 721.684 1177.31 745.142C1174.31 753.943 1175.85 763.96 1174.8 773.109C1173.42 788.898 1170.04 805.877 1163.47 820.302C1164.23 823.52 1163.91 820.194 1165.94 823.555C1172.62 809.563 1177.07 788.323 1178.49 772.919C1179.83 758.42 1174.84 741.76 1191.39 734.411C1202.39 729.525 1217.1 735.508 1219.27 747.664C1221.06 757.723 1219.82 770.905 1219.62 781.287L1218.07 849.556C1217.09 891.917 1216.2 910.554 1233.4 950.482C1235.12 950.157 1235.34 949.736 1236.22 948.556Z" fill="#D1F1F5"/>
<path d="M1571.91 1024.05L1572.01 1019.81C1558.94 1019.94 1545.2 1019.41 1532.07 1019.12L1464.06 1017.56L1416.08 1016.48C1396.52 1016.04 1379.26 1016.46 1360.17 1011.47C1332.29 1004.18 1311.92 992.394 1291.53 972.128C1288.37 968.984 1285.62 965.643 1282.54 962.445L1281.74 962.722C1280.89 961.807 1279.48 960.08 1278.31 959.777C1278.15 962.468 1282.15 964.241 1281.13 965.823C1293.28 985.896 1334.01 1008.54 1356.06 1014.39C1382.83 1021.49 1415.49 1020.3 1443.37 1020.93L1522.05 1022.72C1538.49 1023.09 1555.53 1023.26 1571.91 1024.05Z" fill="#D1F1F5"/>
<path d="M1306.97 1009.15C1307.7 1007.75 1306.74 1008.42 1305.99 1006.81C1306.95 1005.67 1306.43 1007.45 1308.89 1006.51C1276.69 987.72 1249.47 950.506 1240.18 914.406C1233.39 888.062 1235.07 865.731 1235.67 838.904L1236.93 783.064C1237.2 771.669 1238.09 757.926 1236.99 746.71C1236.41 740.848 1232.19 733.144 1228.64 728.432C1227.01 728.441 1226.2 728.176 1225.52 730.11C1234.61 740.496 1234.31 749.895 1233.81 762.883C1233.57 769.171 1233.47 775.716 1233.32 782.021L1232.09 836.766C1231.42 865.016 1229.31 886.361 1236.67 914.05C1245.3 947.573 1264.78 977.295 1292.08 998.576C1296.42 1001.98 1302.21 1006.38 1306.97 1009.15Z" fill="#D1F1F5"/>
<path d="M1571.6 1037.82L1571.69 1033.75C1530.96 1033.6 1488.62 1032.07 1447.8 1031.15L1407.19 1030.23C1389.39 1029.83 1376.41 1029.99 1358.75 1026.28C1337.75 1021.87 1327.13 1015.91 1308.89 1006.51C1306.43 1007.45 1306.95 1005.67 1305.99 1006.81C1306.74 1008.42 1307.7 1007.76 1306.97 1009.15C1306.99 1009.17 1307 1009.19 1307.02 1009.22C1321.31 1020.14 1350.02 1029.83 1367.27 1031.83C1387.93 1034.23 1411.11 1034.02 1431.56 1034.48L1518.82 1036.43C1536.09 1036.81 1554.47 1036.91 1571.6 1037.82Z" fill="#D1F1F5"/>
<path d="M1060.98 886.839C1060.33 886.549 1059.69 886.28 1059.01 886.089C1058.77 884.543 1060.08 885.571 1058.57 884.432C1025.44 895.022 988.078 893.728 956.897 877.693C947.478 872.83 938.659 866.883 930.621 859.973C928.047 857.765 921.276 851.222 918.791 849.715C917.66 850.73 917.306 850.73 915.856 851.006C926.491 864.337 941.772 874.399 957.016 881.642C989.534 897.389 1027.05 899.264 1060.98 886.839Z" fill="#D1F1F5"/>
<path d="M1060.97 886.838C1081.56 881.899 1107.3 861.508 1120.48 845.34C1123.24 841.955 1127.34 837.068 1129.29 833.19C1128.32 831.371 1128.34 829.552 1128.52 827.511C1112.68 851.567 1094.18 868.974 1067.84 880.3C1064.79 881.611 1061.57 883.028 1058.57 884.432C1060.08 885.57 1058.77 884.543 1059.01 886.088C1059.69 886.28 1060.33 886.549 1060.97 886.838Z" fill="#D1F1F5"/>
<path d="M1136.93 819.033C1141.17 811.371 1144.24 801.433 1146.58 793.079L1146.03 792.252C1144.56 794.586 1144.26 799.067 1143.1 800.613C1141.75 798.342 1145.44 793.337 1144.73 791.429L1143.52 792.787C1142.04 798.699 1140.59 803.124 1138.24 808.791C1137.86 809.717 1135.19 816.015 1135.05 816.545L1135.47 816.95C1136.12 816.513 1136.61 816.047 1137.2 815.535C1136.84 816.958 1136.82 817.208 1136.91 818.684L1136.93 819.033Z" fill="#D1F1F5"/>
<path d="M1136.93 819.033L1136.91 818.684C1136.82 817.208 1136.84 816.957 1137.2 815.534C1136.61 816.047 1136.12 816.513 1135.47 816.95L1135.05 816.545C1133.1 819.725 1130.47 824.656 1128.52 827.511C1128.34 829.552 1128.32 831.371 1129.29 833.19C1131.61 829.68 1135.42 822.865 1136.93 819.033Z" fill="#D1F1F5"/>
<path d="M1384.24 908.33C1385.8 907.492 1385.3 907.807 1386.23 905.923C1367.35 893.295 1354.4 875.911 1349.79 853.419C1346.8 838.773 1348.18 817.438 1348.53 802.019L1349.27 770.208C1349.5 760.952 1349.91 751.818 1349.17 742.574C1345.34 694.713 1320.59 654.366 1280.91 627.822C1248.31 606.124 1208.41 598.332 1170.04 606.163C1131.03 614.278 1096.78 637.404 1074.68 670.551C1070.81 676.378 1061.04 694.123 1059.65 700.339L1060.26 700.421C1060.05 701.797 1059.96 702.89 1059.86 704.28L1060.14 704.498C1060.78 702.947 1061.36 701.291 1062.27 699.895L1062.93 700.422C1063.95 698.912 1067.96 688.817 1069.19 686.32C1072.2 680.228 1074.7 676.538 1078.56 670.895C1100.39 638.857 1134.12 616.877 1172.24 609.84C1210.58 602.568 1250.23 610.845 1282.46 632.847C1318.1 657.813 1341.03 697.123 1345.23 740.438C1347.07 760.266 1344.92 781.402 1344.94 801.393C1344.95 824.787 1340.97 847.657 1351.62 869.648C1359.55 886.034 1369.3 898.047 1384.24 908.33Z" fill="#D1F1F5"/>
<path d="M987.591 779.968C984.487 775.33 982.554 771.847 981.257 766.37C980.976 765.171 980.711 762.222 980.403 761.393C981.118 737.447 981.692 713.498 982.135 689.546C983.065 650.332 987.375 613.984 971.383 577.002C968.734 570.885 964.401 561.71 960.283 556.527C960.531 557.59 960.76 558.299 960.722 559.402C959.88 559.469 959.324 559.574 958.502 559.369C980.312 598.903 980.257 624.175 979.273 667.409L978.016 722.477C977.848 729.475 976.811 755.832 977.639 761.338C977.732 769.077 980.4 776.566 985.23 782.615L986.072 781.924C985.305 781.08 985.449 781.542 985.271 780.586L986.048 780.169C986.549 780.878 986.376 780.7 987.044 781.284L987.591 779.968Z" fill="#D1F1F5"/>
<path d="M987.591 779.968C984.487 775.33 982.554 771.847 981.257 766.37C980.976 765.171 980.711 762.222 980.403 761.393C979.78 759.054 980.235 754.389 979.67 753.276C978.826 759.846 980.999 766.569 980.418 769.771C978.106 767.781 979.171 757.65 978.054 754.241C977.98 756.715 977.931 758.879 977.639 761.338C977.732 769.077 980.4 776.566 985.23 782.615L986.072 781.924C985.305 781.08 985.449 781.542 985.271 780.586L986.048 780.169C986.549 780.878 986.376 780.7 987.044 781.284L987.591 779.968Z" fill="#D1F1F5"/>
<path d="M1574.12 926.468L1574.22 922.362L1569.97 922.307C1537.58 922.138 1504.5 920.57 1472 920.093C1454 919.829 1433.02 920.06 1415.4 917.428C1406.54 916.102 1394.18 910.211 1386.23 905.923C1385.3 907.807 1385.8 907.492 1384.24 908.33C1391.23 915.066 1411.14 921.357 1420.82 922.263C1435.74 923.662 1452.17 923.616 1467.25 923.965L1564.08 926.126C1567.28 925.981 1570.9 926.283 1574.12 926.468Z" fill="#D1F1F5"/>
<path d="M985.229 782.615C987.828 787.518 995.879 792.901 1001.09 794.944C1010.73 798.633 1021.44 798.371 1030.88 794.215C1035.86 791.989 1040.28 788.692 1043.82 784.56C1057.02 769.43 1051.85 753.755 1054.44 734.787C1056.43 720.283 1057.71 713.882 1062.92 700.422L1062.26 699.895C1061.36 701.291 1060.77 702.947 1060.14 704.498L1059.85 704.279C1059.95 702.89 1060.05 701.797 1060.25 700.421L1059.65 700.338C1054.68 711.539 1051.84 726.845 1050.35 738.954C1049.38 746.833 1049.88 755.024 1049.09 762.922C1046.79 785.333 1022.82 799.778 1002.05 790.855C994.995 787.825 992.824 784.669 987.591 779.968L987.044 781.284C986.376 780.7 986.549 780.878 986.047 780.169L985.271 780.586C985.449 781.542 985.305 781.08 986.071 781.924L985.229 782.615Z" fill="#D1F1F5"/>
<path d="M1574.75 898.601L1574.84 894.64L1570.48 894.557L1479.7 892.469C1460.12 892.024 1436.55 893.644 1418.34 886.777C1399.1 879.526 1383.12 861.835 1378.4 841.824C1375.42 829.673 1376.21 817.22 1376.49 804.678L1377.28 770.783C1378.34 726.226 1373.48 706.221 1354.02 666.254C1353.05 666.487 1351.64 666.739 1350.83 667.19C1362.14 686.341 1370.47 711.605 1372.72 733.706C1375.05 756.646 1372.89 780.614 1372.71 803.632C1372.41 819.998 1370.64 835.063 1377.09 850.679C1388.64 878.624 1411.99 893.825 1441.91 895.398C1448.13 895.335 1454.96 895.464 1461.18 895.763C1498.67 897.566 1537.38 896.134 1574.75 898.601Z" fill="#D1F1F5"/>
<path d="M1365.04 860.742L1365.41 860.25C1366.82 860.976 1370.17 871.873 1372.64 871.936C1372.62 870.802 1367.98 862.392 1366.96 860.179L1367.4 859.13C1360.71 840.168 1361.79 829.311 1362.19 809.458C1362.56 791.36 1363.44 772.674 1363.39 754.611C1363.37 690.682 1326.68 632.432 1269.03 604.818C1230.52 586.451 1184.19 584.784 1144.11 599.023C1102.79 614.061 1069.15 644.914 1050.59 684.78C1042.52 701.829 1037.7 721.111 1036.25 739.96C1035.67 747.473 1036.79 760.062 1034.49 766.638C1032.6 772.095 1028.33 776.396 1022.88 778.323C1009.43 783.217 995.292 774.591 994.984 759.932C994.774 749.989 995.211 739.909 995.432 729.95L996.845 668.363C997.788 627.152 999.5 599.661 980.765 560.742C976.819 552.538 972.321 542.869 965.911 536.036C965.402 536.637 964.398 537.891 963.887 538.392C964.425 539.703 966.039 542.2 966.864 543.44C979.583 562.577 987.237 581.666 991.443 604.441C993.028 613.413 993.857 622.508 993.928 631.618C994.087 642.229 993.519 654.474 993.272 665.182L991.878 726.281C991.666 735.437 989.758 761.764 993.119 769.13C995.868 775.232 1000.95 779.975 1007.23 782.293C1013.18 784.424 1019.64 784.026 1025.39 781.144C1043.2 772.227 1038.15 752.426 1040.49 735.771C1042.08 724.465 1043.29 713.886 1047.32 703.057C1050.46 694.592 1054.24 684.273 1058.7 676.479C1070.53 655.779 1088.46 635.422 1107.9 621.528C1113.51 617.509 1123.34 612.324 1129.44 609.366C1167.57 590.687 1211.59 588.079 1251.65 602.122C1305.27 620.836 1341.56 663.322 1355.93 717.702C1360.84 736.285 1360.11 752.857 1359.68 771.815L1358.7 813.925C1358.34 829.496 1357.71 845.807 1364.81 860.276L1365.04 860.742Z" fill="#D1F1F5"/>
<path d="M913.579 510.826C913.673 509.884 913.359 507.516 913.62 507.031C910.803 504.311 906.702 502.148 903.328 500.182C887.658 490.869 870.428 484.48 852.471 481.327C838.733 478.899 824.896 478.877 811 478.612L773.486 477.775C733.895 476.842 694.124 475.065 654.532 475.58L654.483 477.731C659.957 478.804 665.981 478.605 671.562 478.767L700.208 479.462L781.189 481.265C807.359 481.803 834.47 480.892 860.065 487.02C879.436 491.654 897.006 499.912 913.579 510.826Z" fill="#D1F1F5"/>
<path d="M876.963 475.965L877.975 475.815C878.89 474.9 878.741 473.839 878.869 472.593C869.504 469.943 859.893 467.75 850.242 466.483C838.305 464.909 826.331 464.801 814.32 464.538L773.969 463.651L654.851 461.47L654.795 463.953C658.72 464.872 663.437 464.68 667.501 464.849C678.103 465.198 688.707 465.47 699.317 465.674L783.337 467.582C814.534 468.289 846.981 466.531 876.963 475.965Z" fill="#D1F1F5"/>
<path d="M1574.44 912.423L1574.53 908.649L1570.5 908.587L1480.15 906.558L1450.69 905.902C1424.15 905.298 1402.87 903.507 1383.47 882.455C1375.96 874.311 1372.06 869.56 1367.4 859.13L1366.96 860.178C1367.98 862.391 1372.62 870.801 1372.64 871.936C1370.17 871.873 1366.82 860.976 1365.41 860.25L1365.04 860.741C1372.99 882.225 1394.86 900.893 1417.03 906.527C1433.69 910.761 1455.4 909.281 1472.89 909.894C1503.16 910.957 1533.55 911.008 1563.84 912.082C1566.83 911.95 1571.34 912.283 1574.44 912.423Z" fill="#D1F1F5"/>
<path d="M931.096 499.931C917.962 488.096 895.893 477.048 878.869 472.594C878.741 473.84 878.889 474.901 877.974 475.816L876.963 475.966C889.702 480.404 902.06 485.597 913.718 492.445C918.804 495.43 923.554 498.957 928.626 501.959C929.31 501.012 930.111 500.54 931.096 499.931Z" fill="#D1F1F5"/>
<path d="M946.21 536.611C941.67 529.175 921.095 511.319 913.62 507.031C913.359 507.516 913.673 509.884 913.579 510.826C926.952 519.924 933.645 527.908 944.759 539.725C944.826 537.783 945.05 537.915 946.21 536.611Z" fill="#D1F1F5"/>
<path d="M965.909 536.036C952.279 519.014 947.671 514.196 931.096 499.931C930.111 500.54 929.31 501.012 928.626 501.959C940.786 511.093 955.724 525.503 963.885 538.392C964.396 537.891 965.4 536.638 965.909 536.036Z" fill="#D1F1F5"/>
<path d="M958.502 559.37C959.324 559.575 959.88 559.469 960.722 559.402C960.76 558.3 960.531 557.591 960.283 556.527C957.974 551.857 949.755 541.069 946.211 536.611C945.051 537.915 944.827 537.783 944.76 539.725C950.016 545.774 954.621 552.358 958.502 559.37Z" fill="#D1F1F5"/>
<path d="M907.581 836.095C895.753 817.299 887.206 797.795 884.171 775.648C882.425 762.923 883.08 750.057 883.356 737.258L884.381 692.827C884.598 683.445 885.266 673.771 884.439 664.412C882.53 642.848 872.297 620.199 857.217 604.674C844.524 591.605 827.526 582.397 809.803 578.327C804.098 577.031 798.292 576.191 792.453 575.814C780.992 575.114 769.384 575.255 757.899 575.017L695.355 573.614L668.966 573.093C663.934 572.957 657.17 571.945 652.326 572.907L652.275 575.181C656.044 577.128 674.372 576.349 679.64 576.477L757.157 578.31C771.95 578.65 787.586 578.033 802.225 580.131C819.893 582.66 836.356 591.234 849.581 603.048C868.222 619.703 879.154 640.783 880.817 665.765C881.414 674.663 880.93 683.636 880.728 692.544L879.69 737.345C879.488 745.852 879.043 754.467 879.396 762.969C880.566 791.06 889.187 816.536 906.102 839.025C906.682 838.093 907.118 837.088 907.581 836.095Z" fill="#D1F1F5"/>
<path d="M1572.23 1009.96L1572.32 1006.12C1534.98 1005.85 1496.64 1004.56 1459.22 1003.71L1418.87 1002.8C1402.01 1002.41 1385.41 1002.63 1368.99 998.243C1350.46 993.293 1331.92 985.076 1316.72 973.242C1303.86 963.224 1292.49 949.349 1283.07 936.189C1283.36 937.38 1283.58 938.139 1283.63 939.382C1282.42 939.225 1282.16 939.025 1281.1 938.482C1284.2 945.05 1291.35 954.056 1296.22 959.366C1313.9 978.634 1336.48 992.752 1361.54 1000.22C1380.9 1005.8 1396.62 1005.85 1416.39 1006.3L1450.8 1007.06C1490.55 1007.95 1532.71 1008.19 1572.23 1009.96Z" fill="#D1F1F5"/>
<path d="M1281.1 938.482C1282.16 939.024 1282.42 939.224 1283.63 939.381C1283.58 938.139 1283.36 937.38 1283.07 936.189C1280.35 931.372 1278.25 926.982 1275.68 922.284L1274.94 922.518L1275.83 924.398L1275.53 924.822C1274.14 924.029 1274.5 924.071 1273.64 922.344C1272.97 922.827 1273.21 922.524 1272.89 923.226C1274.48 927.285 1278.82 934.755 1281.1 938.482Z" fill="#D1F1F5"/>
<path d="M918.79 849.715C914.663 845.514 910.912 840.956 907.581 836.095C907.118 837.088 906.682 838.093 906.103 839.025L915.856 851.006C917.306 850.73 917.66 850.731 918.79 849.715Z" fill="#D1F1F5"/>
<path d="M1272.88 923.226C1273.21 922.524 1272.97 922.827 1273.64 922.344C1274.5 924.071 1274.14 924.029 1275.53 924.822L1275.83 924.398L1274.94 922.518L1275.68 922.284C1262.11 887.184 1262.88 871.76 1263.72 834.814L1265.04 777.464C1265.32 765.488 1266.74 748.661 1263.88 737.411C1254.39 700.076 1212 676.285 1175.99 691.48C1139.35 706.942 1132.53 735.102 1133.02 770.758C1133.19 783.532 1124.61 806.811 1118.14 817.911C1118.2 818.251 1118.42 818.732 1118.56 819.077L1119.61 818.105C1120.32 818.883 1120.06 819.927 1120.07 821.252C1129.28 807.354 1136.13 783.128 1136.75 766.555C1137.47 747.407 1136.19 738.278 1146.43 721.016C1175.11 672.685 1248.52 684.918 1260.56 739.547C1263.26 751.776 1262.07 765.239 1261.79 777.736L1260.61 828.23C1259.93 855.501 1257.17 883.765 1267.04 909.77C1268.68 914.08 1270.27 919.408 1272.88 923.226Z" fill="#D1F1F5"/>
<path d="M909.011 817.671C919.618 839.454 941.886 859.548 963.846 869.748C993.701 883.415 1027.75 884.701 1058.55 873.324C1080.78 865.156 1110.17 842.604 1120.07 821.252C1120.06 819.927 1120.32 818.883 1119.61 818.105L1118.56 819.077C1118.42 818.732 1118.2 818.251 1118.14 817.911C1098.37 847.809 1074.94 867.524 1038.87 874.9C1008.4 881.042 976.727 874.944 950.716 857.925C933.749 846.758 919.796 831.582 910.09 813.739L909.42 814.242C908.391 813.16 908.295 811.01 907.188 810.372L906.757 811.149C907.441 813.039 909.875 815.813 909.011 817.671Z" fill="#D1F1F5"/>
<path d="M1572.54 996.337L1572.64 992.037C1532.34 991.883 1490.47 990.309 1450.05 989.417L1415.43 988.667C1411.51 988.581 1400.28 988.517 1396.87 987.78C1377.83 986.793 1360.08 980.582 1343.39 971.865C1342.22 971.257 1340.15 970.129 1338.98 969.735C1338.34 970.882 1338.22 971.292 1337.14 972.071C1370.46 995.145 1408.09 992.42 1446.56 993.288L1523.97 995.023C1540.03 995.379 1556.54 995.531 1572.54 996.337Z" fill="#D1F1F5"/>
<path d="M876.168 602.652C864.678 584.161 838.031 569.218 817.278 564.398C811.855 563.117 806.33 562.297 800.772 561.94C789.574 561.241 778.264 561.262 767.047 561.003L708.565 559.669C701.018 559.498 657.88 557.654 653.485 559.03L652.62 559.955L652.587 561.416C653.336 561.801 653.943 562.073 654.79 562.174C659.336 562.722 664.125 562.549 668.704 562.617C675.861 562.729 683.018 562.873 690.173 563.058L760.803 564.676C773.735 564.96 786.935 564.687 799.818 565.751C832.736 568.472 854.613 582.557 875.6 607.293C875.539 605.57 875.437 604.265 876.168 602.652Z" fill="#D1F1F5"/>
<path d="M909.011 817.671C909.875 815.813 907.44 813.039 906.757 811.148L907.188 810.372C908.295 811.01 908.391 813.16 909.42 814.242L910.09 813.739C904.386 800.976 899.593 787.305 897.961 773.355C896.626 761.956 897.06 750.407 897.324 738.96L898.444 690.491C898.672 680.646 899.303 670.62 898.709 660.788C898.213 652.629 894.747 631.26 889.802 625.282L889.172 625.849L888.848 625.709L888.581 625.862C887.965 626.212 887.439 626.572 886.697 626.478C886.656 626.473 886.616 626.453 886.575 626.439C895.534 648.835 895.104 664.005 894.574 687.594L893.493 734.304C892.763 766.522 892.366 788.868 909.011 817.671Z" fill="#D1F1F5"/>
<path d="M1337.14 972.072C1338.22 971.293 1338.34 970.882 1338.98 969.736C1332.93 966.093 1327.23 961.875 1321.98 957.141C1320.41 957.707 1320.41 957.535 1319.67 959.249C1325.61 964.129 1330.76 967.801 1337.14 972.072Z" fill="#D1F1F5"/>
<path d="M883.86 620.043C884.853 620.524 885.524 621.37 886.269 622.159C886.146 620.971 886.084 619.885 886.215 618.694L886.254 618.386C884.514 614.859 882.26 611.516 880.05 608.27C879.103 608.611 878.244 608.814 877.63 609.672C879.829 613.032 881.878 616.548 883.86 620.043Z" fill="#D1F1F5"/>
<path d="M889.802 625.282C888.749 622.865 887.661 620.611 886.254 618.386L886.215 618.694C886.084 619.885 886.145 620.972 886.268 622.16C885.523 621.371 884.852 620.525 883.86 620.044C884.669 622.201 885.67 624.321 886.575 626.439C886.616 626.454 886.656 626.473 886.697 626.478C887.44 626.572 887.965 626.212 888.582 625.863L888.848 625.71L889.172 625.849L889.802 625.282Z" fill="#D1F1F5"/>
<path d="M880.05 608.27C878.784 606.398 877.572 604.418 876.168 602.651C875.437 604.265 875.539 605.57 875.6 607.293L877.63 609.672C878.244 608.815 879.102 608.612 880.05 608.27Z" fill="#D1F1F5"/>
<path d="M1314.34 712.692C1304.92 683.946 1281.28 657.629 1254.35 644.116C1180.89 607.262 1091.58 653.059 1078.9 734.433C1077.13 745.831 1078.15 757.043 1076.75 768.42C1073.86 790.755 1057.07 810.936 1035.73 818.183C1019.79 823.487 1002.4 822.257 987.364 814.761C978.785 810.471 971.096 804.786 965.705 796.85C965.38 796.368 961.022 790.338 960.955 790.283L960.414 790.94L959.15 789.601L958.244 789.732L959.112 792.089L958.675 792.91C960.778 798.888 973.958 811.331 979.209 814.812C1019.2 841.319 1075.38 815.109 1080.66 767.289C1081.72 757.657 1081.32 747.97 1082.47 738.303C1083.73 728.263 1086.2 718.411 1089.83 708.967C1097.28 689.486 1113.48 669.152 1130.48 657.044C1136.54 652.729 1146.04 647.764 1152.84 644.754C1181.15 632.345 1213.24 631.765 1241.98 643.141C1253.29 647.511 1259.8 651.331 1269.53 658.297C1291.53 674.041 1301.05 691.122 1311.64 715.123L1312.08 714.541L1313 715.506C1314.04 714.624 1313.85 714.278 1314.34 712.692Z" fill="#D1F1F5"/>
<path d="M960.952 790.283C950.364 770.496 952.647 758.094 953.161 736.395L954.555 676.671C954.858 663.29 955.633 647.741 954.541 634.621C951.73 603.795 938.666 574.799 917.434 552.273C903.341 537.084 893.096 529.405 874.468 520.165C844.154 505.126 815.02 506.377 782.171 505.647L710.215 504.048L674.141 503.217C669.766 503.114 657.443 502.576 653.904 503.29L653.84 506.099C656.611 506.63 664.332 506.705 667.322 506.777L691.482 507.315L776.264 509.25C799.566 509.778 824.665 508.703 847.064 514.377C906.095 529.336 950.165 582.483 951.602 643.69C951.846 654.146 951.311 665.162 951.071 675.764L949.674 737.402C949.198 758.407 947.691 773.625 958.673 792.91L959.109 792.088L958.241 789.732L959.147 789.6L960.411 790.94L960.952 790.283Z" fill="#D1F1F5"/>
<path d="M1573.81 940.499L1573.9 936.418C1540.77 936.57 1505.54 935.092 1472.23 934.328L1440.3 933.623C1436.81 933.547 1426.98 933.522 1423.93 933.022C1398.77 932.499 1375.21 921.315 1358.08 903.137C1343.63 887.802 1335.19 865.202 1333.97 844.36C1333.43 835.128 1333.87 824.861 1334.08 815.563L1335.06 773.358C1335.34 760.985 1335.87 749.096 1334.41 736.786C1332.28 718.909 1323.65 694.917 1313.49 679.99L1312.69 681.492C1312.28 681.544 1310.9 681.57 1310.69 681.669C1331.54 714.57 1332.45 736.471 1331.57 773.727L1330.48 819.9C1330.25 829.45 1329.69 839.625 1330.45 849.137C1333.64 888.161 1364.76 923.598 1402.39 933.495C1421.11 938.418 1446.34 937.424 1466.22 937.85L1531.21 939.257C1545.31 939.564 1559.76 939.683 1573.81 940.499Z" fill="#D1F1F5"/>
<path d="M948.764 567.949C944.554 558.396 938.643 552.364 932.118 544.592C915.713 525.059 896.198 512.317 872.736 502.641C846.243 491.715 819.885 492.417 791.77 491.771L726.177 490.28L678.88 489.213C672.854 489.081 659.819 488.491 654.227 489.031L654.16 491.986C656.934 492.966 684.663 493.281 689.554 493.387L781.271 495.483C803.896 495.996 827.994 495.229 850.099 499.844C878.829 505.839 904.931 521.396 925.417 542.193C932.323 549.201 940.85 561.576 946.194 569.988C946.088 568.833 945.827 567.537 946.308 566.54C947.124 567.017 947.939 567.485 948.764 567.949Z" fill="#D1F1F5"/>
<path d="M1313.49 679.99C1308.96 671.086 1302.67 665.123 1296.11 658.236C1281.15 642.543 1262.03 630.368 1241.25 623.813C1205.41 612.503 1167.72 615.967 1134.59 633.883C1123.91 639.657 1109.33 649.861 1101.86 659.447C1096.84 664.508 1092.99 669.533 1088.59 675.095C1088.1 677.5 1087.98 677.932 1089.54 679.735C1093.61 672.864 1097.5 668.358 1102.82 662.481C1103.24 662.184 1107.7 658.033 1108.43 657.363C1112.35 653.749 1115.81 650.957 1120.03 647.765C1149.67 625.375 1184.6 617.38 1221.32 622.753C1247.68 626.61 1272.6 640.665 1292.04 658.757C1297.63 663.959 1305.95 675.256 1310.69 681.668C1310.9 681.57 1312.28 681.543 1312.69 681.492L1313.49 679.99Z" fill="#D1F1F5"/>
<path d="M1102.81 662.481L1101.98 662.269C1100.28 663.946 1092.03 674.126 1091.18 674.364L1091.02 673.487C1091.25 673.273 1102.49 659.623 1102.5 659.593L1101.86 659.447C1096.84 664.508 1092.98 669.533 1088.59 675.095C1088.1 677.5 1087.98 677.932 1089.53 679.735C1093.6 672.864 1097.5 668.358 1102.81 662.481Z" fill="#D1F1F5"/>
<path d="M965.119 772.696C965.344 771.782 965.266 772.042 965.716 771.214C967.171 773.338 967.524 778.179 969.221 780.828C970.715 779.608 966.294 772.936 967.423 768.82C967.435 766.48 967.115 764.173 967.113 761.866C967.096 736.743 968.326 711.54 968.645 686.423C968.919 665.096 970.677 643.637 967.933 622.434C965.692 605.12 958.106 583.476 949.058 568.247C948.96 568.149 948.862 568.051 948.765 567.949C947.94 567.486 947.124 567.018 946.309 566.541C945.828 567.538 946.089 568.833 946.194 569.989C961.632 596.188 967.203 624.811 965.335 654.752C964.977 660.556 965.044 666.828 964.907 672.67L963.553 731.236C963.255 743.961 961.962 760.764 965.119 772.696Z" fill="#D1F1F5"/>
<path d="M1089.53 679.736C1087.98 677.933 1088.1 677.501 1088.59 675.096C1074.02 693.852 1065.98 719.226 1063.98 742.749C1062.81 756.41 1065.44 768.925 1058.03 781.991C1051.07 794.265 1043.85 797.866 1032.87 804.463L1032.71 805.207C1031.68 805.7 1031.47 805.666 1030.94 806.667L1031.34 807.394L1033.66 806.856L1033.85 807.567C1040.26 805.94 1046.97 801.027 1051.65 796.549C1072.84 776.297 1064.62 749.019 1070.65 723.619C1073.31 712.45 1077.81 701.23 1082.94 690.928C1084.67 687.482 1087.53 683.342 1089.53 679.736Z" fill="#D1F1F5"/>
<path d="M1033.85 807.567L1033.66 806.855L1031.34 807.393L1030.94 806.667C1031.47 805.666 1031.68 805.699 1032.71 805.207L1032.87 804.463C1004.17 814.913 974.375 798.231 967.423 768.82C966.295 772.935 970.715 779.607 969.221 780.827C967.524 778.179 967.171 773.338 965.716 771.214C965.266 772.041 965.345 771.782 965.12 772.695C966.132 775.896 967.328 779.036 968.693 782.101C974.027 793.96 983.915 803.166 996.122 807.641C1007.13 811.785 1023.03 812.418 1033.85 807.567Z" fill="#D1F1F5"/>
<path d="M1329.09 922.83C1332.4 923.763 1332.36 927.53 1336.11 927.513C1333.35 924.533 1323.38 914.283 1323.23 910.623C1322.32 908.558 1320.94 906.347 1319.77 904.379C1305.6 880.444 1305.4 855.911 1306.12 829.152L1307.32 778.875C1307.54 769.415 1307.9 759.922 1307.73 750.424C1306.97 707.698 1277.5 667.883 1238.19 652.19C1212.96 642.115 1181.71 643.046 1156.84 653.983C1137.34 662.609 1111.74 683.513 1103.58 704.338C1103.53 704.523 1103.49 704.71 1103.45 704.895C1105.23 705.862 1103.37 704.853 1104.1 706.889C1105.09 706.237 1105.23 705.854 1105.75 704.85L1106.82 704.765C1107.7 704 1112.29 696.294 1113.45 694.582C1132.65 666.046 1162.9 649.79 1197.96 649.14C1225.6 648.677 1252.3 659.168 1272.23 678.323C1290.16 695.705 1303.16 722.915 1303.64 747.948C1304.29 781.976 1301.73 817.061 1301.86 851.216C1301.94 872.289 1308.1 892.101 1319.45 909.834C1322.22 914.168 1325.42 919.276 1329.09 922.83Z" fill="#D1F1F5"/>
<path d="M1573.49 954.61L1573.59 950.205C1541.19 950.235 1507.2 948.92 1474.67 948.178L1438.91 947.371C1424.99 947.062 1410.44 947.332 1396.97 943.729C1379.03 938.933 1364.08 931.605 1350.95 918.526C1347.21 914.756 1343.62 910.832 1340.21 906.764L1338.54 909.358C1350.36 925.327 1373.37 941.226 1392.48 946.529C1413.86 952.461 1439.65 951.276 1461.99 951.786L1528.52 953.269C1543.39 953.596 1558.69 953.738 1573.49 954.61Z" fill="#D1F1F5"/>
<path d="M1573.17 968.411L1573.27 964.005C1560.93 964.288 1547.35 963.733 1534.94 963.455L1472.88 962.045L1433.23 961.161C1408.92 960.625 1388.92 960.3 1367 948.715C1364.95 947.633 1357.4 943.327 1355.85 942.954C1354.86 944.02 1354.64 944.115 1353.38 944.891C1368.12 957.055 1393.23 963.001 1411.85 964.537C1420.44 964.369 1431.41 964.904 1440.19 965.102L1493.95 966.308L1542.6 967.404C1552.3 967.624 1563.58 967.65 1573.17 968.411Z" fill="#D1F1F5"/>
<path d="M877.874 540.185C864.533 530.879 848.009 525.151 832.089 522.298C818.781 519.912 805.423 520.159 791.972 519.908L745.923 518.897L694.176 517.666C680.814 517.258 666.911 516.326 653.589 517.177L653.533 519.655C659.185 521.472 685.707 521.111 693.69 521.242L766.568 523.006C789.93 523.486 814.501 522.267 837.361 527.457C851.291 530.619 863.469 536.362 875.996 543.112C876.464 541.887 876.963 541.127 877.874 540.185Z" fill="#D1F1F5"/>
<path d="M1338.54 909.358L1340.21 906.763C1334.22 899.266 1332.42 895.319 1328.47 886.85C1317.87 864.127 1319.5 843.911 1320.06 819.579L1321.02 777.438C1321.6 751.187 1321.85 738.098 1314.34 712.692C1313.85 714.278 1314.04 714.624 1313 715.506L1312.08 714.541L1311.64 715.122C1318.6 734.043 1318.23 747.457 1317.76 766.995L1316.45 821.319C1315.48 861.085 1315.62 875.58 1338.54 909.358Z" fill="#D1F1F5"/>
<path d="M938.402 750.619C939.27 731.929 939.509 712.971 939.823 694.289C940.277 667.465 944.089 639.071 935.201 613.165C932.497 605.281 922.883 583.341 917.207 577.782C917.095 577.711 916.983 577.64 916.871 577.57C915.394 576.615 913.833 575.394 912.9 573.884L913.305 574.242L912.903 573.938L912.843 574.395C912.936 574.507 913.033 574.622 913.121 574.738C914.22 576.161 914.888 578.338 915.229 580.089C918.625 585.714 922.279 591.169 925.113 597.108C938.597 625.365 937.503 652.629 937.049 682.907L935.686 749.08C936.509 750.22 937.219 752.514 937.119 753.922C937.068 754.591 936.934 754.311 937.234 754.696L937.088 753.729L937.57 753.479L937.022 754.227C937.215 752.899 937.435 752.013 938.205 750.896C938.271 750.802 938.336 750.711 938.402 750.619Z" fill="#D1F1F5"/>
<path d="M917.207 577.782C907.985 562.984 892.792 549.059 877.874 540.185C876.963 541.127 876.465 541.887 875.996 543.112C891.743 551.655 904.399 566.154 915.229 580.089C914.888 578.337 914.22 576.161 913.121 574.738C913.033 574.622 912.936 574.506 912.843 574.395L912.903 573.938L913.305 574.242L912.9 573.884C913.833 575.394 915.394 576.614 916.871 577.57C916.983 577.64 917.095 577.711 917.207 577.782Z" fill="#D1F1F5"/>
<path d="M1355.85 942.954C1342.75 934.678 1332.1 923.236 1323.23 910.623C1323.38 914.283 1333.34 924.533 1336.11 927.513C1332.35 927.53 1332.4 923.763 1329.09 922.83C1335.68 931.303 1344.85 938.523 1353.38 944.891C1354.64 944.114 1354.86 944.02 1355.85 942.954Z" fill="#D1F1F5"/>
<path d="M1321.98 957.141C1314.53 949.503 1307.28 942.362 1300.84 933.773C1285.03 912.692 1276.97 884.142 1277.31 857.936L1278.94 786.708C1279.27 772.284 1280.76 748.791 1277.69 735.417C1274.51 721.631 1267.65 708.966 1257.84 698.775C1241.36 681.827 1224.21 673.628 1200.4 673.06C1179.16 672.552 1159.7 680.763 1144.49 695.511C1130.5 709.085 1121.13 727.874 1119.87 747.43C1118.91 762.455 1119.84 771.473 1115.81 786.589C1103.47 832.319 1061.72 863.875 1014.35 863.26C987.233 863.215 961.242 852.392 942.105 833.174C926.77 817.474 917.897 800.533 912.605 779.386L912.076 780.125C910.643 775.828 909.239 768.065 909.895 763.559L909.422 763.785C908.63 767.501 909.694 778.826 911.476 782.126L911.092 782.259C910.636 781.338 910.214 780.339 909.643 779.488C913.888 806.132 929.359 829.26 950.634 845.479C973.237 862.582 1001.69 870.046 1029.77 866.24C1075.17 860.035 1111.71 825.856 1120.94 780.968C1126.79 752.379 1117.72 733.129 1138.65 706.764C1180.13 654.538 1263.56 674.413 1274.85 740.992C1276.94 753.343 1275.87 765.685 1275.57 778.139L1274.3 832.706C1273.98 846.749 1273.12 863.73 1274.95 877.434C1278.83 906.492 1296.46 941.108 1319.67 959.249C1320.41 957.536 1320.41 957.707 1321.98 957.141Z" fill="#D1F1F5"/>
<path d="M876.235 583.674C877.224 582.302 877.132 581.169 877.141 579.558C874.025 576.999 871.143 574.173 867.976 571.672C857.534 563.453 845.676 557.209 832.995 553.244C825.392 550.938 817.578 549.389 809.668 548.629C797.254 547.499 784.606 547.643 772.146 547.366L711.027 545.995L673.731 545.159C667.782 545.028 661.06 544.336 655.17 545.011C654.269 545.113 653.667 545.24 652.94 545.827L652.895 547.824C666.809 549.27 681.352 548.859 695.351 549.172L772.311 550.884C787.898 551.237 804.457 550.372 819.73 553.788C840.69 558.476 860.851 568.527 876.235 583.674Z" fill="#D1F1F5"/>
<path d="M912.602 779.386C909.763 765.643 910.587 751.89 910.921 737.964L912.149 687.169C912.435 675.738 913.305 663.975 912.392 652.577C909.976 624.74 897.435 598.761 877.14 579.558C877.131 581.169 877.223 582.302 876.234 583.674C878.035 586.57 881.367 588.989 883.557 591.69C889.825 599.424 895.637 608.777 899.924 617.769C911.227 641.496 909.442 667.374 908.869 692.856L907.876 736.682C907.695 744.901 907.126 753.354 907.571 761.558C907.894 767.549 908.802 773.552 909.64 779.488C910.21 780.339 910.633 781.338 911.089 782.259L911.473 782.126C909.691 778.826 908.626 767.501 909.419 763.785L909.891 763.559C909.235 768.065 910.64 775.828 912.072 780.125L912.602 779.386Z" fill="#D1F1F5"/>
<path d="M919.107 615.126C912.038 598.324 903.352 582.127 889.963 569.491C887.959 567.598 885.682 565.262 883.312 563.892L882.627 564.276C881.469 563.278 879.256 561.148 877.743 560.996C877.037 560.925 875.994 561.442 875.344 561.704C893.029 575.631 908.106 594.312 916.002 615.532C917.455 615.701 917.773 615.699 919.107 615.126Z" fill="#D1F1F5"/>
<path d="M1572.86 982.305L1572.95 978.226C1570.52 978.187 1567.06 978.233 1564.73 977.957C1553.52 978.074 1541.29 977.57 1530 977.307L1471.76 975.979L1427.43 974.976C1413.16 974.649 1399.1 974.816 1385.12 971.538C1354.7 964.406 1325.87 945.184 1309.48 918.215C1308.53 917.488 1307.94 917.05 1306.91 916.428C1306.55 917.658 1307.29 918.188 1307.12 919.827C1309.74 925.302 1317.46 934.578 1321.65 939.055C1328.84 946.659 1336.93 953.354 1345.75 958.991C1373.33 976.792 1394.89 978.171 1426.26 978.851L1464.13 979.703L1564.63 982.021C1567.16 981.958 1570.29 982.187 1572.86 982.305Z" fill="#D1F1F5"/>
<path d="M883.312 563.891C873.532 553.694 847.21 540.82 833.452 537.675C811.05 532.545 785.977 533.657 763.011 533.173L679.752 531.283C676.049 531.208 655.419 530.005 653.259 531.795L653.214 533.755C658.278 535.273 683.462 534.858 690.328 535L764.016 536.706C808.662 537.717 836.894 534.825 875.344 561.704C875.994 561.442 877.037 560.925 877.743 560.996C879.256 561.148 881.469 563.278 882.627 564.275L883.312 563.891Z" fill="#D1F1F5"/>
<path d="M1088.84 789.617L1087.74 788.861C1087.66 786.264 1088.52 785.89 1088.03 783.624C1078.83 805.364 1066.69 820.572 1044.12 829.656C1025.17 837.355 1003.93 837.188 985.096 829.191C966.242 821.108 951.36 805.889 943.696 786.861C938.683 774.245 938.403 763.955 938.401 750.619C938.336 750.711 938.27 750.803 938.204 750.896C937.435 752.013 937.215 752.899 937.021 754.227L937.569 753.479L937.087 753.729L937.233 754.697C936.933 754.311 937.067 754.592 937.119 753.922C937.219 752.515 936.508 750.22 935.685 749.08C935.204 765.306 935.891 777.482 942.912 792.596C951.605 811.307 967 826.744 986.403 834.021C1006.51 841.651 1028.83 840.999 1048.46 832.208C1066.09 824.117 1082.04 807.937 1088.84 789.617Z" fill="#D1F1F5"/>
<path d="M1309.48 918.215C1290.55 881.072 1290.81 868.63 1291.74 827.92L1293.02 772.269C1293.39 755.819 1294.55 739.371 1288.71 723.658C1286.82 718.561 1283.69 710.946 1280.65 706.477C1278.85 705.744 1278.22 704.54 1277.08 703.032C1277.15 704.59 1278.04 706.247 1278.23 708.545C1284.5 718.977 1289.45 736.074 1290.09 748.187C1290.56 757.145 1289.98 767.674 1289.77 776.781L1288.61 825.151C1287.81 857.765 1286.15 892.259 1307.12 919.827C1307.29 918.188 1306.55 917.658 1306.91 916.428C1307.94 917.049 1308.53 917.487 1309.48 918.215Z" fill="#D1F1F5"/>
<path d="M928.864 785.596C924.035 768.718 925.07 752.663 925.482 735.303L926.528 691.515C927.056 669.042 929.73 635.367 919.106 615.125C917.772 615.699 917.454 615.701 916.001 615.531C918.798 624.749 921.592 634.243 922.546 643.858C923.751 656.006 923.069 668.257 922.798 680.437L921.665 730.022C921.221 749.644 919.228 772.091 926.782 790.731C927.462 788.361 925.758 786.446 925.564 784.175C925.481 783.218 925.778 782.772 926.41 782.119C927.309 783.333 927.787 784.641 928.342 786.031L928.864 785.596Z" fill="#D1F1F5"/>
<path d="M1178.34 664.866C1174.72 663.889 1171.89 666.737 1169.5 666.044L1169.47 665.509C1171.82 664.635 1175.25 663.851 1177.21 662.765L1176.58 662.378C1138.49 672.39 1107.55 706.335 1106.12 746.132C1105.09 774.743 1105.24 787.832 1088.71 812.178L1088.81 813.091C1089.36 813.782 1089.49 813.967 1089.88 814.738L1090.19 815.363C1100.77 801.655 1107.6 783.287 1108.7 766.021C1109.3 756.606 1109.09 747.088 1110.68 737.766C1115.66 708.654 1134.32 683.921 1160.99 671.203C1166.71 668.474 1172.24 666.744 1178.34 664.866Z" fill="#D1F1F5"/>
<path d="M1280.65 706.477C1262.96 672.955 1222.16 653.794 1185.26 660.327C1183.01 660.726 1178.57 661.379 1176.58 662.378L1177.21 662.765C1175.25 663.851 1171.82 664.635 1169.47 665.509L1169.5 666.044C1171.89 666.737 1174.72 663.89 1178.34 664.866C1182.02 664.614 1186.56 663.752 1190.49 663.378C1200.16 662.555 1209.9 663.146 1219.4 665.133C1245.21 670.555 1264.13 686.924 1278.23 708.546C1278.03 706.247 1277.14 704.59 1277.08 703.032C1278.22 704.54 1278.85 705.744 1280.65 706.477Z" fill="#D1F1F5"/>
<path d="M1090.19 815.363L1089.88 814.737C1089.49 813.966 1089.36 813.781 1088.81 813.09L1088.71 812.177C1066.32 838.981 1037.87 853.694 1002.3 848.59C998.638 848.065 994.327 846.744 990.796 846.483C988.842 846.989 987.921 846.545 985.907 846.077L985.136 846.655C985.931 847.602 989.76 848.558 991.153 848.986L991.089 849.82C1001.81 854.739 1027.56 853.016 1039.09 850.012C1057.6 845.188 1080.2 832.048 1090.19 815.363Z" fill="#D1F1F5"/>
<path d="M967.426 836L967.053 835.645C965.435 834.129 960.994 830.93 958.985 829.252C948.607 820.597 942.936 814.416 936.558 802.539C934.551 798.77 932.722 794.91 931.077 790.971C930.719 790.132 929.106 785.991 928.865 785.597L928.342 786.032C927.788 784.642 927.309 783.334 926.411 782.12C925.779 782.773 925.482 783.219 925.565 784.176C925.759 786.447 927.463 788.362 926.783 790.732C926.802 791.107 927.034 791.899 927.148 792.242C932.919 809.48 949.567 830.131 965.472 838.696L965.615 838.186C966.114 837.806 966.156 837.771 966.629 837.314L966.623 836.569L967.426 836Z" fill="#D1F1F5"/>
<path d="M1088.84 789.616C1097.36 768.042 1093.26 755.333 1096.83 733.41C1098.54 722.932 1102.26 714.241 1106.81 704.765L1105.75 704.85C1105.23 705.854 1105.08 706.237 1104.1 706.889C1103.36 704.852 1105.22 705.862 1103.44 704.895C1096.61 719.1 1092.65 733.304 1092 749.055C1091.49 761.378 1091.83 771.698 1088.03 783.624C1088.52 785.889 1087.66 786.264 1087.74 788.86L1088.84 789.616Z" fill="#D1F1F5"/>
<path d="M991.088 849.821L991.153 848.987C989.76 848.559 985.931 847.603 985.135 846.656L985.907 846.077C987.921 846.546 988.842 846.99 990.796 846.484C984.332 844.454 981.01 843.384 974.87 840.258C973.288 840.954 973.731 840.844 972.598 842.553C978.671 845.421 984.571 848.144 991.088 849.821Z" fill="#D1F1F5"/>
<path d="M974.871 840.257C972.402 838.82 969.918 837.4 967.426 836L966.623 836.569L966.629 837.313C966.155 837.77 966.114 837.805 965.615 838.185L965.472 838.695C967.868 840.139 970.108 841.28 972.598 842.553C973.731 840.844 973.288 840.953 974.871 840.257Z" fill="#D1F1F5"/>
</svg>
