<svg width="55" height="75" viewBox="0 0 55 75" fill="none" xmlns="http://www.w3.org/2000/svg">
<path d="M26.7565 0.0244733C30.3232 -0.246768 32.2989 1.76021 33.4448 4.87326C35.912 2.73522 39.1299 2.13332 41.9298 4.19123C43.9642 5.68657 43.9627 8.17516 44.2101 10.4946C45.3595 11.8955 46.6093 9.53592 49.7495 12.021C51.01 13.0283 51.7993 14.511 51.9312 16.1192C52.1277 18.3515 51.3326 19.7476 49.9341 21.326C51.7968 22.1347 53.2671 22.9031 54.2384 24.8503C54.9451 26.2686 55.0382 27.9147 54.496 29.4034C53.6454 31.6729 52.0134 32.6413 50.0021 33.6215C53.6945 37.5756 52.1784 42.6112 46.8929 44.0694C46.0653 44.2978 44.8559 44.2131 43.9755 44.1854C44.2269 46.0238 44.2012 47.7838 43.084 49.3267C40.4016 53.0318 36.8069 52.3696 33.5802 50.2579C32.6495 52.045 32.2745 52.6804 30.6841 53.9573C32.4437 56.801 32.4406 58.1781 30.5019 60.8158C34.7525 64.5264 35.3122 69.4642 35.8677 74.7932C33.8489 74.8785 31.3933 74.7934 29.343 74.7756C25.9937 74.7934 22.24 74.8894 18.9266 74.7331C19.6392 69.8624 20.0252 64.2792 24.2435 61.0034C22.4318 58.1036 22.3821 56.9376 24.1443 54.0904C22.5318 52.5854 22.209 52.2062 21.4545 50.1283C15.5922 54.0704 10.1818 51.1803 10.8218 44.1253C7.02654 44.3388 3.6468 43.3499 2.91507 38.8221C2.59413 36.8348 3.51966 35.1336 4.78414 33.6225C2.82044 32.6794 1.35243 31.912 0.446366 29.6957C-0.160303 28.2238 -0.148094 26.5694 0.480108 25.1066C1.37727 23.0549 2.85584 22.2362 4.79056 21.4767C2.80118 18.7455 1.89119 15.4546 4.49965 12.5399C6.08527 10.7679 8.11916 10.631 10.305 10.7406C10.4144 10.7037 10.5237 10.6666 10.6332 10.6298C10.7013 7.69873 11.461 3.98769 14.7459 3.12863C17.278 2.46626 19.3444 3.43776 21.4385 4.69334L21.5 4.54364L21.6067 4.29579C22.7784 1.51899 23.9352 0.776908 26.7565 0.0244733Z" fill="#E9967B"/>
<path d="M22.8891 10.1936C26.0781 13.1547 28.6419 12.6588 31.9829 10.3133C32.1494 10.6794 32.4038 11.286 32.5645 11.5608C34.902 15.5542 35.7146 14.5347 39.3505 15.0325C40.0899 15.1337 39.5431 17.7291 40.3106 19.2071C41.5134 21.523 42.2892 21.8615 44.5219 22.8285C42.2778 26.0753 41.7124 28.784 44.5424 31.9523C40.5237 33.8083 39.5095 35.4948 39.9143 39.8976C35.7409 39.6551 33.5762 40.4918 32.0736 44.5594C28.628 41.9988 26.4225 41.9062 22.9837 44.5114C21.6975 41.9561 20.4498 40.2854 17.3216 39.8616C16.5334 39.7549 15.8016 39.9624 15.1355 39.6437C14.4889 38.1915 15.2832 36.8442 14.5222 35.3445C13.5982 33.5234 12.0411 32.7623 10.3333 31.9742C12.7896 28.6022 13.0056 26.0898 10.2139 22.8945C14.3189 21.1521 15.3072 19.3696 14.9239 15.0271C19.3644 15.2896 21.1289 14.3593 22.8891 10.1936Z" fill="white"/>
<path d="M27.3556 61.9125C32.0114 62.5065 33.0382 69.0035 33.6662 72.7605C31.7019 72.8012 29.7061 72.7975 27.7387 72.812L21.1572 72.8362C21.7055 69.0865 22.84 62.6262 27.3556 61.9125Z" fill="white"/>
<path d="M5.01169 23.4747C6.43913 23.0881 7.96408 23.5008 9.00163 24.5545C10.0392 25.6082 10.4282 27.1394 10.0197 28.5606C9.61099 29.9818 8.46825 31.0723 7.02944 31.4142C4.85268 31.9312 2.66349 30.6061 2.11252 28.4376C1.56134 26.2691 2.85212 24.0596 5.01169 23.4747Z" fill="white"/>
<path d="M26.6231 2.13539C28.0847 1.85463 29.5836 2.38903 30.5379 3.53114C31.492 4.67346 31.7515 6.24334 31.2152 7.63185C30.6791 9.02014 29.4316 10.0082 27.9574 10.2126C26.753 10.3795 25.5365 10.0024 24.6377 9.1833C23.7389 8.36441 23.2504 7.18834 23.3049 5.97355C23.3896 4.08046 24.7621 2.49277 26.6231 2.13539Z" fill="white"/>
<path d="M26.5894 44.7416C28.8121 44.2938 30.9748 45.7405 31.4094 47.9659C31.8438 50.1913 30.3843 52.3453 28.1564 52.7666C25.9471 53.1845 23.8151 51.7398 23.3842 49.5329C22.9531 47.3261 24.3851 45.1856 26.5894 44.7416Z" fill="white"/>
<path d="M8.31808 34.0562C10.5331 33.7114 12.6128 35.2148 12.9799 37.4262C13.3472 39.6377 11.8651 41.7325 9.65731 42.122C8.20938 42.3777 6.73535 41.8358 5.7976 40.703C4.85985 39.5704 4.60269 38.0212 5.12406 36.6464C5.64542 35.2714 6.86518 34.2823 8.31808 34.0562Z" fill="white"/>
<path d="M47.6997 23.4661C49.1417 23.1019 50.6674 23.5496 51.6841 24.635C52.7007 25.7203 53.0477 27.2722 52.5899 28.6872C52.1323 30.1022 50.9422 31.157 49.4825 31.4414C47.3096 31.8649 45.1946 30.4815 44.7115 28.3209C44.2287 26.1605 45.5534 24.0082 47.6997 23.4661Z" fill="white"/>
<path d="M37.2406 4.98123C39.4378 4.53627 41.5825 5.94776 42.043 8.14191C42.5035 10.3359 41.1073 12.4905 38.9165 12.9665C36.7037 13.4473 34.5226 12.0339 34.0575 9.8176C33.5925 7.6015 35.0212 5.43054 37.2406 4.98123Z" fill="white"/>
<path d="M45.5135 34.024C47.6927 33.829 49.6378 35.3879 49.922 37.5574C50.2061 39.7269 48.728 41.7343 46.5719 42.1068C45.0967 42.3619 43.6001 41.7882 42.6733 40.6123C41.7465 39.4364 41.5384 37.8473 42.1312 36.4722C42.7238 35.0974 44.0222 34.1576 45.5135 34.024Z" fill="white"/>
<path d="M15.7583 5.03432C17.9336 4.48604 20.1433 5.79731 20.7044 7.96931C21.2653 10.1413 19.9669 12.3586 17.798 12.9322C15.6115 13.5103 13.372 12.1988 12.8063 10.009C12.2409 7.8192 13.5652 5.58715 15.7583 5.03432Z" fill="white"/>
<path d="M37.6931 41.8261C39.1576 41.6969 40.5784 42.3659 41.4118 43.5772C42.245 44.7887 42.3617 46.3546 41.7176 47.6762C41.0732 48.9977 39.7676 49.8702 38.3 49.9598C36.0731 50.0959 34.1502 48.4173 33.9841 46.1923C33.8183 43.9675 35.4706 42.0222 37.6931 41.8261Z" fill="white"/>
<path d="M16.3138 41.854C18.5475 41.624 20.5468 43.2436 20.7853 45.4764C21.0238 47.7093 19.4117 49.7146 17.1799 49.9615C14.9358 50.2099 12.9175 48.5872 12.6777 46.3426C12.4379 44.0977 14.0681 42.0853 16.3138 41.854Z" fill="white"/>
<path d="M44.8731 12.8575C47.0298 12.3115 49.2256 13.5962 49.8064 15.7438C50.387 17.8912 49.1376 20.1075 46.9998 20.7226C45.586 21.1295 44.0625 20.7423 43.0144 19.7099C41.9661 18.6778 41.5559 17.1605 41.941 15.7405C42.3261 14.3207 43.4469 13.2186 44.8731 12.8575Z" fill="white"/>
<path d="M7.76604 12.8988C9.90926 12.2547 12.1703 13.4637 12.8248 15.6038C13.4793 17.7441 12.2813 20.0107 10.1443 20.6756C7.99255 21.345 5.70689 20.1368 5.04804 17.982C4.38899 15.8272 5.60792 13.5475 7.76604 12.8988Z" fill="white"/>
<path d="M26.6628 54.965C27.9934 54.555 29.4042 55.3002 29.8161 56.6301C30.2279 57.9598 29.4848 59.3719 28.1557 59.7856C26.8237 60.2001 25.4081 59.4553 24.9954 58.1227C24.5828 56.7901 25.3298 55.3755 26.6628 54.965Z" fill="white"/>
</svg>
