<svg width="58" height="80" viewBox="0 0 58 80" fill="none" xmlns="http://www.w3.org/2000/svg">
<path d="M40.8388 0L41.119 0.117357C45.1712 8.25108 47.5441 11.9419 39.1153 17.9225C39.4616 24.8131 36.7041 26.6981 32.1072 30.947C42.7139 39.689 42.2512 48.4215 38.072 60.5503C42.6792 65.5536 46.1609 72.4203 46.998 79.2296H13.3079C13.9326 71.8024 17.5944 66.7464 21.8572 60.9383C22.2454 60.409 21.9952 59.9803 21.8548 59.403C17.4256 46.6276 18.4708 39.998 28.196 30.7745C24.6987 28.2046 22.9463 26.1472 21.1983 22.2456C18.4555 21.1918 15.5495 19.6852 13.8557 17.1967C10.3708 12.0712 14.1064 6.27753 15.1684 0.981981C36.4931 11.6042 13.2033 17.2039 30.3773 29.3039C37.1695 23.321 38.4437 20.7007 34.6324 12.0449C32.1065 6.30865 36.3135 2.69927 40.8388 0Z" fill="#E9967B"/>
<path d="M30.0046 32.5159C31.2508 32.8584 33.0912 35.0762 33.9901 36.0582C42.2646 45.1092 37.0788 55.1902 34.2545 65.1537C33.1956 68.8901 33.0854 72.9067 32.891 76.8394C27.3253 76.9376 21.4973 76.8729 15.9277 76.8322C17.7008 69.9176 21.8508 64.2915 26.5514 59.0583C33.9125 50.9413 37.3899 45.9236 30.0763 35.9983C25.6176 42.5154 24.6746 45.7535 28.6713 53.0562C27.0517 54.9675 25.6197 56.6129 23.89 58.4427C20.1342 47.5307 20.8317 40.0173 30.0046 32.5159Z" fill="white"/>
<path d="M16.7292 4.62305C24.0766 7.11155 22.4377 13.8897 20.7776 19.5445C13.1337 15.7938 14.2187 11.4203 16.7292 4.62305Z" fill="white"/>
<path d="M37.2024 63.313C38.8492 64.4483 44.9684 74.7088 43.7673 76.771L42.7606 76.8692C40.2549 76.8812 37.7489 76.8764 35.2432 76.8572C35.2968 71.964 35.7502 67.9954 37.2024 63.313Z" fill="white"/>
<path d="M39.8274 3.5592C41.1593 4.67053 42.3786 8.29669 42.1587 10.0571C41.821 12.7611 40.733 13.8844 38.7994 15.5395L38.5558 15.4508C37.5013 13.9228 36.2917 9.97326 36.4378 8.07874C36.572 6.3423 38.5977 4.61065 39.8274 3.5592Z" fill="white"/>
<path d="M30.0068 40.3499C32.8028 42.8791 31.7447 47.8153 30.2592 50.7637L30.0382 50.7062C27.6366 48.1602 28.513 43.1785 30.0068 40.3499Z" fill="white"/>
<path d="M10.5094 20.9075C17.4226 20.8667 19.6026 26.2294 21.6626 31.7333C18.2508 32.1716 14.7138 32.7895 11.3144 33.3476C4.54901 33.3907 2.51796 29.1035 0 23.5852C3.17781 22.6415 7.30168 21.2931 10.5094 20.9075Z" fill="#E9967B"/>
<path d="M9.06752 23.5421C14.3702 23.2595 16.2322 25.0175 18.3497 29.7574L12.339 30.8064C7.30305 31.525 5.71894 28.9814 3.2666 25.178C5.34147 24.4427 6.922 23.9732 9.06752 23.5421Z" fill="white"/>
<path d="M53.3753 17.8159L57.1629 17.641C56.5231 28.9219 53.4301 30.141 43.2687 31.5565L39.797 32.3708C39.7743 21.1282 42.3763 18.4553 53.3753 17.8159Z" fill="#E9967B"/>
<path d="M51.7355 20.1914L54.5799 20.1003C53.3605 27.0964 51.3856 27.9682 44.6563 28.9862L42.1846 29.4101C43.2765 22.5194 44.6462 20.9027 51.7355 20.1914Z" fill="white"/>
<path d="M47.1853 34.3459C52.8612 33.8789 54.315 37.9506 55.7231 42.518C53.4525 42.8893 51.1846 43.2749 48.9196 43.6772C42.7999 43.8904 41.5405 39.869 40.2285 34.7603C42.4885 34.6813 44.9148 34.4849 47.1853 34.3459Z" fill="#E9967B"/>
<path d="M45.7167 36.7285C48.1054 36.1441 52.0587 37.6435 52.3015 40.2924C51.8086 40.9583 51.9571 40.7499 50.961 41.0301C48.2661 41.3678 46.1476 41.4492 44.056 38.9033C43.5856 38.3332 43.679 37.9596 43.7865 37.289C44.4888 36.6303 44.4909 36.8435 45.7167 36.7285Z" fill="white"/>
<path d="M16.4315 35.3475C17.5953 35.1894 17.8437 35.1367 18.9919 35.2349C19.7037 37.0193 18.0401 41.9819 16.5082 43.2872C14.2005 45.2512 10.9535 44.8967 8.14954 44.8608C7.20707 44.8656 7.17857 44.8847 6.28137 44.6548C5.71805 42.2382 7.57543 38.3653 9.35403 36.8085C10.6895 35.6397 14.6098 35.5199 16.4315 35.3475Z" fill="#E9967B"/>
<path d="M14.2725 37.9375L15.6952 37.9615C16.3679 38.4261 16.1471 38.1195 16.3536 38.9363C15.635 41.4128 13.4292 42.2511 11.1344 42.5457C10.1611 42.5361 9.73976 42.6439 9.09117 41.9685C8.81765 39.274 12.1174 38.1842 14.2725 37.9375Z" fill="white"/>
<path d="M29.627 10.8765C29.7508 10.9292 29.8747 10.9843 29.9987 11.0393C37.1747 15.7409 33.1943 21.4077 30.7872 26.2338C30.0876 25.5703 29.1492 24.8686 28.4096 24.1932C23.1323 19.3838 26.5347 15.475 29.627 10.8765Z" fill="#E9967B"/>
<path d="M30.0435 14.5184C33.0879 16.8872 31.4784 19.6535 29.9165 22.3695C26.9085 19.8451 28.2057 17.1578 30.0435 14.5184Z" fill="white"/>
</svg>
