<svg width="70" height="73" viewBox="0 0 70 73" fill="none" xmlns="http://www.w3.org/2000/svg">
<path d="M30.6179 20.4063C42.9661 19.0835 54.0824 25.1397 60.2712 35.8249C59.9398 36.3749 59.5907 36.9155 59.23 37.4461C54.1704 44.8122 47.0959 49.3805 38.3671 51.0397C25.5496 52.3147 14.4479 47.0431 7.98047 35.7053C12.7907 27.5871 21.2057 21.6092 30.6179 20.4063Z" fill="#E9967B"/>
<path d="M32.2164 22.4682C43.3004 21.8012 51.2637 27.0535 57.6695 35.7108C57.2706 36.2939 56.8512 36.8605 56.4083 37.4093C51.032 44.0888 44.7728 48.0584 36.22 48.9744C25.045 49.4913 16.9527 44.7705 10.5586 35.702C10.7844 35.3943 11.0162 35.0907 11.2537 34.7921C16.9175 27.6178 23.0623 23.5197 32.2164 22.4682Z" fill="#FEFEFE"/>
<path d="M31.6524 23.6701C35.9992 22.782 40.4897 24.3004 43.4081 27.6456C46.3265 30.9908 47.2181 35.6459 45.7487 39.8335C44.2763 44.021 40.6657 47.094 36.2983 47.8792C29.6549 49.0729 23.2843 44.7003 22.0143 38.0707C20.7414 31.441 25.0383 25.0211 31.6524 23.6701Z" fill="#E9967B"/>
<path d="M33.222 25.7258C38.6834 25.2348 43.5376 29.2071 44.133 34.6603C44.7314 40.1138 40.8539 45.0416 35.413 45.745C31.7995 46.2122 28.2123 44.69 26.0389 41.7645C23.8655 38.839 23.4402 34.9674 24.9302 31.6407C26.4202 28.3143 29.5909 26.052 33.222 25.7258Z" fill="#FEFEFE"/>
<path d="M32.2788 28.6628C36.1827 27.6459 40.1717 29.981 41.1982 33.8828C42.2248 37.7844 39.8989 41.7801 35.9979 42.8149C32.0852 43.853 28.0757 41.5176 27.0462 37.6034C26.0167 33.689 28.3602 29.6829 32.2788 28.6628Z" fill="#E9967B"/>
<path d="M33.3282 30.7521C36.0471 30.3233 38.6136 32.148 39.1005 34.8587C39.5844 37.5695 37.8158 40.172 35.1174 40.7158C33.3194 41.078 31.4657 40.4395 30.2719 39.0463C29.0782 37.6531 28.7321 35.7234 29.3656 34.0023C29.9992 32.2811 31.5156 31.0378 33.3282 30.7521Z" fill="#FEFEFE"/>
<path d="M58.3927 46.2441C59.5073 46.7777 62.4198 49.6946 62.5694 51.1057C62.6163 51.5389 61.9154 52.0628 61.5898 52.3951C60.2112 51.6211 57.4454 48.9502 57.3896 47.3083L58.3927 46.2441Z" fill="#E9967B"/>
<path d="M64.7698 52.84C66.2598 54.3153 67.9727 55.6551 68.882 57.4352C68.8732 58.4254 68.8204 58.1471 67.8671 59.1173C66.4827 58.2175 64.4384 56.0414 63.6758 54.4587C63.8019 53.4876 63.8694 53.7155 64.7698 52.84Z" fill="#E9967B"/>
<path d="M0.850131 12.4869C1.99989 12.9598 4.94174 15.9905 5.19105 17.3946C5.26438 17.809 4.68072 18.3637 4.41382 18.7109C3.1086 18.3144 0.21072 15.3476 0.0054056 13.8382C-0.0503227 13.4381 0.583221 12.8242 0.850131 12.4869Z" fill="#E9967B"/>
<path d="M3.83938 53.3169C4.6313 53.7428 4.951 53.9619 5.19152 54.765C4.52278 56.5474 2.73656 57.9984 1.32869 59.413C0.457567 59.0792 0.102657 58.7924 0 57.8925C0.701003 56.4591 2.66908 54.5966 3.83938 53.3169Z" fill="#E9967B"/>
<path d="M67.6892 12.938L69.3904 14.4573L65.1052 18.9247C64.234 18.7109 64.2956 18.7323 63.6738 18.0814C63.7618 16.3937 66.3459 14.2725 67.6892 12.938Z" fill="#E9967B"/>
<path d="M10.799 5.40015L11.6173 5.82984C12.6527 7.33363 13.9227 9.09495 14.219 10.9727C14.304 11.5186 13.9491 11.6872 13.4681 12.2509C12.9226 12.1324 13.0252 12.1348 12.5178 11.8667C11.4414 10.3289 10.2769 8.71013 9.9807 6.76872C9.89564 6.22024 10.318 5.97386 10.799 5.40015Z" fill="#E9967B"/>
<path d="M23.5482 10.3335L24.9883 10.3414C26.1615 11.3589 27.2086 15.479 26.6426 16.8482C25.3461 16.957 25.6834 17.1297 24.8886 16.507C24.1289 15.0038 23.1522 11.9303 23.5482 10.3335Z" fill="#E9967B"/>
<path d="M61.3073 19.6105C62.108 20.1252 62.5069 20.3646 62.589 21.2718C61.8411 22.8392 59.9551 24.4339 58.6469 25.7652C58.0809 25.4227 57.9137 25.2188 57.4297 24.7765L57.4033 24.0509C58.1249 22.6905 60.134 20.865 61.3073 19.6105Z" fill="#E9967B"/>
<path d="M56.0394 59.5062C57.1452 60.3363 58.6821 63.3154 59.0165 64.8697C58.7701 65.864 58.8669 65.5381 57.7142 66.2787C56.6847 65.2337 54.655 62.2088 54.743 60.6155C54.7665 60.2075 55.664 59.7623 56.0394 59.5062Z" fill="#E9967B"/>
<path d="M7.21803 19.3398C8.23581 19.8341 10.7465 22.8056 11.5824 23.8222C11.4856 24.4968 10.9694 24.8109 10.3945 25.4301C9.17731 24.8564 6.41436 22.0834 6.22078 20.6113C6.16505 20.191 6.89833 19.659 7.21803 19.3398Z" fill="#E9967B"/>
<path d="M10.067 46.5952C10.897 47.0067 11.1991 47.293 11.3634 48.1351C10.7533 49.6163 8.79402 51.4128 7.61786 52.6614C6.65288 52.3144 6.34197 52.1326 6.18945 51.1553C6.89339 49.7204 8.88493 47.8673 10.067 46.5952Z" fill="#E9967B"/>
<path d="M15.7538 13.5249C16.5369 14.5122 18.7426 17.9398 18.4992 19.2617C18.4112 19.7383 17.7483 19.9956 17.2321 20.3346C16.1938 19.4289 14.1407 16.0738 14.4193 14.5632C14.4956 14.1476 15.3637 13.7666 15.7538 13.5249Z" fill="#E9967B"/>
<path d="M43.5171 10.2133C44.8428 10.6497 44.7695 10.3769 45.2974 11.2827C45.3854 13.1422 44.5055 15.3752 44.0069 17.2356C42.6899 16.7702 42.7779 17.0435 42.1825 16.1161C42.0417 14.2832 42.9568 12.081 43.5171 10.2133Z" fill="#E9967B"/>
<path d="M51.1362 51.4829L51.9369 51.8827C53.0837 53.471 54.4388 55.2607 54.6324 57.2684L53.8434 58.1935C53.2304 58.0941 53.4269 58.1357 52.8608 57.8377C51.7844 56.329 50.7607 54.8891 50.3794 53.0008C50.2269 52.2614 50.5789 52.1361 51.1362 51.4829Z" fill="#E9967B"/>
<path d="M22.6572 63.8689C24.9215 64.342 24.8394 65.2064 24.2293 67.2824C23.8715 68.4991 23.5694 69.623 23.279 70.8578C21.7744 70.3821 21.9533 70.7109 21.3989 69.6881C21.3256 67.9377 22.1909 65.6337 22.6572 63.8689Z" fill="#E9967B"/>
<path d="M45.8164 1.31812C47.1861 1.71173 46.9573 1.41696 47.6202 2.34411C47.761 4.22216 46.8987 6.3108 46.3385 8.20821C45.8222 8.1126 45.3295 7.9677 44.8221 7.83337C43.9627 6.24628 45.262 3.34869 45.8164 1.31812Z" fill="#E9967B"/>
<path d="M57.4572 5.77258C58.6627 6.42725 58.6187 6.14538 59.0235 7.1306C58.7361 8.818 57.2901 10.7849 56.3485 12.3776C55.363 12.25 55.0727 12.0523 54.7354 11.2158C55.0639 9.57797 56.5744 7.30864 57.4572 5.77258Z" fill="#E9967B"/>
<path d="M24.8699 55.0747C25.9346 55.2595 26.2045 55.2073 26.7471 56.0722C26.8057 57.7599 25.9464 60.0876 25.5328 61.8516C24.2129 61.5926 24.1484 61.8314 23.5882 61.0365C23.421 59.2731 24.3508 56.9357 24.8699 55.0747Z" fill="#E9967B"/>
<path d="M22.8725 1.16797C23.8169 2.00008 24.7907 6.06211 24.4006 7.3993C24.2804 7.81198 23.5412 8.04457 23.1453 8.24696C22.0776 7.44799 21.0628 3.28683 21.5145 1.8854C21.6347 1.51114 22.4824 1.31873 22.8725 1.16797Z" fill="#E9967B"/>
<path d="M46.0226 63.656C46.8879 64.8568 47.8939 68.4211 47.583 69.9815C47.5097 70.3379 46.7295 70.6367 46.3863 70.8245L45.7616 70.2862C45.1896 68.7126 44.1278 66.1767 44.6411 64.4746C44.7584 64.0795 45.5299 63.8763 46.0226 63.656Z" fill="#E9967B"/>
<path d="M16.8965 51.7943C18.1196 52.2838 17.9583 52.002 18.5361 52.9145C18.3073 54.8523 16.9288 56.6477 15.8699 58.4025C15.0575 58.2568 14.6293 57.9511 14.3271 57.2387C14.6293 55.5352 16.0195 53.3943 16.8965 51.7943Z" fill="#E9967B"/>
<path d="M33.4017 9.11011C34.6218 9.17669 34.6042 8.96521 35.3316 9.58849C36.0062 11.659 35.6425 13.5995 35.5164 15.8433C35.0706 15.8154 33.915 15.845 33.7155 15.5201C32.8356 14.0861 33.3548 10.8113 33.4017 9.11011Z" fill="#E9967B"/>
<path d="M12.6437 59.7717C13.7377 60.3472 13.902 60.2443 14.1953 61.1136C13.9049 62.8729 12.4618 64.8562 11.4968 66.5143C10.2503 65.8544 10.3442 66.1676 9.98926 65.1701C10.3031 63.4167 11.7051 61.4107 12.6437 59.7717Z" fill="#E9967B"/>
<path d="M53.029 13.7522C54.2843 14.4919 54.2286 14.1784 54.5689 15.2264C54.2081 16.9651 52.7328 18.9974 51.8147 20.6235L49.9229 19.4127L53.029 13.7522Z" fill="#E9967B"/>
<path d="M41.9473 55.1336C42.8682 55.1327 43.4549 54.9206 43.974 55.6266C44.9214 56.9213 45.5285 60.0136 45.4288 61.5347C44.9331 61.5667 44.0943 61.7347 43.8039 61.4807C42.572 60.4128 42.1408 56.7031 41.9473 55.1336Z" fill="#E9967B"/>
<path d="M33.3217 56.2476C34.8087 56.3625 34.6064 56.0997 35.3924 56.9107C35.9116 58.7216 35.6036 61.0537 35.5684 62.9928C34.3395 62.8534 34.313 63.0708 33.6502 62.3924C32.9844 60.4644 33.2806 58.3749 33.3217 56.2476Z" fill="#E9967B"/>
<path d="M33.4451 0L34.9849 0.108527C36.1699 1.40348 35.6478 4.54217 35.6184 6.59005L34.0815 6.50469C32.8408 5.1939 33.404 2.12502 33.4451 0Z" fill="#E9967B"/>
<path d="M33.4159 65.4292C33.8617 65.4459 34.9939 65.4128 35.1963 65.7369C36.0762 67.1424 35.6362 70.3876 35.6186 72.0377C34.2606 71.9808 34.4747 72.2075 33.6623 71.5074C33.105 69.7713 33.4012 67.3272 33.4159 65.4292Z" fill="#E9967B"/>
</svg>
