<svg width="72" height="53" viewBox="0 0 72 53" fill="none" xmlns="http://www.w3.org/2000/svg">
<path d="M35.9324 0C39.4943 2.3758 44.9669 15.4602 45.9676 20.074C48.7291 18.4637 57.0928 14.5803 59.9589 14.8971C64.3195 15.3752 59.2491 31.0261 58.5572 33.4224C63.7514 34.6837 67.9269 36.6987 71.4827 40.7522C64.9293 52.6341 47.3098 54.3793 36.4777 47.8503C25.9981 55.6259 6.56362 52.7485 0 40.6965C3.53611 36.6958 7.32064 34.9418 12.3503 33.5808C11.5343 30.3192 8.7995 16.8564 11.5492 14.6977C15.0103 14.4249 22.5043 18.4197 25.8037 20.2206C27.3007 13.718 31.1609 4.70173 35.9324 0Z" fill="#E9967B"/>
<path d="M35.8651 3.51685C39.0551 6.85469 43.01 16.6277 43.9037 21.3118C43.0924 21.875 42.2905 22.4528 41.4986 23.0423C39.0985 24.8521 36.4403 28.7794 38.8624 31.5835C39.4895 32.305 40.392 32.7303 41.3481 32.7508C46.54 32.8828 46.3918 25.8698 46.313 22.4469C51.051 19.6136 54.2692 18.6779 59.4472 17.1058C59.1671 23.4706 58.1089 26.9903 56.3517 33.0119C53.7547 32.8564 50.5659 32.9972 49.3587 35.7778C48.9026 36.8308 48.9087 38.0245 49.3748 39.0716C49.7751 39.9838 50.5257 40.6936 51.4567 41.0456C55.0456 42.3801 56.9189 38.2269 57.8939 35.6311C62.3425 36.514 65.3533 38.1829 68.7412 41.0485C61.1452 50.8069 48.7172 51.1295 38.1162 46.3574C41.2267 41.5911 43.1024 34.1646 35.6175 32.7303C27.9813 34.3464 30.592 42.3655 34.554 46.551C24.9696 52.7222 9.75813 50.2555 2.70117 41.028C6.33114 37.9747 8.32093 37.1006 12.8425 35.7514C14.0815 38.1272 16.0012 41.3037 19.0935 41.1541C20.0429 41.116 20.9349 40.6877 21.5596 39.9721C22.2404 39.1977 22.529 38.1712 22.4586 37.1505C22.373 36.0417 21.8406 35.0181 20.9836 34.3083C19.0639 32.6893 16.8902 32.9591 14.581 33.1058C13.0719 27.9259 12.5833 22.3237 12.6325 16.9474C17.573 18.4931 20.9985 20.0007 25.4116 22.6757C25.1122 26.081 24.9529 33.3961 30.3588 32.7362C31.3373 32.6277 32.2254 32.1144 32.8094 31.3224C35.6873 27.4185 30.5709 23.494 27.8651 21.5641C28.9187 15.1875 32.158 8.74946 35.8651 3.51685Z" fill="white"/>
<path d="M35.1304 34.9241C40.6495 35.6573 38.4568 41.7347 36.4614 44.8731C33.4565 43.8319 31.3268 37.5609 35.1304 34.9241Z" fill="white"/>
<path d="M43.8334 24.1158L44.1032 24.5001C44.2135 27.2249 44.102 30.0055 40.9868 30.7915C38.8169 27.6209 41.4256 25.9256 43.8334 24.1158Z" fill="white"/>
<path d="M27.5496 24.3036C30.2527 25.7643 31.6812 27.2102 31.0878 30.3633C27.1176 31.4339 27.4675 26.7586 27.5496 24.3036Z" fill="white"/>
<path d="M15.0645 35.2644C15.8476 35.2322 16.6319 35.238 17.4141 35.2879C19.9248 35.4668 20.4675 36.6782 20.1976 38.9836C17.2264 39.2534 16.5072 37.5405 15.0645 35.2644Z" fill="white"/>
<path d="M52.9632 35.3085C53.9739 35.2146 54.5954 35.0357 55.2709 35.7749C55.2982 37.1387 54.1291 38.136 53.1975 39.1538C52.3487 39.1391 52.3924 39.1098 51.6107 38.7461C50.512 37.1534 51.6407 36.2383 52.9632 35.3085Z" fill="white"/>
<path d="M49.3881 6.10081C50.8634 5.75177 52.413 6.22693 53.4381 7.34443C54.4632 8.46194 54.8037 10.0458 54.3283 11.4859C53.8525 12.9261 52.6353 13.9967 51.1462 14.2841C48.9112 14.7123 46.7416 13.2781 46.2632 11.0518C45.7848 8.82858 47.1733 6.62876 49.3881 6.10081Z" fill="#E9967B"/>
<path d="M49.5372 8.42392C50.1754 8.13355 50.9213 8.20979 51.4865 8.62629C52.0514 9.03985 52.3467 9.73206 52.2576 10.4272C52.1687 11.1223 51.7094 11.7148 51.058 11.9759C50.0836 12.366 48.9766 11.9055 48.5637 10.9434C48.1507 9.97844 48.5827 8.86095 49.5372 8.42392Z" fill="white"/>
<path d="M19.9882 6.09209C22.2502 5.56707 24.5063 6.98669 25.0149 9.25103C25.5235 11.5183 24.0898 13.7621 21.8208 14.2578C19.5735 14.7447 17.3531 13.328 16.8495 11.0842C16.3459 8.8404 17.7476 6.61125 19.9882 6.09209Z" fill="#E9967B"/>
<path d="M20.0703 8.4503C20.7054 8.14233 21.4574 8.20981 22.0299 8.62044C22.6028 9.03107 22.904 9.72325 22.8157 10.4243C22.7271 11.1223 22.2631 11.7178 21.6061 11.9759C20.6432 12.3513 19.5556 11.8996 19.1429 10.9522C18.7302 10.0048 19.1397 8.89906 20.0703 8.4503Z" fill="white"/>
<path d="M3.22308 25.1513C5.43139 24.6087 7.66932 25.9286 8.25857 28.1255C8.84812 30.3224 7.57253 32.5867 5.38856 33.2231C3.93552 33.6426 2.3678 33.2466 1.29019 32.1849C0.212578 31.1231 -0.206555 29.5597 0.194395 28.102C0.595345 26.6443 1.75391 25.515 3.22308 25.1513Z" fill="#E9967B"/>
<path d="M3.33581 27.5122C3.97375 27.1808 4.7428 27.2336 5.33059 27.6442C5.91867 28.0578 6.22782 28.7647 6.13308 29.4774C6.03805 30.1902 5.55468 30.7885 4.87919 31.0349C3.92419 31.381 2.86476 30.9263 2.45736 29.9965C2.04966 29.0668 2.43389 27.9786 3.33581 27.5122Z" fill="white"/>
<path d="M66.0182 25.16C68.2377 24.5997 70.4959 25.9284 71.0813 28.1429C71.6667 30.3574 70.3612 32.6276 68.1541 33.2377C66.7052 33.6366 65.1536 33.2259 64.0906 32.1642C63.0277 31.1024 62.6173 29.5508 63.0159 28.1018C63.4148 26.6529 64.5614 25.5295 66.0182 25.16Z" fill="#E9967B"/>
<path d="M66.1524 27.5152C66.7901 27.1809 67.5617 27.2307 68.1516 27.6443C68.7411 28.0579 69.05 28.7677 68.9514 29.4804C68.8532 30.1932 68.3639 30.7915 67.6844 31.032C66.7335 31.3664 65.6861 30.9088 65.2833 29.9849C64.8809 29.061 65.2602 27.9845 66.1524 27.5152Z" fill="white"/>
</svg>
