<svg width="86" height="69" viewBox="0 0 86 69" fill="none" xmlns="http://www.w3.org/2000/svg">
<path d="M84.2082 28.3209C84.3617 28.3076 84.946 28.4178 85.1263 28.4478L85.7172 29.3392L85.4468 30.087C83.2233 31.5693 70.4434 33.5725 67.1049 34.1934C65.9497 34.2936 65.7795 34.1968 65.3154 33.2486L65.5658 32.5442C67.7092 30.9784 80.8162 28.9252 84.2082 28.3209Z" fill="#E9967B"/>
<path d="M0 24.7588C2.3303 24.7588 16.8796 28.548 19.674 30.1071C19.9845 30.2808 19.9244 31.4559 19.9477 31.9901C17.2235 31.9267 3.53216 28.3277 0.243706 26.625C-0.0367304 26.4781 0.0200312 25.2629 0 24.7588Z" fill="#E9967B"/>
<path d="M62.1624 1.29541C63.0538 1.72942 63.1739 1.68938 63.6547 2.56742C63.5278 4.53716 55.8726 17.05 54.3335 19.2301C53.4488 18.756 53.4454 18.8161 52.8345 18.0416C52.761 16.3155 60.6634 3.2084 62.1624 1.29541Z" fill="#E9967B"/>
<path d="M24.7471 0C25.4215 0.0868022 26.6434 0.0634259 26.9372 0.74449C28.2326 3.75586 34.5691 15.2438 34.1351 17.8345C33.5675 17.8579 33.0233 17.8312 32.4558 17.8111C30.8733 16.6493 26.1293 4.41689 24.8139 1.91298C24.6003 1.50568 24.6737 0.497444 24.7471 0Z" fill="#E9967B"/>
<path d="M66.0955 53.4702C67.8582 54.2281 74.5687 59.2993 76.4316 60.805C77.353 61.5495 77.2262 61.9768 77.2161 62.8949C74.5052 63.8397 68.7129 58.1475 66.416 56.5684C65.8585 56.1845 66.0654 54.2147 66.0955 53.4702Z" fill="#E9967B"/>
<path d="M16.5793 51.3735C17.02 52.0112 16.8831 52.8825 16.7897 53.5736C15.2806 55.6903 8.41995 59.2325 5.89268 60.5545C5.44198 59.8802 5.48204 59.75 5.30176 58.942C6.31333 56.7353 14.199 52.719 16.5793 51.3735Z" fill="#E9967B"/>
<path d="M6.17773 34.1932C8.92869 34.1498 11.7965 33.8493 14.3304 34.7641C15.1851 35.6555 14.9214 35.3116 14.9948 36.8941C12.1304 36.9542 9.54968 37.2714 6.86883 36.3599C5.97745 35.4719 6.24784 35.8325 6.17773 34.1932Z" fill="#E9967B"/>
<path d="M67.0327 47.4041C69.1193 47.4875 73.1288 48.873 74.7547 50.3453C75.4258 50.9496 75.2254 51.4137 75.2522 52.3985C73.2223 52.5054 68.7821 50.7226 67.3198 49.3371C66.8057 48.8497 67.0026 48.0651 67.0327 47.4041Z" fill="#E9967B"/>
<path d="M73.4771 22.8256C74.4886 22.7888 74.7224 22.8456 75.3767 23.4599L75.3467 23.944C74.3051 25.6833 70.6493 26.902 68.7731 27.6531L67.8984 27.7399C67.0471 27.1256 67.3242 27.5162 67.0137 26.5347C67.6513 24.9555 71.7277 23.5701 73.4771 22.8256Z" fill="#E9967B"/>
<path d="M20.6986 10.3262C23.4462 10.3963 26.9817 14.92 26.7747 17.5575C25.86 17.6777 25.9167 17.6776 25.7865 17.6142C23.1524 16.419 20.525 12.8101 20.6986 10.3262Z" fill="#E9967B"/>
<path d="M74.4596 37.0377C76.5863 36.8875 77.4076 36.4268 78.7897 38.1928L78.5661 38.924C77.3108 39.7086 77.4844 39.4515 75.7917 39.5483C73.8687 39.6251 71.6152 40.196 70.4033 38.4299L70.7071 37.7488C71.919 36.9376 72.9606 37.0845 74.4596 37.0377Z" fill="#E9967B"/>
<path d="M14.3033 45.2039C15.5819 45.3374 15.3282 45.117 16.1495 45.8181L16.1061 46.3423C15.0978 47.9982 11.3987 49.2068 9.55254 49.9446C8.80137 49.8478 8.76467 49.7309 8.04021 49.367L7.90332 48.6592C8.85146 47.0234 12.5038 45.9016 14.3033 45.2039Z" fill="#E9967B"/>
<path d="M11.0166 20.0413C13.1533 20.2883 16.5218 21.794 18.2278 23.2396C18.6718 24.348 18.5784 23.914 18.1344 25.3128C15.7373 24.7152 12.973 23.6836 11.0133 22.1679C10.5058 21.0762 10.6293 21.4969 11.0166 20.0413Z" fill="#E9967B"/>
<path d="M50.6636 5.12805C51.2078 5.3317 51.9457 5.59211 52.0926 6.0929C52.6634 8.02258 50.9307 12.0823 50.233 14.0286C50.1328 13.9819 50.0327 13.9385 49.9325 13.8951C46.9278 13.1673 49.405 7.01433 50.6636 5.12805Z" fill="#E9967B"/>
<path d="M65.1097 11.735C66.2682 12.3192 65.8442 11.9119 66.5186 12.9001C66.4485 14.8999 63.4004 17.6442 61.9281 19.21C61.0701 18.7927 61.1068 18.8494 60.6094 18.0448C60.6161 16.0517 63.6508 13.3074 65.1097 11.735Z" fill="#E9967B"/>
<path d="M35.8665 4.30347C36.8548 4.65735 37.262 4.61397 37.7395 5.78246C38.5607 7.77557 39.559 10.6834 38.7878 12.74L37.6393 12.4862C35.9834 11.1642 34.7782 6.17639 35.8665 4.30347Z" fill="#E9967B"/>
<path d="M33.5369 20.9338C33.8222 20.9912 34.5404 21.3241 34.7569 21.5192C41.7537 27.8963 25.9366 32.8172 28.4848 39.673C29.1735 41.5276 28.9701 46.5896 30.3328 47.6111C30.6542 47.662 30.8804 47.7128 31.2002 47.6144C33.0728 47.034 29.7933 39.2434 31.802 36.0065C32.8564 34.3094 34.5929 33.765 36.4278 33.3501C36.7213 36.8855 37.7265 40.9062 38.2266 44.4644C39.0137 50.056 40.6026 54.2752 39.0071 59.8717C38.2643 62.4854 36.7754 66.3865 36.2933 68.8773C32.4136 69.0462 27.4599 68.8855 23.5163 68.8149C22.5783 65.014 21.3338 61.2458 20.2072 57.494C19.2627 54.344 17.987 51.053 18.0001 47.7292C18.0099 45.2154 18.7872 42.7001 19.4119 40.2831C19.9793 38.0792 20.3548 35.2932 21.3567 33.2796C22.2372 31.5103 31.3068 23.1328 33.5369 20.9338Z" fill="#E9967B"/>
<path d="M33.949 22.8751C34.5688 23.4326 34.7738 24.082 35.0821 24.8363C33.7998 29.1505 28.1803 31.9742 26.9915 35.8965C26.7799 36.6032 26.6865 37.3411 26.7111 38.0774C26.7619 39.8729 27.7671 46.1893 28.5607 48.0635C28.7296 48.4718 29.5643 49.0851 30.0004 49.0867C38.2157 49.1179 28.6837 39.2252 34.8328 35.3537L35.0345 35.2291C35.5658 38.5037 36.1151 41.775 36.6825 45.0447C37.4761 49.6197 38.5633 53.6256 37.7827 58.2104C36.8792 61.2833 35.9429 64.3464 34.9738 67.3996C31.8402 67.2504 27.9261 67.3373 24.7335 67.3225C23.5168 62.828 19.4535 51.2152 19.6109 47.3978C19.7093 45.007 20.4701 42.6949 21.0572 40.3927C21.5688 38.3824 21.7983 35.8866 22.7625 34.0665C23.6841 32.33 32.0173 24.6657 33.949 22.8751Z" fill="white"/>
<path d="M48.4093 20.9221C48.4634 20.9303 48.5192 20.932 48.5733 20.9467C49.1095 21.0894 60.4517 32.2217 60.9568 33.0777C61.9144 34.7027 62.1423 37.2345 62.6244 39.0743C63.3115 41.693 64.2593 44.5167 64.3659 47.2289C64.5397 51.607 60.1976 63.8315 58.8661 68.877C54.6535 68.8213 50.441 68.8623 46.2317 69L43.6114 60.6913C41.8864 55.1669 42.9653 51.2659 43.9115 45.7071C44.6231 41.6258 45.3069 37.5378 45.9644 33.4466C54.4273 34.6584 50.1278 41.8652 50.5804 46.8829C51.051 47.6634 51.4806 47.8208 52.3005 47.3633C52.9072 46.4188 53.8452 40.0041 54.0468 38.4774C54.9176 31.8872 39.9646 27.6238 48.4093 20.9221Z" fill="#E9967B"/>
<path d="M48.2418 22.9915C49.1929 23.3358 57.3425 31.3379 58.551 32.6316C58.9593 33.0678 59.3463 33.5597 59.6086 34.1009C60.3957 35.7291 60.6056 37.8182 61.073 39.576C61.7272 42.0357 62.6422 44.6872 62.739 47.237C62.8849 51.115 58.9199 62.9837 57.5229 67.3094L47.4514 67.4094L44.7311 58.8072C44.1686 56.7247 44.0998 54.3405 44.4818 52.2268C45.4919 46.6516 46.1691 40.7632 47.3744 35.2454C51.764 38.1347 48.7485 42.1669 48.8469 46.3696C48.8846 48.0635 50.0357 49.454 51.8345 49.2178C52.579 49.1244 53.2546 48.7357 53.7071 48.1389C54.5565 47.0107 55.9749 38.0084 55.583 36.4064C54.5959 32.3726 48.5665 29.1783 47.4432 25.1363C47.235 24.3869 47.8351 23.5457 48.2418 22.9915Z" fill="white"/>
</svg>
