<svg width="59" height="67" viewBox="0 0 59 67" fill="none" xmlns="http://www.w3.org/2000/svg">
<path d="M16.2137 15.9882C26.0577 15.1306 34.6709 22.4196 27.6849 32.1973C26.7598 33.4937 25.9544 34.01 25.9007 35.7053L26.5029 36.1101C31.6801 35.0688 32.1535 27.5191 36.1814 24.9655C47.75 17.7355 55.5591 28.7753 55.9342 39.9113C56.2389 48.9482 52.1828 57.2048 41.2257 55.6913C35.855 54.9492 30.1965 44.4459 34.2268 42.293C35.43 42.6215 36.947 45.3815 38.2798 45.9887C48.1173 50.4528 53.5954 33.3412 46.1501 28.8357C44.1655 28.853 42.8049 30.9449 41.7918 32.4496C40.1335 34.9134 38.8693 36.641 36.6117 38.6003C34.4421 40.1137 33.0718 40.4129 30.5731 41.0552C31.6745 44.7216 31.9452 48.0066 30.4913 51.6642C29.184 54.9316 26.6264 57.5421 23.3859 58.9177C13.603 63.1061 3.84584 57.0258 0 47.7427C0.291547 45.2495 0.575468 42.7975 0.744706 40.2926C0.835338 38.9463 0.698363 37.1454 1.89887 36.4327C3.27594 36.7202 3.73262 38.4008 4.27436 39.6708C6.61847 45.1263 10.0129 50.8957 16.7816 50.7197C20.415 50.6259 24.7219 48.1973 24.4043 44.0822C24.3213 42.9148 23.7581 41.8354 22.8495 41.0992C20.8301 39.4567 18.6737 39.7764 16.3096 40.0462C15.486 37.6529 14.6727 34.3121 14.1711 31.8776C17.0206 31.599 25.3839 30.5284 23.3633 26.0044C19.4263 22.6173 13.0489 26.6746 9.51018 28.9193C8.09204 26.6617 6.34921 23.042 5.0833 20.5774C8.77691 18.0658 11.8807 16.9488 16.2137 15.9882Z" fill="#E9967B"/>
<path d="M8.008 21.3197C11.6221 19.5519 15.4894 17.9056 19.5919 18.1696C24.0026 18.4535 28.4922 21.5288 27.8493 26.4045C27.3395 30.2703 24.3948 32.5376 21.6113 34.8459C33.1054 44.6659 31.4027 29.0234 39.8635 25.4718C42.0562 24.5511 44.8162 24.9471 46.9935 25.7982L46.3933 26.5559C38.3576 26.24 40.2844 39.6092 28.0479 38.4565C27.8789 38.6237 27.7097 38.788 27.5408 38.9552C27.7144 40.7854 29.1232 43.8475 29.3367 45.5927C29.4857 46.8129 29.0871 48.7751 28.8536 49.5758C27.9749 52.6145 25.8677 55.1458 23.0408 56.5654C14.6778 60.7949 6.19125 55.3833 2.33984 47.7104C2.43722 46.0444 2.65809 44.1584 2.81706 42.4778C3.87971 44.2318 4.72472 45.6807 5.99239 47.3408C10.1952 52.8638 17.8528 55.3041 23.6418 50.4616C26.7213 47.8864 27.9485 43.038 25.011 39.8527C23.0728 37.7496 20.5472 37.5707 17.8763 37.5619L16.9474 33.9425C20.4002 33.3618 24.1454 32.4349 25.6645 28.743C26.8122 25.9554 24.7107 23.3573 21.9674 22.7176C17.6962 21.7221 13.8888 23.609 10.3163 25.7188L8.008 21.3197Z" fill="white"/>
<path d="M50.5606 29.3434C61.1099 49.171 42.612 62.889 35.5254 47.156C47.3688 53.3565 55.054 40.9818 50.142 29.7775L50.5606 29.3434Z" fill="white"/>
<path d="M46.9917 25.7982C48.6773 26.8442 49.4678 27.6719 50.5604 29.3434L50.1418 29.7775C48.9542 27.7898 48.5269 27.4416 46.3916 26.5558L46.9917 25.7982Z" fill="white"/>
<path d="M45.5079 6.92872C46.2204 6.81052 46.2022 6.84835 46.9173 7.01465C50.7549 11.7082 39.2262 30.4902 26.4266 16.5516C25.4164 15.0651 22.7593 10.6631 24.135 9.05608C27.5385 9.58785 33.9698 19.4066 37.8869 8.24215C40.236 7.73443 43.104 7.33114 45.5079 6.92872Z" fill="#E9967B"/>
<path d="M43.233 9.5642L44.6385 9.46008L45.0186 9.87482C45.6357 13.7289 41.6098 18.0024 38.0212 18.8691C35.1503 19.5628 33.1849 18.892 30.7513 17.487C29.2029 16.3203 28.8102 15.77 27.583 14.2815C33.238 16.4889 36.9624 16.3211 39.6479 10.2136L43.233 9.5642Z" fill="white"/>
<path d="M31.1809 0C33.2446 1.14185 35.7791 3.22109 37.6929 4.71491C36.5141 6.68624 35.1268 9.18758 33.689 10.9166C31.1721 9.83286 29.253 8.60742 27.123 6.90799C28.1068 4.85894 29.7948 1.76278 31.1809 0Z" fill="#E9967B"/>
<path d="M31.7683 3.17737C32.5139 3.59797 33.9757 4.65445 34.7445 5.17302C34.1892 6.12129 33.5824 7.08365 33.0072 8.02458L29.8984 6.35623L31.7683 3.17737Z" fill="white"/>
<path d="M33.0987 62.4608C33.7883 63.024 33.934 63.0592 34.3549 63.857C34.0085 65.0801 33.3571 65.3939 32.3461 66.4029C31.6457 65.8104 31.538 65.7928 31.0957 64.9656C31.4274 63.7191 32.0381 63.4815 33.0987 62.4608Z" fill="#E9967B"/>
<path d="M36.9625 62.4608C37.8732 63.1472 38.4108 63.4404 39.0112 64.382C39.0587 65.5112 39.0737 65.124 38.1462 66.2621C37.2604 65.869 36.3058 65.2091 35.8916 64.3028C35.9277 63.2029 35.9629 63.5197 36.9625 62.4608Z" fill="#E9967B"/>
<path d="M37.7533 57.7797C38.5314 58.2519 38.806 58.3194 39.1488 59.1612C38.9001 60.1877 38.0014 60.8066 37.1972 61.5458C36.4959 61.0647 36.2125 60.9591 35.833 60.1907C36.1386 59.0966 36.8549 58.6743 37.7533 57.7797Z" fill="#E9967B"/>
<path d="M32.2427 57.7504C33.0276 58.1639 33.9608 58.9529 34.2289 59.8182C34.0887 60.8976 34.0658 60.6131 33.1733 61.5986C32.3576 60.9064 31.6678 60.4165 31.0791 59.519C31.1697 58.425 31.1756 58.7505 32.2427 57.7504Z" fill="#E9967B"/>
<path d="M56.5381 18.9518C57.4603 19.3381 58.1956 19.9658 58.7048 20.8219C58.8303 22.0485 58.894 21.5737 57.8718 22.829C57.0494 22.424 56.3322 21.7458 55.8175 20.9903C55.65 19.7461 55.5881 20.2406 56.5381 18.9518Z" fill="#E9967B"/>
<path d="M8.46366 10.8447C9.21247 11.3824 9.30428 11.3771 9.79557 12.1848C9.48672 13.344 8.87576 13.6268 7.91136 14.5653C7.18543 14.2841 6.81088 13.9368 6.52344 13.261C6.78243 12.2309 7.66645 11.5985 8.46366 10.8447Z" fill="#E9967B"/>
<path d="M57.5389 14.1174C58.2223 14.6586 58.4549 14.7686 58.8541 15.5596C58.7127 16.4882 57.831 17.0913 57.0972 17.7647C56.1911 17.5717 55.9597 17.3597 55.5898 16.6281C55.8779 15.5532 56.7147 14.9343 57.5389 14.1174Z" fill="#E9967B"/>
<path d="M13.098 6.16272C13.8875 6.45133 14.2545 6.72088 14.5921 7.45004C14.3161 8.46254 13.4347 9.07996 12.6392 9.81529C11.923 9.33191 11.6003 9.22191 11.3076 8.41414C11.5297 7.47585 12.3711 6.85639 13.098 6.16272Z" fill="#E9967B"/>
<path d="M52.6747 19.0626C53.5071 19.4125 53.7506 19.6698 54.0996 20.3502C53.887 21.3003 52.9431 22.0458 52.2227 22.7724C51.5581 22.3447 51.1372 22.1896 50.8691 21.4589C51.0396 20.4464 51.911 19.8126 52.6747 19.0626Z" fill="#E9967B"/>
<path d="M51.6784 14.2949C52.2686 14.3765 52.7854 14.7041 53.2124 15.1036C54.6485 16.4463 54.0225 16.8968 53.1285 17.8533C52.6015 17.7721 52.2008 17.5014 51.8054 17.1456C50.4049 15.8852 50.9167 15.315 51.6784 14.2949Z" fill="#E9967B"/>
<path d="M7.47638 6.05469C8.33284 6.43775 9.11157 7.04899 9.56121 7.88287C9.62603 9.14233 9.69202 8.67128 8.71296 9.91227C7.76323 9.20452 7.2039 8.92558 6.65806 7.91631C6.65454 6.78033 6.62902 7.16251 7.47638 6.05469Z" fill="#E9967B"/>
<path d="M12.5416 10.8224C13.3699 11.5278 13.9081 11.8833 14.4742 12.7928C14.4525 13.9015 14.4892 13.5258 13.523 14.5838C12.7132 14.1734 11.8139 13.5305 11.4297 12.6908C11.5406 11.5058 11.4886 11.893 12.5416 10.8224Z" fill="#E9967B"/>
</svg>
