<svg width="133" height="17" viewBox="0 0 133 17" fill="none" xmlns="http://www.w3.org/2000/svg">
<path d="M1.53126 16.7404C1.20208 16.6257 0.943167 16.4815 0.754533 16.3039C0.565899 16.1264 0.473434 15.9599 0.473434 15.8009C0.473434 15.653 0.54741 15.468 0.695358 15.2461C0.843306 15.0242 1.01344 14.8318 1.20578 14.6691C1.39811 14.5064 1.54976 14.425 1.65702 14.425C1.7162 14.425 1.74948 14.4509 1.76058 14.499C1.87894 14.8836 2.04538 15.2017 2.25621 15.4532C2.46703 15.7047 2.80731 15.8305 3.26965 15.8305C3.60623 15.8305 3.87624 15.7417 4.08337 15.5642C4.29049 15.3867 4.46064 15.0944 4.59379 14.6839C4.72694 14.2733 4.8416 13.7 4.94147 12.9603L5.04503 12.2206C4.41255 12.8308 3.66541 13.1378 2.79622 13.1378C1.92702 13.1378 1.23167 12.8308 0.739741 12.2206C0.247813 11.6103 0 10.6967 0 9.48352C0 8.27034 0.255211 7.09045 0.769331 6.05852C1.28345 5.02658 1.96401 4.21286 2.81841 3.61737C3.67281 3.02188 4.59749 2.72229 5.59244 2.72229C6.21382 2.72229 6.70945 2.83695 7.07932 3.06997C7.44919 3.30299 7.63412 3.62107 7.63412 4.02423C7.63412 4.27944 7.53426 4.59014 7.33823 4.95631C7.24946 5.09316 7.16439 5.20412 7.08672 5.28919C7.00904 5.37426 6.92027 5.41495 6.82041 5.41495C6.73164 5.41495 6.67246 5.37796 6.64287 5.30399C6.61328 5.23001 6.58739 5.13384 6.5689 5.01548C6.5504 4.89712 6.52821 4.80466 6.50971 4.73439C6.36177 4.1315 5.90313 3.8319 5.1338 3.8319C4.45324 3.8319 3.85775 4.06122 3.35102 4.51985C2.8443 4.97849 2.45224 5.60357 2.17484 6.3914C1.89744 7.17922 1.76058 8.06321 1.76058 9.03967C1.76058 10.0161 1.90483 10.7041 2.18963 11.1331C2.47443 11.5622 2.91458 11.7767 3.50637 11.7767C4.2757 11.7767 4.8564 11.4364 5.25216 10.7559L5.56285 8.55145C5.59244 8.29624 5.696 8.07431 5.87354 7.88568C6.05108 7.69704 6.2545 7.55649 6.48752 7.45663C6.72054 7.35676 6.92767 7.30868 7.1163 7.30868C7.19397 7.30868 7.25316 7.31978 7.28644 7.33828C7.31973 7.35677 7.33823 7.39745 7.33823 7.45663C7.33823 7.5158 7.28274 7.64157 7.17548 7.8339C7.06822 8.02623 6.99425 8.29624 6.95356 8.64021L6.5393 12.0874C6.35067 13.6076 5.91793 14.7912 5.23737 15.6382C4.5568 16.4852 3.69501 16.9105 2.64827 16.9105C2.23402 16.9105 1.86045 16.855 1.53126 16.7404Z" fill="white"/>
<path d="M8.83195 12.117C8.83195 11.8211 8.87633 11.4069 8.9651 10.8742L9.42374 8.1668C9.46443 7.97076 9.48292 7.80062 9.48292 7.66377C9.48292 7.53431 9.43854 7.47144 9.34977 7.47144C9.24991 7.47144 9.14634 7.53802 9.03168 7.67117C8.91702 7.80432 8.76168 8.04843 8.56565 8.40351C8.52496 8.48118 8.48058 8.55516 8.43249 8.61804C8.38441 8.68092 8.33263 8.7142 8.28454 8.7142C8.18468 8.7142 8.1366 8.62913 8.1366 8.46269C8.1366 8.20748 8.25495 7.88939 8.49167 7.50843C8.72839 7.12746 9.01689 6.79828 9.35717 6.51718C9.69745 6.23608 10.0266 6.09552 10.341 6.09552C10.5592 6.09552 10.722 6.1621 10.8367 6.29525C10.9513 6.42841 11.0068 6.61703 11.0068 6.86485C11.0068 6.92402 10.9957 7.0239 10.9772 7.16075L10.341 11.4069V11.5548C10.341 11.6325 10.3521 11.6917 10.3706 11.7249C10.3891 11.7582 10.4298 11.7767 10.489 11.7767C10.7146 11.7767 10.9846 11.5955 11.2953 11.2293C11.606 10.8632 11.8945 10.3971 12.1608 9.83121C12.4271 9.26531 12.6157 8.68831 12.723 8.10762L12.8709 7.33829C12.9412 6.97212 13.1224 6.67622 13.4183 6.4432C13.7142 6.21018 14.0397 6.09552 14.3948 6.09552C14.4725 6.09552 14.5317 6.10661 14.5649 6.1251C14.5982 6.1436 14.6167 6.18429 14.6167 6.24347C14.6167 6.28415 14.5908 6.36183 14.5427 6.48019C14.4947 6.59855 14.4392 6.82046 14.38 7.14595C14.2912 7.48993 14.0397 8.77708 13.6255 11.0074C13.5774 11.2256 13.5515 11.4254 13.5515 11.614C13.5515 11.8026 13.6107 11.8951 13.729 11.8951C13.8881 11.8951 14.0212 11.81 14.1285 11.6362C14.2358 11.4623 14.3948 11.1664 14.6019 10.7411C14.65 10.6042 14.7092 10.534 14.7795 10.534C14.8682 10.534 14.9126 10.619 14.9126 10.7855C14.9126 11.111 14.8054 11.4697 14.5945 11.8655C14.3837 12.2613 14.11 12.5941 13.7734 12.8715C13.4368 13.149 13.104 13.2858 12.7674 13.2858C12.305 13.2858 12.072 12.9936 12.072 12.4129C12.072 12.1355 12.1201 11.736 12.22 11.2145L12.1904 11.1997C11.8057 11.7804 11.3804 12.276 10.918 12.6792C10.4557 13.0824 10.0155 13.2858 9.60128 13.2858C9.08716 13.2858 8.83195 12.8974 8.83195 12.117Z" fill="white"/>
<path d="M16.0076 13.1083C16.0076 13.0602 16.0446 12.9492 16.1186 12.7754C16.1926 12.6015 16.2629 12.3352 16.3331 11.9691L16.5846 10.5488C16.8509 9.02859 16.9878 8.1409 16.9989 7.88569V7.75254C16.9989 7.5861 16.9545 7.50102 16.8657 7.50102C16.6771 7.50102 16.4219 7.80062 16.0964 8.40351C16.0557 8.48118 16.0113 8.55516 15.9633 8.61804C15.9152 8.68092 15.8634 8.7142 15.8153 8.7142C15.7154 8.7142 15.6674 8.62913 15.6674 8.46269C15.6674 8.20748 15.782 7.88939 16.015 7.50843C16.2481 7.12746 16.5329 6.79828 16.8731 6.51718C17.2134 6.23608 17.5426 6.09552 17.857 6.09552C18.2823 6.09552 18.4932 6.37662 18.4932 6.93882C18.4932 7.05718 18.4525 7.47144 18.3748 8.18159H18.3896C18.8039 7.45295 19.1959 6.92033 19.5658 6.59114C19.9357 6.26196 20.3092 6.09552 20.6828 6.09552C20.938 6.09552 21.1451 6.1695 21.3042 6.31744C21.4632 6.46539 21.5409 6.67622 21.5409 6.95362C21.5409 7.23102 21.478 7.48253 21.356 7.73775C21.2339 7.99296 21.0823 8.20379 20.9047 8.36653C20.7272 8.52927 20.5755 8.61063 20.4461 8.61063C20.3684 8.61063 20.3425 8.56255 20.3721 8.46269C20.4017 8.32584 20.4165 8.19639 20.4165 8.07803C20.4165 7.82282 20.3018 7.69336 20.0762 7.69336C19.7026 7.69336 19.3291 7.94857 18.9592 8.46269C18.5893 8.97681 18.3008 9.71655 18.0937 10.6819C17.9458 11.2922 17.8459 11.773 17.7978 12.117C17.7497 12.3944 17.5537 12.657 17.2134 12.9085C16.8731 13.16 16.555 13.2858 16.2591 13.2858C16.0927 13.2858 16.0076 13.2266 16.0076 13.1083Z" fill="white"/>
<path d="M22.34 12.117C22.34 11.8211 22.3844 11.4069 22.4732 10.8742L22.9318 8.1668C22.9725 7.97076 22.991 7.80062 22.991 7.66377C22.991 7.53431 22.9466 7.47144 22.8578 7.47144C22.758 7.47144 22.6544 7.53802 22.5397 7.67117C22.4251 7.80432 22.2697 8.04843 22.0737 8.40351C22.033 8.48118 21.9886 8.55516 21.9405 8.61804C21.8925 8.68092 21.8407 8.7142 21.7926 8.7142C21.6927 8.7142 21.6447 8.62913 21.6447 8.46269C21.6447 8.20748 21.763 7.88939 21.9997 7.50843C22.2364 7.12746 22.5249 6.79828 22.8652 6.51718C23.2055 6.23608 23.5347 6.09552 23.8491 6.09552C24.0673 6.09552 24.23 6.1621 24.3447 6.29525C24.4594 6.42841 24.5148 6.61703 24.5148 6.86485C24.5148 6.92402 24.5037 7.0239 24.4853 7.16075L23.8491 11.4069V11.5548C23.8491 11.6325 23.8602 11.6917 23.8787 11.7249C23.8972 11.7582 23.9378 11.7767 23.997 11.7767C24.2226 11.7767 24.4927 11.5955 24.8033 11.2293C25.114 10.8632 25.4025 10.3971 25.6688 9.83121C25.9351 9.26531 26.1238 8.68831 26.231 8.10762L26.379 7.33829C26.4493 6.97212 26.6305 6.67622 26.9264 6.4432C27.2223 6.21018 27.5478 6.09552 27.9029 6.09552C27.9805 6.09552 28.0397 6.10661 28.073 6.1251C28.1063 6.1436 28.1248 6.18429 28.1248 6.24347C28.1248 6.28415 28.0989 6.36183 28.0508 6.48019C28.0027 6.59855 27.9472 6.82046 27.8881 7.14595C27.7993 7.48993 27.5478 8.77708 27.1335 11.0074C27.0854 11.2256 27.0596 11.4254 27.0596 11.614C27.0596 11.8026 27.1187 11.8951 27.2371 11.8951C27.3961 11.8951 27.5293 11.81 27.6366 11.6362C27.7438 11.4623 27.9029 11.1664 28.11 10.7411C28.1581 10.6042 28.2172 10.534 28.2875 10.534C28.3763 10.534 28.4207 10.619 28.4207 10.7855C28.4207 11.111 28.3134 11.4697 28.1026 11.8655C27.8918 12.2613 27.6181 12.5941 27.2815 12.8715C26.9449 13.149 26.612 13.2858 26.2754 13.2858C25.8131 13.2858 25.5801 12.9936 25.5801 12.4129C25.5801 12.1355 25.6282 11.736 25.728 11.2145L25.6984 11.1997C25.3138 11.7804 24.8884 12.276 24.4261 12.6792C23.9637 13.0824 23.5236 13.2858 23.1093 13.2858C22.5952 13.2858 22.34 12.8974 22.34 12.117Z" fill="white"/>
<path d="M33.5255 12.9603C33.5255 12.8234 33.5625 12.6939 33.6365 12.5756C33.7105 12.4572 33.8251 12.3278 33.9842 12.1909C34.1432 12.0319 34.2542 11.9098 34.3244 11.8211C34.3947 11.7323 34.4539 11.6028 34.5094 11.4364C34.5649 11.27 34.6314 11.011 34.7091 10.6671L36.0554 4.18693H35.9667C35.9186 4.18693 35.815 4.17584 35.656 4.15735C35.4599 4.11666 35.2528 4.09817 35.0346 4.09817C34.7498 4.09817 34.5094 4.13886 34.317 4.21653C34.1247 4.2942 33.9509 4.43844 33.7918 4.64557C33.7437 4.71585 33.692 4.77133 33.6439 4.81572C33.5958 4.8601 33.5514 4.88229 33.5107 4.88229C33.4219 4.88229 33.3776 4.83421 33.3776 4.73435C33.3776 4.63448 33.3887 4.5568 33.4072 4.49762C33.507 3.9946 33.7474 3.59884 34.1321 3.30664C34.5168 3.01444 35.0013 2.8702 35.582 2.8702C35.7004 2.8702 35.889 2.8813 36.1442 2.89979C36.3698 2.92938 36.6065 2.94418 36.8543 2.94418C36.9431 2.94418 37.165 2.92938 37.5201 2.89979C37.6977 2.8813 37.8197 2.8702 37.89 2.8702C37.8715 3.12541 37.8604 3.34733 37.8604 3.53596C37.8604 3.90213 37.9048 4.32379 37.9935 4.80092C38.0823 5.27805 38.2266 5.94752 38.4226 6.80562L38.8812 8.77332C38.9515 8.96936 38.9959 9.1432 39.0144 9.29115C40.0315 7.45659 40.7047 6.22122 41.0339 5.58504C41.3631 4.94887 41.6442 4.38297 41.8698 3.89104C41.9882 3.65433 42.0806 3.45829 42.1509 3.29925C42.5466 2.48923 42.9017 1.87895 43.2235 1.46469C43.5453 1.05044 43.9263 0.736051 44.3701 0.517827C44.666 0.369879 44.9804 0.270008 45.317 0.221924C45.6536 0.173841 46.0419 0.147957 46.4858 0.147957C46.7114 0.147957 46.8815 0.129462 46.9888 0.0887766C47.0591 0.070283 47.1182 0.0480895 47.1663 0.0295959C47.2144 0.0111024 47.2551 0 47.2847 0C47.3624 0 47.4031 0.0554815 47.4031 0.162744C47.4031 0.369871 47.281 0.573305 47.0332 0.769337C46.7854 0.965368 46.5265 1.06523 46.2491 1.06523C45.9236 1.07632 45.6573 1.09482 45.4501 1.12441C45.243 1.154 45.0396 1.21318 44.8435 1.30195C44.47 1.47949 44.1815 1.80128 43.9854 2.26362C43.7894 2.72595 43.6267 3.4176 43.4972 4.33488C43.4269 4.76023 43.3678 5.23366 43.3123 5.75518C43.2568 6.2767 43.205 6.82042 43.1569 7.38262C43.0275 8.82141 42.9054 10.0198 42.7871 10.9778C42.776 11.1664 42.739 11.3365 42.6761 11.4882C42.6132 11.6398 42.5356 11.7582 42.4468 11.8358V11.8506C42.6428 11.9505 42.8425 11.9986 43.0386 11.9986C43.1754 11.9986 43.316 11.9727 43.4602 11.9172C43.6045 11.8617 43.6932 11.8358 43.7339 11.8358C43.7746 11.8358 43.8005 11.847 43.8153 11.8654C43.8301 11.8839 43.8375 11.9246 43.8375 11.9838C43.8375 12.1133 43.7783 12.239 43.66 12.3685C43.2642 12.8826 42.8795 13.1378 42.506 13.1378C42.3691 13.1378 42.1768 13.1045 41.929 13.0342C41.8994 13.0231 41.8069 13.0009 41.6479 12.9603C41.4888 12.9196 41.3335 12.9011 41.1744 12.9011C40.9673 12.9011 40.7713 12.9418 40.59 13.0194C40.4088 13.0971 40.2978 13.1378 40.2572 13.1378C40.1869 13.1378 40.1536 13.0786 40.1536 12.9603C40.1536 12.694 40.3126 12.4387 40.627 12.1909L40.8933 11.9838C41.0117 11.895 41.0931 11.8248 41.1374 11.7693C41.1818 11.7138 41.2077 11.6287 41.2188 11.5104L41.2484 11.1997C41.4074 9.48347 41.5147 8.39975 41.5739 7.95221C41.6331 7.50467 41.6959 6.96836 41.7662 6.34698H41.7514C41.3372 7.00904 40.9081 7.77098 40.4643 8.64018C40.0204 9.50937 39.6617 10.2972 39.3843 11.0073C39.166 11.3735 38.9145 11.7286 38.6223 12.0726C38.3301 12.4166 38.1304 12.5904 38.0231 12.5904C37.9936 12.5904 37.9714 12.5719 37.9566 12.5386C37.9418 12.5053 37.9344 12.4572 37.9344 12.3981C37.8567 11.6879 37.7938 11.1664 37.7494 10.8372C37.705 10.508 37.6089 10.005 37.4609 9.33553C37.3907 9.03964 37.2908 8.60688 37.1576 8.03358C37.0245 7.46028 36.9283 7.01645 36.8691 6.70206L36.8543 6.68726L35.9519 11.1701C35.9408 11.1997 35.9112 11.3069 35.8557 11.4882C35.8002 11.6694 35.7336 11.7952 35.656 11.8654V11.895C35.8446 11.9653 36.0221 11.9986 36.1886 11.9986C36.3365 11.9986 36.466 11.9727 36.5806 11.9172C36.6953 11.8617 36.7693 11.8358 36.81 11.8358C36.8876 11.8358 36.9283 11.8839 36.9283 11.9838C36.9283 12.0726 36.8691 12.202 36.7508 12.3685C36.5326 12.6644 36.3476 12.8678 36.1886 12.9751C36.0295 13.0823 35.852 13.1378 35.656 13.1378C35.5191 13.1378 35.349 13.0971 35.1529 13.0194C34.9162 12.9418 34.7202 12.9011 34.5612 12.9011C34.3355 12.9011 34.1284 12.9418 33.9398 13.0194C33.7511 13.0971 33.6439 13.1378 33.6143 13.1378C33.5551 13.1378 33.5255 13.0786 33.5255 12.9603Z" fill="white"/>
<path d="M44.8653 12.8272C44.6915 12.5202 44.6064 12.1133 44.6064 11.5992C44.6064 10.7818 44.8062 9.94217 45.2056 9.08407C45.6051 8.22597 46.1488 7.51212 46.8405 6.94622C47.5321 6.38032 48.2756 6.09552 49.0745 6.09552C49.3297 6.09552 49.5849 6.12511 49.8364 6.18429C50.0879 6.24346 50.2913 6.31744 50.4504 6.40621C50.3616 6.62443 50.3024 6.80197 50.2728 6.93882C50.2433 7.07568 50.2248 7.16445 50.2137 7.20513C50.1434 7.56021 50.0435 8.10022 49.9104 8.82516C49.7772 9.55011 49.6515 10.2418 49.5331 10.9038C49.4739 11.1997 49.4443 11.4254 49.4443 11.5844C49.4443 11.6917 49.4628 11.773 49.4961 11.8211C49.5294 11.8692 49.5812 11.8951 49.6515 11.8951C49.8179 11.8951 49.9733 11.7952 50.1101 11.5918C50.247 11.3884 50.3949 11.1073 50.554 10.7411C50.5724 10.6819 50.5983 10.6338 50.6279 10.5931C50.6575 10.5525 50.6982 10.534 50.7463 10.534C50.8351 10.534 50.8794 10.6042 50.8794 10.7411C50.8794 10.8114 50.8757 10.8631 50.8646 10.9038C50.8166 11.2774 50.6871 11.651 50.48 12.0208C50.2729 12.3907 50.0176 12.694 49.718 12.9307C49.4184 13.1674 49.1078 13.2858 48.7934 13.2858C48.5382 13.2858 48.3384 13.1933 48.1942 13.0047C48.0499 12.8161 47.9797 12.5646 47.9797 12.2502C47.9797 12.1725 47.9908 12.0541 48.0092 11.8951L48.0832 11.3921H48.0536C47.6875 11.9432 47.2732 12.3981 46.8035 12.7532C46.3337 13.1083 45.9269 13.2858 45.5829 13.2858C45.2759 13.2858 45.0392 13.1342 44.8653 12.8272ZM47.2621 11.2441C47.6024 10.8595 47.9205 10.3749 48.2164 9.78683C48.5123 9.19874 48.7083 8.61433 48.8082 8.03364L48.9117 7.45664C48.6639 7.30869 48.4383 7.23472 48.2312 7.23472C47.9168 7.23472 47.5987 7.43075 47.2769 7.81912C46.9551 8.20748 46.6962 8.7105 46.4928 9.32818C46.2894 9.94587 46.1895 10.5746 46.1895 11.2145C46.1895 11.4512 46.208 11.6103 46.2413 11.6954C46.2746 11.7804 46.3374 11.8211 46.4262 11.8211C46.6444 11.8211 46.9218 11.6288 47.2621 11.2441Z" fill="white"/>
<path d="M51.7596 12.8272C51.5858 12.5202 51.5007 12.1133 51.5007 11.5992C51.5007 10.7818 51.7005 9.94217 52.0999 9.08407C52.4994 8.22597 53.0431 7.51212 53.7348 6.94622C54.4264 6.38032 55.1699 6.09552 55.9688 6.09552C56.224 6.09552 56.4792 6.12511 56.7307 6.18429C56.9822 6.24346 57.1856 6.31744 57.3447 6.40621C57.2559 6.62443 57.1967 6.80197 57.1671 6.93882C57.1376 7.07568 57.1191 7.16445 57.108 7.20513C57.0377 7.56021 56.9378 8.10022 56.8047 8.82516C56.6715 9.55011 56.5458 10.2418 56.4274 10.9038C56.3682 11.1997 56.3386 11.4254 56.3386 11.5844C56.3386 11.6917 56.3571 11.773 56.3904 11.8211C56.4237 11.8692 56.4755 11.8951 56.5458 11.8951C56.7122 11.8951 56.8676 11.7952 57.0044 11.5918C57.1413 11.3884 57.2892 11.1073 57.4483 10.7411C57.4667 10.6819 57.4926 10.6338 57.5222 10.5931C57.5518 10.5525 57.5925 10.534 57.6406 10.534C57.7294 10.534 57.7737 10.6042 57.7737 10.7411C57.7737 10.8114 57.77 10.8631 57.7589 10.9038C57.7109 11.2774 57.5814 11.651 57.3743 12.0208C57.1671 12.3907 56.9119 12.694 56.6123 12.9307C56.3127 13.1674 56.0021 13.2858 55.6877 13.2858C55.4325 13.2858 55.2327 13.1933 55.0885 13.0047C54.9442 12.8161 54.8739 12.5646 54.8739 12.2502C54.8739 12.1725 54.8851 12.0541 54.9035 11.8951L54.9775 11.3921H54.9479C54.5818 11.9432 54.1675 12.3981 53.6978 12.7532C53.228 13.1083 52.8212 13.2858 52.4772 13.2858C52.1702 13.2858 51.9335 13.1342 51.7596 12.8272ZM54.1564 11.2441C54.4967 10.8595 54.8148 10.3749 55.1107 9.78683C55.4066 9.19874 55.6026 8.61433 55.7025 8.03364L55.806 7.45664C55.5582 7.30869 55.3326 7.23472 55.1255 7.23472C54.8111 7.23472 54.493 7.43075 54.1712 7.81912C53.8494 8.20748 53.5905 8.7105 53.3871 9.32818C53.1836 9.94587 53.0838 10.5746 53.0838 11.2145C53.0838 11.4512 53.1023 11.6103 53.1356 11.6954C53.1689 11.7804 53.2317 11.8211 53.3205 11.8211C53.5387 11.8211 53.8161 11.6288 54.1564 11.2441Z" fill="white"/>
<path d="M63.4919 13.0195C63.1405 12.8419 62.8742 12.6237 62.6929 12.3611C62.5117 12.0985 62.4081 11.8396 62.3896 11.5844C62.3896 11.3366 62.4599 11.0703 62.6042 10.7781C62.7484 10.4859 62.9186 10.2381 63.1146 10.0309C63.3106 9.8238 63.466 9.72023 63.5732 9.72023C63.6213 9.72023 63.6583 9.77941 63.6768 9.89777C63.7545 10.5007 63.8358 10.9556 63.9209 11.2663C64.006 11.577 64.1428 11.8137 64.3352 11.9764C64.5275 12.1392 64.816 12.2206 65.2007 12.2206C65.7333 12.2206 66.1364 12.0837 66.4064 11.8063C66.6765 11.5289 66.8133 11.1553 66.8133 10.6819C66.8133 10.3675 66.7541 10.0901 66.6358 9.85339C66.5174 9.61667 66.3066 9.30599 65.9996 8.92132L64.5941 7.2643C64.3758 7.00909 64.2279 6.76867 64.1428 6.54675C64.0578 6.32483 64.0171 6.07702 64.0171 5.79961C64.0171 5.28549 64.1465 4.79357 64.4017 4.32013C64.657 3.8467 65.0342 3.46202 65.5335 3.16613C66.0329 2.87023 66.6247 2.72229 67.3163 2.72229C67.897 2.72229 68.3557 2.83694 68.6848 3.06256C69.014 3.28819 69.1805 3.60997 69.1805 4.02423C69.1805 4.19067 69.1546 4.35711 69.1065 4.51985C69.0584 4.6826 68.9918 4.82686 68.9142 4.95631C68.8069 5.12275 68.7107 5.24111 68.6257 5.31138C68.5406 5.38166 68.4518 5.41495 68.352 5.41495C68.2447 5.41495 68.1707 5.36686 68.13 5.27439C68.0894 5.18193 68.0598 5.04877 68.0413 4.88233C68.0117 4.50876 67.9118 4.22027 67.738 4.01684C67.5641 3.81341 67.2682 3.71354 66.8429 3.71354C66.4175 3.71354 66.0551 3.8245 65.8072 4.04642C65.5594 4.26834 65.4374 4.55684 65.4374 4.91192C65.4374 5.11904 65.4781 5.30768 65.5557 5.48152C65.6334 5.65536 65.7592 5.84029 65.9256 6.03633L67.3459 7.66375C67.6899 8.04842 67.9414 8.41829 68.1004 8.77336C68.2595 9.12844 68.3372 9.50201 68.3372 9.89777C68.3372 10.4896 68.1707 11.0481 67.8341 11.5696C67.4976 12.0911 67.0537 12.5091 66.4952 12.8197C65.9367 13.1304 65.3486 13.2858 64.7272 13.2858C64.2538 13.2858 63.8432 13.197 63.4919 13.0195Z" fill="white"/>
<path d="M69.2098 13.1378C69.2098 13.0898 69.2431 12.9492 69.3134 12.7236C69.4133 12.4388 69.4761 12.2206 69.5057 12.0726C69.6056 11.5511 69.7831 10.4452 70.0383 8.75857L70.423 6.36181C70.619 5.18932 70.8706 4.19807 71.1701 3.38805C71.4697 2.57803 71.847 1.92337 72.302 1.42035C72.657 1.02459 73.001 0.761974 73.3302 0.628821C73.6594 0.495668 74.0773 0.388411 74.5804 0.310738C74.8947 0.262655 75.1019 0.225661 75.2017 0.19977C75.3016 0.173879 75.3645 0.162781 75.3941 0.162781C75.4717 0.162781 75.5124 0.218262 75.5124 0.325525C75.5124 0.414293 75.4754 0.521562 75.4015 0.643619C75.3275 0.765676 75.235 0.884036 75.1278 0.991298C74.9687 1.13925 74.732 1.21321 74.4176 1.21321C74.1106 1.2428 73.8443 1.32788 73.6187 1.46473C73.3931 1.60158 73.1749 1.8235 72.9677 2.13049C72.6829 2.56324 72.4536 3.12545 72.2872 3.80971C72.1207 4.49397 71.9469 5.50741 71.7693 6.85004L71.577 8.27034H71.5918C72.6274 6.82045 73.5188 6.0955 74.2697 6.0955C74.5175 6.0955 74.7024 6.17688 74.8319 6.33962C74.9613 6.50236 75.0242 6.77237 75.0242 7.14593C75.0242 7.43073 74.9798 7.808 74.8911 8.27034C74.695 9.29488 74.5508 10.0198 74.462 10.4452C74.3325 11.1442 74.2697 11.5289 74.2697 11.5992C74.2697 11.7952 74.3325 11.8951 74.462 11.8951C74.61 11.8951 74.7468 11.7989 74.8763 11.6066C75.0057 11.4142 75.1463 11.1257 75.3053 10.7411C75.3534 10.6042 75.4126 10.5339 75.4828 10.5339C75.5716 10.5339 75.616 10.6264 75.616 10.8151C75.616 11.159 75.5087 11.5289 75.2905 11.9173C75.0723 12.3056 74.7986 12.6311 74.4694 12.8937C74.1402 13.1563 73.811 13.2858 73.4855 13.2858C72.9936 13.2858 72.7458 12.9603 72.7458 12.3093C72.7458 12.0541 72.7754 11.7434 72.8346 11.3773C72.8937 11.0111 72.9825 10.545 73.1009 9.97175C73.1785 9.58708 73.2525 9.20242 73.3154 8.81775C73.3783 8.43309 73.4153 8.12239 73.4264 7.88567V7.79691C73.4264 7.61937 73.3709 7.5306 73.2636 7.5306C73.0972 7.5306 72.8679 7.70443 72.5757 8.05581C72.2835 8.40719 72.0061 8.84364 71.7398 9.36516C71.4734 9.88667 71.2959 10.3897 71.2071 10.8742L70.9704 12.0726C70.9001 12.3685 70.7078 12.6459 70.386 12.9011C70.0642 13.1563 69.7536 13.2858 69.4466 13.2858C69.2875 13.2858 69.2098 13.2377 69.2098 13.1378Z" fill="white"/>
<path d="M77.0519 12.117C77.0519 11.8211 77.0963 11.4069 77.1851 10.8742L77.6437 8.1668C77.6844 7.97076 77.7029 7.80062 77.7029 7.66377C77.7029 7.53431 77.6585 7.47144 77.5697 7.47144C77.4699 7.47144 77.3663 7.53802 77.2516 7.67117C77.137 7.80432 76.9816 8.04843 76.7856 8.40351C76.7449 8.48118 76.7005 8.55516 76.6525 8.61804C76.6044 8.68092 76.5526 8.7142 76.5045 8.7142C76.4046 8.7142 76.3566 8.62913 76.3566 8.46269C76.3566 8.20748 76.4749 7.88939 76.7116 7.50843C76.9484 7.12746 77.2369 6.79828 77.5771 6.51718C77.9174 6.23608 78.2466 6.09552 78.561 6.09552C78.7792 6.09552 78.942 6.1621 79.0566 6.29525C79.1713 6.42841 79.2268 6.61703 79.2268 6.86485C79.2268 6.92402 79.2157 7.0239 79.1972 7.16075L78.561 11.4069V11.5548C78.561 11.6325 78.5721 11.6917 78.5906 11.7249C78.6091 11.7582 78.6498 11.7767 78.7089 11.7767C78.9346 11.7767 79.2046 11.5955 79.5153 11.2293C79.826 10.8632 80.1145 10.3971 80.3808 9.83121C80.6471 9.26531 80.8357 8.68831 80.943 8.10762L81.0909 7.33829C81.1612 6.97212 81.3424 6.67622 81.6383 6.4432C81.9342 6.21018 82.2597 6.09552 82.6148 6.09552C82.6924 6.09552 82.7516 6.10661 82.7849 6.1251C82.8182 6.1436 82.8367 6.18429 82.8367 6.24347C82.8367 6.28415 82.8108 6.36183 82.7627 6.48019C82.7146 6.59855 82.6592 6.82046 82.6 7.14595C82.5112 7.48993 82.2597 8.77708 81.8454 11.0074C81.7974 11.2256 81.7715 11.4254 81.7715 11.614C81.7715 11.8026 81.8306 11.8951 81.949 11.8951C82.108 11.8951 82.2412 11.81 82.3485 11.6362C82.4557 11.4623 82.6148 11.1664 82.8219 10.7411C82.87 10.6042 82.9292 10.534 82.9994 10.534C83.0882 10.534 83.1326 10.619 83.1326 10.7855C83.1326 11.111 83.0253 11.4697 82.8145 11.8655C82.6037 12.2613 82.33 12.5941 81.9934 12.8715C81.6568 13.149 81.3239 13.2858 80.9873 13.2858C80.525 13.2858 80.292 12.9936 80.292 12.4129C80.292 12.1355 80.3401 11.736 80.4399 11.2145L80.4103 11.1997C80.0257 11.7804 79.6003 12.276 79.138 12.6792C78.6757 13.0824 78.2355 13.2858 77.8213 13.2858C77.3071 13.2858 77.0519 12.8974 77.0519 12.117Z" fill="white"/>
<path d="M85.3138 13.2562C85.1918 13.2377 85.1141 13.2229 85.0845 13.2118C84.907 13.1637 84.7257 13.1378 84.5371 13.1378C84.3115 13.1378 84.1229 13.1637 83.9749 13.2118H83.9453C84.0748 12.768 84.1709 12.3389 84.2412 11.9247L85.1585 6.36181C85.3656 5.13014 85.6134 4.10561 85.8982 3.29189C86.183 2.47818 86.5529 1.8346 87.0078 1.36117C87.3629 1.00609 87.7291 0.75828 88.1027 0.621428C88.4762 0.484576 88.8868 0.381013 89.3306 0.310738C89.6376 0.262655 89.8374 0.225661 89.9372 0.19977C90.0371 0.173879 90.1 0.162781 90.1295 0.162781C90.2183 0.162781 90.2627 0.218262 90.2627 0.325525C90.2627 0.403197 90.2257 0.506764 90.1517 0.628821C90.0778 0.750878 89.9853 0.872939 89.878 0.991298C89.7708 1.06897 89.6598 1.12815 89.5525 1.16144C89.4453 1.19472 89.3121 1.21321 89.1531 1.21321C88.8757 1.2317 88.6131 1.30568 88.3616 1.42774C88.1101 1.5498 87.8807 1.77542 87.6736 2.10091C87.4258 2.47448 87.2113 3.01079 87.03 3.70614C86.8488 4.4015 86.6639 5.44083 86.4752 6.82045L86.3125 8.01883H86.3421C86.6972 7.43814 87.0855 6.9721 87.5109 6.62072C87.9362 6.26935 88.3394 6.0955 88.724 6.0955C89.4342 6.0955 89.7893 6.72798 89.7893 7.98924C89.7893 8.93611 89.608 9.8164 89.2493 10.6301C88.8905 11.4438 88.3986 12.0911 87.7772 12.5682C87.1558 13.0454 86.4752 13.2858 85.7355 13.2858C85.5764 13.2858 85.4359 13.2747 85.3138 13.2562ZM87.3703 11.6362C87.6403 11.307 87.8511 10.8668 87.9991 10.3194C88.147 9.77202 88.221 9.18393 88.221 8.55145C88.221 8.23706 88.1951 8.00033 88.147 7.84869C88.099 7.69704 88.0102 7.61937 87.8807 7.61937C87.6625 7.61937 87.3999 7.8006 87.0892 8.15937C86.7785 8.51815 86.5011 8.98419 86.2533 9.55009C86.0055 10.116 85.8428 10.693 85.7651 11.2737L85.6763 11.8951C85.9019 12.0541 86.1534 12.1318 86.4308 12.1318C86.7859 12.1318 87.1003 11.9653 87.3703 11.6362Z" fill="white"/>
<path d="M90.0862 13.1378C90.0862 13.0898 90.1195 12.9492 90.1897 12.7236C90.2896 12.4388 90.3525 12.2206 90.3821 12.0726C90.4819 11.5511 90.6595 10.4452 90.9147 8.75857L91.2994 6.36181C91.4954 5.18932 91.7469 4.19807 92.0465 3.38805C92.3461 2.57803 92.7234 1.92337 93.1783 1.42035C93.5334 1.02459 93.8774 0.761974 94.2065 0.628821C94.5357 0.495668 94.9537 0.388411 95.4567 0.310738C95.7711 0.262655 95.9782 0.225661 96.0781 0.19977C96.178 0.173879 96.2408 0.162781 96.2704 0.162781C96.3481 0.162781 96.3888 0.218262 96.3888 0.325525C96.3888 0.414293 96.3518 0.521562 96.2778 0.643619C96.2038 0.765676 96.1114 0.884036 96.0041 0.991298C95.8451 1.13925 95.6083 1.21321 95.294 1.21321C94.987 1.2428 94.7207 1.32788 94.495 1.46473C94.2694 1.60158 94.0512 1.8235 93.8441 2.13049C93.5593 2.56324 93.3299 3.12545 93.1635 3.80971C92.9971 4.49397 92.8232 5.50741 92.6457 6.85004L92.4533 8.27034H92.4681C93.5038 6.82045 94.3952 6.0955 95.146 6.0955C95.3938 6.0955 95.5788 6.17688 95.7082 6.33962C95.8377 6.50236 95.9005 6.77237 95.9005 7.14593C95.9005 7.43073 95.8562 7.808 95.7674 8.27034C95.5714 9.29488 95.4271 10.0198 95.3383 10.4452C95.2089 11.1442 95.146 11.5289 95.146 11.5992C95.146 11.7952 95.2089 11.8951 95.3383 11.8951C95.4863 11.8951 95.6231 11.7989 95.7526 11.6066C95.8821 11.4142 96.0226 11.1257 96.1816 10.7411C96.2297 10.6042 96.2889 10.5339 96.3592 10.5339C96.4479 10.5339 96.4923 10.6264 96.4923 10.8151C96.4923 11.159 96.3851 11.5289 96.1669 11.9173C95.9486 12.3056 95.6749 12.6311 95.3457 12.8937C95.0166 13.1563 94.6874 13.2858 94.3619 13.2858C93.87 13.2858 93.6221 12.9603 93.6221 12.3093C93.6221 12.0541 93.6517 11.7434 93.7109 11.3773C93.7701 11.0111 93.8589 10.545 93.9772 9.97175C94.0549 9.58708 94.1289 9.20242 94.1917 8.81775C94.2546 8.43309 94.2916 8.12239 94.3027 7.88567V7.79691C94.3027 7.61937 94.2472 7.5306 94.14 7.5306C93.9735 7.5306 93.7442 7.70443 93.452 8.05581C93.1598 8.40719 92.8824 8.84364 92.6161 9.36516C92.3498 9.88667 92.1722 10.3897 92.0835 10.8742L91.8468 12.0726C91.7765 12.3685 91.5842 12.6459 91.2624 12.9011C90.9406 13.1563 90.6299 13.2858 90.3229 13.2858C90.1639 13.2858 90.0862 13.2377 90.0862 13.1378Z" fill="white"/>
<path d="M97.4758 12.8272C97.302 12.5202 97.2169 12.1133 97.2169 11.5992C97.2169 10.7818 97.4166 9.94217 97.8161 9.08407C98.2156 8.22597 98.7593 7.51212 99.4509 6.94622C100.143 6.38032 100.886 6.09552 101.685 6.09552C101.94 6.09552 102.195 6.12511 102.447 6.18429C102.698 6.24346 102.902 6.31744 103.061 6.40621C102.972 6.62443 102.913 6.80197 102.883 6.93882C102.854 7.07568 102.835 7.16445 102.824 7.20513C102.754 7.56021 102.654 8.10022 102.521 8.82516C102.388 9.55011 102.262 10.2418 102.144 10.9038C102.084 11.1997 102.055 11.4254 102.055 11.5844C102.055 11.6917 102.073 11.773 102.107 11.8211C102.14 11.8692 102.192 11.8951 102.262 11.8951C102.428 11.8951 102.584 11.7952 102.721 11.5918C102.857 11.3884 103.005 11.1073 103.164 10.7411C103.183 10.6819 103.209 10.6338 103.238 10.5931C103.268 10.5525 103.309 10.534 103.357 10.534C103.446 10.534 103.49 10.6042 103.49 10.7411C103.49 10.8114 103.486 10.8631 103.475 10.9038C103.427 11.2774 103.298 11.651 103.09 12.0208C102.883 12.3907 102.628 12.694 102.329 12.9307C102.029 13.1674 101.718 13.2858 101.404 13.2858C101.149 13.2858 100.949 13.1933 100.805 13.0047C100.66 12.8161 100.59 12.5646 100.59 12.2502C100.59 12.1725 100.601 12.0541 100.62 11.8951L100.694 11.3921H100.664C100.298 11.9432 99.8837 12.3981 99.4139 12.7532C98.9442 13.1083 98.5374 13.2858 98.1934 13.2858C97.8864 13.2858 97.6497 13.1342 97.4758 12.8272ZM99.8726 11.2441C100.213 10.8595 100.531 10.3749 100.827 9.78683C101.123 9.19874 101.319 8.61433 101.419 8.03364L101.522 7.45664C101.274 7.30869 101.049 7.23472 100.842 7.23472C100.527 7.23472 100.209 7.43075 99.8874 7.81912C99.5656 8.20748 99.3067 8.7105 99.1033 9.32818C98.8998 9.94587 98.8 10.5746 98.8 11.2145C98.8 11.4512 98.8185 11.6103 98.8518 11.6954C98.885 11.7804 98.9479 11.8211 99.0367 11.8211C99.2549 11.8211 99.5323 11.6288 99.8726 11.2441Z" fill="white"/>
<path d="M108.476 12.9751C108.476 12.8678 108.513 12.7273 108.587 12.5534C108.661 12.3796 108.776 12.2243 108.935 12.0874C109.182 11.8914 109.338 11.7434 109.401 11.6436C109.464 11.5437 109.53 11.3292 109.6 10.9926L110.532 5.69605C110.562 5.50742 110.662 5.31508 110.828 5.11905C110.995 4.92302 111.202 4.76028 111.45 4.63082C111.698 4.50137 111.938 4.43848 112.175 4.43848C112.252 4.43848 112.308 4.44958 112.337 4.47547C112.367 4.50136 112.382 4.53836 112.382 4.58644C112.382 4.64562 112.341 4.77507 112.263 4.9711C112.186 5.16713 112.112 5.44454 112.041 5.79961L111.065 11.2293C111.035 11.4549 110.958 11.6584 110.828 11.8359V11.8507C111.084 11.8988 111.435 11.9247 111.879 11.9247C112.589 11.9247 113.199 11.7286 113.713 11.3403C114.227 10.9519 114.616 10.4082 114.882 9.71284C115.148 9.01748 115.282 8.21486 115.282 7.30868C115.282 6.0955 115.037 5.20412 114.549 4.63822C114.061 4.07231 113.303 3.78752 112.278 3.78752C111.638 3.78752 111.076 3.89478 110.592 4.1056C110.107 4.31643 109.678 4.64561 109.304 5.08946C109.186 5.21891 109.097 5.30768 109.038 5.35576C108.979 5.40385 108.905 5.42974 108.816 5.42974C108.698 5.42974 108.639 5.36686 108.639 5.2374C108.639 5.16713 108.665 5.05986 108.713 4.91192C109.009 4.24245 109.515 3.70985 110.229 3.31408C110.943 2.91832 111.805 2.72229 112.811 2.72229C114.142 2.72229 115.182 3.10325 115.925 3.86149C116.669 4.61972 117.042 5.72933 117.042 7.19032C117.042 8.29623 116.828 9.29858 116.399 10.2011C115.97 11.1036 115.356 11.8174 114.557 12.3463C113.758 12.8752 112.829 13.1378 111.775 13.1378C111.439 13.1378 111.024 13.0972 110.532 13.0195C110.118 12.9603 109.833 12.9307 109.674 12.9307C109.427 12.9307 109.208 12.964 109.016 13.0343C108.824 13.1046 108.698 13.1378 108.639 13.1378C108.531 13.1378 108.476 13.0824 108.476 12.9751Z" fill="white"/>
<path d="M118.359 12.3093C118.359 12.1318 118.385 11.8951 118.433 11.5992L119.143 8.01885C119.162 7.84131 119.173 7.73405 119.173 7.69336C119.173 7.55651 119.128 7.48624 119.039 7.48624C118.951 7.48624 118.847 7.55651 118.729 7.70076C118.61 7.84501 118.459 8.07802 118.27 8.40351C118.259 8.422 118.237 8.46639 118.204 8.52926C118.17 8.59214 118.137 8.64023 118.107 8.66982C118.078 8.69941 118.048 8.7142 118.019 8.7142C117.93 8.7142 117.885 8.63653 117.885 8.47749C117.885 8.20009 118.004 7.8746 118.241 7.49363C118.477 7.11267 118.773 6.78718 119.128 6.50978C119.483 6.23237 119.827 6.09552 120.164 6.09552C120.578 6.09552 120.785 6.37292 120.785 6.92403C120.785 7.08307 120.752 7.35308 120.682 7.73775L119.942 11.5548C119.923 11.6325 119.912 11.688 119.912 11.7176C119.912 11.8359 119.968 11.8951 120.075 11.8951C120.205 11.8951 120.349 11.7915 120.512 11.5844C120.674 11.3773 120.83 11.0962 120.978 10.7411C121.026 10.6042 121.085 10.534 121.155 10.534C121.244 10.534 121.288 10.619 121.288 10.7855C121.288 11.1295 121.174 11.4993 120.948 11.8877C120.722 12.2761 120.438 12.6089 120.097 12.8789C119.757 13.1489 119.42 13.2858 119.084 13.2858C118.599 13.2858 118.359 12.9603 118.359 12.3093ZM119.572 5.55551C119.554 5.52962 119.546 5.48524 119.557 5.41496L119.764 4.24617C119.824 3.93178 119.96 3.67657 120.179 3.48424C120.397 3.29191 120.708 3.19574 121.111 3.19574H121.229C121.336 3.19574 121.388 3.25122 121.377 3.35848L121.17 4.52728C121.052 5.23743 120.597 5.5925 119.809 5.5925H119.705C119.635 5.5925 119.591 5.58141 119.572 5.55551Z" fill="white"/>
<path d="M122.287 12.8271C122.113 12.5202 122.028 12.1133 122.028 11.5992C122.028 10.8003 122.224 9.96805 122.62 9.10625C123.015 8.24446 123.541 7.5269 124.203 6.95361C124.865 6.38031 125.575 6.0955 126.333 6.0955H126.378C126.692 4.76397 126.98 3.76163 127.243 3.08477C127.506 2.4079 127.853 1.84569 128.286 1.39075C128.66 1.00609 129.018 0.747176 129.359 0.614023C129.699 0.48087 130.087 0.381013 130.52 0.310738C130.834 0.262655 131.042 0.225661 131.141 0.19977C131.241 0.173879 131.3 0.162781 131.319 0.162781C131.397 0.162781 131.437 0.218262 131.437 0.325525C131.437 0.414293 131.404 0.521562 131.334 0.643619C131.263 0.765676 131.182 0.884036 131.082 0.991298C130.975 1.08007 130.864 1.13924 130.757 1.16883C130.65 1.19842 130.509 1.21321 130.343 1.21321C129.78 1.2539 129.318 1.55719 128.952 2.13049C128.734 2.47447 128.552 2.93311 128.404 3.50641C128.256 4.07971 128.023 5.19302 127.709 6.85004C127.709 6.87963 127.561 7.68965 127.265 9.27639C127.077 10.2528 126.973 10.7966 126.955 10.9038C126.895 11.1997 126.866 11.4253 126.866 11.5844C126.866 11.6916 126.884 11.773 126.918 11.8211C126.951 11.8692 127.003 11.8951 127.073 11.8951C127.239 11.8951 127.391 11.7952 127.524 11.5992C127.657 11.4031 127.809 11.1146 127.975 10.7411C127.986 10.73 128.001 10.7041 128.02 10.6597C128.038 10.6153 128.06 10.582 128.086 10.5635C128.112 10.545 128.138 10.5339 128.168 10.5339C128.245 10.5339 128.286 10.6227 128.286 10.8003C128.286 11.1368 128.182 11.4993 127.975 11.8877C127.768 12.276 127.502 12.6089 127.176 12.8789C126.851 13.1489 126.529 13.2858 126.215 13.2858C125.96 13.2858 125.76 13.1933 125.616 13.0047C125.471 12.816 125.401 12.5645 125.401 12.2502C125.401 12.1725 125.412 12.0541 125.431 11.8951L125.505 11.392H125.475C125.109 11.9432 124.695 12.3981 124.225 12.7532C123.755 13.1082 123.348 13.2858 123.004 13.2858C122.697 13.2858 122.461 13.1341 122.287 12.8271ZM124.684 11.2441C125.024 10.8594 125.342 10.3749 125.638 9.78681C125.934 9.19872 126.13 8.61432 126.23 8.03362L126.333 7.45662C126.085 7.30868 125.86 7.2347 125.653 7.2347C125.338 7.2347 125.02 7.43074 124.698 7.8191C124.377 8.20746 124.118 8.71048 123.914 9.32817C123.711 9.94585 123.611 10.5746 123.611 11.2145C123.611 11.4512 123.629 11.6103 123.663 11.6953C123.696 11.7804 123.759 11.8211 123.848 11.8211C124.066 11.8211 124.343 11.6288 124.684 11.2441Z" fill="white"/>
<path d="M129.366 12.3093C129.366 12.1318 129.392 11.8951 129.44 11.5992L130.15 8.01885C130.168 7.84131 130.179 7.73405 130.179 7.69336C130.179 7.55651 130.135 7.48624 130.046 7.48624C129.957 7.48624 129.854 7.55651 129.736 7.70076C129.617 7.84501 129.466 8.07802 129.277 8.40351C129.266 8.422 129.244 8.46639 129.21 8.52926C129.177 8.59214 129.144 8.64023 129.114 8.66982C129.085 8.69941 129.055 8.7142 129.025 8.7142C128.937 8.7142 128.892 8.63653 128.892 8.47749C128.892 8.20009 129.011 7.8746 129.247 7.49363C129.484 7.11267 129.78 6.78718 130.135 6.50978C130.49 6.23237 130.834 6.09552 131.171 6.09552C131.585 6.09552 131.792 6.37292 131.792 6.92403C131.792 7.08307 131.759 7.35308 131.688 7.73775L130.949 11.5548C130.93 11.6325 130.919 11.688 130.919 11.7176C130.919 11.8359 130.975 11.8951 131.082 11.8951C131.211 11.8951 131.356 11.7915 131.518 11.5844C131.681 11.3773 131.836 11.0962 131.984 10.7411C132.032 10.6042 132.092 10.534 132.162 10.534C132.251 10.534 132.295 10.619 132.295 10.7855C132.295 11.1295 132.18 11.4993 131.955 11.8877C131.729 12.2761 131.444 12.6089 131.104 12.8789C130.764 13.1489 130.427 13.2858 130.091 13.2858C129.606 13.2858 129.366 12.9603 129.366 12.3093ZM130.579 5.55551C130.56 5.52962 130.553 5.48524 130.564 5.41496L130.771 4.24617C130.83 3.93178 130.967 3.67657 131.185 3.48424C131.404 3.29191 131.714 3.19574 132.117 3.19574H132.236C132.343 3.19574 132.395 3.25122 132.384 3.35848L132.177 4.52728C132.058 5.23743 131.603 5.5925 130.816 5.5925H130.712C130.642 5.5925 130.597 5.58141 130.579 5.55551Z" fill="white"/>
</svg>
