<svg width="78" height="53" viewBox="0 0 78 53" fill="none" xmlns="http://www.w3.org/2000/svg">
<mask id="mask0_778_15301" style="mask-type:luminance" maskUnits="userSpaceOnUse" x="0" y="0" width="78" height="53">
<path d="M0 0.000154495H77.225V52.024H0L0 0.000154495Z" fill="white"/>
</mask>
<g mask="url(#mask0_778_15301)">
<path d="M77.1955 34.4917C77.2061 34.4359 77.1991 34.3801 77.1955 34.3203C77.1955 34.2645 77.1955 34.2087 77.1814 34.1529C77.1708 34.097 77.1461 34.0452 77.1249 33.9934C77.1038 33.9416 77.0861 33.8897 77.0543 33.8419C77.0226 33.7941 76.9837 33.7582 76.9414 33.7143C76.9131 33.6864 76.892 33.6466 76.8602 33.6227C76.6413 33.4512 71.6043 29.68 64.7636 28.2688C67.2203 20.9934 66.9662 14.1685 66.9485 13.7539C66.9485 13.7021 66.9273 13.6583 66.9203 13.6104C66.9097 13.5586 66.9026 13.5068 66.885 13.4589C66.8603 13.3912 66.825 13.3314 66.7861 13.2756C66.7685 13.2437 66.7508 13.2078 66.7261 13.1799C66.6803 13.1241 66.6238 13.0842 66.5638 13.0443C66.5355 13.0244 66.5108 13.0005 66.479 12.9845C66.4226 12.9566 66.3626 12.9447 66.3026 12.9327C66.2673 12.9247 66.2355 12.9048 66.1967 12.9008C65.7872 12.8769 56.3697 12.3786 48.4065 18.1431C46.3768 7.81804 39.4831 0.658289 39.1407 0.307477C39.109 0.275585 39.0701 0.263626 39.0349 0.23572C38.9925 0.203828 38.9501 0.16795 38.9042 0.148017C38.8548 0.124099 38.8054 0.116126 38.756 0.104166C38.7066 0.0961934 38.6572 0.0802469 38.6077 0.0802469C38.5548 0.0802469 38.5089 0.0961934 38.4595 0.104166C38.4065 0.116126 38.3571 0.124099 38.3112 0.148017C38.2618 0.16795 38.223 0.203828 38.1771 0.23572C38.1453 0.25964 38.1065 0.271599 38.0712 0.307477C37.7324 0.654303 30.8281 7.82601 28.802 18.163C20.8493 12.4224 11.4318 12.8729 11.0188 12.9008C10.9906 12.9008 10.9659 12.9168 10.9376 12.9247C10.8635 12.9367 10.7929 12.9487 10.7294 12.9845C10.7082 12.9925 10.6941 13.0085 10.6764 13.0204C10.6058 13.0643 10.5423 13.1121 10.4858 13.1799C10.4646 13.2038 10.4505 13.2357 10.4329 13.2676C10.3905 13.3274 10.3552 13.3832 10.3305 13.455C10.3093 13.5068 10.3058 13.5626 10.2952 13.6144C10.2846 13.6622 10.267 13.7061 10.2634 13.7539C10.2458 14.1685 9.99165 21.0054 12.459 28.2927C5.61117 29.6999 0.570611 33.4791 0.351764 33.6466C0.316466 33.6745 0.295287 33.7104 0.267049 33.7422C0.228221 33.7821 0.185864 33.822 0.157625 33.8698C0.125857 33.9177 0.104679 33.9695 0.0834994 34.0213C0.0658507 34.0731 0.0411421 34.121 0.0305524 34.1768C0.0164332 34.2326 0.016433 34.2924 0.0129034 34.3482C0.0129034 34.408 0.00584337 34.4598 0.0129034 34.5156C0.0234931 34.5754 0.0411423 34.6352 0.0623206 34.691C0.0729103 34.7349 0.0764401 34.7787 0.0940888 34.8186C0.348235 35.3568 6.49362 48.0418 17.909 51.235C19.6068 51.7094 21.3294 51.9486 23.0696 51.9486C28.1031 51.9486 33.313 49.9553 38.6219 46.0207C43.9201 49.9394 49.116 51.9247 54.1424 51.9247C55.8826 51.9247 57.6051 51.6855 59.303 51.2151C70.7148 48.0219 76.8602 35.3329 77.1179 34.7907C77.1355 34.7508 77.1355 34.707 77.1496 34.6671C77.1708 34.6073 77.192 34.5515 77.1955 34.4917ZM65.3672 14.6828C65.346 17.8521 64.7883 29.3571 58.0675 36.9394C53.86 41.6873 47.9829 44.0673 40.6021 44.0593C46.1545 37.8164 48.9712 31.0035 48.9712 23.784C48.9712 22.5083 48.883 21.2685 48.7242 20.0606C55.1272 15.1373 62.9528 14.6908 65.3672 14.6828ZM38.6077 2.22897C40.3303 4.20627 45.7274 10.9993 47.0722 19.8294C47.0722 19.8373 47.0722 19.8493 47.0757 19.8613C47.2663 21.1329 47.3793 22.4485 47.3793 23.7959C47.3758 30.8799 44.4213 37.5812 38.6077 43.7324C32.7977 37.5812 29.8397 30.8799 29.8362 23.7959C29.8327 13.0722 36.6346 4.4933 38.6077 2.22897ZM28.4878 20.0805C28.3325 21.2804 28.2443 22.5163 28.2443 23.784C28.2443 31.0035 31.0646 37.8164 36.6134 44.0593C29.2291 44.0713 23.359 41.6873 19.1515 36.9434C12.4307 29.3651 11.8695 17.86 11.8483 14.6868C14.2662 14.7027 22.0812 15.1691 28.4878 20.0805ZM18.3043 49.4929C9.08802 46.9216 3.34504 37.3979 1.87664 34.691C3.43681 33.6426 7.75023 31.0195 13.0873 29.9949C14.2239 32.8493 15.8052 35.7076 18.0149 38.2031C22.3848 43.1384 28.3784 45.7017 35.8474 45.8492C29.7656 49.8158 23.8744 51.0476 18.3043 49.4929ZM58.9217 49.465C53.3553 51.0237 47.4746 49.8039 41.3998 45.8492C48.8548 45.6938 54.8378 43.1344 59.2006 38.2031C61.4173 35.6996 62.9987 32.8373 64.1353 29.975C69.4582 30.9995 73.7716 33.6227 75.3353 34.6711C73.8705 37.3739 68.1451 46.8857 58.9217 49.465Z" fill="#E9967B"/>
</g>
</svg>
