<svg width="1528" height="1113" viewBox="0 0 1528 1113" fill="none" xmlns="http://www.w3.org/2000/svg">
<path d="M587.979 187.071C559.998 154.24 515.035 132.38 472.214 128.986C423.036 125.088 377.145 140.708 339.854 172.759C304.768 202.836 283.189 245.71 279.929 291.809C279.375 299.404 279.797 307.063 278.936 314.587C278.851 315.336 277.717 316.88 277.125 317.363C273.24 320.539 269.343 318.409 266.444 315.514C266.181 283.031 267.953 249.892 268.441 217.341C268.971 182.132 271.81 148.992 256.302 115.867C254.425 118.167 254.258 115.702 254.187 117.444L253.553 117.966C266.512 156.173 265.588 174.741 264.692 214.289L263.223 280.538C263.011 290.685 262.436 302.218 262.564 312.229C262.726 325.105 282.789 327.869 282.539 309.469C281.869 259.897 302.263 212.603 338.434 178.684C371.956 147.301 416.621 130.614 462.502 132.33C511.654 133.975 552.666 154.101 586.108 189.817C587.241 187.74 585.536 189.413 586.434 187.427C586.976 187.362 587.458 187.227 587.979 187.071Z" fill="#44989A" fill-opacity="0.15"/>
<path d="M256.302 115.867C255.247 113.514 254.129 111.163 253.111 108.797C234.881 66.4206 197.876 31.8959 154.57 15.4042C140.148 9.90125 125.05 6.39439 109.682 4.98374C97.5153 3.75003 83.7784 4.09268 71.4258 3.85369L9.36761 2.45229L-65.7284 0.796355C-68.8828 0.756675 -85.3687 0.197007 -87.4048 0.691201L-87.4576 3.02386C-73.4031 4.49557 -51.1412 4.4051 -36.4479 4.73344L51.2798 6.73458C90.441 7.59908 125.128 6.17369 161.789 22.7691C203.929 41.8452 236.236 75.1147 253.553 117.966L254.187 117.444C254.258 115.702 254.425 118.167 256.302 115.867Z" fill="#44989A" fill-opacity="0.15"/>
<path d="M611.45 219.203C608.182 212.631 593.305 189.635 587.979 187.072C587.458 187.228 586.976 187.362 586.434 187.427C585.536 189.414 587.241 187.741 586.108 189.817C589.402 194.446 593.72 199.407 597.23 204.304C599.918 208.056 605.645 217.246 608.26 220.138C609.072 219.688 610.483 219.435 611.45 219.203Z" fill="#44989A" fill-opacity="0.15"/>
<path d="M342.544 475.222C340.345 474.496 340.859 473.83 339.428 473.27C295.243 490.966 245.818 490.253 202.159 471.289C188.839 465.444 166.506 451.417 156.097 441.157C154.478 441.08 153.033 440.942 151.464 441.448C161.079 449.917 170.432 458.102 181.539 464.611C232.13 494.253 288.609 497.619 342.544 475.222Z" fill="#44989A" fill-opacity="0.15"/>
<path d="M342.544 475.222C344.725 474.746 353.016 470.87 355.235 469.723C378.285 457.82 400.087 438.26 415.378 417.41C415.027 416.768 414.311 415.37 413.943 414.82C397.682 435.875 382.173 449.917 359.087 463.033C354.497 465.642 342.831 470.942 339.428 473.269C340.859 473.83 340.345 474.496 342.544 475.222Z" fill="#44989A" fill-opacity="0.15"/>
<path d="M415.378 417.41C426.345 402.102 431.55 393.574 438.285 376.29L437.658 375.762C435.805 379.879 434.157 383.487 431.703 387.305C430.233 389.592 430.954 390.253 428.294 391.298C427.14 393.014 426.038 395.06 425.082 396.914C421.804 403.273 418.07 408.979 413.943 414.82C414.311 415.37 415.027 416.768 415.378 417.41Z" fill="#44989A" fill-opacity="0.15"/>
<path d="M828.397 618.753L828.493 614.551L823.782 614.466L702.562 611.745L655.082 610.676C645.223 610.464 634.732 610.536 625.069 609.822C579.166 606.432 538.204 585.283 507.523 551.198C506.788 550.381 504.725 548.05 503.903 547.537L503.06 547.772C500.625 545.129 495.985 538.12 494.013 536.879L493.856 537.146C494.43 538.238 495.511 539.985 495.573 541.122L495.399 541.418C497.318 545.282 508.079 557.448 511.329 560.977C524.502 575.283 538.711 584.581 555.546 593.512C590.096 611.843 612.432 613.701 649.923 614.551L694.647 615.564L772.305 617.311C787.035 617.633 802.191 617.745 816.866 618.373C820.358 618.252 824.838 618.585 828.397 618.753Z" fill="#44989A" fill-opacity="0.15"/>
<path d="M828.715 604.745L828.813 600.408C812.867 600.719 795.845 600.007 779.801 599.648L703.96 597.932L658.628 596.941C642.362 596.585 625.32 596.576 609.411 592.915C581.205 586.423 552.415 572.955 531.424 552.684C526.766 548.187 522.838 543.978 518.603 539.134C517.536 537.914 513.029 532.675 512.113 531.892C511.21 533.728 511.724 533.068 509.912 534.346C511.19 536.456 514.05 540.045 515.718 541.925C547.731 578.005 585.796 595.827 633.39 600.154C643.62 600.06 655.407 600.601 665.747 600.845L725.294 602.211C758.652 602.959 795.63 602.974 828.715 604.745Z" fill="#44989A" fill-opacity="0.15"/>
<path d="M103.141 365C103.253 365.07 103.374 365.133 103.486 365.212C104.299 365.791 104.896 366.52 105.059 367.524C105.091 367.731 105.113 367.94 105.14 368.148L105.38 368.171C106.711 364.362 103.679 359.099 103.744 355.014C103.748 354.873 103.751 354.733 103.759 354.592C100.937 340.242 98.3424 326.533 98.2173 311.814C98.0791 295.87 98.8417 279.845 99.2121 263.899C99.45 253.797 100.29 243.366 99.274 233.311C97.2599 213.397 86.4668 193.618 69.7231 182.391C62.1609 177.316 52.89 173.11 43.9485 171.4C31.7251 169.062 18.5396 169.517 6.12444 169.231L-47.7335 167.992L-76.3168 167.349C-80.4375 167.274 -85.333 166.732 -89.379 167.367C-90.0442 167.47 -90.6136 167.756 -91.1975 168.079L-91.2536 170.557C-83.1495 172.153 -72.8275 171.447 -64.4781 171.636L3.85665 173.139C15.8138 173.401 28.7224 172.744 40.531 174.551C47.7707 175.632 54.7581 178.024 61.142 181.606C76.9078 190.504 89.4348 205.09 94.1928 222.725C97.8196 236.183 96.3296 250.852 95.9987 264.654C95.4396 287.932 93.538 311.947 96.5554 335.068C97.8863 345.262 100.36 355.118 103.141 365Z" fill="#44989A" fill-opacity="0.15"/>
<path d="M487.742 524.674C462.68 474.805 463.534 455.1 464.775 400.199L466.1 342.524C466.249 336.234 467.437 306.333 466.494 302.334C464.92 303.198 465.314 303.28 463.766 303.229C463.343 306.618 463.387 319.122 463.305 322.971L462.399 364.99L461.337 410.375C460.803 432.358 459.635 451.443 464.599 473.153C469 492.403 474.106 508.784 484.848 525.535C485.329 524.854 485.56 524.664 486.163 524.079L487.742 524.674Z" fill="#44989A" fill-opacity="0.15"/>
<path d="M452.942 300.157L452.758 299.712C454.11 297.909 456.396 298.856 458.16 297.045C456.049 296.63 455.493 297.544 453.592 297.502L454.375 296.203C452.182 297.128 448.991 299.101 448.341 301.396C446.29 308.639 447.101 317.766 446.427 325.206C444.804 343.11 440.947 360.56 434.722 377.408C433.007 382.049 430.265 386.712 428.293 391.298C430.953 390.254 430.232 389.592 431.703 387.305C434.156 383.488 435.804 379.879 437.658 375.762L438.284 376.29C438.956 375.217 440.535 371.079 441.038 369.73C446.678 354.621 449.323 338.475 450.141 322.41C450.453 316.289 450.128 309.871 450.873 303.818C451.047 302.406 452.041 301.241 452.942 300.157Z" fill="#44989A" fill-opacity="0.15"/>
<path d="M127.295 413.08C127.865 411.193 127.355 409.447 126.92 407.58C119.529 396.155 113.526 382.787 108.894 370.013C107.048 364.922 105.628 359.664 103.759 354.592C103.751 354.733 103.748 354.874 103.745 355.014C103.679 359.099 106.711 364.362 105.381 368.172L105.141 368.148C105.114 367.94 105.091 367.732 105.059 367.525C104.896 366.52 104.3 365.792 103.486 365.212C103.375 365.134 103.254 365.07 103.142 365C106.697 381.232 117.538 399.699 127.295 413.08Z" fill="#44989A" fill-opacity="0.15"/>
<path d="M156.097 441.157C149.585 434.616 142.886 427.921 137.022 420.789C133.532 416.542 130.565 411.651 126.92 407.579C127.355 409.447 127.865 411.193 127.295 413.08C129.523 419.131 145.723 436.759 151.464 441.448C153.033 440.942 154.478 441.08 156.097 441.157Z" fill="#44989A" fill-opacity="0.15"/>
<path d="M502.327 518.017C501.08 515.451 495.103 503.383 493.649 501.504C492.776 502.685 492.55 503.105 490.835 503.431C493.527 509.759 495.7 513.251 499.371 519.008C499.429 518.337 499.589 517.751 499.734 517.093L500.342 516.827L502.327 518.017Z" fill="#44989A" fill-opacity="0.15"/>
<path d="M495.399 541.418L495.573 541.122C495.511 539.985 494.43 538.238 493.856 537.146L494.013 536.879C495.985 538.119 500.625 545.129 503.06 547.772L503.903 547.537C498.131 540.3 492.239 532.804 487.741 524.674L486.163 524.08C485.56 524.664 485.329 524.854 484.848 525.535C488.392 531.475 491.298 535.87 495.399 541.418Z" fill="#44989A" fill-opacity="0.15"/>
<path d="M466.493 302.333C463.191 297.139 460.571 295.698 454.375 296.203L453.592 297.502C455.493 297.543 456.05 296.629 458.161 297.044C456.396 298.855 454.11 297.908 452.758 299.711L452.943 300.156C458.045 298.446 460.541 298.343 463.765 303.228C465.313 303.279 464.92 303.198 466.493 302.333Z" fill="#44989A" fill-opacity="0.15"/>
<path d="M508.466 527.3C506.875 525.04 503.816 519.742 502.327 518.017L500.342 516.827L499.734 517.093C499.589 517.751 499.429 518.337 499.372 519.008L506.041 528.562C506.95 528.165 507.611 527.782 508.466 527.3Z" fill="#44989A" fill-opacity="0.15"/>
<path d="M509.912 534.346C511.725 533.069 511.21 533.729 512.113 531.892L508.466 527.301C507.611 527.782 506.95 528.165 506.041 528.562L509.912 534.346Z" fill="#44989A" fill-opacity="0.15"/>
<path d="M486.069 281.381C463.005 255.089 421.743 269.074 419.139 303.988C418.751 312.922 418.893 321.776 417.682 330.659C412.846 366.128 395.38 400.307 367.478 423.087C361.817 427.712 356.181 432.572 349.92 436.399C323.642 452.455 293.78 459.52 263.117 457.712C224.246 455.057 188.001 437.117 162.318 407.813C142.292 385.159 129.757 354.725 126.724 324.658C125.794 315.44 126.19 304.944 126.334 295.589C126.559 281.662 126.861 267.735 127.231 253.811C127.6 238.728 128.617 224.874 125.65 210.146C118.517 174.701 83.7602 144.164 47.4094 142.895C3.13334 141.352 -41.9218 141.13 -86.2652 139.753C-87.3631 139.719 -89.0528 139.754 -89.9609 140.36C-90.0709 142.01 -90.2926 141.574 -89.5089 142.654C-83.0596 143.549 -63.4402 143.472 -56.2342 143.63L10.8288 145.154C23.3484 145.438 36.6524 145.167 49.071 146.506C86.1295 150.602 115.393 178.149 123.078 214.482C126.129 228.904 124.004 244.317 124.078 258.917C124.181 279.006 121.978 300.092 123.228 320.063C125.555 358.819 142.705 395.194 171.126 421.644C193.23 442.78 221.447 456.383 251.749 460.505C341.883 473.338 422.638 402.573 422.48 313.34C422.456 299.503 423.932 288.132 435.736 279.11C443.143 273.409 452.524 270.913 461.784 272.179C470.859 273.437 476.326 277.141 482.954 283.059C483.626 281.125 484.439 281.39 486.069 281.381Z" fill="#44989A" fill-opacity="0.15"/>
<path d="M108.859 320.461C109.479 322.348 109.898 331.1 110.195 333.647C113.229 359.446 125.767 388.153 140.996 409.145C162.326 438.359 192.826 459.587 227.63 469.443C268.361 480.767 314.885 476.639 351.836 455.646C378.181 440.657 400.147 419.033 415.546 392.923C417.984 388.717 422.096 381.153 423.369 376.504C421.347 373.143 421.665 376.469 420.905 373.25C415.584 384.324 409.33 396.885 402.132 406.673C356.807 468.301 272.092 490.417 203.23 455.865C166.658 437.514 137.788 407.249 122.929 368.751C108.371 331.181 112.958 294.042 113.462 254.955C113.602 244.153 114.661 232.077 112.774 221.421C108.179 196.557 92.1025 175.333 69.4189 164.176C52.1242 155.834 42.1412 156.207 23.4427 155.72L-15.0199 154.88L-62.1624 153.812C-70.9652 153.59 -82.2296 153.013 -90.8625 153.312L-90.8808 154.12C-90.5171 154.7 -90.5895 154.49 -90.4292 155.029C-90.0702 156.218 -89.9402 156.888 -88.586 157.032C-77.6803 158.215 -66.1226 157.677 -55.1368 157.926L12.4802 159.449C27.2232 159.788 42.5917 159.169 56.9318 163.062C66.8634 165.757 76.6182 171.445 84.3703 178.164C95.9116 188.16 108.025 206.97 109.152 222.568C111.981 233.337 110.101 252.397 109.835 263.951C109.404 282.792 108.723 301.612 108.859 320.461Z" fill="#44989A" fill-opacity="0.15"/>
<path d="M538.56 518.771C539.578 517.19 535.577 515.417 535.737 512.725C536.912 513.029 538.321 514.756 539.165 515.671L539.972 515.393C522.825 494.345 511.724 469.029 507.857 442.157C505.646 426.49 506.43 408.792 506.807 392.861L508.262 333.653C508.561 318.961 510.187 302.436 505.781 288.392C500.2 270.089 480.843 255.793 462.108 254.084C434.113 251.531 406.148 273.073 405.302 302.009C404.855 317.311 404.284 330.57 400.949 345.736L402.16 344.377C402.869 346.285 399.187 351.29 400.534 353.561C401.691 352.015 401.993 347.535 403.463 345.201L404.018 346.028C404.689 344.323 406.021 338.488 406.421 336.551C411.409 311.603 403.036 289.818 424.685 270.153C446.406 250.424 480.183 254.5 496.7 278.608C505.443 291.366 506.336 300.444 505.635 315.489C505.314 322.369 505.281 329.769 505.107 336.652L503.826 393.472C503.521 408.039 502.572 422.513 503.911 437.036C506.032 460.035 513.11 482.587 526.26 501.715C530.236 507.497 533.793 513.599 538.56 518.771Z" fill="#44989A" fill-opacity="0.15"/>
<path d="M493.649 501.504C476.19 464.166 478.17 434.096 479.058 394.789L480.361 337.362C480.574 328.429 482.355 308.267 480.552 300.281C475.474 277.788 442.077 274.632 434.739 298.091C431.745 306.891 433.285 316.909 432.234 326.058C430.85 341.847 427.476 358.825 420.905 373.25C421.665 376.469 421.346 373.143 423.369 376.504C430.052 362.512 434.501 341.271 435.924 325.867C437.262 311.369 432.274 294.709 448.821 287.36C459.821 282.474 474.536 288.457 476.702 300.613C478.496 310.672 477.257 323.854 477.054 334.236L475.498 402.505C474.523 444.865 473.629 463.503 490.835 503.431C492.55 503.106 492.776 502.685 493.649 501.504Z" fill="#44989A" fill-opacity="0.15"/>
<path d="M829.344 576.994L829.44 572.762C816.369 572.893 802.628 572.362 789.502 572.065L721.49 570.504L673.513 569.431C653.946 568.988 636.687 569.404 617.597 564.416C589.718 557.132 569.354 545.342 548.961 525.077C545.797 521.933 543.046 518.592 539.972 515.394L539.166 515.671C538.322 514.756 536.913 513.029 535.738 512.725C535.578 515.417 539.579 517.19 538.561 518.771C550.712 538.844 591.436 561.484 613.494 567.337C640.26 574.439 672.917 573.244 700.802 573.875L779.479 575.67C795.916 576.037 812.966 576.204 829.344 576.994Z" fill="#44989A" fill-opacity="0.15"/>
<path d="M564.401 562.095C565.134 560.704 564.166 561.371 563.424 559.762C564.383 558.622 563.866 560.398 566.318 559.463C534.118 540.669 506.898 503.455 497.606 467.355C490.824 441.01 492.505 418.68 493.098 391.853L494.357 336.013C494.63 324.618 495.526 310.875 494.418 299.658C493.839 293.797 489.622 286.092 486.069 281.381C484.44 281.39 483.627 281.125 482.955 283.059C492.036 293.444 491.739 302.844 491.241 315.832C491 322.12 490.897 328.665 490.748 334.969L489.519 389.714C488.854 417.965 486.738 439.31 494.098 466.999C502.727 500.522 522.212 530.243 549.51 551.525C553.851 554.925 559.644 559.327 564.401 562.095Z" fill="#44989A" fill-opacity="0.15"/>
<path d="M829.032 590.766L829.124 586.702C788.387 586.551 746.05 585.023 705.234 584.094L664.618 583.174C646.823 582.778 633.842 582.941 616.177 579.228C595.177 574.814 584.561 568.862 566.318 559.463C563.866 560.399 564.383 558.622 563.424 559.762C564.166 561.371 565.134 560.704 564.4 562.095C564.418 562.119 564.434 562.143 564.452 562.167C578.743 573.089 607.448 582.783 624.699 584.782C645.356 587.176 668.539 586.968 688.988 587.425L776.251 589.378C793.516 589.758 811.901 589.854 829.032 590.766Z" fill="#44989A" fill-opacity="0.15"/>
<path d="M318.408 439.787C317.76 439.498 317.126 439.229 316.445 439.037C316.203 437.492 317.515 438.519 316.006 437.381C282.873 447.971 245.511 446.677 214.33 430.641C204.91 425.779 196.092 419.832 188.054 412.921C185.48 410.714 178.709 404.171 176.223 402.664C175.092 403.679 174.738 403.679 173.288 403.954C183.923 417.286 199.204 427.347 214.449 434.591C246.967 450.338 284.48 452.213 318.408 439.787Z" fill="#44989A" fill-opacity="0.15"/>
<path d="M318.408 439.787C338.996 434.847 364.733 414.457 377.915 398.288C380.673 394.903 384.771 390.017 386.727 386.139C385.753 384.32 385.775 382.501 385.952 380.459C370.115 404.515 351.611 421.923 325.276 433.249C322.227 434.559 319.008 435.977 316.007 437.381C317.516 438.519 316.204 437.492 316.446 439.037C317.127 439.228 317.761 439.498 318.408 439.787Z" fill="#44989A" fill-opacity="0.15"/>
<path d="M394.364 371.982C398.604 364.319 401.668 354.382 404.017 346.028L403.463 345.201C401.992 347.535 401.691 352.015 400.534 353.561C399.187 351.291 402.868 346.285 402.16 344.377L400.949 345.736C399.476 351.647 398.027 356.073 395.674 361.74C395.289 362.666 392.626 368.964 392.482 369.494L392.904 369.898C393.553 369.462 394.042 368.996 394.632 368.483C394.274 369.906 394.25 370.156 394.339 371.633L394.364 371.982Z" fill="#44989A" fill-opacity="0.15"/>
<path d="M394.364 371.982L394.339 371.633C394.249 370.156 394.274 369.906 394.631 368.483C394.042 368.995 393.553 369.462 392.904 369.898L392.481 369.494C390.536 372.673 387.898 377.605 385.951 380.459C385.774 382.501 385.753 384.32 386.727 386.139C389.038 382.628 392.854 375.813 394.364 371.982Z" fill="#44989A" fill-opacity="0.15"/>
<path d="M641.675 461.279C643.229 460.44 642.727 460.756 643.661 458.871C624.778 446.243 611.827 428.86 607.225 406.368C604.229 391.722 605.615 370.387 605.963 354.967L606.699 323.156C606.928 313.901 607.337 304.767 606.598 295.523C602.774 247.662 578.02 207.315 538.34 180.771C505.741 159.073 465.837 151.281 427.471 159.111C388.466 167.227 354.214 190.353 332.107 223.5C328.243 229.327 318.47 247.071 317.086 253.288L317.688 253.37C317.479 254.746 317.386 255.839 317.287 257.228L317.572 257.447C318.207 255.896 318.794 254.24 319.697 252.844L320.357 253.371C321.377 251.861 325.387 241.765 326.62 239.269C329.627 233.177 332.13 229.487 335.99 223.843C357.823 191.806 391.549 169.826 429.669 162.789C468.006 155.516 507.66 163.793 539.888 185.796C575.528 210.762 598.463 250.071 602.663 293.386C604.505 313.214 602.355 334.351 602.369 354.341C602.385 377.736 598.398 400.606 609.046 422.597C616.981 438.983 626.732 450.996 641.675 461.279Z" fill="#44989A" fill-opacity="0.15"/>
<path d="M245.024 332.916C241.919 328.279 239.987 324.795 238.69 319.318C238.408 318.12 238.144 315.171 237.836 314.342C238.551 290.396 239.125 266.447 239.568 242.495C240.497 203.281 244.807 166.932 228.815 129.95C226.166 123.833 221.834 114.659 217.716 109.475C217.964 110.539 218.193 111.248 218.154 112.35C217.313 112.418 216.757 112.523 215.935 112.318C237.744 151.852 237.689 177.124 236.705 220.358L235.449 275.425C235.281 282.424 234.243 308.781 235.072 314.286C235.165 322.026 237.832 329.514 242.662 335.564L243.504 334.873C242.738 334.028 242.882 334.49 242.704 333.534L243.48 333.118C243.982 333.827 243.809 333.649 244.477 334.233L245.024 332.916Z" fill="#44989A" fill-opacity="0.15"/>
<path d="M245.024 332.916C241.919 328.279 239.987 324.795 238.69 319.318C238.408 318.12 238.144 315.171 237.836 314.342C237.212 312.002 237.668 307.338 237.103 306.225C236.259 312.794 238.431 319.518 237.85 322.719C235.539 320.73 236.604 310.599 235.487 307.189C235.413 309.664 235.364 311.828 235.072 314.286C235.165 322.026 237.832 329.514 242.662 335.564L243.504 334.873C242.738 334.028 242.882 334.49 242.704 333.534L243.48 333.118C243.982 333.827 243.809 333.649 244.477 334.233L245.024 332.916Z" fill="#44989A" fill-opacity="0.15"/>
<path d="M831.555 479.416L831.648 475.31L827.397 475.256C795.012 475.087 761.929 473.518 729.434 473.041C711.43 472.778 690.453 473.008 672.836 470.376C663.97 469.051 651.613 463.16 643.661 458.871C642.727 460.756 643.229 460.44 641.675 461.279C648.658 468.014 668.573 474.305 678.247 475.212C693.17 476.611 709.603 476.564 724.676 476.913L821.514 479.074C824.711 478.929 828.327 479.231 831.555 479.416Z" fill="#44989A" fill-opacity="0.15"/>
<path d="M242.662 335.564C245.261 340.466 253.311 345.85 258.527 347.893C268.164 351.581 278.87 351.319 288.317 347.163C293.289 344.938 297.709 341.641 301.257 337.509C314.453 322.379 309.278 306.703 311.873 287.736C313.859 273.232 315.139 266.83 320.357 253.37L319.697 252.843C318.793 254.239 318.206 255.895 317.572 257.446L317.286 257.228C317.386 255.838 317.479 254.745 317.687 253.369L317.085 253.287C312.11 264.488 309.27 279.794 307.779 291.902C306.811 299.782 307.311 307.972 306.519 315.87C304.227 338.282 280.251 352.726 259.482 343.804C252.427 340.774 250.256 337.618 245.024 332.916L244.476 334.233C243.808 333.649 243.981 333.827 243.48 333.118L242.703 333.534C242.881 334.49 242.737 334.028 243.504 334.873L242.662 335.564Z" fill="#44989A" fill-opacity="0.15"/>
<path d="M832.186 451.55L832.275 447.589L827.906 447.506L737.133 445.417C717.555 444.973 693.981 446.592 675.766 439.725C656.534 432.475 640.553 414.784 635.827 394.773C632.848 382.622 633.643 370.169 633.925 357.627L634.708 323.731C635.769 279.174 630.911 259.169 611.449 219.203C610.482 219.435 609.071 219.688 608.26 220.138C619.567 239.289 627.903 264.554 630.149 286.655C632.481 309.594 630.322 333.562 630.145 356.581C629.845 372.947 628.07 388.012 634.524 403.628C646.073 431.572 669.421 446.774 699.338 448.346C705.558 448.284 712.386 448.412 718.606 448.711C756.105 450.514 794.812 449.083 832.186 451.55Z" fill="#44989A" fill-opacity="0.15"/>
<path d="M622.473 413.69L622.839 413.199C624.254 413.925 627.598 424.822 630.07 424.885C630.051 423.75 625.41 415.34 624.393 413.127L624.827 412.079C618.137 393.117 619.218 382.26 619.624 362.406C619.994 344.309 620.874 325.623 620.823 307.559C620.803 243.63 584.11 185.381 526.46 157.767C487.95 139.4 441.625 137.733 401.543 151.972C360.223 167.009 326.577 197.863 308.022 237.729C299.949 254.778 295.135 274.06 293.682 292.909C293.099 300.422 294.221 313.011 291.916 319.586C290.026 325.044 285.756 329.344 280.31 331.272C266.86 336.166 252.723 327.539 252.415 312.88C252.204 302.938 252.641 292.858 252.863 282.899L254.276 221.311C255.219 180.1 256.931 152.61 238.195 113.69C234.25 105.487 229.752 95.8181 223.341 88.9847C222.833 89.5861 221.828 90.8392 221.318 91.3407C221.855 92.6515 223.47 95.149 224.295 96.3892C237.014 115.525 244.667 134.615 248.873 157.39C250.459 166.362 251.288 175.457 251.358 184.567C251.517 195.177 250.949 207.423 250.702 218.13L249.309 279.229C249.097 288.386 247.189 314.713 250.549 322.079C253.299 328.181 258.385 332.923 264.661 335.241C270.606 337.372 277.071 336.974 282.825 334.093C300.633 325.176 295.579 305.374 297.918 288.719C299.509 277.413 300.725 266.834 304.752 256.005C307.895 247.541 311.67 237.222 316.127 229.428C327.965 208.728 345.892 188.371 365.329 174.476C370.945 170.458 380.774 165.273 386.871 162.314C424.996 143.636 469.018 141.028 509.082 155.071C562.696 173.785 598.987 216.271 613.358 270.651C618.268 289.233 617.544 305.806 617.111 324.764L616.132 366.873C615.771 382.445 615.138 398.756 622.241 413.224L622.473 413.69Z" fill="#44989A" fill-opacity="0.15"/>
<path d="M171.012 63.775C171.106 62.8327 170.792 60.4645 171.052 59.98C168.236 57.26 164.135 55.0965 160.761 53.1312C145.091 43.8177 127.861 37.4293 109.904 34.2754C96.1658 31.8483 82.3282 31.8253 68.4325 31.5605L30.9188 30.7242C-8.67214 29.791 -48.4437 28.0136 -88.0356 28.5287L-88.0844 30.6799C-82.6107 31.7529 -76.586 31.5533 -71.0054 31.7161L-42.3597 32.4105L38.6214 34.2134C64.7917 34.7518 91.9029 33.8404 117.497 39.9688C136.869 44.6031 154.438 52.8609 171.012 63.775Z" fill="#44989A" fill-opacity="0.15"/>
<path d="M134.397 28.9134L135.408 28.7638C136.323 27.8491 136.175 26.7879 136.303 25.5421C126.938 22.8917 117.326 20.6988 107.676 19.4313C95.739 17.8577 83.7648 17.7499 71.7532 17.4868L31.403 16.5999L-87.7151 14.4189L-87.7713 16.9013C-83.8469 17.8211 -79.1299 17.6283 -75.0658 17.7976C-64.4636 18.1468 -53.8597 18.4188 -43.2496 18.6228L40.771 20.5309C71.9679 21.2377 104.415 19.4799 134.397 28.9134Z" fill="#44989A" fill-opacity="0.15"/>
<path d="M831.873 465.372L831.959 461.598L827.927 461.535L737.582 459.506L708.119 458.851C681.576 458.247 660.304 456.456 640.901 435.404C633.395 427.259 629.491 422.508 624.828 412.078L624.394 413.127C625.41 415.34 630.052 423.75 630.071 424.884C627.599 424.822 624.255 413.924 622.84 413.198L622.474 413.69C630.416 435.174 652.29 453.842 674.46 459.476C691.121 463.709 712.829 462.229 730.322 462.843C760.587 463.906 790.985 463.956 821.272 465.031C824.265 464.899 828.775 465.232 831.873 465.372Z" fill="#44989A" fill-opacity="0.15"/>
<path d="M188.529 52.8798C175.395 41.0447 153.326 29.997 136.302 25.543C136.174 26.7887 136.322 27.85 135.407 28.7646L134.396 28.9142C147.134 33.3529 159.493 38.5458 171.151 45.3937C176.236 48.3786 180.987 51.9052 186.058 54.9079C186.743 53.9608 187.543 53.4886 188.529 52.8798Z" fill="#44989A" fill-opacity="0.15"/>
<path d="M203.643 89.5599C199.103 82.1241 178.528 64.2676 171.052 59.9799C170.792 60.4644 171.106 62.8326 171.012 63.7749C184.385 72.873 191.078 80.857 202.192 92.6736C202.258 90.7318 202.483 90.864 203.643 89.5599Z" fill="#44989A" fill-opacity="0.15"/>
<path d="M223.341 88.9848C209.712 71.9622 205.104 67.1447 188.529 52.8796C187.544 53.4884 186.743 53.9606 186.059 54.9077C198.219 64.0418 213.156 78.4514 221.318 91.3408C221.829 90.8393 222.833 89.5862 223.341 88.9848Z" fill="#44989A" fill-opacity="0.15"/>
<path d="M215.935 112.319C216.757 112.524 217.313 112.418 218.154 112.351C218.193 111.248 217.964 110.539 217.716 109.476C215.406 104.806 207.188 94.0174 203.643 89.56C202.483 90.8641 202.259 90.7319 202.192 92.6737C207.449 98.7228 212.053 105.306 215.935 112.319Z" fill="#44989A" fill-opacity="0.15"/>
<path d="M165.014 389.043C153.187 370.248 144.639 350.743 141.604 328.597C139.859 315.872 140.513 303.005 140.79 290.206L141.814 245.776C142.031 236.394 142.7 226.719 141.872 217.361C139.964 195.797 129.731 173.148 114.651 157.623C101.958 144.554 84.9594 135.346 67.2364 131.276C61.5316 129.98 55.7258 129.14 49.8867 128.762C38.4253 128.062 26.8177 128.203 15.3322 127.966L-47.2117 126.563L-73.6003 126.042C-78.6322 125.905 -85.3967 124.894 -90.24 125.856L-90.2915 128.129C-86.522 130.076 -68.1943 129.297 -62.9262 129.426L14.5902 131.259C29.3831 131.599 45.0195 130.981 59.659 133.079C77.3261 135.609 93.7894 144.182 107.015 155.997C125.656 172.652 136.587 193.731 138.251 218.714C138.848 227.612 138.363 236.585 138.161 245.493L137.124 290.294C136.922 298.801 136.477 307.416 136.829 315.918C138 344.009 146.621 369.485 163.536 391.974C164.116 391.042 164.552 390.036 165.014 389.043Z" fill="#44989A" fill-opacity="0.15"/>
<path d="M829.663 562.913L829.75 559.069C792.407 558.797 754.072 557.505 716.652 556.662L676.304 555.746C659.439 555.359 642.838 555.575 626.425 551.191C607.894 546.241 589.348 538.024 574.154 526.19C561.294 516.173 549.925 502.298 540.503 489.138C540.787 490.329 541.016 491.088 541.061 492.33C539.847 492.173 539.59 491.973 538.528 491.431C541.627 497.999 548.783 507.005 553.647 512.314C571.333 531.583 593.908 545.701 618.973 553.167C638.333 558.752 654.049 558.802 673.817 559.244L708.232 560.013C747.982 560.9 790.142 561.134 829.663 562.913Z" fill="#44989A" fill-opacity="0.15"/>
<path d="M538.527 491.43C539.589 491.973 539.846 492.173 541.061 492.33C541.015 491.087 540.786 490.328 540.502 489.137C537.777 484.32 535.677 479.931 533.115 475.233L532.375 475.466L533.261 477.347L532.958 477.77C531.57 476.977 531.933 477.019 531.068 475.292C530.4 475.775 530.64 475.473 530.317 476.174C531.913 480.234 536.248 487.703 538.527 491.43Z" fill="#44989A" fill-opacity="0.15"/>
<path d="M176.224 402.664C172.097 398.462 168.346 393.905 165.015 389.043C164.552 390.036 164.116 391.042 163.536 391.974L173.289 403.954C174.739 403.679 175.093 403.679 176.224 402.664Z" fill="#44989A" fill-opacity="0.15"/>
<path d="M530.317 476.174C530.64 475.473 530.4 475.775 531.068 475.292C531.933 477.019 531.57 476.977 532.958 477.77L533.261 477.347L532.375 475.466L533.115 475.233C519.541 440.133 520.316 424.709 521.148 387.763L522.469 330.412C522.752 318.437 524.169 301.61 521.311 290.36C511.826 253.025 469.429 229.234 433.425 244.428C396.787 259.89 389.96 288.051 390.448 323.707C390.623 336.48 382.047 359.76 375.577 370.859C375.632 371.2 375.853 371.68 375.991 372.026L377.039 371.054C377.756 371.831 377.497 372.876 377.503 374.201C386.715 360.302 393.561 336.076 394.186 319.504C394.907 300.356 393.626 291.226 403.867 273.965C432.541 225.634 505.95 237.867 517.996 292.496C520.693 304.725 519.499 318.188 519.226 330.685L518.041 381.179C517.362 408.45 514.607 436.713 524.475 462.719C526.11 467.029 527.706 472.356 530.317 476.174Z" fill="#44989A" fill-opacity="0.15"/>
<path d="M166.443 370.62C177.05 392.403 199.318 412.496 221.279 422.696C251.133 436.364 285.182 437.65 315.981 426.273C338.217 418.105 367.603 395.552 377.502 374.201C377.496 372.876 377.756 371.832 377.038 371.054L375.99 372.026C375.853 371.681 375.632 371.2 375.576 370.86C355.799 400.758 332.375 420.473 296.3 427.849C265.829 433.991 234.159 427.893 208.149 410.874C191.182 399.707 177.229 384.531 167.522 366.688L166.853 367.191C165.824 366.109 165.727 363.959 164.62 363.321L164.19 364.097C164.873 365.988 167.307 368.762 166.443 370.62Z" fill="#44989A" fill-opacity="0.15"/>
<path d="M829.972 549.286L830.07 544.986C789.772 544.832 747.896 543.258 707.485 542.366L672.86 541.616C668.937 541.53 657.706 541.466 654.304 540.729C635.26 539.742 617.506 533.531 600.818 524.814C599.655 524.206 597.578 523.077 596.414 522.684C595.773 523.831 595.65 524.241 594.568 525.02C627.887 548.094 665.518 545.369 703.989 546.237L781.402 547.971C797.463 548.328 813.972 548.48 829.972 549.286Z" fill="#44989A" fill-opacity="0.15"/>
<path d="M133.601 155.6C122.112 137.11 95.4642 122.167 74.7118 117.347C69.2882 116.066 63.7634 115.246 58.2054 114.889C47.0073 114.19 35.6975 114.211 24.4803 113.952L-34.0018 112.618C-41.5481 112.447 -84.6868 110.603 -89.081 111.979L-89.9464 112.904L-89.9795 114.365C-89.23 114.75 -88.6233 115.022 -87.7766 115.123C-83.2308 115.671 -78.4416 115.498 -73.8622 115.565C-66.7051 115.678 -59.5487 115.822 -52.3932 116.006L18.2362 117.625C31.169 117.909 44.3686 117.636 57.2519 118.699C90.1692 121.42 112.046 135.506 133.033 160.241C132.972 158.519 132.87 157.214 133.601 155.6Z" fill="#44989A" fill-opacity="0.15"/>
<path d="M166.443 370.619C167.307 368.761 164.873 365.987 164.189 364.097L164.62 363.321C165.727 363.958 165.824 366.108 166.852 367.19L167.522 366.688C161.818 353.924 157.025 340.254 155.394 326.303C154.058 314.905 154.492 303.355 154.756 291.909L155.877 243.44C156.105 233.594 156.736 223.569 156.141 213.737C155.645 205.578 152.179 184.209 147.235 178.23L146.604 178.797L146.281 178.658L146.014 178.811C145.397 179.16 144.872 179.521 144.129 179.427C144.089 179.421 144.048 179.402 144.008 179.388C152.966 201.784 152.536 216.953 152.006 240.543L150.925 287.253C150.196 319.47 149.798 341.816 166.443 370.619Z" fill="#44989A" fill-opacity="0.15"/>
<path d="M594.567 525.02C595.649 524.241 595.772 523.831 596.413 522.684C590.356 519.041 584.663 514.823 579.414 510.089C577.836 510.655 577.84 510.484 577.103 512.197C583.038 517.078 588.188 520.75 594.567 525.02Z" fill="#44989A" fill-opacity="0.15"/>
<path d="M141.293 172.992C142.285 173.473 142.956 174.319 143.701 175.108C143.578 173.92 143.517 172.833 143.648 171.642L143.687 171.334C141.946 167.808 139.693 164.465 137.483 161.218C136.535 161.56 135.677 161.763 135.063 162.621C137.261 165.981 139.311 169.496 141.293 172.992Z" fill="#44989A" fill-opacity="0.15"/>
<path d="M147.235 178.231C146.182 175.814 145.093 173.56 143.686 171.335L143.648 171.643C143.516 172.834 143.578 173.92 143.701 175.108C142.956 174.32 142.285 173.473 141.293 172.992C142.102 175.149 143.103 177.27 144.008 179.388C144.049 179.402 144.089 179.422 144.13 179.427C144.872 179.521 145.398 179.161 146.014 178.811L146.281 178.658L146.605 178.798L147.235 178.231Z" fill="#44989A" fill-opacity="0.15"/>
<path d="M137.482 161.218C136.217 159.346 135.004 157.366 133.601 155.6C132.869 157.213 132.972 158.519 133.032 160.241L135.062 162.621C135.677 161.763 136.535 161.56 137.482 161.218Z" fill="#44989A" fill-opacity="0.15"/>
<path d="M571.769 265.641C562.353 236.895 538.714 210.578 511.78 197.064C438.318 160.21 349.007 206.008 336.335 287.381C334.561 298.78 335.578 309.991 334.18 321.369C331.291 343.704 314.503 363.885 293.16 371.132C277.222 376.436 259.829 375.206 244.795 367.709C236.216 363.42 228.527 357.734 223.136 349.798C222.811 349.317 218.453 343.286 218.386 343.232L217.844 343.889L216.581 342.549L215.674 342.681L216.542 345.037L216.106 345.859C218.209 351.837 231.388 364.279 236.64 367.761C276.627 394.267 332.809 368.058 338.088 320.238C339.151 310.606 338.748 300.918 339.902 291.251C341.16 281.211 343.631 271.36 347.259 261.915C354.71 242.435 370.911 222.101 387.915 209.992C393.975 205.678 403.475 200.713 410.269 197.702C438.579 185.294 470.673 184.713 499.413 196.089C510.719 200.459 517.23 204.28 526.962 211.246C548.956 226.99 558.481 244.071 569.073 268.071L569.509 267.49L570.428 268.455C571.473 267.572 571.279 267.227 571.769 265.641Z" fill="#44989A" fill-opacity="0.15"/>
<path d="M218.385 343.232C207.796 323.444 210.079 311.043 210.594 289.344L211.988 229.62C212.291 216.238 213.065 200.69 211.973 187.57C209.162 156.744 196.099 127.747 174.867 105.222C160.774 90.0323 150.528 82.3537 131.901 73.1139C101.587 58.0744 72.4524 59.3259 39.6034 58.5954L-32.3522 56.9969L-68.4268 56.166C-72.8011 56.0624 -85.1242 55.5244 -88.6635 56.2388L-88.7272 59.0479C-85.9561 59.5784 -78.2352 59.6535 -75.2449 59.7257L-51.0858 60.264L33.6969 62.1984C56.9982 62.7263 82.0973 61.6513 104.496 67.3259C163.528 82.2849 207.597 135.432 209.035 196.639C209.279 207.095 208.743 218.11 208.503 228.713L207.107 290.351C206.631 311.356 205.124 326.574 216.105 345.859L216.542 345.037L215.673 342.68L216.58 342.549L217.843 343.889L218.385 343.232Z" fill="#44989A" fill-opacity="0.15"/>
<path d="M831.237 493.448L831.329 489.366C798.203 489.519 762.969 488.041 729.657 487.276L697.728 486.572C694.245 486.496 684.413 486.471 681.361 485.971C656.2 485.447 632.641 474.264 615.513 456.086C601.063 440.751 592.617 418.151 591.401 397.308C590.863 388.077 591.302 377.81 591.511 368.512L592.487 326.307C592.769 313.933 593.304 302.045 591.84 289.734C589.713 271.858 581.077 247.865 570.918 232.939L570.118 234.441C569.712 234.492 568.33 234.519 568.117 234.617C588.966 267.518 589.884 289.419 589.005 326.676L587.907 372.849C587.68 382.399 587.118 392.574 587.884 402.086C591.074 441.11 622.195 476.547 659.82 486.444C678.536 491.367 703.771 490.373 723.651 490.799L788.636 492.206C802.737 492.512 817.187 492.631 831.237 493.448Z" fill="#44989A" fill-opacity="0.15"/>
<path d="M206.197 120.898C201.987 111.344 196.076 105.312 189.551 97.5408C173.145 78.008 153.63 65.2655 130.169 55.5893C103.675 44.6638 77.3178 45.3653 49.2022 44.7192L-16.3906 43.2286L-63.6875 42.1617C-69.7137 42.0297 -82.7485 41.4392 -88.3405 41.98L-88.4074 44.9344C-85.6329 45.9144 -57.9048 46.2294 -53.013 46.3356L38.7032 48.4316C61.3284 48.9442 85.4262 48.178 107.532 52.7925C136.262 58.7876 162.364 74.3447 182.85 95.1414C189.755 102.15 198.283 114.525 203.626 122.937C203.521 121.781 203.26 120.486 203.741 119.489C204.556 119.966 205.372 120.434 206.197 120.898Z" fill="#44989A" fill-opacity="0.15"/>
<path d="M570.918 232.939C566.392 224.035 560.104 218.072 553.539 211.184C538.581 195.492 519.464 183.317 498.685 176.761C462.841 165.452 425.147 168.916 392.017 186.831C381.336 192.606 366.763 202.81 359.295 212.396C354.273 217.457 350.418 222.481 346.024 228.044C345.534 230.449 345.415 230.881 346.968 232.684C351.037 225.813 354.934 221.307 360.248 215.43C360.672 215.133 365.129 210.981 365.857 210.312C369.784 206.698 373.239 203.905 377.461 200.714C407.101 178.324 442.032 170.329 478.746 175.701C505.114 179.559 530.03 193.613 549.473 211.706C555.063 216.908 563.384 228.205 568.117 234.617C568.33 234.518 569.712 234.492 570.118 234.441L570.918 232.939Z" fill="#44989A" fill-opacity="0.15"/>
<path d="M360.247 215.43L359.417 215.217C357.712 216.895 349.459 227.074 348.61 227.313L348.457 226.436C348.684 226.222 359.921 212.571 359.936 212.542L359.294 212.396C354.272 217.457 350.417 222.481 346.023 228.044C345.533 230.449 345.414 230.881 346.967 232.684C351.036 225.813 354.934 221.307 360.247 215.43Z" fill="#44989A" fill-opacity="0.15"/>
<path d="M222.552 325.644C222.777 324.73 222.699 324.99 223.149 324.163C224.603 326.287 224.957 331.128 226.654 333.776C228.148 332.556 223.727 325.884 224.855 321.769C224.868 319.428 224.548 317.122 224.545 314.814C224.529 289.691 225.758 264.489 226.077 239.372C226.352 218.045 228.109 196.586 225.366 175.383C223.125 158.069 215.539 136.425 206.49 121.195C206.393 121.098 206.295 121 206.197 120.898C205.373 120.434 204.557 119.966 203.741 119.489C203.26 120.486 203.521 121.782 203.627 122.937C219.064 149.136 224.636 177.759 222.768 207.701C222.409 213.504 222.476 219.777 222.339 225.618L220.985 284.184C220.688 296.91 219.395 313.713 222.552 325.644Z" fill="#44989A" fill-opacity="0.15"/>
<path d="M346.967 232.684C345.414 230.881 345.533 230.449 346.023 228.044C331.452 246.801 323.418 272.175 321.409 295.697C320.246 309.359 322.868 321.874 315.458 334.94C308.501 347.213 301.283 350.815 290.301 357.412L290.139 358.156C289.111 358.648 288.907 358.615 288.371 359.616L288.768 360.342L291.096 359.804L291.284 360.516C297.695 358.889 304.398 353.976 309.081 349.497C330.274 329.245 322.053 301.968 328.085 276.568C330.74 265.399 335.244 254.179 340.376 243.877C342.106 240.431 344.965 236.291 346.967 232.684Z" fill="#44989A" fill-opacity="0.15"/>
<path d="M291.284 360.516L291.096 359.804L288.768 360.342L288.372 359.616C288.907 358.614 289.111 358.648 290.139 358.156L290.301 357.412C261.598 367.861 231.808 351.18 224.856 321.769C223.727 325.884 228.148 332.556 226.654 333.776C224.957 331.128 224.603 326.287 223.149 324.162C222.699 324.99 222.777 324.73 222.552 325.644C223.565 328.845 224.76 331.985 226.126 335.05C231.459 346.908 241.348 356.115 253.555 360.59C264.561 364.733 280.464 365.367 291.284 360.516Z" fill="#44989A" fill-opacity="0.15"/>
<path d="M586.519 475.779C589.835 476.711 589.785 480.479 593.541 480.462C590.775 477.482 580.81 467.231 580.661 463.571C579.746 461.506 578.369 459.296 577.203 457.327C563.034 433.392 562.829 408.859 563.546 382.101L564.749 331.824C564.969 322.363 565.33 312.871 565.161 303.373C564.397 260.647 534.93 220.832 495.624 205.139C470.387 195.064 439.135 195.995 414.268 206.931C394.767 215.557 369.169 236.461 361.006 257.286C360.961 257.472 360.921 257.658 360.876 257.844C362.656 258.811 360.795 257.801 361.53 259.838C362.516 259.186 362.661 258.802 363.178 257.799L364.247 257.714C365.127 256.949 369.719 249.242 370.875 247.531C390.077 218.995 420.327 202.738 455.391 202.089C483.03 201.625 509.729 212.117 529.66 231.271C547.592 248.654 560.592 275.863 561.072 300.897C561.723 334.924 559.162 370.01 559.288 404.165C559.366 425.237 565.528 445.05 576.879 462.782C579.653 467.116 582.85 472.225 586.519 475.779Z" fill="#44989A" fill-opacity="0.15"/>
<path d="M830.917 507.559L831.017 503.153C798.618 503.183 764.63 501.869 732.098 501.127L696.344 500.319C682.416 500.011 667.873 500.28 654.397 496.677C636.462 491.882 621.514 484.554 608.376 471.475C604.636 467.705 601.055 463.781 597.642 459.712L595.97 462.307C607.788 478.275 630.803 494.174 649.913 499.478C671.289 505.41 697.085 504.225 719.424 504.734L785.955 506.218C800.817 506.545 816.123 506.686 830.917 507.559Z" fill="#44989A" fill-opacity="0.15"/>
<path d="M830.604 521.359L830.704 516.954C818.361 517.236 804.781 516.681 792.372 516.403L730.306 514.994L690.666 514.11C666.353 513.573 646.354 513.248 624.429 501.664C622.382 500.582 614.831 496.276 613.282 495.902C612.294 496.969 612.071 497.063 610.812 497.84C625.549 510.004 650.66 515.949 669.276 517.485C677.869 517.317 688.84 517.853 697.623 518.05L751.385 519.257L800.027 520.352C809.728 520.573 821.012 520.599 830.604 521.359Z" fill="#44989A" fill-opacity="0.15"/>
<path d="M135.306 93.1335C121.965 83.8273 105.442 78.0997 89.5212 75.2462C76.2138 72.8606 62.8558 73.1074 49.4048 72.8571L3.35514 71.8457L-48.3918 70.6143C-61.7531 70.2071 -75.6563 69.2746 -88.978 70.1261L-89.0341 72.604C-83.3821 74.4211 -56.8599 74.0594 -48.8769 74.1903L24.0011 75.9549C47.3624 76.4342 71.9336 75.2155 94.7933 80.4056C108.723 83.5682 120.901 89.3109 133.429 96.0605C133.897 94.8361 134.395 94.0754 135.306 93.1335Z" fill="#44989A" fill-opacity="0.15"/>
<path d="M595.969 462.307L597.642 459.712C591.65 452.215 589.85 448.267 585.9 439.798C575.303 417.075 576.928 396.86 577.493 372.528L578.454 330.387C579.035 304.135 579.28 291.047 571.768 265.641C571.279 267.226 571.472 267.572 570.427 268.455L569.508 267.49L569.072 268.071C576.035 286.992 575.662 300.406 575.195 319.943L573.877 374.268C572.91 414.033 573.046 428.529 595.969 462.307Z" fill="#44989A" fill-opacity="0.15"/>
<path d="M195.835 303.568C196.703 284.877 196.942 265.92 197.256 247.238C197.709 220.414 201.522 192.019 192.633 166.114C189.929 158.229 180.316 136.29 174.639 130.73C174.527 130.66 174.415 130.589 174.304 130.518C172.827 129.563 171.266 128.343 170.333 126.832L170.738 127.191L170.336 126.887L170.276 127.344C170.369 127.455 170.466 127.571 170.554 127.687C171.652 129.11 172.32 131.286 172.662 133.038C176.058 138.663 179.711 144.117 182.546 150.057C196.03 178.314 194.936 205.578 194.481 235.856L193.118 302.029C193.941 303.169 194.652 305.463 194.552 306.871C194.501 307.54 194.366 307.259 194.666 307.645L194.52 306.678L195.003 306.428L194.454 307.175C194.648 305.848 194.868 304.962 195.638 303.845C195.703 303.751 195.769 303.66 195.835 303.568Z" fill="#44989A" fill-opacity="0.15"/>
<path d="M174.639 130.73C165.418 115.933 150.224 102.008 135.307 93.1333C134.396 94.0753 133.897 94.8359 133.429 96.0603C149.176 104.604 161.832 119.102 172.662 133.038C172.32 131.286 171.652 129.11 170.554 127.686C170.466 127.571 170.369 127.455 170.276 127.344L170.336 126.887L170.738 127.191L170.333 126.832C171.266 128.343 172.827 129.563 174.303 130.518C174.415 130.589 174.527 130.66 174.639 130.73Z" fill="#44989A" fill-opacity="0.15"/>
<path d="M613.282 495.902C600.182 487.626 589.53 476.185 580.661 463.571C580.811 467.232 590.776 477.482 593.542 480.462C589.786 480.479 589.835 476.711 586.52 475.779C593.106 484.252 602.279 491.472 610.812 497.839C612.071 497.063 612.294 496.969 613.282 495.902Z" fill="#44989A" fill-opacity="0.15"/>
<path d="M579.415 510.09C571.962 502.451 564.706 495.311 558.266 486.722C542.46 465.641 534.397 437.09 534.742 410.885L536.371 339.657C536.704 325.233 538.194 301.74 535.12 288.365C531.943 274.579 525.082 261.915 515.27 251.724C498.791 234.775 481.642 226.577 457.826 226.009C436.589 225.501 417.129 233.712 401.925 248.46C387.931 262.034 378.557 280.823 377.301 300.379C376.339 315.404 377.274 324.421 373.245 339.537C360.9 385.268 319.147 416.824 271.785 416.209C244.664 416.164 218.672 405.341 199.535 386.123C184.201 370.423 175.327 353.482 170.036 332.335L169.506 333.074C168.074 328.776 166.67 321.013 167.325 316.508L166.853 316.733C166.06 320.45 167.125 331.774 168.907 335.074L168.523 335.208C168.067 334.287 167.644 333.288 167.074 332.436C171.319 359.08 186.789 382.209 208.064 398.428C230.668 415.531 259.119 422.995 287.204 419.189C332.6 412.984 369.145 378.804 378.371 333.917C384.22 305.328 375.146 286.077 396.085 259.712C437.561 207.487 520.994 227.362 532.279 293.941C534.373 306.291 533.298 318.634 533.005 331.088L531.731 385.654C531.406 399.698 530.552 416.678 532.382 430.382C536.262 459.441 553.895 494.057 577.104 512.198C577.841 510.484 577.837 510.656 579.415 510.09Z" fill="#44989A" fill-opacity="0.15"/>
<path d="M133.668 136.622C134.657 135.251 134.564 134.118 134.573 132.506C131.458 129.948 128.575 127.122 125.409 124.621C114.967 116.402 103.109 110.158 90.4273 106.193C82.825 103.886 75.0103 102.338 67.1006 101.578C54.6864 100.447 42.0391 100.592 29.5784 100.314L-31.5407 98.9433L-68.8365 98.1075C-74.7856 97.9772 -81.5073 97.2846 -87.3975 97.9594C-88.2987 98.0616 -88.9009 98.1887 -89.627 98.7762L-89.6722 100.773C-75.7579 102.219 -61.2159 101.808 -47.2169 102.121L29.7438 103.833C45.331 104.186 61.89 103.321 77.1626 106.737C98.1222 111.425 118.284 121.476 133.668 136.622Z" fill="#44989A" fill-opacity="0.15"/>
<path d="M170.036 332.335C167.196 318.592 168.021 304.839 168.354 290.913L169.582 240.117C169.869 228.687 170.739 216.924 169.826 205.525C167.41 177.689 154.869 151.71 134.574 132.506C134.565 134.118 134.657 135.251 133.668 136.622C135.468 139.519 138.8 141.937 140.991 144.639C147.258 152.373 153.071 161.726 157.357 170.718C168.66 194.444 166.875 220.323 166.303 245.805L165.31 289.63C165.128 297.85 164.56 306.303 165.005 314.507C165.328 320.498 166.236 326.5 167.073 332.436C167.644 333.288 168.066 334.287 168.522 335.208L168.907 335.074C167.124 331.774 166.06 320.45 166.852 316.733L167.325 316.508C166.669 321.013 168.073 328.776 169.506 333.074L170.036 332.335Z" fill="#44989A" fill-opacity="0.15"/>
<path d="M176.54 168.074C169.47 151.273 160.784 135.075 147.396 122.44C145.391 120.546 143.115 118.211 140.744 116.84L140.059 117.224C138.901 116.227 136.689 114.097 135.176 113.945C134.469 113.874 133.427 114.391 132.776 114.653C150.462 128.58 165.539 147.261 173.434 168.481C174.888 168.65 175.206 168.648 176.54 168.074Z" fill="#44989A" fill-opacity="0.15"/>
<path d="M830.289 535.254L830.381 531.175C827.951 531.135 824.489 531.181 822.157 530.905C810.951 531.022 798.724 530.519 787.434 530.256L729.195 528.928L684.856 527.925C670.587 527.598 656.535 527.765 642.551 524.486C612.133 517.354 583.299 498.132 566.914 471.163C565.96 470.436 565.366 469.998 564.344 469.377C563.979 470.607 564.724 471.137 564.548 472.776C567.172 478.251 574.887 487.526 579.085 492.003C586.272 499.608 594.363 506.303 603.178 511.939C630.763 529.741 652.319 531.12 683.691 531.799L721.559 532.651L822.058 534.969C824.587 534.906 827.717 535.135 830.289 535.254Z" fill="#44989A" fill-opacity="0.15"/>
<path d="M140.744 116.84C130.965 106.643 104.642 93.7689 90.8846 90.6239C68.4821 85.4941 43.4095 86.606 20.4432 86.122L-62.8151 84.2313C-66.5181 84.1564 -87.1481 82.9535 -89.3089 84.7434L-89.3533 86.704C-84.2892 88.2218 -59.1051 87.807 -52.2392 87.9489L21.4482 89.6547C66.0949 90.6661 94.3271 87.7732 132.776 114.653C133.427 114.39 134.469 113.874 135.176 113.944C136.689 114.097 138.901 116.226 140.059 117.224L140.744 116.84Z" fill="#44989A" fill-opacity="0.15"/>
<path d="M346.271 342.565L345.171 341.809C345.094 339.212 345.951 338.838 345.467 336.573C336.262 358.312 324.127 373.52 301.557 382.604C282.6 390.303 261.361 390.136 242.528 382.14C223.675 374.057 208.792 358.838 201.128 339.81C196.116 327.193 195.836 316.903 195.834 303.567C195.768 303.66 195.703 303.751 195.637 303.844C194.867 304.962 194.647 305.848 194.454 307.175L195.002 306.428L194.52 306.678L194.666 307.645C194.366 307.259 194.5 307.54 194.552 306.871C194.652 305.463 193.941 303.169 193.118 302.029C192.637 318.255 193.323 330.431 200.345 345.544C209.037 364.255 224.432 379.693 243.835 386.969C263.947 394.599 286.258 393.947 305.894 385.156C323.524 377.066 339.468 360.885 346.271 342.565Z" fill="#44989A" fill-opacity="0.15"/>
<path d="M566.914 471.163C547.978 434.021 548.239 421.579 549.173 380.869L550.446 325.218C550.818 308.767 551.979 292.32 546.14 276.607C544.246 271.509 541.119 263.894 538.08 259.426C536.282 258.693 535.654 257.489 534.512 255.98C534.577 257.539 535.465 259.195 535.662 261.494C541.933 271.926 546.881 289.023 547.52 301.135C547.993 310.094 547.408 320.622 547.197 329.73L546.044 378.1C545.244 410.714 543.585 445.208 564.548 472.776C564.724 471.137 563.979 470.607 564.344 469.376C565.366 469.998 565.96 470.436 566.914 471.163Z" fill="#44989A" fill-opacity="0.15"/>
<path d="M186.298 338.544C181.468 321.666 182.504 305.611 182.916 288.251L183.962 244.463C184.489 221.991 187.164 188.315 176.54 168.074C175.206 168.647 174.888 168.649 173.434 168.48C176.231 177.697 179.026 187.191 179.98 196.807C181.184 208.955 180.503 221.206 180.231 233.386L179.099 282.97C178.654 302.593 176.661 325.04 184.216 343.68C184.896 341.31 183.192 339.395 182.998 337.124C182.915 336.167 183.211 335.721 183.843 335.067C184.742 336.281 185.221 337.59 185.775 338.98L186.298 338.544Z" fill="#44989A" fill-opacity="0.15"/>
<path d="M435.772 217.814C432.155 216.838 429.321 219.685 426.937 218.993L426.899 218.457C429.252 217.584 432.687 216.8 434.644 215.714L434.013 215.326C395.918 225.339 364.979 259.283 363.55 299.08C362.525 327.691 362.674 340.781 346.141 365.126L346.238 366.039C346.795 366.73 346.927 366.915 347.313 367.687L347.622 368.312C358.206 354.603 365.029 336.235 366.128 318.969C366.736 309.555 366.521 300.037 368.116 290.715C373.094 261.603 391.756 236.87 418.422 224.152C424.144 221.423 429.677 219.692 435.772 217.814Z" fill="#44989A" fill-opacity="0.15"/>
<path d="M538.08 259.426C520.388 225.904 479.592 206.742 442.692 213.276C440.441 213.675 436.001 214.328 434.013 215.327L434.644 215.714C432.687 216.8 429.252 217.584 426.899 218.458L426.937 218.993C429.321 219.685 432.155 216.838 435.772 217.815C439.454 217.563 443.997 216.701 447.927 216.327C457.595 215.503 467.331 216.095 476.829 218.082C502.64 223.503 521.566 239.873 535.662 261.494C535.465 259.196 534.577 257.539 534.512 255.981C535.654 257.489 536.282 258.693 538.08 259.426Z" fill="#44989A" fill-opacity="0.15"/>
<path d="M347.621 368.312L347.313 367.686C346.927 366.915 346.795 366.73 346.238 366.039L346.141 365.126C323.75 391.93 295.3 406.643 259.731 401.539C256.07 401.014 251.76 399.693 248.229 399.432C246.274 399.938 245.354 399.494 243.34 399.025L242.568 399.603C243.364 400.55 247.192 401.507 248.585 401.935L248.521 402.769C259.238 407.687 284.992 405.964 296.519 402.96C315.034 398.136 337.637 384.997 347.621 368.312Z" fill="#44989A" fill-opacity="0.15"/>
<path d="M224.859 388.949L224.486 388.594C222.867 387.078 218.427 383.878 216.417 382.201C206.04 373.545 200.368 367.365 193.991 355.488C191.983 351.718 190.155 347.858 188.51 343.919C188.152 343.08 186.539 338.939 186.298 338.545L185.775 338.981C185.221 337.59 184.742 336.282 183.843 335.068C183.211 335.721 182.915 336.168 182.998 337.125C183.191 339.396 184.896 341.31 184.216 343.681C184.235 344.056 184.466 344.848 184.581 345.19C190.351 362.428 207 383.08 222.905 391.644L223.048 391.134C223.547 390.754 223.588 390.719 224.062 390.262L224.056 389.518L224.859 388.949Z" fill="#44989A" fill-opacity="0.15"/>
<path d="M346.271 342.565C354.796 320.991 350.693 308.281 354.264 286.359C355.972 275.881 359.697 267.189 364.247 257.714L363.178 257.799C362.661 258.802 362.516 259.186 361.529 259.838C360.795 257.801 362.656 258.811 360.875 257.844C354.038 272.049 350.085 286.253 349.433 302.004C348.922 314.326 349.26 324.647 345.467 336.573C345.951 338.838 345.094 339.212 345.171 341.809L346.271 342.565Z" fill="#44989A" fill-opacity="0.15"/>
<path d="M248.522 402.769L248.586 401.936C247.193 401.508 243.365 400.551 242.569 399.604L243.34 399.026C245.355 399.495 246.275 399.938 248.23 399.432C241.765 397.402 238.444 396.333 232.304 393.207C230.722 393.903 231.164 393.793 230.032 395.502C236.105 398.37 242.004 401.093 248.522 402.769Z" fill="#44989A" fill-opacity="0.15"/>
<path d="M232.303 393.206C229.834 391.768 227.351 390.349 224.859 388.948L224.056 389.517L224.062 390.262C223.588 390.719 223.546 390.754 223.048 391.134L222.904 391.644C225.3 393.088 227.54 394.229 230.031 395.501C231.164 393.793 230.721 393.902 232.303 393.206Z" fill="#44989A" fill-opacity="0.15"/>
<path d="M1507.55 634.123C1479.57 601.292 1434.6 579.432 1391.78 576.037C1342.6 572.14 1296.71 587.759 1259.42 619.811C1224.33 649.887 1202.76 692.762 1199.5 738.86C1198.94 746.455 1199.36 754.115 1198.5 761.639C1198.42 762.388 1197.28 763.931 1196.69 764.415C1192.81 767.59 1188.91 765.461 1186.01 762.565C1185.75 730.083 1187.52 696.944 1188.01 664.393C1188.54 629.184 1191.38 596.043 1175.87 562.918C1173.99 565.219 1173.83 562.754 1173.75 564.496L1173.12 565.017C1186.08 603.224 1185.16 621.793 1184.26 661.34L1182.79 727.589C1182.58 737.737 1182 749.27 1182.13 759.281C1182.29 772.157 1202.36 774.921 1202.11 756.521C1201.44 706.949 1221.83 659.655 1258 625.736C1291.52 594.353 1336.19 577.665 1382.07 579.381C1431.22 581.026 1472.23 601.153 1505.68 636.868C1506.81 634.792 1505.1 636.465 1506 634.478C1506.54 634.413 1507.03 634.279 1507.55 634.123Z" fill="#44989A" fill-opacity="0.15"/>
<path d="M1175.87 562.918C1174.81 560.565 1173.69 558.215 1172.68 555.849C1154.45 513.472 1117.44 478.948 1074.13 462.456C1059.71 456.953 1044.62 453.446 1029.25 452.035C1017.08 450.802 1003.34 451.144 990.991 450.905L928.933 449.504L853.837 447.848C850.683 447.808 834.197 447.249 832.161 447.743L832.108 450.075C846.162 451.547 868.424 451.457 883.118 451.785L970.845 453.786C1010.01 454.651 1044.69 453.225 1081.35 469.821C1123.49 488.897 1155.8 522.166 1173.12 565.017L1173.75 564.496C1173.82 562.754 1173.99 565.219 1175.87 562.918Z" fill="#44989A" fill-opacity="0.15"/>
<path d="M1531.02 666.255C1527.75 659.682 1512.87 636.687 1507.55 634.124C1507.03 634.28 1506.54 634.414 1506 634.479C1505.1 636.466 1506.81 634.792 1505.68 636.869C1508.97 641.498 1513.29 646.459 1516.8 651.356C1519.49 655.108 1525.21 664.298 1527.83 667.19C1528.64 666.74 1530.05 666.487 1531.02 666.255Z" fill="#44989A" fill-opacity="0.15"/>
<path d="M1262.11 922.274C1259.91 921.548 1260.42 920.882 1258.99 920.321C1214.81 938.018 1165.38 937.304 1121.72 918.34C1108.4 912.495 1086.07 898.469 1075.66 888.208C1074.04 888.132 1072.6 887.993 1071.03 888.5C1080.64 896.969 1090 905.153 1101.1 911.662C1151.7 941.305 1208.17 944.67 1262.11 922.274Z" fill="#44989A" fill-opacity="0.15"/>
<path d="M1262.11 922.274C1264.29 921.798 1272.58 917.922 1274.8 916.775C1297.85 904.872 1319.65 885.311 1334.94 864.462C1334.59 863.82 1333.88 862.422 1333.51 861.872C1317.25 882.927 1301.74 896.969 1278.65 910.085C1274.06 912.693 1262.4 917.994 1258.99 920.321C1260.42 920.882 1259.91 921.548 1262.11 922.274Z" fill="#44989A" fill-opacity="0.15"/>
<path d="M1334.94 864.462C1345.91 849.153 1351.12 840.626 1357.85 823.341L1357.22 822.813C1355.37 826.93 1353.72 830.539 1351.27 834.356C1349.8 836.643 1350.52 837.305 1347.86 838.349C1346.71 840.066 1345.6 842.112 1344.65 843.965C1341.37 850.324 1337.64 856.031 1333.51 861.872C1333.88 862.422 1334.59 863.82 1334.94 864.462Z" fill="#44989A" fill-opacity="0.15"/>
<path d="M1747.97 1065.8L1748.06 1061.6L1743.35 1061.52L1622.13 1058.8L1574.65 1057.73C1564.79 1057.52 1554.3 1057.59 1544.64 1056.87C1498.73 1053.48 1457.77 1032.34 1427.09 998.249C1426.36 997.433 1424.29 995.101 1423.47 994.588L1422.63 994.824C1420.19 992.181 1415.55 985.171 1413.58 983.931L1413.42 984.198C1414 985.289 1415.08 987.037 1415.14 988.174L1414.97 988.47C1416.89 992.333 1427.65 1004.5 1430.9 1008.03C1444.07 1022.33 1458.28 1031.63 1475.11 1040.56C1509.66 1058.89 1532 1060.75 1569.49 1061.6L1614.22 1062.62L1691.87 1064.36C1706.6 1064.69 1721.76 1064.8 1736.43 1065.42C1739.93 1065.3 1744.41 1065.64 1747.97 1065.8Z" fill="#44989A" fill-opacity="0.15"/>
<path d="M1748.28 1051.8L1748.38 1047.46C1732.43 1047.77 1715.41 1047.06 1699.37 1046.7L1623.53 1044.98L1578.2 1043.99C1561.93 1043.64 1544.89 1043.63 1528.98 1039.97C1500.77 1033.47 1471.98 1020.01 1450.99 999.736C1446.33 995.239 1442.41 991.03 1438.17 986.186C1437.1 984.965 1432.6 979.726 1431.68 978.943C1430.78 980.78 1431.29 980.12 1429.48 981.397C1430.76 983.508 1433.62 987.097 1435.29 988.977C1467.3 1025.06 1505.36 1042.88 1552.96 1047.21C1563.19 1047.11 1574.97 1047.65 1585.31 1047.9L1644.86 1049.26C1678.22 1050.01 1715.2 1050.03 1748.28 1051.8Z" fill="#44989A" fill-opacity="0.15"/>
<path d="M1022.71 812.051C1022.82 812.122 1022.94 812.185 1023.05 812.263C1023.87 812.843 1024.46 813.572 1024.63 814.576C1024.66 814.783 1024.68 814.992 1024.71 815.199L1024.95 815.223C1026.28 811.413 1023.25 806.151 1023.31 802.066C1023.31 801.925 1023.32 801.784 1023.32 801.644C1020.5 787.294 1017.91 773.585 1017.78 758.865C1017.65 742.921 1018.41 726.896 1018.78 710.95C1019.02 700.848 1019.86 690.417 1018.84 680.362C1016.83 660.448 1006.03 640.669 989.29 629.442C981.727 624.367 972.456 620.162 963.515 618.451C951.292 616.113 938.106 616.568 925.691 616.282L871.833 615.044L843.25 614.401C839.129 614.326 834.233 613.784 830.187 614.418C829.522 614.521 828.953 614.808 828.369 615.131L828.313 617.609C836.417 619.204 846.739 618.498 855.088 618.688L923.423 620.19C935.38 620.452 948.289 619.796 960.097 621.602C967.337 622.684 974.324 625.076 980.708 628.658C996.474 637.556 1009 652.141 1013.76 669.777C1017.39 683.235 1015.9 697.903 1015.57 711.706C1015.01 734.983 1013.1 758.998 1016.12 782.119C1017.45 792.313 1019.93 802.17 1022.71 812.051Z" fill="#44989A" fill-opacity="0.15"/>
<path d="M1407.31 971.725C1382.25 921.857 1383.1 902.152 1384.34 847.25L1385.67 789.576C1385.81 783.286 1387 753.384 1386.06 749.385C1384.49 750.25 1384.88 750.331 1383.33 750.28C1382.91 753.669 1382.95 766.174 1382.87 770.023L1381.96 812.042L1380.9 857.426C1380.37 879.409 1379.2 898.494 1384.16 920.205C1388.57 939.455 1393.67 955.836 1404.41 972.586C1404.89 971.906 1405.13 971.715 1405.73 971.131L1407.31 971.725Z" fill="#44989A" fill-opacity="0.15"/>
<path d="M1372.51 747.208L1372.32 746.763C1373.68 744.96 1375.96 745.908 1377.73 744.096C1375.61 743.682 1375.06 744.596 1373.16 744.554L1373.94 743.255C1371.75 744.179 1368.56 746.153 1367.91 748.448C1365.86 755.691 1366.67 764.818 1365.99 772.258C1364.37 790.162 1360.51 807.612 1354.29 824.46C1352.57 829.101 1349.83 833.763 1347.86 838.35C1350.52 837.305 1349.8 836.644 1351.27 834.357C1353.72 830.539 1355.37 826.93 1357.22 822.814L1357.85 823.341C1358.52 822.268 1360.1 818.131 1360.6 816.782C1366.24 801.672 1368.89 785.527 1369.71 769.461C1370.02 763.34 1369.69 756.923 1370.44 750.87C1370.61 749.458 1371.61 748.293 1372.51 747.208Z" fill="#44989A" fill-opacity="0.15"/>
<path d="M1046.86 860.131C1047.43 858.245 1046.92 856.499 1046.49 854.631C1039.09 843.206 1033.09 829.838 1028.46 817.064C1026.61 811.973 1025.19 806.715 1023.32 801.644C1023.32 801.785 1023.31 801.925 1023.31 802.066C1023.24 806.151 1026.28 811.414 1024.95 815.223L1024.71 815.2C1024.68 814.992 1024.66 814.783 1024.62 814.576C1024.46 813.572 1023.87 812.843 1023.05 812.264C1022.94 812.185 1022.82 812.122 1022.71 812.051C1026.26 828.283 1037.1 846.751 1046.86 860.131Z" fill="#44989A" fill-opacity="0.15"/>
<path d="M1075.66 888.208C1069.15 881.668 1062.45 874.972 1056.59 867.841C1053.1 863.594 1050.13 858.703 1046.49 854.631C1046.92 856.498 1047.43 858.245 1046.86 860.131C1049.09 866.183 1065.29 883.811 1071.03 888.5C1072.6 887.994 1074.04 888.132 1075.66 888.208Z" fill="#44989A" fill-opacity="0.15"/>
<path d="M1421.89 965.068C1420.65 962.502 1414.67 950.434 1413.21 948.556C1412.34 949.736 1412.12 950.157 1410.4 950.482C1413.09 956.811 1415.27 960.302 1418.94 966.059C1418.99 965.389 1419.15 964.803 1419.3 964.144L1419.91 963.879L1421.89 965.068Z" fill="#44989A" fill-opacity="0.15"/>
<path d="M1414.96 988.47L1415.14 988.174C1415.08 987.037 1414 985.289 1413.42 984.197L1413.58 983.931C1415.55 985.171 1420.19 992.181 1422.63 994.823L1423.47 994.588C1417.7 987.352 1411.8 979.855 1407.31 971.725L1405.73 971.131C1405.13 971.715 1404.89 971.906 1404.41 972.587C1407.96 978.527 1410.86 982.921 1414.96 988.47Z" fill="#44989A" fill-opacity="0.15"/>
<path d="M1386.06 749.385C1382.76 744.191 1380.14 742.75 1373.94 743.254L1373.16 744.553C1375.06 744.595 1375.62 743.681 1377.73 744.096C1375.96 745.907 1373.68 744.96 1372.32 746.763L1372.51 747.208C1377.61 745.497 1380.11 745.395 1383.33 750.28C1384.88 750.331 1384.49 750.249 1386.06 749.385Z" fill="#44989A" fill-opacity="0.15"/>
<path d="M1428.03 974.352C1426.44 972.091 1423.38 966.793 1421.89 965.069L1419.91 963.879L1419.3 964.145C1419.15 964.803 1418.99 965.389 1418.94 966.06L1425.61 975.613C1426.52 975.216 1427.18 974.834 1428.03 974.352Z" fill="#44989A" fill-opacity="0.15"/>
<path d="M1429.48 981.397C1431.29 980.12 1430.78 980.78 1431.68 978.944L1428.03 974.352C1427.18 974.834 1426.52 975.216 1425.61 975.614L1429.48 981.397Z" fill="#44989A" fill-opacity="0.15"/>
<path d="M1405.63 728.433C1382.57 702.141 1341.31 716.126 1338.7 751.04C1338.32 759.973 1338.46 768.827 1337.25 777.71C1332.41 813.179 1314.95 847.359 1287.04 870.139C1281.38 874.764 1275.75 879.623 1269.49 883.451C1243.21 899.506 1213.35 906.571 1182.68 904.764C1143.81 902.109 1107.57 884.168 1081.88 854.865C1061.86 832.211 1049.32 801.776 1046.29 771.71C1045.36 762.491 1045.76 751.995 1045.9 742.641C1046.12 728.713 1046.43 714.787 1046.8 700.863C1047.16 685.779 1048.18 671.926 1045.22 657.198C1038.08 621.753 1003.33 591.215 966.975 589.947C922.699 588.404 877.644 588.182 833.3 586.805C832.202 586.771 830.513 586.805 829.605 587.411C829.494 589.062 829.273 588.625 830.057 589.706C836.506 590.601 856.125 590.523 863.331 590.682L930.394 592.206C942.914 592.489 956.218 592.219 968.636 593.558C1005.69 597.653 1034.96 625.201 1042.64 661.533C1045.69 675.956 1043.57 691.368 1043.64 705.969C1043.75 726.057 1041.54 747.144 1042.79 767.115C1045.12 805.871 1062.27 842.245 1090.69 868.695C1112.79 889.832 1141.01 903.434 1171.31 907.556C1261.45 920.389 1342.2 849.624 1342.05 760.392C1342.02 746.555 1343.5 735.183 1355.3 726.162C1362.71 720.46 1372.09 717.964 1381.35 719.231C1390.42 720.489 1395.89 724.193 1402.52 730.111C1403.19 728.176 1404 728.441 1405.63 728.433Z" fill="#44989A" fill-opacity="0.15"/>
<path d="M1028.42 767.513C1029.04 769.4 1029.46 778.152 1029.76 780.699C1032.79 806.497 1045.33 835.205 1060.56 856.197C1081.89 885.411 1112.39 906.639 1147.2 916.495C1187.93 927.818 1234.45 923.691 1271.4 902.698C1297.75 887.709 1319.71 866.084 1335.11 839.974C1337.55 835.769 1341.66 828.204 1342.93 823.556C1340.91 820.195 1341.23 823.521 1340.47 820.302C1335.15 831.376 1328.9 843.937 1321.7 853.725C1276.37 915.353 1191.66 937.469 1122.8 902.917C1086.22 884.566 1057.35 854.301 1042.49 815.802C1027.94 778.233 1032.52 741.093 1033.03 702.007C1033.17 691.204 1034.23 679.128 1032.34 668.473C1027.74 643.608 1011.67 622.385 988.984 611.228C971.69 602.886 961.707 603.259 943.008 602.772L904.546 601.932L857.403 600.864C848.6 600.642 837.336 600.064 828.703 600.364L828.685 601.171C829.048 601.752 828.976 601.541 829.136 602.081C829.495 603.269 829.625 603.94 830.979 604.084C841.885 605.266 853.443 604.729 864.429 604.978L932.046 606.501C946.789 606.839 962.157 606.22 976.497 610.114C986.429 612.809 996.184 618.497 1003.94 625.216C1015.48 635.212 1027.59 654.022 1028.72 669.619C1031.55 680.389 1029.67 699.449 1029.4 711.002C1028.97 729.844 1028.29 748.663 1028.42 767.513Z" fill="#44989A" fill-opacity="0.15"/>
<path d="M1458.13 965.823C1459.15 964.241 1455.15 962.469 1455.31 959.777C1456.48 960.08 1457.89 961.807 1458.73 962.722L1459.54 962.445C1442.39 941.397 1431.29 916.081 1427.43 889.208C1425.21 873.541 1426 855.844 1426.38 839.913L1427.83 780.705C1428.13 766.013 1429.76 749.487 1425.35 735.444C1419.77 717.141 1400.41 702.844 1381.68 701.135C1353.68 698.582 1325.72 720.124 1324.87 749.06C1324.42 764.362 1323.85 777.621 1320.52 792.788L1321.73 791.429C1322.44 793.337 1318.75 798.342 1320.1 800.613C1321.26 799.067 1321.56 794.587 1323.03 792.253L1323.59 793.08C1324.26 791.374 1325.59 785.54 1325.99 783.603C1330.98 758.655 1322.6 736.87 1344.25 717.205C1365.97 697.475 1399.75 701.552 1416.27 725.659C1425.01 738.418 1425.9 747.496 1425.2 762.541C1424.88 769.421 1424.85 776.821 1424.68 783.703L1423.39 840.524C1423.09 855.09 1422.14 869.565 1423.48 884.088C1425.6 907.086 1432.68 929.639 1445.83 948.767C1449.8 954.549 1453.36 960.651 1458.13 965.823Z" fill="#44989A" fill-opacity="0.15"/>
<path d="M1413.21 948.556C1395.76 911.218 1397.73 881.148 1398.62 841.841L1399.93 784.414C1400.14 775.481 1401.92 755.319 1400.12 747.332C1395.04 724.839 1361.64 721.684 1354.3 745.143C1351.31 753.943 1352.85 763.96 1351.8 773.11C1350.42 788.898 1347.04 805.877 1340.47 820.302C1341.23 823.521 1340.91 820.195 1342.93 823.556C1349.62 809.564 1354.07 788.323 1355.49 772.919C1356.83 758.42 1351.84 741.761 1368.39 734.411C1379.39 729.525 1394.1 735.508 1396.27 747.664C1398.06 757.724 1396.82 770.905 1396.62 781.287L1395.06 849.556C1394.09 891.917 1393.19 910.554 1410.4 950.482C1412.12 950.157 1412.34 949.736 1413.21 948.556Z" fill="#44989A" fill-opacity="0.15"/>
<path d="M1748.91 1024.05L1749.01 1019.81C1735.94 1019.94 1722.2 1019.41 1709.07 1019.12L1641.06 1017.56L1593.08 1016.48C1573.51 1016.04 1556.25 1016.46 1537.16 1011.47C1509.29 1004.18 1488.92 992.394 1468.53 972.129C1465.36 968.984 1462.61 965.643 1459.54 962.445L1458.73 962.722C1457.89 961.807 1456.48 960.081 1455.3 959.777C1455.14 962.469 1459.15 964.242 1458.13 965.823C1470.28 985.896 1511 1008.54 1533.06 1014.39C1559.83 1021.49 1592.48 1020.3 1620.37 1020.93L1699.05 1022.72C1715.48 1023.09 1732.53 1023.26 1748.91 1024.05Z" fill="#44989A" fill-opacity="0.15"/>
<path d="M1483.97 1009.15C1484.7 1007.76 1483.73 1008.42 1482.99 1006.81C1483.95 1005.67 1483.43 1007.45 1485.89 1006.51C1453.69 987.721 1426.47 950.507 1417.17 914.407C1410.39 888.062 1412.07 865.732 1412.66 838.904L1413.92 783.064C1414.2 771.669 1415.09 757.927 1413.99 746.71C1413.41 740.848 1409.19 733.144 1405.64 728.433C1404.01 728.441 1403.19 728.176 1402.52 730.111C1411.6 740.496 1411.31 749.895 1410.81 762.883C1410.57 769.171 1410.46 775.716 1410.32 782.021L1409.09 836.766C1408.42 865.016 1406.31 886.362 1413.67 914.051C1422.29 947.573 1441.78 977.295 1469.08 998.576C1473.42 1001.98 1479.21 1006.38 1483.97 1009.15Z" fill="#44989A" fill-opacity="0.15"/>
<path d="M1748.6 1037.82L1748.69 1033.75C1707.95 1033.6 1665.62 1032.07 1624.8 1031.15L1584.19 1030.23C1566.39 1029.83 1553.41 1029.99 1535.74 1026.28C1514.74 1021.87 1504.13 1015.91 1485.89 1006.52C1483.43 1007.45 1483.95 1005.67 1482.99 1006.81C1483.73 1008.42 1484.7 1007.76 1483.97 1009.15C1483.99 1009.17 1484 1009.19 1484.02 1009.22C1498.31 1020.14 1527.02 1029.83 1544.27 1031.83C1564.92 1034.23 1588.11 1034.02 1608.56 1034.48L1695.82 1036.43C1713.08 1036.81 1731.47 1036.91 1748.6 1037.82Z" fill="#44989A" fill-opacity="0.15"/>
<path d="M1237.97 886.839C1237.33 886.55 1236.69 886.28 1236.01 886.089C1235.77 884.544 1237.08 885.571 1235.57 884.433C1202.44 895.023 1165.08 893.729 1133.9 877.693C1124.48 872.831 1115.66 866.884 1107.62 859.973C1105.04 857.766 1098.27 851.222 1095.79 849.715C1094.66 850.731 1094.3 850.731 1092.85 851.006C1103.49 864.338 1118.77 874.399 1134.01 881.643C1166.53 897.389 1204.05 899.264 1237.97 886.839Z" fill="#44989A" fill-opacity="0.15"/>
<path d="M1237.97 886.839C1258.56 881.899 1284.3 861.508 1297.48 845.34C1300.24 841.955 1304.34 837.068 1306.29 833.191C1305.32 831.371 1305.34 829.552 1305.52 827.511C1289.68 851.567 1271.18 868.975 1244.84 880.301C1241.79 881.611 1238.57 883.029 1235.57 884.432C1237.08 885.571 1235.77 884.543 1236.01 886.089C1236.69 886.28 1237.33 886.549 1237.97 886.839Z" fill="#44989A" fill-opacity="0.15"/>
<path d="M1313.93 819.034C1318.17 811.371 1321.23 801.433 1323.58 793.08L1323.03 792.252C1321.56 794.587 1321.26 799.067 1320.1 800.613C1318.75 798.342 1322.43 793.337 1321.73 791.429L1320.51 792.788C1319.04 798.699 1317.59 803.124 1315.24 808.791C1314.85 809.717 1312.19 816.016 1312.05 816.545L1312.47 816.95C1313.12 816.513 1313.61 816.047 1314.2 815.535C1313.84 816.958 1313.81 817.208 1313.9 818.684L1313.93 819.034Z" fill="#44989A" fill-opacity="0.15"/>
<path d="M1313.93 819.034L1313.9 818.684C1313.81 817.208 1313.84 816.958 1314.2 815.535C1313.61 816.047 1313.12 816.513 1312.47 816.95L1312.05 816.545C1310.1 819.725 1307.46 824.657 1305.52 827.511C1305.34 829.552 1305.32 831.371 1306.29 833.191C1308.6 829.68 1312.42 822.865 1313.93 819.034Z" fill="#44989A" fill-opacity="0.15"/>
<path d="M1561.24 908.33C1562.8 907.492 1562.29 907.808 1563.23 905.923C1544.35 893.295 1531.39 875.912 1526.79 853.42C1523.8 838.774 1525.18 817.439 1525.53 802.019L1526.27 770.208C1526.5 760.953 1526.9 751.819 1526.17 742.575C1522.34 694.713 1497.59 654.366 1457.91 627.822C1425.31 606.125 1385.4 598.333 1347.04 606.163C1308.03 614.279 1273.78 637.404 1251.67 670.552C1247.81 676.378 1238.04 694.123 1236.65 700.339L1237.25 700.422C1237.05 701.798 1236.95 702.891 1236.85 704.28L1237.14 704.499C1237.77 702.947 1238.36 701.292 1239.26 699.895L1239.92 700.423C1240.94 698.912 1244.95 688.817 1246.19 686.32C1249.19 680.229 1251.7 676.539 1255.56 670.895C1277.39 638.857 1311.12 616.878 1349.24 609.841C1387.57 602.568 1427.23 610.845 1459.46 632.848C1495.1 657.813 1518.03 697.123 1522.23 740.438C1524.07 760.266 1521.92 781.403 1521.94 801.393C1521.95 824.788 1517.97 847.657 1528.61 869.648C1536.55 886.034 1546.3 898.048 1561.24 908.33Z" fill="#44989A" fill-opacity="0.15"/>
<path d="M1164.59 779.968C1161.48 775.331 1159.55 771.847 1158.26 766.37C1157.97 765.172 1157.71 762.223 1157.4 761.393C1158.12 737.448 1158.69 713.498 1159.13 689.546C1160.06 650.332 1164.37 613.984 1148.38 577.002C1145.73 570.885 1141.4 561.71 1137.28 556.527C1137.53 557.59 1137.76 558.299 1137.72 559.402C1136.88 559.469 1136.32 559.575 1135.5 559.37C1157.31 598.904 1157.25 624.175 1156.27 667.41L1155.01 722.477C1154.85 729.475 1153.81 755.833 1154.64 761.338C1154.73 769.078 1157.4 776.566 1162.23 782.616L1163.07 781.925C1162.3 781.08 1162.45 781.542 1162.27 780.586L1163.05 780.17C1163.55 780.878 1163.37 780.701 1164.04 781.285L1164.59 779.968Z" fill="#44989A" fill-opacity="0.15"/>
<path d="M1164.59 779.968C1161.48 775.331 1159.55 771.847 1158.26 766.37C1157.97 765.172 1157.71 762.223 1157.4 761.393C1156.78 759.054 1157.23 754.389 1156.67 753.276C1155.82 759.846 1158 766.57 1157.42 769.771C1155.1 767.782 1156.17 757.65 1155.05 754.241C1154.98 756.716 1154.93 758.879 1154.64 761.338C1154.73 769.078 1157.4 776.566 1162.23 782.616L1163.07 781.925C1162.3 781.08 1162.45 781.542 1162.27 780.586L1163.05 780.17C1163.55 780.878 1163.37 780.701 1164.04 781.285L1164.59 779.968Z" fill="#44989A" fill-opacity="0.15"/>
<path d="M1162.23 782.616C1164.83 787.518 1172.88 792.902 1178.09 794.945C1187.73 798.633 1198.44 798.371 1207.88 794.215C1212.86 791.989 1217.27 788.693 1220.82 784.56C1234.02 769.43 1228.84 753.755 1231.44 734.787C1233.43 720.283 1234.71 713.882 1239.92 700.422L1239.26 699.895C1238.36 701.291 1237.77 702.947 1237.14 704.498L1236.85 704.279C1236.95 702.89 1237.05 701.797 1237.25 700.421L1236.65 700.339C1231.68 711.539 1228.84 726.846 1227.35 738.954C1226.38 746.833 1226.88 755.024 1226.09 762.922C1223.79 785.333 1199.82 799.778 1179.05 790.855C1171.99 787.826 1169.82 784.669 1164.59 779.968L1164.04 781.285C1163.37 780.701 1163.55 780.878 1163.05 780.17L1162.27 780.586C1162.45 781.542 1162.3 781.08 1163.07 781.925L1162.23 782.616Z" fill="#44989A" fill-opacity="0.15"/>
<path d="M1751.75 898.602L1751.84 894.64L1747.47 894.558L1656.7 892.469C1637.12 892.024 1613.55 893.644 1595.33 886.777C1576.1 879.526 1560.12 861.835 1555.4 841.825C1552.42 829.674 1553.21 817.221 1553.49 804.678L1554.28 770.783C1555.34 726.226 1550.48 706.221 1531.02 666.255C1530.05 666.487 1528.64 666.74 1527.83 667.19C1539.14 686.341 1547.47 711.605 1549.72 733.706C1552.05 756.646 1549.89 780.614 1549.71 803.632C1549.41 819.999 1547.64 835.063 1554.09 850.68C1565.64 878.624 1588.99 893.826 1618.91 895.398C1625.13 895.336 1631.95 895.464 1638.17 895.763C1675.67 897.566 1714.38 896.134 1751.75 898.602Z" fill="#44989A" fill-opacity="0.15"/>
<path d="M1542.04 860.742L1542.41 860.25C1543.82 860.976 1547.17 871.873 1549.64 871.936C1549.62 870.802 1544.98 862.392 1543.96 860.179L1544.4 859.13C1537.71 840.169 1538.79 829.312 1539.19 809.458C1539.56 791.36 1540.44 772.674 1540.39 754.611C1540.37 690.682 1503.68 632.433 1446.03 604.819C1407.52 586.451 1361.19 584.784 1321.11 599.024C1279.79 614.061 1246.14 644.915 1227.59 684.78C1219.52 701.829 1214.7 721.112 1213.25 739.96C1212.67 747.473 1213.79 760.063 1211.48 766.638C1209.59 772.095 1205.32 776.396 1199.88 778.323C1186.43 783.217 1172.29 774.591 1171.98 759.932C1171.77 749.989 1172.21 739.91 1172.43 729.951L1173.84 668.363C1174.79 627.152 1176.5 599.661 1157.76 560.742C1153.82 552.539 1149.32 542.87 1142.91 536.036C1142.4 536.638 1141.4 537.891 1140.89 538.392C1141.42 539.703 1143.04 542.201 1143.86 543.441C1156.58 562.577 1164.24 581.666 1168.44 604.442C1170.03 613.413 1170.86 622.509 1170.93 631.619C1171.09 642.229 1170.52 654.474 1170.27 665.182L1168.88 726.281C1168.67 735.438 1166.76 761.765 1170.12 769.131C1172.87 775.232 1177.95 779.975 1184.23 782.293C1190.17 784.424 1196.64 784.026 1202.39 781.144C1220.2 772.227 1215.15 752.426 1217.49 735.771C1219.08 724.465 1220.29 713.886 1224.32 703.057C1227.46 694.592 1231.24 684.273 1235.7 676.479C1247.53 655.779 1265.46 635.422 1284.9 621.528C1290.51 617.51 1300.34 612.324 1306.44 609.366C1344.56 590.687 1388.59 588.079 1428.65 602.123C1482.26 620.837 1518.56 663.323 1532.93 717.703C1537.84 736.285 1537.11 752.857 1536.68 771.815L1535.7 813.925C1535.34 829.496 1534.71 845.808 1541.81 860.276L1542.04 860.742Z" fill="#44989A" fill-opacity="0.15"/>
<path d="M1090.58 510.827C1090.67 509.884 1090.36 507.516 1090.62 507.032C1087.8 504.312 1083.7 502.148 1080.33 500.183C1064.66 490.869 1047.43 484.481 1029.47 481.327C1015.73 478.9 1001.89 478.877 987.998 478.612L950.484 477.776C910.893 476.843 871.122 475.065 831.53 475.58L831.481 477.731C836.955 478.804 842.979 478.605 848.56 478.768L877.206 479.462L958.187 481.265C984.357 481.803 1011.47 480.892 1037.06 487.02C1056.43 491.655 1074 499.912 1090.58 510.827Z" fill="#44989A" fill-opacity="0.15"/>
<path d="M1053.96 475.965L1054.97 475.815C1055.89 474.901 1055.74 473.84 1055.87 472.594C1046.5 469.943 1036.89 467.75 1027.24 466.483C1015.3 464.909 1003.33 464.802 991.318 464.538L950.967 463.652L831.849 461.471L831.793 463.953C835.718 464.873 840.435 464.68 844.499 464.849C855.101 465.198 865.705 465.47 876.315 465.674L960.335 467.583C991.532 468.289 1023.98 466.532 1053.96 475.965Z" fill="#44989A" fill-opacity="0.15"/>
<path d="M1108.09 499.931C1094.96 488.096 1072.89 477.049 1055.87 472.595C1055.74 473.84 1055.89 474.902 1054.97 475.816L1053.96 475.966C1066.7 480.404 1079.06 485.597 1090.72 492.445C1095.8 495.43 1100.55 498.957 1105.62 501.96C1106.31 501.012 1107.11 500.54 1108.09 499.931Z" fill="#44989A" fill-opacity="0.15"/>
<path d="M1123.21 536.612C1118.67 529.176 1098.09 511.319 1090.62 507.032C1090.36 507.516 1090.67 509.884 1090.58 510.827C1103.95 519.925 1110.64 527.909 1121.76 539.725C1121.82 537.783 1122.05 537.916 1123.21 536.612Z" fill="#44989A" fill-opacity="0.15"/>
<path d="M1142.91 536.036C1129.28 519.014 1124.67 514.196 1108.09 499.931C1107.11 500.54 1106.31 501.012 1105.62 501.959C1117.78 511.093 1132.72 525.503 1140.88 538.392C1141.39 537.891 1142.4 536.638 1142.91 536.036Z" fill="#44989A" fill-opacity="0.15"/>
<path d="M1135.5 559.37C1136.32 559.575 1136.88 559.47 1137.72 559.402C1137.76 558.3 1137.53 557.591 1137.28 556.527C1134.97 551.857 1126.75 541.069 1123.21 536.612C1122.05 537.916 1121.82 537.783 1121.76 539.725C1127.01 545.774 1131.62 552.358 1135.5 559.37Z" fill="#44989A" fill-opacity="0.15"/>
<path d="M1084.58 836.095C1072.75 817.3 1064.2 797.795 1061.17 775.648C1059.42 762.924 1060.08 750.057 1060.35 737.258L1061.38 692.827C1061.6 683.446 1062.27 673.771 1061.44 664.412C1059.53 642.848 1049.3 620.2 1034.22 604.674C1021.52 591.605 1004.52 582.398 986.802 578.328C981.097 577.031 975.291 576.191 969.452 575.814C957.991 575.114 946.383 575.255 934.898 575.018L872.354 573.614L845.965 573.094C840.933 572.957 834.169 571.945 829.325 572.907L829.274 575.181C833.043 577.128 851.371 576.349 856.639 576.477L934.156 578.311C948.949 578.65 964.585 578.033 979.224 580.131C996.892 582.661 1013.35 591.234 1026.58 603.048C1045.22 619.703 1056.15 640.783 1057.82 665.765C1058.41 674.664 1057.93 683.637 1057.73 692.545L1056.69 737.345C1056.49 745.852 1056.04 754.468 1056.39 762.97C1057.57 791.061 1066.19 816.537 1083.1 839.026C1083.68 838.094 1084.12 837.088 1084.58 836.095Z" fill="#44989A" fill-opacity="0.15"/>
<path d="M1749.23 1009.96L1749.32 1006.12C1711.97 1005.85 1673.64 1004.56 1636.22 1003.71L1595.87 1002.8C1579.01 1002.41 1562.41 1002.63 1545.99 998.243C1527.46 993.293 1508.91 985.076 1493.72 973.242C1480.86 963.225 1469.49 949.349 1460.07 936.189C1460.35 937.381 1460.58 938.139 1460.63 939.382C1459.41 939.225 1459.16 939.025 1458.09 938.483C1461.19 945.05 1468.35 954.057 1473.21 959.366C1490.9 978.635 1513.47 992.752 1538.54 1000.22C1557.9 1005.8 1573.62 1005.85 1593.38 1006.3L1627.8 1007.06C1667.55 1007.95 1709.71 1008.19 1749.23 1009.96Z" fill="#44989A" fill-opacity="0.15"/>
<path d="M1458.09 938.482C1459.16 939.024 1459.41 939.224 1460.63 939.381C1460.58 938.139 1460.35 937.38 1460.07 936.189C1457.34 931.372 1455.24 926.983 1452.68 922.285L1451.94 922.518L1452.83 924.398L1452.53 924.822C1451.14 924.029 1451.5 924.071 1450.64 922.344C1449.97 922.827 1450.21 922.525 1449.88 923.226C1451.48 927.286 1455.82 934.755 1458.09 938.482Z" fill="#44989A" fill-opacity="0.15"/>
<path d="M1095.79 849.715C1091.66 845.514 1087.91 840.956 1084.58 836.095C1084.12 837.088 1083.68 838.094 1083.1 839.026L1092.85 851.006C1094.3 850.731 1094.66 850.731 1095.79 849.715Z" fill="#44989A" fill-opacity="0.15"/>
<path d="M1449.88 923.226C1450.21 922.525 1449.97 922.827 1450.63 922.344C1451.5 924.071 1451.14 924.029 1452.52 924.822L1452.83 924.398L1451.94 922.518L1452.68 922.285C1439.11 887.184 1439.88 871.76 1440.71 834.814L1442.03 777.464C1442.32 765.489 1443.73 748.662 1440.88 737.412C1431.39 700.076 1388.99 676.286 1352.99 691.48C1316.35 706.942 1309.53 735.102 1310.01 770.758C1310.19 783.532 1301.61 806.811 1295.14 817.911C1295.2 818.251 1295.42 818.732 1295.56 819.077L1296.6 818.105C1297.32 818.883 1297.06 819.927 1297.07 821.253C1306.28 807.354 1313.13 783.128 1313.75 766.555C1314.47 747.407 1313.19 738.278 1323.43 721.017C1352.11 672.685 1425.52 684.919 1437.56 739.547C1440.26 751.777 1439.06 765.24 1438.79 777.736L1437.61 828.231C1436.93 855.502 1434.17 883.765 1444.04 909.77C1445.68 914.081 1447.27 919.408 1449.88 923.226Z" fill="#44989A" fill-opacity="0.15"/>
<path d="M1086.01 817.671C1096.62 839.454 1118.88 859.548 1140.84 869.748C1170.7 883.415 1204.75 884.702 1235.55 873.325C1257.78 865.157 1287.17 842.604 1297.07 821.253C1297.06 819.928 1297.32 818.883 1296.6 818.106L1295.56 819.078C1295.42 818.732 1295.2 818.252 1295.14 817.911C1275.36 847.809 1251.94 867.524 1215.87 874.901C1185.39 881.042 1153.72 874.945 1127.71 857.926C1110.75 846.758 1096.79 831.583 1087.09 813.74L1086.42 814.242C1085.39 813.16 1085.29 811.01 1084.19 810.373L1083.76 811.149C1084.44 813.039 1086.87 815.813 1086.01 817.671Z" fill="#44989A" fill-opacity="0.15"/>
<path d="M1749.54 996.338L1749.64 992.037C1709.34 991.884 1667.46 990.309 1627.05 989.418L1592.43 988.668C1588.5 988.582 1577.27 988.518 1573.87 987.78C1554.83 986.793 1537.07 980.583 1520.39 971.866C1519.22 971.258 1517.15 970.129 1515.98 969.736C1515.34 970.882 1515.22 971.293 1514.14 972.072C1547.45 995.145 1585.09 992.42 1623.56 993.289L1700.97 995.023C1717.03 995.379 1733.54 995.531 1749.54 996.338Z" fill="#44989A" fill-opacity="0.15"/>
<path d="M1053.17 602.652C1041.68 584.161 1015.03 569.218 994.276 564.398C988.853 563.118 983.328 562.298 977.77 561.94C966.572 561.242 955.262 561.262 944.045 561.004L885.563 559.67C878.016 559.499 834.878 557.654 830.483 559.03L829.618 559.955L829.585 561.416C830.334 561.801 830.941 562.074 831.788 562.175C836.334 562.723 841.123 562.55 845.702 562.617C852.859 562.729 860.016 562.873 867.171 563.058L937.801 564.676C950.733 564.96 963.933 564.687 976.816 565.751C1009.73 568.472 1031.61 582.557 1052.6 607.293C1052.54 605.571 1052.43 604.265 1053.17 602.652Z" fill="#44989A" fill-opacity="0.15"/>
<path d="M1086.01 817.671C1086.87 815.813 1084.44 813.039 1083.75 811.149L1084.19 810.372C1085.29 811.01 1085.39 813.16 1086.42 814.242L1087.09 813.739C1081.38 800.976 1076.59 787.306 1074.96 773.355C1073.62 761.956 1074.06 750.407 1074.32 738.96L1075.44 690.492C1075.67 680.646 1076.3 670.621 1075.71 660.788C1075.21 652.629 1071.74 631.26 1066.8 625.282L1066.17 625.849L1065.85 625.71L1065.58 625.863C1064.96 626.212 1064.44 626.572 1063.69 626.478C1063.65 626.473 1063.61 626.454 1063.57 626.439C1072.53 648.835 1072.1 664.005 1071.57 687.594L1070.49 734.304C1069.76 766.522 1069.36 788.868 1086.01 817.671Z" fill="#44989A" fill-opacity="0.15"/>
<path d="M1514.14 972.072C1515.22 971.293 1515.34 970.882 1515.98 969.736C1509.92 966.093 1504.23 961.875 1498.98 957.141C1497.4 957.707 1497.41 957.536 1496.67 959.249C1502.61 964.129 1507.76 967.801 1514.14 972.072Z" fill="#44989A" fill-opacity="0.15"/>
<path d="M1060.86 620.043C1061.85 620.524 1062.52 621.371 1063.27 622.159C1063.14 620.971 1063.08 619.885 1063.21 618.694L1063.25 618.386C1061.51 614.859 1059.26 611.516 1057.05 608.27C1056.1 608.611 1055.24 608.814 1054.63 609.672C1056.83 613.032 1058.88 616.548 1060.86 620.043Z" fill="#44989A" fill-opacity="0.15"/>
<path d="M1066.8 625.282C1065.75 622.865 1064.66 620.611 1063.25 618.386L1063.21 618.694C1063.08 619.885 1063.14 620.972 1063.27 622.16C1062.52 621.371 1061.85 620.525 1060.86 620.044C1061.67 622.201 1062.67 624.321 1063.57 626.44C1063.61 626.454 1063.65 626.473 1063.7 626.479C1064.44 626.573 1064.96 626.212 1065.58 625.863L1065.85 625.71L1066.17 625.849L1066.8 625.282Z" fill="#44989A" fill-opacity="0.15"/>
<path d="M1057.05 608.27C1055.78 606.398 1054.57 604.418 1053.17 602.652C1052.43 604.265 1052.54 605.571 1052.6 607.293L1054.63 609.673C1055.24 608.815 1056.1 608.612 1057.05 608.27Z" fill="#44989A" fill-opacity="0.15"/>
<path d="M1491.34 712.692C1481.92 683.947 1458.28 657.629 1431.35 644.116C1357.89 607.262 1268.57 653.06 1255.9 734.433C1254.13 745.831 1255.15 757.043 1253.75 768.421C1250.86 790.756 1234.07 810.936 1212.73 818.184C1196.79 823.488 1179.4 822.257 1164.36 814.761C1155.78 810.471 1148.09 804.786 1142.7 796.85C1142.38 796.368 1138.02 790.338 1137.95 790.284L1137.41 790.941L1136.15 789.601L1135.24 789.732L1136.11 792.089L1135.67 792.911C1137.78 798.889 1150.96 811.331 1156.21 814.813C1196.19 841.319 1252.38 815.109 1257.66 767.29C1258.72 757.657 1258.32 747.97 1259.47 738.303C1260.73 728.263 1263.2 718.412 1266.83 708.967C1274.28 689.486 1290.48 669.153 1307.48 657.044C1313.54 652.729 1323.04 647.765 1329.84 644.754C1358.15 632.346 1390.24 631.765 1418.98 643.141C1430.29 647.511 1436.8 651.332 1446.53 658.298C1468.52 674.041 1478.05 691.123 1488.64 715.123L1489.08 714.541L1490 715.507C1491.04 714.624 1490.85 714.278 1491.34 712.692Z" fill="#44989A" fill-opacity="0.15"/>
<path d="M1137.95 790.283C1127.36 770.496 1129.64 758.095 1130.16 736.396L1131.55 676.672C1131.86 663.29 1132.63 647.741 1131.54 634.622C1128.73 603.796 1115.66 574.799 1094.43 552.273C1080.34 537.084 1070.09 529.405 1051.47 520.165C1021.15 505.126 992.018 506.378 959.169 505.647L887.213 504.048L851.139 503.218C846.764 503.114 834.441 502.576 830.902 503.29L830.838 506.1C833.609 506.63 841.33 506.705 844.321 506.777L868.48 507.316L953.262 509.25C976.564 509.778 1001.66 508.703 1024.06 514.377C1083.09 529.336 1127.16 582.483 1128.6 643.691C1128.84 654.146 1128.31 665.162 1128.07 675.765L1126.67 737.402C1126.2 758.408 1124.69 773.626 1135.67 792.91L1136.11 792.089L1135.24 789.732L1136.15 789.6L1137.41 790.94L1137.95 790.283Z" fill="#44989A" fill-opacity="0.15"/>
<path d="M1750.8 940.499L1750.9 936.418C1717.77 936.57 1682.54 935.093 1649.22 934.328L1617.3 933.623C1613.81 933.547 1603.98 933.522 1600.93 933.022C1575.77 932.499 1552.21 921.315 1535.08 903.138C1520.63 887.802 1512.18 865.202 1510.97 844.36C1510.43 835.129 1510.87 824.861 1511.08 815.563L1512.05 773.359C1512.34 760.985 1512.87 749.097 1511.41 736.786C1509.28 718.909 1500.64 694.917 1490.49 679.991L1489.69 681.493C1489.28 681.544 1487.9 681.57 1487.68 681.669C1508.53 714.57 1509.45 736.471 1508.57 773.728L1507.47 819.9C1507.25 829.45 1506.69 839.626 1507.45 849.137C1510.64 888.162 1541.76 923.598 1579.39 933.496C1598.1 938.418 1623.34 937.425 1643.22 937.85L1708.2 939.257C1722.3 939.564 1736.75 939.683 1750.8 940.499Z" fill="#44989A" fill-opacity="0.15"/>
<path d="M1125.76 567.949C1121.55 558.396 1115.64 552.364 1109.12 544.592C1092.71 525.06 1073.2 512.317 1049.73 502.641C1023.24 491.715 996.883 492.417 968.768 491.771L903.175 490.28L855.878 489.213C849.852 489.081 836.817 488.491 831.225 489.032L831.158 491.986C833.933 492.966 861.661 493.281 866.552 493.387L958.269 495.483C980.894 495.996 1004.99 495.23 1027.1 499.844C1055.83 505.839 1081.93 521.396 1102.42 542.193C1109.32 549.201 1117.85 561.577 1123.19 569.989C1123.09 568.833 1122.83 567.538 1123.31 566.541C1124.12 567.018 1124.94 567.486 1125.76 567.949Z" fill="#44989A" fill-opacity="0.15"/>
<path d="M1490.49 679.99C1485.96 671.086 1479.67 665.124 1473.11 658.236C1458.15 642.543 1439.03 630.368 1418.25 623.813C1382.41 612.503 1344.71 615.967 1311.58 633.883C1300.9 639.657 1286.33 649.861 1278.86 659.447C1273.84 664.509 1269.99 669.533 1265.59 675.096C1265.1 677.5 1264.98 677.932 1266.54 679.736C1270.6 672.865 1274.5 668.359 1279.82 662.481C1280.24 662.185 1284.7 658.033 1285.42 657.364C1289.35 653.75 1292.81 650.957 1297.03 647.765C1326.67 625.375 1361.6 617.381 1398.31 622.753C1424.68 626.61 1449.6 640.665 1469.04 658.758C1474.63 663.96 1482.95 675.256 1487.68 681.669C1487.9 681.57 1489.28 681.544 1489.69 681.492L1490.49 679.99Z" fill="#44989A" fill-opacity="0.15"/>
<path d="M1279.81 662.481L1278.98 662.269C1277.28 663.947 1269.02 674.126 1268.18 674.364L1268.02 673.487C1268.25 673.274 1279.49 659.623 1279.5 659.594L1278.86 659.447C1273.84 664.508 1269.98 669.533 1265.59 675.095C1265.1 677.5 1264.98 677.932 1266.53 679.735C1270.6 672.865 1274.5 668.358 1279.81 662.481Z" fill="#44989A" fill-opacity="0.15"/>
<path d="M1142.12 772.696C1142.34 771.782 1142.26 772.042 1142.71 771.214C1144.17 773.339 1144.52 778.18 1146.22 780.828C1147.71 779.608 1143.29 772.936 1144.42 768.821C1144.43 766.48 1144.11 764.173 1144.11 761.866C1144.09 736.743 1145.32 711.54 1145.64 686.424C1145.92 665.096 1147.67 643.638 1144.93 622.435C1142.69 605.121 1135.1 583.476 1126.06 568.247C1125.96 568.149 1125.86 568.052 1125.76 567.95C1124.94 567.486 1124.12 567.018 1123.31 566.541C1122.83 567.538 1123.09 568.833 1123.19 569.989C1138.63 596.188 1144.2 624.811 1142.33 654.752C1141.97 660.556 1142.04 666.829 1141.9 672.67L1140.55 731.236C1140.25 743.962 1138.96 760.765 1142.12 772.696Z" fill="#44989A" fill-opacity="0.15"/>
<path d="M1266.53 679.736C1264.98 677.933 1265.1 677.501 1265.59 675.096C1251.02 693.853 1242.98 719.227 1240.97 742.749C1239.81 756.411 1242.43 768.926 1235.02 781.991C1228.07 794.265 1220.85 797.867 1209.87 804.464L1209.7 805.207C1208.68 805.7 1208.47 805.666 1207.94 806.668L1208.33 807.394L1210.66 806.856L1210.85 807.568C1217.26 805.941 1223.96 801.027 1228.65 796.549C1249.84 776.297 1241.62 749.019 1247.65 723.62C1250.31 712.451 1254.81 701.23 1259.94 690.929C1261.67 687.483 1264.53 683.342 1266.53 679.736Z" fill="#44989A" fill-opacity="0.15"/>
<path d="M1210.85 807.567L1210.66 806.856L1208.33 807.394L1207.94 806.667C1208.47 805.666 1208.68 805.7 1209.7 805.207L1209.87 804.464C1181.16 814.913 1151.37 798.232 1144.42 768.82C1143.29 772.936 1147.71 779.608 1146.22 780.828C1144.52 778.179 1144.17 773.338 1142.71 771.214C1142.26 772.042 1142.34 771.782 1142.12 772.696C1143.13 775.896 1144.33 779.037 1145.69 782.102C1151.02 793.96 1160.91 803.167 1173.12 807.641C1184.13 811.785 1200.03 812.418 1210.85 807.567Z" fill="#44989A" fill-opacity="0.15"/>
<path d="M1506.09 922.83C1509.4 923.763 1509.35 927.531 1513.11 927.514C1510.34 924.534 1500.38 914.283 1500.23 910.623C1499.31 908.558 1497.94 906.347 1496.77 904.379C1482.6 880.444 1482.4 855.911 1483.11 829.153L1484.32 778.875C1484.54 769.415 1484.9 759.923 1484.73 750.425C1483.97 707.698 1454.5 667.883 1415.19 652.191C1389.96 642.115 1358.7 643.047 1333.84 653.983C1314.34 662.609 1288.74 683.513 1280.57 704.338C1280.53 704.524 1280.49 704.71 1280.44 704.895C1282.22 705.863 1280.36 704.853 1281.1 706.89C1282.08 706.238 1282.23 705.854 1282.75 704.85L1283.82 704.766C1284.7 704.001 1289.29 696.294 1290.44 694.582C1309.65 666.046 1339.9 649.79 1374.96 649.141C1402.6 648.677 1429.3 659.168 1449.23 678.323C1467.16 695.706 1480.16 722.915 1480.64 747.949C1481.29 781.976 1478.73 817.062 1478.86 851.216C1478.93 872.289 1485.1 892.101 1496.45 909.834C1499.22 914.168 1502.42 919.276 1506.09 922.83Z" fill="#44989A" fill-opacity="0.15"/>
<path d="M1750.48 954.611L1750.58 950.205C1718.19 950.235 1684.2 948.92 1651.66 948.179L1615.91 947.371C1601.98 947.063 1587.44 947.332 1573.96 943.729C1556.03 938.934 1541.08 931.605 1527.94 918.526C1524.2 914.757 1520.62 910.832 1517.21 906.764L1515.54 909.359C1527.36 925.327 1550.37 941.226 1569.48 946.529C1590.86 952.461 1616.65 951.277 1638.99 951.786L1705.52 953.27C1720.38 953.597 1735.69 953.738 1750.48 954.611Z" fill="#44989A" fill-opacity="0.15"/>
<path d="M1054.87 540.185C1041.53 530.879 1025.01 525.151 1009.09 522.298C995.779 519.912 982.421 520.159 968.97 519.909L922.921 518.897L871.174 517.666C857.812 517.259 843.909 516.326 830.587 517.178L830.531 519.656C836.183 521.473 862.706 521.111 870.689 521.242L943.566 523.007C966.928 523.486 991.499 522.267 1014.36 527.457C1028.29 530.62 1040.47 536.362 1052.99 543.112C1053.46 541.888 1053.96 541.127 1054.87 540.185Z" fill="#44989A" fill-opacity="0.15"/>
<path d="M1515.54 909.358L1517.21 906.764C1511.22 899.267 1509.42 895.319 1505.47 886.85C1494.87 864.127 1496.5 843.912 1497.06 819.58L1498.02 777.439C1498.6 751.187 1498.85 738.099 1491.34 712.692C1490.85 714.278 1491.04 714.624 1489.99 715.507L1489.08 714.541L1488.64 715.123C1495.6 734.043 1495.23 747.458 1494.76 766.995L1493.44 821.32C1492.48 861.085 1492.61 875.58 1515.54 909.358Z" fill="#44989A" fill-opacity="0.15"/>
<path d="M1115.4 750.619C1116.27 731.929 1116.51 712.972 1116.82 694.289C1117.27 667.466 1121.09 639.071 1112.2 613.166C1109.49 605.281 1099.88 583.341 1094.2 577.782C1094.09 577.711 1093.98 577.641 1093.87 577.57C1092.39 576.615 1090.83 575.394 1089.9 573.884L1090.3 574.243L1089.9 573.939L1089.84 574.396C1089.93 574.507 1090.03 574.623 1090.12 574.738C1091.22 576.161 1091.89 578.338 1092.23 580.089C1095.62 585.715 1099.28 591.169 1102.11 597.109C1115.6 625.366 1114.5 652.63 1114.05 682.908L1112.68 749.08C1113.51 750.22 1114.22 752.515 1114.12 753.922C1114.07 754.592 1113.93 754.311 1114.23 754.697L1114.09 753.73L1114.57 753.479L1114.02 754.227C1114.21 752.899 1114.43 752.013 1115.2 750.896C1115.27 750.803 1115.33 750.712 1115.4 750.619Z" fill="#44989A" fill-opacity="0.15"/>
<path d="M1094.2 577.782C1084.98 562.984 1069.79 549.059 1054.87 540.185C1053.96 541.127 1053.46 541.887 1052.99 543.112C1068.74 551.655 1081.4 566.154 1092.23 580.089C1091.89 578.338 1091.22 576.161 1090.12 574.738C1090.03 574.622 1089.93 574.507 1089.84 574.396L1089.9 573.938L1090.3 574.243L1089.9 573.884C1090.83 575.394 1092.39 576.615 1093.87 577.57C1093.98 577.64 1094.09 577.711 1094.2 577.782Z" fill="#44989A" fill-opacity="0.15"/>
<path d="M1532.85 942.954C1519.75 934.678 1509.1 923.236 1500.23 910.623C1500.38 914.283 1510.34 924.534 1513.11 927.514C1509.35 927.531 1509.4 923.763 1506.09 922.83C1512.67 931.304 1521.85 938.524 1530.38 944.891C1531.64 944.115 1531.86 944.02 1532.85 942.954Z" fill="#44989A" fill-opacity="0.15"/>
<path d="M1498.98 957.142C1491.53 949.503 1484.27 942.363 1477.83 933.773C1462.03 912.692 1453.96 884.142 1454.31 857.936L1455.94 786.709C1456.27 772.284 1457.76 748.792 1454.69 735.417C1451.51 721.631 1444.65 708.966 1434.84 698.776C1418.36 681.827 1401.21 673.629 1377.39 673.06C1356.16 672.553 1336.7 680.763 1321.49 695.511C1307.5 709.086 1298.12 727.874 1296.87 747.431C1295.91 762.455 1296.84 771.473 1292.81 786.589C1280.47 832.32 1238.71 863.876 1191.35 863.261C1164.23 863.215 1138.24 852.392 1119.1 833.175C1103.77 817.475 1094.89 800.534 1089.6 779.386L1089.07 780.126C1087.64 775.828 1086.24 768.065 1086.89 763.56L1086.42 763.785C1085.63 767.502 1086.69 778.826 1088.47 782.126L1088.09 782.26C1087.63 781.339 1087.21 780.34 1086.64 779.488C1090.89 806.132 1106.36 829.26 1127.63 845.479C1150.24 862.583 1178.69 870.046 1206.77 866.24C1252.17 860.035 1288.71 825.856 1297.94 780.968C1303.79 752.379 1294.71 733.129 1315.65 706.764C1357.13 654.538 1440.56 674.413 1451.85 740.993C1453.94 753.343 1452.86 765.685 1452.57 778.139L1451.3 832.706C1450.97 846.749 1450.12 863.73 1451.95 877.434C1455.83 906.492 1473.46 941.108 1496.67 959.249C1497.41 957.536 1497.4 957.707 1498.98 957.142Z" fill="#44989A" fill-opacity="0.15"/>
<path d="M1053.23 583.674C1054.22 582.302 1054.13 581.17 1054.14 579.558C1051.02 576.999 1048.14 574.173 1044.97 571.672C1034.53 563.453 1022.67 557.209 1009.99 553.244C1002.39 550.938 994.576 549.39 986.666 548.629C974.252 547.499 961.605 547.644 949.144 547.366L888.025 545.995L850.729 545.159C844.78 545.029 838.058 544.336 832.168 545.011C831.267 545.113 830.665 545.24 829.938 545.828L829.893 547.824C843.808 549.27 858.35 548.86 872.349 549.172L949.309 550.884C964.896 551.237 981.455 550.373 996.728 553.788C1017.69 558.477 1037.85 568.528 1053.23 583.674Z" fill="#44989A" fill-opacity="0.15"/>
<path d="M1089.6 779.386C1086.76 765.644 1087.59 751.891 1087.92 737.964L1089.15 687.169C1089.43 675.738 1090.3 663.976 1089.39 652.577C1086.98 624.74 1074.43 598.761 1054.14 579.558C1054.13 581.17 1054.22 582.302 1053.23 583.674C1055.03 586.571 1058.37 588.989 1060.56 591.69C1066.82 599.424 1072.64 608.778 1076.92 617.77C1088.23 641.496 1086.44 667.375 1085.87 692.857L1084.88 736.682C1084.69 744.902 1084.13 753.354 1084.57 761.558C1084.89 767.55 1085.8 773.552 1086.64 779.488C1087.21 780.34 1087.63 781.339 1088.09 782.26L1088.47 782.126C1086.69 778.826 1085.63 767.502 1086.42 763.785L1086.89 763.56C1086.23 768.065 1087.64 775.828 1089.07 780.126L1089.6 779.386Z" fill="#44989A" fill-opacity="0.15"/>
<path d="M1096.11 615.126C1089.04 598.325 1080.35 582.127 1066.96 569.491C1064.96 567.598 1062.68 565.263 1060.31 563.892L1059.62 564.276C1058.47 563.278 1056.25 561.149 1054.74 560.996C1054.03 560.926 1052.99 561.442 1052.34 561.705C1070.03 575.632 1085.1 594.313 1093 615.532C1094.45 615.701 1094.77 615.7 1096.11 615.126Z" fill="#44989A" fill-opacity="0.15"/>
<path d="M1749.86 982.306L1749.95 978.226C1747.52 978.187 1744.06 978.233 1741.72 977.957C1730.52 978.074 1718.29 977.57 1707 977.307L1648.76 975.98L1604.42 974.977C1590.15 974.65 1576.1 974.817 1562.12 971.538C1531.7 964.406 1502.87 945.184 1486.48 918.215C1485.53 917.488 1484.93 917.05 1483.91 916.428C1483.55 917.659 1484.29 918.189 1484.12 919.827C1486.74 925.302 1494.45 934.578 1498.65 939.055C1505.84 946.659 1513.93 953.354 1522.75 958.991C1550.33 976.792 1571.89 978.172 1603.26 978.851L1641.13 979.703L1741.63 982.021C1744.15 981.958 1747.28 982.187 1749.86 982.306Z" fill="#44989A" fill-opacity="0.15"/>
<path d="M1060.31 563.892C1050.53 553.695 1024.21 540.821 1010.45 537.676C988.048 532.546 962.975 533.658 940.009 533.174L856.75 531.283C853.047 531.208 832.417 530.005 830.257 531.795L830.212 533.756C835.276 535.273 860.46 534.859 867.326 535.001L941.014 536.706C985.66 537.718 1013.89 534.825 1052.34 561.704C1052.99 561.442 1054.03 560.925 1054.74 560.996C1056.25 561.148 1058.47 563.278 1059.62 564.276L1060.31 563.892Z" fill="#44989A" fill-opacity="0.15"/>
<path d="M1265.84 789.617L1264.74 788.861C1264.66 786.264 1265.52 785.89 1265.03 783.624C1255.83 805.364 1243.69 820.572 1221.12 829.656C1202.17 837.355 1180.93 837.188 1162.09 829.192C1143.24 821.109 1128.36 805.889 1120.69 786.861C1115.68 774.245 1115.4 763.955 1115.4 750.619C1115.33 750.712 1115.27 750.803 1115.2 750.896C1114.43 752.013 1114.21 752.899 1114.02 754.227L1114.57 753.479L1114.09 753.73L1114.23 754.697C1113.93 754.311 1114.07 754.592 1114.12 753.922C1114.22 752.515 1113.51 750.22 1112.68 749.08C1112.2 765.306 1112.89 777.482 1119.91 792.596C1128.6 811.307 1144 826.744 1163.4 834.021C1183.51 841.651 1205.82 840.999 1225.46 832.208C1243.09 824.118 1259.03 807.937 1265.84 789.617Z" fill="#44989A" fill-opacity="0.15"/>
<path d="M1486.48 918.215C1467.55 881.073 1467.81 868.63 1468.74 827.92L1470.01 772.269C1470.39 755.819 1471.55 739.372 1465.71 723.659C1463.81 718.561 1460.69 710.946 1457.65 706.477C1455.85 705.744 1455.22 704.54 1454.08 703.032C1454.15 704.59 1455.03 706.247 1455.23 708.546C1461.5 718.978 1466.45 736.075 1467.09 748.187C1467.56 757.146 1466.98 767.674 1466.77 776.782L1465.61 825.151C1464.81 857.765 1463.15 892.26 1484.12 919.827C1484.29 918.188 1483.55 917.659 1483.91 916.428C1484.93 917.05 1485.53 917.488 1486.48 918.215Z" fill="#44989A" fill-opacity="0.15"/>
<path d="M1105.86 785.596C1101.03 768.718 1102.07 752.663 1102.48 735.303L1103.53 691.515C1104.05 669.042 1106.73 635.367 1096.11 615.125C1094.77 615.699 1094.45 615.701 1093 615.532C1095.8 624.749 1098.59 634.243 1099.54 643.859C1100.75 656.007 1100.07 668.257 1099.8 680.438L1098.66 730.022C1098.22 749.645 1096.23 772.091 1103.78 790.731C1104.46 788.361 1102.76 786.446 1102.56 784.175C1102.48 783.219 1102.78 782.772 1103.41 782.119C1104.31 783.333 1104.79 784.641 1105.34 786.031L1105.86 785.596Z" fill="#44989A" fill-opacity="0.15"/>
<path d="M1355.34 664.866C1351.72 663.889 1348.89 666.737 1346.5 666.044L1346.46 665.509C1348.82 664.635 1352.25 663.851 1354.21 662.765L1353.58 662.378C1315.48 672.39 1284.54 706.335 1283.12 746.132C1282.09 774.743 1282.24 787.832 1265.71 812.178L1265.8 813.091C1266.36 813.782 1266.49 813.967 1266.88 814.738L1267.19 815.363C1277.77 801.655 1284.59 783.287 1285.69 766.021C1286.3 756.606 1286.09 747.088 1287.68 737.766C1292.66 708.654 1311.32 683.921 1337.99 671.203C1343.71 668.474 1349.24 666.744 1355.34 664.866Z" fill="#44989A" fill-opacity="0.15"/>
<path d="M1457.65 706.478C1439.95 672.955 1399.16 653.794 1362.26 660.328C1360.01 660.726 1355.57 661.379 1353.58 662.378L1354.21 662.766C1352.25 663.852 1348.82 664.635 1346.46 665.509L1346.5 666.045C1348.89 666.737 1351.72 663.89 1355.34 664.866C1359.02 664.615 1363.56 663.752 1367.49 663.378C1377.16 662.555 1386.9 663.146 1396.39 665.133C1422.21 670.555 1441.13 686.924 1455.23 708.546C1455.03 706.247 1454.14 704.591 1454.08 703.032C1455.22 704.541 1455.85 705.744 1457.65 706.478Z" fill="#44989A" fill-opacity="0.15"/>
<path d="M1267.19 815.363L1266.88 814.738C1266.49 813.967 1266.36 813.782 1265.8 813.091L1265.71 812.178C1243.32 838.982 1214.87 853.694 1179.3 848.59C1175.64 848.065 1171.33 846.745 1167.79 846.483C1165.84 846.989 1164.92 846.546 1162.9 846.077L1162.13 846.655C1162.93 847.602 1166.76 848.558 1168.15 848.987L1168.09 849.82C1178.8 854.739 1204.56 853.016 1216.08 850.012C1234.6 845.188 1257.2 832.049 1267.19 815.363Z" fill="#44989A" fill-opacity="0.15"/>
<path d="M1144.42 836.001L1144.05 835.645C1142.43 834.129 1137.99 830.93 1135.98 829.252C1125.61 820.597 1119.93 814.416 1113.56 802.539C1111.55 798.77 1109.72 794.91 1108.08 790.971C1107.72 790.132 1106.1 785.991 1105.86 785.597L1105.34 786.032C1104.79 784.642 1104.31 783.334 1103.41 782.12C1102.78 782.773 1102.48 783.219 1102.56 784.176C1102.76 786.447 1104.46 788.362 1103.78 790.732C1103.8 791.108 1104.03 791.899 1104.15 792.242C1109.92 809.48 1126.57 830.131 1142.47 838.696L1142.61 838.186C1143.11 837.806 1143.15 837.771 1143.63 837.314L1143.62 836.569L1144.42 836.001Z" fill="#44989A" fill-opacity="0.15"/>
<path d="M1265.84 789.617C1274.36 768.042 1270.26 755.333 1273.83 733.41C1275.54 722.933 1279.26 714.241 1283.81 704.766L1282.74 704.851C1282.23 705.854 1282.08 706.238 1281.09 706.89C1280.36 704.853 1282.22 705.863 1280.44 704.896C1273.6 719.101 1269.65 733.305 1269 749.055C1268.49 761.378 1268.83 771.698 1265.03 783.624C1265.52 785.89 1264.66 786.264 1264.74 788.861L1265.84 789.617Z" fill="#44989A" fill-opacity="0.15"/>
<path d="M1168.09 849.821L1168.15 848.988C1166.76 848.559 1162.93 847.603 1162.13 846.656L1162.9 846.078C1164.92 846.546 1165.84 846.99 1167.79 846.484C1161.33 844.454 1158.01 843.384 1151.87 840.258C1150.29 840.954 1150.73 840.845 1149.6 842.554C1155.67 845.422 1161.57 848.145 1168.09 849.821Z" fill="#44989A" fill-opacity="0.15"/>
<path d="M1151.87 840.257C1149.4 838.82 1146.92 837.4 1144.42 836L1143.62 836.569L1143.63 837.313C1143.15 837.77 1143.11 837.805 1142.61 838.185L1142.47 838.696C1144.87 840.14 1147.11 841.28 1149.6 842.553C1150.73 840.844 1150.29 840.954 1151.87 840.257Z" fill="#44989A" fill-opacity="0.15"/>
</svg>
