<svg width="40" height="40" viewBox="0 0 40 40" fill="none" xmlns="http://www.w3.org/2000/svg">
<path d="M16.787 4.5926C18.348 2.36139 21.652 2.36139 23.213 4.5926C24.1586 5.94429 25.8491 6.55958 27.4424 6.13198C30.0723 5.42614 32.6034 7.54995 32.365 10.2625C32.2205 11.9058 33.12 13.4638 34.6154 14.1604C37.0838 15.3102 37.6575 18.564 35.7313 20.4887C34.5643 21.6547 34.2519 23.4264 34.9497 24.9212C36.1015 27.3886 34.4495 30.25 31.7367 30.4862C30.0933 30.6293 28.7152 31.7857 28.2889 33.3793C27.5852 36.0098 24.4804 37.1399 22.2504 35.5771C20.8995 34.6304 19.1005 34.6304 17.7496 35.5771C15.5196 37.1399 12.4148 36.0098 11.7111 33.3793C11.2848 31.7857 9.90671 30.6293 8.26329 30.4862C5.55053 30.25 3.8985 27.3886 5.0503 24.9212C5.74808 23.4264 5.43569 21.6547 4.26874 20.4887C2.34249 18.564 2.91623 15.3102 5.3846 14.1604C6.87997 13.4638 7.77947 11.9058 7.63502 10.2625C7.39659 7.54995 9.92765 5.42614 12.5576 6.13198C14.1509 6.55958 15.8414 5.94429 16.787 4.5926Z" fill="url(#paint0_linear_799_1587)" fill-opacity="0.4"/>
<path d="M16.787 4.5926C18.348 2.36139 21.652 2.36139 23.213 4.5926C24.1586 5.94429 25.8491 6.55958 27.4424 6.13198C30.0723 5.42614 32.6034 7.54995 32.365 10.2625C32.2205 11.9058 33.12 13.4638 34.6154 14.1604C37.0838 15.3102 37.6575 18.564 35.7313 20.4887C34.5643 21.6547 34.2519 23.4264 34.9497 24.9212C36.1015 27.3886 34.4495 30.25 31.7367 30.4862C30.0933 30.6293 28.7152 31.7857 28.2889 33.3793C27.5852 36.0098 24.4804 37.1399 22.2504 35.5771C20.8995 34.6304 19.1005 34.6304 17.7496 35.5771C15.5196 37.1399 12.4148 36.0098 11.7111 33.3793C11.2848 31.7857 9.90671 30.6293 8.26329 30.4862C5.55053 30.25 3.8985 27.3886 5.0503 24.9212C5.74808 23.4264 5.43569 21.6547 4.26874 20.4887C2.34249 18.564 2.91623 15.3102 5.3846 14.1604C6.87997 13.4638 7.77947 11.9058 7.63502 10.2625C7.39659 7.54995 9.92765 5.42614 12.5576 6.13198C14.1509 6.55958 15.8414 5.94429 16.787 4.5926Z" fill="#FFC19A"/>
<path d="M17.3404 7.24681C18.6325 5.39997 21.3674 5.39997 22.6594 7.24681C23.4422 8.36565 24.8414 8.87495 26.1602 8.521C28.3371 7.93675 30.4322 9.6947 30.2348 11.94C30.1152 13.3002 30.8598 14.5898 32.0976 15.1663C34.1407 16.1181 34.6156 18.8114 33.0212 20.4045C32.0553 21.3696 31.7967 22.8361 32.3743 24.0734C33.3276 26.1158 31.9602 28.4842 29.7148 28.6798C28.3545 28.7982 27.2138 29.7554 26.8609 31.0745C26.2784 33.2518 23.7085 34.1872 21.8627 32.8937C20.7445 32.11 19.2554 32.11 18.1372 32.8937C16.2914 34.1872 13.7215 33.2518 13.139 31.0745C12.7861 29.7554 11.6454 28.7982 10.2851 28.6798C8.03966 28.4842 6.67222 26.1158 7.62561 24.0734C8.20318 22.8361 7.9446 21.3696 6.97868 20.4045C5.38426 18.8114 5.85917 16.1181 7.90231 15.1663C9.14008 14.5898 9.88462 13.3002 9.76506 11.94C9.5677 9.6947 11.6627 7.93675 13.8396 8.521C15.1584 8.87495 16.5577 8.36565 17.3404 7.24681Z" fill="url(#paint1_linear_799_1587)" fill-opacity="0.4"/>
<path d="M17.3404 7.24681C18.6325 5.39997 21.3674 5.39997 22.6594 7.24681C23.4422 8.36565 24.8414 8.87495 26.1602 8.521C28.3371 7.93675 30.4322 9.6947 30.2348 11.94C30.1152 13.3002 30.8598 14.5898 32.0976 15.1663C34.1407 16.1181 34.6156 18.8114 33.0212 20.4045C32.0553 21.3696 31.7967 22.8361 32.3743 24.0734C33.3276 26.1158 31.9602 28.4842 29.7148 28.6798C28.3545 28.7982 27.2138 29.7554 26.8609 31.0745C26.2784 33.2518 23.7085 34.1872 21.8627 32.8937C20.7445 32.11 19.2554 32.11 18.1372 32.8937C16.2914 34.1872 13.7215 33.2518 13.139 31.0745C12.7861 29.7554 11.6454 28.7982 10.2851 28.6798C8.03966 28.4842 6.67222 26.1158 7.62561 24.0734C8.20318 22.8361 7.9446 21.3696 6.97868 20.4045C5.38426 18.8114 5.85917 16.1181 7.90231 15.1663C9.14008 14.5898 9.88462 13.3002 9.76506 11.94C9.5677 9.6947 11.6627 7.93675 13.8396 8.521C15.1584 8.87495 16.5577 8.36565 17.3404 7.24681Z" fill="white"/>
<g filter="url(#filter0_d_799_1587)">
<circle cx="20.0003" cy="20" r="10.5882" fill="url(#paint2_linear_799_1587)"/>
<circle cx="20.0003" cy="20" r="10.5882" fill="#FFC19A"/>
</g>
<defs>
<filter id="filter0_d_799_1587" x="7.31127" y="7.31096" width="25.3784" height="25.3781" filterUnits="userSpaceOnUse" color-interpolation-filters="sRGB">
<feFlood flood-opacity="0" result="BackgroundImageFix"/>
<feColorMatrix in="SourceAlpha" type="matrix" values="0 0 0 0 0 0 0 0 0 0 0 0 0 0 0 0 0 0 127 0" result="hardAlpha"/>
<feMorphology radius="0.420168" operator="dilate" in="SourceAlpha" result="effect1_dropShadow_799_1587"/>
<feOffset/>
<feGaussianBlur stdDeviation="0.840336"/>
<feComposite in2="hardAlpha" operator="out"/>
<feColorMatrix type="matrix" values="0 0 0 0 0.6 0 0 0 0 0.6 0 0 0 0 0.6 0 0 0 0.15 0"/>
<feBlend mode="normal" in2="BackgroundImageFix" result="effect1_dropShadow_799_1587"/>
<feBlend mode="normal" in="SourceGraphic" in2="effect1_dropShadow_799_1587" result="shape"/>
</filter>
<linearGradient id="paint0_linear_799_1587" x1="-1.07493e-06" y1="30.3797" x2="30.2532" y2="8.73418" gradientUnits="userSpaceOnUse">
<stop stop-color="#C6E7FF"/>
<stop offset="1" stop-color="#80BFEB"/>
</linearGradient>
<linearGradient id="paint1_linear_799_1587" x1="3.44531" y1="28.5916" x2="28.4868" y2="10.6749" gradientUnits="userSpaceOnUse">
<stop stop-color="#C6E7FF"/>
<stop offset="1" stop-color="#80BFEB"/>
</linearGradient>
<linearGradient id="paint2_linear_799_1587" x1="9.41211" y1="20" x2="30.5886" y2="20" gradientUnits="userSpaceOnUse">
<stop stop-color="white"/>
<stop offset="1" stop-color="#E5E5E5"/>
</linearGradient>
</defs>
</svg>
