<svg xmlns="http://www.w3.org/2000/svg" width="67" height="67" viewBox="0 0 67 67" fill="none">
  <mask id="mask0_1_7481" style="mask-type:luminance" maskUnits="userSpaceOnUse" x="0" y="0" width="67" height="67">
    <path d="M0 0H66.3465V66.3454H0V0Z" fill="white"/>
  </mask>
  <g mask="url(#mask0_1_7481)">
    <mask id="mask1_1_7481" style="mask-type:luminance" maskUnits="userSpaceOnUse" x="0" y="0" width="67" height="67">
      <path d="M33.1727 0C14.8519 0 0 14.8519 0 33.1727C0 51.4934 14.8519 66.3454 33.1727 66.3454C51.4934 66.3454 66.3465 51.4934 66.3465 33.1727C66.3465 14.8519 51.4934 0 33.1727 0Z" fill="white"/>
    </mask>
    <g mask="url(#mask1_1_7481)">
      <mask id="mask2_1_7481" style="mask-type:luminance" maskUnits="userSpaceOnUse" x="-1" y="-1" width="68" height="68">
        <path d="M66.4015 -0.0166016H-0.12085V66.5057H66.4015V-0.0166016Z" fill="white"/>
      </mask>
      <g mask="url(#mask2_1_7481)">
        <mask id="mask3_1_7481" style="mask-type:luminance" maskUnits="userSpaceOnUse" x="-1" y="0" width="68" height="67">
          <path d="M-0.000244141 0H66.3462V66.3454H-0.000244141V0Z" fill="white"/>
        </mask>
        <g mask="url(#mask3_1_7481)">
          <mask id="mask4_1_7481" style="mask-type:luminance" maskUnits="userSpaceOnUse" x="-1" y="0" width="68" height="67">
            <path d="M33.1724 0C14.8517 0 -0.000244141 14.8519 -0.000244141 33.1727C-0.000244141 51.4934 14.8517 66.3454 33.1724 66.3454C51.4932 66.3454 66.3462 51.4934 66.3462 33.1727C66.3462 14.8519 51.4932 0 33.1724 0Z" fill="white"/>
          </mask>
          <g mask="url(#mask4_1_7481)">
            <path d="M-0.000244141 0H66.3462V66.3454H-0.000244141V0Z" fill="#F4F3EF"/>
          </g>
        </g>
      </g>
    </g>
  </g>
  <mask id="mask5_1_7481" style="mask-type:luminance" maskUnits="userSpaceOnUse" x="15" y="14" width="40" height="43">
    <path d="M15.051 14.4993H54.9575V56.4901H15.051V14.4993Z" fill="white"/>
  </mask>
  <g mask="url(#mask5_1_7481)">
    <path d="M15.0759 30.0524C15.4298 24.8945 20.3861 20.411 25.5361 20.8556C30.6861 21.3003 34.8471 26.8748 33.5489 31.8781C35.8137 28.1057 36.8251 23.6714 39.2052 19.9708C41.5853 16.2701 46.2056 13.3199 50.2859 14.9664C53.5979 16.3026 55.2332 20.2676 54.9207 23.8249C54.6082 27.3811 52.7657 30.6046 50.8359 33.6086C45.566 41.8107 38.6743 49.7766 31.6056 56.4902C28.1794 51.9013 24.1192 47.7134 20.6929 43.1246C17.7898 39.238 14.7443 34.891 15.0759 30.0524Z" fill="#FFC19A"/>
  </g>
</svg>
