<svg xmlns="http://www.w3.org/2000/svg" width="67" height="67" viewBox="0 0 67 67" fill="none">
  <mask id="mask0_1_7673" style="mask-type:luminance" maskUnits="userSpaceOnUse" x="0" y="0" width="67" height="67">
    <path d="M0 0H66.3465V66.3454H0V0Z" fill="white"/>
  </mask>
  <g mask="url(#mask0_1_7673)">
    <mask id="mask1_1_7673" style="mask-type:luminance" maskUnits="userSpaceOnUse" x="0" y="0" width="67" height="67">
      <path d="M33.1738 0C14.8519 0 0 14.8519 0 33.1727C0 51.4934 14.8519 66.3454 33.1738 66.3454C51.4945 66.3454 66.3465 51.4934 66.3465 33.1727C66.3465 14.8519 51.4945 0 33.1738 0Z" fill="white"/>
    </mask>
    <g mask="url(#mask1_1_7673)">
      <mask id="mask2_1_7673" style="mask-type:luminance" maskUnits="userSpaceOnUse" x="-1" y="-1" width="68" height="68">
        <path d="M66.3522 -0.277832H-0.170166V66.5312H66.3522V-0.277832Z" fill="white"/>
      </mask>
      <g mask="url(#mask2_1_7673)">
        <mask id="mask3_1_7673" style="mask-type:luminance" maskUnits="userSpaceOnUse" x="0" y="0" width="67" height="67">
          <path d="M0 0H66.3465V66.3454H0V0Z" fill="white"/>
        </mask>
        <g mask="url(#mask3_1_7673)">
          <mask id="mask4_1_7673" style="mask-type:luminance" maskUnits="userSpaceOnUse" x="0" y="0" width="67" height="67">
            <path d="M33.1738 0C14.8519 0 0 14.8519 0 33.1727C0 51.4934 14.8519 66.3454 33.1738 66.3454C51.4945 66.3454 66.3465 51.4934 66.3465 33.1727C66.3465 14.8519 51.4945 0 33.1738 0Z" fill="white"/>
          </mask>
          <g mask="url(#mask4_1_7673)">
            <path d="M0 0H66.3465V66.3454H0V0Z" fill="#F4F3EF"/>
          </g>
        </g>
      </g>
    </g>
  </g>
  <mask id="mask5_1_7673" style="mask-type:luminance" maskUnits="userSpaceOnUse" x="14" y="12" width="41" height="40">
    <path d="M14.1853 12.1455H54.8299V51.9075H14.1853V12.1455Z" fill="white"/>
  </mask>
  <g mask="url(#mask5_1_7673)">
    <path d="M54.6804 29.8946C54.6782 29.8486 54.6726 29.805 54.6659 29.7635L54.5863 29.5014L54.4598 29.4062C54.3287 29.3088 54.1865 29.2427 53.9389 29.1878C53.7295 29.1408 53.5648 29.1061 53.3139 29.1005C53.2647 29.1005 53.212 29.1038 53.1504 29.1072C53.1079 29.1105 53.0619 29.1173 53.0989 29.1397C52.6464 28.8944 52.2846 28.9414 52.0169 28.9728C51.868 28.9929 51.7873 29.0008 51.6406 28.947C51.4446 28.872 51.15 28.7566 50.8565 28.8507C50.7927 28.8697 50.73 28.8988 50.6213 28.9504C50.4948 28.9291 50.3805 28.9324 50.2876 28.9358C50.2271 28.9358 50.1643 28.9403 50.133 28.9313C49.8619 28.8753 49.6178 28.9089 49.4027 28.9403C49.2437 28.9627 49.1059 28.9851 49.004 28.9571C48.7833 28.9033 48.5806 28.9078 48.3028 28.9145C47.8346 28.9168 47.3967 29.0153 47.0282 29.1128C46.9879 29.1217 46.896 29.115 46.8154 29.1072C46.7471 29.1016 46.6787 29.0948 46.5936 29.0937L46.0101 29.0993C45.7132 29.0993 45.4153 29.1005 45.1095 29.1307C44.9483 29.1509 44.8161 29.208 44.7108 29.2539C44.6705 29.2718 44.6313 29.2909 44.5898 29.3009C44.4465 29.3368 44.4005 29.3312 44.3087 29.32C44.2381 29.311 44.1665 29.3032 44.0847 29.3032H44.0836C43.8304 29.3032 43.5885 29.4073 43.4127 29.4936C43.3499 29.525 43.2883 29.5574 43.2234 29.5765C43.1293 29.6045 43.033 29.6258 42.9366 29.647C42.7765 29.6829 42.6174 29.7198 42.38 29.8027C42.1985 29.861 41.9734 29.9338 41.7919 30.0727C41.7203 30.1275 41.5668 30.141 41.4044 30.1522C41.2397 30.1656 41.0785 30.1824 40.9217 30.2261C40.7895 30.2653 40.6898 30.3034 40.5912 30.3437C40.5128 30.374 40.4355 30.4053 40.3247 30.4367C40.1757 30.4826 40.0256 30.524 39.8766 30.5655C39.6907 30.617 39.5048 30.6685 39.3278 30.7245C39.2169 30.757 39.1273 30.8085 39.0198 30.869C38.928 30.9205 38.8384 30.9788 38.7499 31.0381C38.63 31.1188 38.5169 31.195 38.4262 31.2118C38.3814 31.2207 38.3377 31.2308 38.2951 31.242L38.49 30.9967C38.8059 30.6036 39.1217 30.2093 39.423 29.8027C39.535 29.7859 39.6437 29.7534 39.7467 29.703L39.8498 29.6526C40.0402 29.5597 40.1936 29.4835 40.3919 29.3345C40.4299 29.3054 40.4759 29.2662 40.524 29.2225C40.561 29.1889 40.6002 29.1497 40.58 29.1486C41.0829 29.022 41.335 28.7476 41.5186 28.546C41.6239 28.4307 41.6866 28.3646 41.8323 28.2996C42.0283 28.2167 42.324 28.0913 42.4752 27.8303C42.511 27.7709 42.5401 27.7049 42.5872 27.5884C42.7014 27.5077 42.7854 27.417 42.856 27.342C42.8974 27.296 42.9411 27.249 42.968 27.2322C43.211 27.0743 43.3667 26.8671 43.5045 26.6834C43.6031 26.5512 43.6882 26.437 43.7733 26.3787C43.9548 26.2611 44.088 26.1189 44.2057 25.9934C44.2516 25.943 44.2986 25.8926 44.3613 25.8332C44.6167 25.5734 44.7679 25.2967 44.9146 25.0257L45.0289 24.8196C45.0535 24.7782 45.1174 24.7188 45.1779 24.6617C45.2372 24.6068 45.2955 24.5508 45.3515 24.4892L45.6505 24.1498C45.8835 23.9056 46.1277 23.6435 46.3349 23.3478C46.4312 23.2157 46.4794 23.0779 46.5186 22.967C46.5342 22.9256 46.5466 22.883 46.5623 22.8528C46.6474 22.7061 46.6911 22.6646 46.7627 22.5997C46.812 22.5526 46.8613 22.5067 46.9251 22.4372C47.0954 22.2356 47.1648 22.0071 47.2197 21.8235C47.241 21.7529 47.2612 21.6801 47.2959 21.6073C47.3362 21.5188 47.3821 21.4314 47.4281 21.3452C47.5087 21.1951 47.5871 21.0428 47.6521 20.8792L47.7002 20.7605C47.7708 20.5959 47.8593 20.392 47.8738 20.1546C47.8761 20.0582 47.9623 19.9339 48.0631 19.7894C48.1572 19.6539 48.2491 19.5173 48.3095 19.3829C48.3812 19.2272 48.4171 19.1028 48.4518 18.974C48.4708 18.9035 48.4899 18.8329 48.5302 18.731C48.5761 18.6067 48.6276 18.4846 48.6792 18.3614C48.7699 18.1452 48.8606 17.929 48.9222 17.7185C48.9569 17.6098 48.967 17.5112 48.9827 17.3746C48.9928 17.2783 48.9972 17.1775 49.0028 17.0789C49.0107 16.9154 49.0174 16.7608 49.0633 16.6466C49.1798 16.3329 49.2403 16.0249 49.2974 15.7259C49.3243 15.587 49.3512 15.4492 49.3848 15.3059C49.4397 15.0684 49.443 14.8332 49.4464 14.6271C49.4486 14.5117 49.4498 14.3952 49.4632 14.2709L49.4979 13.9394C49.5237 13.7053 49.5494 13.4723 49.555 13.2349C49.5584 13.0366 49.4262 12.6816 49.163 12.4979C49.1384 12.4531 49.1093 12.415 49.0813 12.3859C48.8696 12.1507 48.5582 12.1551 48.3991 12.1563C47.9444 12.1473 47.6543 12.3803 47.4617 12.5651C47.0271 12.6625 46.7919 12.9448 46.6104 13.1621C46.4155 13.3917 46.1758 13.5933 45.9227 13.8072C45.5609 14.113 45.1891 14.4266 44.8956 14.8601C44.7836 15.0303 44.6458 15.1782 44.5081 15.326L44.2919 15.559C44.1922 15.6564 44.0556 15.792 43.9794 16.0104C43.9592 16.0686 43.938 16.1 43.8293 16.2019L43.248 16.7686C42.9344 17.0733 42.7037 17.4709 42.5256 18.0097C42.5166 18.0276 42.4785 18.069 42.4505 18.0993C42.3923 18.1642 42.3184 18.2449 42.2612 18.3446C42.1784 18.4801 42.1324 18.6212 42.1257 18.7623C41.9611 18.8822 41.8927 18.9707 41.8233 19.0726C41.8054 19.0995 41.7841 19.1308 41.7471 19.1734C41.5881 19.3526 41.5399 19.552 41.5052 19.6976C41.494 19.7435 41.4806 19.8006 41.4716 19.8186C41.4212 19.9171 41.354 20.0045 41.2879 20.093C41.2274 20.1736 41.1681 20.2531 41.1199 20.3304C41.0572 20.4234 41.0045 20.5242 40.953 20.6239C40.9161 20.6956 40.8802 20.7695 40.8298 20.8423C40.4893 21.3441 40.2496 21.8694 40.0738 22.5033C40.0312 22.6669 39.9651 22.8203 39.9013 22.9749C39.8419 23.116 39.7848 23.2571 39.7355 23.405C39.6862 23.5584 39.675 23.7085 39.6638 23.8407C39.6571 23.9191 39.6459 24.0524 39.6347 24.0759C39.4544 24.2753 39.3457 24.4892 39.2516 24.6942C39.1721 24.8666 39.1374 25.0627 39.1475 25.2665C39.1497 25.3516 39.0937 25.6283 39.0232 25.8153C38.8462 26.2656 38.7185 26.5915 38.8126 27.053C38.8484 27.2344 38.8283 27.2815 38.7454 27.4764C38.7073 27.5671 38.6636 27.669 38.6211 27.7967L38.5718 27.9266C38.499 28.1092 38.4004 28.3579 38.4038 28.6311L38.294 28.7376C37.9053 29.0803 37.6253 29.4869 37.4013 29.815C37.2647 30.0122 37.1347 30.2003 37.0496 30.2731C36.5523 30.6887 36.2219 31.1502 35.8635 31.6497C35.7896 31.7539 35.7134 31.8569 35.6361 31.9577L35.5454 32.0641C35.5375 32.0294 35.5252 31.9936 35.5073 31.9521C35.5521 31.8155 35.5678 31.6833 35.579 31.5769C35.5857 31.5175 35.5902 31.4582 35.6081 31.3966C35.6798 31.1558 35.6854 30.925 35.6899 30.7201C35.6944 30.5487 35.6988 30.402 35.7347 30.2855C35.7963 30.0951 35.8153 29.9147 35.8321 29.7523C35.8388 29.6862 35.8456 29.6179 35.8579 29.5395C35.9105 29.1665 35.8859 28.8316 35.8612 28.5079L35.8523 28.387C35.8489 28.3287 35.8646 28.2425 35.8803 28.1518C35.8937 28.0812 35.906 28.0118 35.9139 27.9367L35.9732 27.3957C36.0068 27.1 36.0393 26.801 36.0494 26.5086C36.0561 26.3552 36.027 26.2185 36.0046 26.1099C35.9956 26.0662 35.9844 26.0214 35.9811 25.98C35.9699 25.8075 35.9811 25.7459 35.999 25.6518C36.0102 25.5913 36.0214 25.5286 36.0293 25.4513C36.055 25.2094 36.0001 24.991 35.9542 24.8162C35.9363 24.7457 35.9172 24.674 35.9072 24.5945C35.8926 24.4981 35.8859 24.4007 35.8769 24.3021C35.8635 24.1431 35.8489 23.984 35.8187 23.8183L35.7963 23.6962C35.7672 23.5315 35.7313 23.3266 35.6484 23.1462C35.5991 23.0443 35.5958 22.883 35.5913 22.7139C35.5879 22.5481 35.5812 22.3846 35.5532 22.2412C35.5275 22.0934 35.4961 21.9825 35.4647 21.8694C35.4435 21.7955 35.4211 21.7204 35.3998 21.6118L35.3449 21.3564C35.29 21.0965 35.234 20.8367 35.1623 20.5836C35.1399 20.4973 35.1041 20.4133 35.0481 20.2901C35.0044 20.1915 34.9529 20.0952 34.9014 20C34.8286 19.8634 34.7602 19.7357 34.7333 19.6259C34.6561 19.3 34.5306 19.011 34.4085 18.7321L34.3032 18.4834C34.189 18.2079 34.0378 17.9234 33.825 17.5885C33.7455 17.4631 33.6771 17.3298 33.6077 17.1976C33.5002 16.9949 33.3915 16.7933 33.2605 16.6074C33.163 16.4673 32.7677 16.1179 32.3745 16.24L32.099 16.3509L32.071 16.4057C31.9635 16.4931 31.8873 16.6085 31.8246 16.7026C31.6252 16.9535 31.5658 17.229 31.5266 17.4116C31.5165 17.4586 31.5098 17.5012 31.5121 17.5056C31.297 17.8058 31.2489 18.1093 31.2029 18.395C31.1581 18.6895 31.0831 18.9785 31.0092 19.2697C30.8904 19.7345 30.7672 20.2151 30.7471 20.7269C30.7336 21.0103 30.6955 21.2903 30.6362 21.6711C30.6127 21.8011 30.5847 21.9623 30.6149 22.1516C30.6295 22.2468 30.6261 22.3163 30.6026 22.4518L30.4592 23.2549C30.3763 23.7219 30.4346 24.1834 30.5107 24.6124C30.5152 24.6426 30.5074 24.7166 30.5007 24.7759C30.4906 24.8644 30.4827 24.954 30.4839 25.0447C30.4872 25.206 30.5186 25.3449 30.5802 25.4681C30.5768 25.4692 30.5735 25.4748 30.5701 25.4872C30.5175 25.6731 30.513 25.7761 30.5119 25.8904C30.5119 25.9262 30.5107 25.9688 30.5051 26.0349C30.485 26.2387 30.5298 26.4112 30.5667 26.5512C30.5791 26.6005 30.5947 26.6498 30.6003 26.7047C30.6149 26.8133 30.6093 26.9231 30.6071 27.0328C30.6048 27.1336 30.6026 27.2356 30.6059 27.3296C30.6104 27.4484 30.6216 27.5671 30.6351 27.6847C30.644 27.7642 30.653 27.8449 30.6563 27.9121C30.672 28.4766 30.7672 29.0164 30.9722 29.6717C31.0237 29.824 31.0618 29.9808 31.101 30.1365C31.1413 30.2967 31.1817 30.4557 31.2287 30.6069C31.269 30.7402 31.3373 30.8757 31.409 31.0079C31.4617 31.1076 31.5266 31.2297 31.5289 31.298C31.5434 31.5455 31.5882 31.7942 31.6622 32.035C31.7103 32.1929 31.791 32.3139 31.8649 32.4181C31.9298 32.5065 32.0721 32.791 32.1214 32.9467C32.2883 33.4149 32.407 33.7173 32.7128 34.0253C32.8673 34.181 32.9009 34.2639 32.9816 34.4633C33.0163 34.5473 33.0544 34.6414 33.1395 34.8273C32.8461 35.1555 32.5571 35.4848 32.286 35.8241C31.7506 36.4839 31.2836 37.0024 30.8132 37.4549C30.5354 37.7238 30.2688 38.0228 30.0213 38.3465C29.8533 38.5649 29.6819 38.734 29.4646 38.9379C29.2753 39.1115 29.1039 39.2638 28.9079 39.4341L28.8228 39.5069C28.8127 39.4486 28.7948 39.3848 28.7635 39.2851C28.8071 39.1541 28.8183 39.0331 28.8284 38.9312C28.8329 38.8785 28.8385 38.818 28.8475 38.7934C28.9415 38.5291 28.9404 38.2804 28.9393 38.0609C28.9393 37.8985 28.9382 37.7585 28.9751 37.6588C29.0547 37.4482 29.0782 37.2455 29.0995 37.0685C29.1084 36.9845 29.1185 36.9005 29.1353 36.8188C29.2283 36.3808 29.1555 35.9787 29.0815 35.6763C29.0748 35.6472 29.0983 35.5475 29.1152 35.4825C29.1308 35.4131 29.1465 35.3448 29.1577 35.2686L29.2664 34.5047C29.3 34.2751 29.3324 34.0455 29.3492 33.8002C29.356 33.6356 29.319 33.4955 29.2888 33.3824C29.2787 33.341 29.2641 33.2995 29.2619 33.2592C29.2496 33.1214 29.2619 33.0811 29.2888 32.996C29.3123 32.9243 29.3336 32.8515 29.3504 32.7474C29.3873 32.4886 29.3224 32.2624 29.2697 32.0798C29.2507 32.0092 29.2283 31.9409 29.2204 31.8782C29.2104 31.7863 29.2059 31.6945 29.2025 31.6015C29.1936 31.4279 29.1835 31.2532 29.1521 31.0818L29.1331 30.9597C29.1084 30.785 29.0782 30.5666 28.9729 30.3639C28.9292 30.2877 28.9438 30.1354 28.9595 29.973C28.974 29.8094 28.9863 29.647 28.9684 29.4757C28.9494 29.3413 28.9259 29.2371 28.9023 29.1341C28.8833 29.0512 28.8643 28.9694 28.8519 28.8675C28.8116 28.5147 28.7691 28.163 28.7131 27.8079C28.6951 27.697 28.6604 27.6063 28.6167 27.4932C28.5764 27.3789 28.5226 27.2692 28.4678 27.1594C28.4084 27.0373 28.3502 26.9208 28.3457 26.8458C28.3289 26.5266 28.2437 26.2353 28.1687 25.9789C28.1261 25.831 28.0813 25.6843 28.0533 25.5331C28.0074 25.2799 27.9044 25.0627 27.8136 24.8711C27.7666 24.7737 27.7196 24.6774 27.686 24.581L27.5964 24.3021C27.5247 24.0703 27.4507 23.8384 27.3522 23.6055C27.2547 23.3859 26.8717 23.0309 26.4461 23.1048C26.175 23.1496 25.8558 23.3232 25.8715 23.9336C25.6542 24.1341 25.5545 24.3693 25.4862 24.5351C25.4683 24.5765 25.4548 24.6157 25.4884 24.5945C25.1222 24.8689 25.0023 25.2441 24.9261 25.4793C24.8197 25.7817 24.6719 26.0696 24.5263 26.3586C24.2956 26.8155 24.0559 27.2882 23.9394 27.8415C23.8979 28.0588 23.8263 28.2671 23.7546 28.4743L23.6448 28.7891C23.591 28.9201 23.5182 29.1005 23.5294 29.3379C23.535 29.4264 23.5227 29.4824 23.4723 29.6123L23.3905 29.815C23.3088 30.0178 23.236 30.1981 23.1576 30.4132C23.0041 30.8007 22.9537 31.2946 23.0041 31.9364C23.0041 31.96 22.9851 32.0294 22.9716 32.0753C22.9436 32.1672 22.919 32.2601 22.9067 32.3576C22.8854 32.5267 22.9033 32.6835 22.9638 32.828C22.8652 33.0184 22.8417 33.1338 22.8238 33.2547C22.8182 33.2895 22.8126 33.3287 22.7891 33.4071C22.7264 33.64 22.7689 33.845 22.8003 33.9951C22.8115 34.0511 22.8238 34.1093 22.8238 34.134C22.8216 34.2706 22.7969 34.4062 22.7756 34.5428L22.7364 34.7937C22.7196 34.9247 22.7174 35.0558 22.7152 35.1868C22.714 35.2697 22.7129 35.3526 22.7062 35.4232C22.63 36.0504 22.6592 36.6395 22.8003 37.3407C22.8372 37.5076 22.8563 37.6778 22.8764 37.847C22.8988 38.025 22.9201 38.202 22.9548 38.379C22.9907 38.556 23.0624 38.7116 23.1273 38.8483C23.1699 38.9413 23.236 39.0813 23.2293 39.1339C23.2046 39.3826 23.2203 39.6446 23.2774 39.9011C23.3177 40.1016 23.4152 40.2976 23.5518 40.4623C23.6224 40.5508 23.7702 40.8308 23.8543 41.0313C24.0715 41.5734 24.2709 41.9172 24.7201 42.1928C24.9183 42.3037 24.9754 42.3809 25.0998 42.5478C25.1703 42.6408 25.2476 42.745 25.363 42.8749C25.2946 42.9331 25.2274 42.9914 25.1681 43.0485L25.0975 43.1179L21.9793 45.6425C21.9804 45.5216 21.9759 45.395 21.9569 45.2662C21.9345 45.1105 21.921 44.956 21.9087 44.8003C21.8841 44.5146 21.8594 44.2178 21.7788 43.9087C21.7508 43.8045 21.7653 43.6533 21.7799 43.4932C21.79 43.3924 21.799 43.2904 21.8023 43.1325C21.8057 43.0552 21.809 42.9589 21.7911 42.8536C21.7564 42.6363 21.7071 42.4235 21.6567 42.2096C21.6242 42.0696 21.5917 41.9296 21.5626 41.7806C21.5413 41.6831 21.5335 41.6047 21.5257 41.5275C21.5133 41.4043 21.4999 41.2833 21.4641 41.1343C21.4293 40.9809 21.3666 40.8285 21.2994 40.6773C21.2311 40.5217 21.1661 40.3749 21.184 40.2663C21.2154 40.0512 21.174 39.8306 21.1404 39.6525L21.1191 39.5304C21.0944 39.368 21.053 39.2112 21.0093 39.0533C20.9824 38.9536 20.9544 38.8539 20.9343 38.7464C20.9197 38.6736 20.9175 38.5985 20.9141 38.5224C20.9051 38.3319 20.8928 38.0934 20.7741 37.8526C20.7338 37.7753 20.6946 37.7159 20.6576 37.6577C20.6039 37.5759 20.5747 37.5311 20.5355 37.381C20.5266 37.3385 20.5254 37.2925 20.5221 37.2477C20.5142 37.1312 20.5042 36.9868 20.4493 36.8356C20.3406 36.5354 20.2006 36.2475 20.0259 35.8936L19.8288 35.4635C19.7963 35.3929 19.7582 35.3235 19.7201 35.2552C19.6787 35.1812 19.6272 35.0905 19.6249 35.0513C19.6003 34.5921 19.5062 34.2281 19.3303 33.9088C19.29 33.836 19.2587 33.7588 19.2262 33.6837C19.1601 33.5247 19.0839 33.3466 18.9574 33.1775C18.8902 33.0834 18.851 32.9445 18.805 32.7821C18.7446 32.5681 18.6751 32.324 18.5138 32.0955C18.4948 32.0686 18.4701 32.0081 18.4477 31.9488C18.413 31.8558 18.3705 31.7449 18.2932 31.6251C18.2943 31.6217 18.2943 31.6127 18.2954 31.5926C18.2977 31.5142 18.2977 31.4369 18.2887 31.363C18.2506 31.0628 18.03 30.8298 17.8351 30.6237C17.7746 30.5576 17.7466 30.4748 17.6984 30.3224C17.6167 30.0637 17.5047 29.7109 17.1496 29.4342C17.1261 29.3961 17.1093 29.3446 17.0914 29.3009C17.069 29.2427 17.0477 29.1901 17.0275 29.1486C16.9155 28.9224 16.8125 28.7857 16.6153 28.5259C16.519 28.3982 16.398 28.2951 16.2536 28.2167L16.1124 28.1529L15.8414 28.1786C15.6879 28.2212 15.5546 28.3007 15.5334 28.3243C15.3093 28.4195 15.0842 28.6412 15.0137 28.8294C14.9207 29.0657 14.8647 29.311 14.812 29.5574C14.7863 29.6739 14.7605 29.7893 14.7303 29.9024C14.7034 29.9987 14.672 30.0962 14.6418 30.1914C14.5634 30.4333 14.4827 30.6831 14.4525 30.9844C14.4435 31.1356 14.4234 31.2846 14.4032 31.4346C14.3618 31.7483 14.3192 32.0742 14.3517 32.4158C14.3607 32.5413 14.3203 32.7025 14.2778 32.8728C14.2475 32.9949 14.2173 33.1181 14.1915 33.3085L14.1848 33.7308C14.2039 34.0511 14.2363 34.3692 14.2699 34.6716C14.2778 34.7713 14.28 34.8531 14.2811 34.9315C14.2845 35.067 14.2879 35.1969 14.3091 35.3548C14.3304 35.552 14.3898 35.7278 14.4435 35.8846C14.5018 36.0538 14.5522 36.2027 14.5309 36.2957C14.4783 36.5186 14.5096 36.7471 14.5343 36.9319L14.5511 37.0652C14.5645 37.2455 14.606 37.4213 14.6485 37.5961C14.6732 37.6946 14.6978 37.7932 14.7124 37.8862C14.7224 37.9601 14.7224 38.0363 14.7236 38.1124C14.728 38.3174 14.7336 38.5728 14.8512 38.8248C14.8916 38.9133 14.933 38.9793 14.9733 39.0443C15.0249 39.1261 15.0562 39.1753 15.0932 39.3333C15.1033 39.3781 15.1033 39.424 15.1055 39.471C15.1122 39.5931 15.1212 39.7455 15.1839 39.9179C15.315 40.2484 15.465 40.5721 15.6185 40.8778L15.8313 41.3326C15.8649 41.3998 15.903 41.4647 15.9422 41.5297C15.987 41.6059 16.0441 41.6988 16.0463 41.7403C16.0799 42.223 16.2771 42.652 16.4652 43.0093L16.528 43.1325C16.6131 43.3039 16.7094 43.4965 16.8696 43.6735C16.9514 43.7653 17.0107 43.9031 17.079 44.0633C17.1731 44.2828 17.2795 44.5314 17.5013 44.7678C17.5271 44.7913 17.5618 44.8473 17.5954 44.9011C17.6637 45.0108 17.7488 45.1475 17.8463 45.2651C17.8631 45.3469 17.8821 45.4297 17.9224 45.5294C18.0232 45.7546 18.2394 45.9517 18.59 46.141C18.6695 46.188 18.7266 46.2575 18.8196 46.3751L18.9215 46.4994C19.1612 46.8108 19.4625 47.009 19.8153 47.093C19.8411 47.1076 19.9038 47.1613 19.9408 47.1938C19.9609 47.2095 19.98 47.2263 20.0013 47.2431L16.0351 50.4532L15.9881 50.573C15.8974 50.8038 15.6588 51.4175 16.0967 51.7356C16.2088 51.8174 16.3297 51.8555 16.4596 51.8555C16.8147 51.8555 17.2414 51.5766 17.7701 51.142C18.0468 50.9158 18.31 50.6839 18.581 50.4431L19.0291 50.0477C19.2183 49.8864 19.4289 49.7464 19.6384 49.6064C19.7739 49.5146 19.9105 49.4238 20.0416 49.3298L20.9175 48.6947C21.1516 48.53 21.3845 48.3654 21.6164 48.1974C21.6186 48.1974 21.6209 48.1985 21.6231 48.1985C21.7049 48.3083 21.7967 48.4102 21.9087 48.53C21.9457 48.5625 21.9938 48.5995 22.0454 48.6376C22.0834 48.6656 22.1473 48.7126 22.1529 48.7126C22.331 49.0643 22.5908 49.3163 22.9224 49.4687L23.0893 49.5527C23.2237 49.6165 23.3032 49.6568 23.3581 49.7151C23.6358 50.0298 23.8677 50.1922 24.1343 50.2471C24.2171 50.2605 24.3023 50.2617 24.3762 50.2191C24.5229 50.3289 24.6741 50.3815 24.7951 50.4241C24.8556 50.4453 24.9172 50.4666 24.9665 50.498C25.2252 50.6514 25.4918 50.7007 25.727 50.7444C25.8972 50.7758 26.0451 50.8026 26.1481 50.8609C26.3598 50.9818 26.5726 51.0334 26.7586 51.0793L26.8896 51.1129C27.2771 51.2182 27.7408 51.3156 28.2213 51.2428C28.265 51.2294 28.3636 51.2708 28.4465 51.2977C28.5182 51.3223 28.591 51.3447 28.6783 51.3671L29.142 51.4679C29.487 51.5542 29.8353 51.6304 30.2005 51.6864C30.3707 51.711 30.5186 51.6841 30.6384 51.664C30.6843 51.6561 30.7325 51.6561 30.774 51.646C30.9375 51.6472 30.9935 51.6673 31.0853 51.6998C31.157 51.7256 31.2309 51.7502 31.325 51.7715C31.5994 51.8331 31.8481 51.7804 32.0486 51.739C32.1236 51.7233 32.1975 51.7076 32.2659 51.702C32.3656 51.6953 32.4652 51.6987 32.566 51.6998C32.7475 51.7032 32.9301 51.7043 33.107 51.6785L33.2437 51.664C33.4285 51.6494 33.6592 51.6292 33.8552 51.5329C33.9504 51.4881 34.105 51.5049 34.2853 51.5251C34.4489 51.543 34.6337 51.562 34.8185 51.5419C34.9898 51.5262 35.1142 51.5015 35.2463 51.4758C35.3236 51.4601 35.4043 51.4433 35.4939 51.431C35.8097 51.3951 36.1256 51.3571 36.4829 51.2977L36.9152 51.1868C37.0328 51.1409 37.1471 51.0838 37.2602 51.0266C37.4159 50.9482 37.5637 50.8743 37.6757 50.8564C38.0297 50.8116 38.3388 50.6985 38.6379 50.5887C38.7779 50.5361 38.919 50.4845 39.0814 50.4364C39.3513 50.3468 39.5787 50.2124 39.7994 50.0824C39.8856 50.0309 39.9707 49.9805 40.0592 49.9346C40.1623 49.8797 40.2687 49.8304 40.3762 49.7811C40.6047 49.6747 40.8332 49.5661 41.0314 49.4306C41.2084 49.3163 41.3764 49.0486 41.3999 48.8885C41.4436 48.772 41.4895 48.6309 41.4974 48.474L41.4738 48.1974L41.3697 48.0787C41.2621 47.9555 41.1345 47.8603 40.9889 47.7942L40.8836 47.746C40.6887 47.6564 40.5341 47.5881 40.2911 47.5287C40.2463 47.5175 40.1903 47.5086 40.1298 47.4985C40.0827 47.4929 40.0267 47.4862 40.0413 47.5052C39.6369 47.186 39.2685 47.1546 38.9996 47.1311C38.8384 47.1165 38.751 47.1076 38.6143 47.0292C38.4329 46.9205 38.1663 46.7548 37.8527 46.7828C37.7855 46.7895 37.7172 46.804 37.594 46.8343C37.4663 46.7872 37.3464 46.7693 37.2468 46.7559C37.184 46.7458 37.1191 46.7368 37.0911 46.7245C36.8312 46.6159 36.5781 46.6024 36.3552 46.5912C36.1872 46.5812 36.0416 46.5733 35.9419 46.5307C35.7448 46.4411 35.5521 46.4064 35.3819 46.3751C35.3012 46.3616 35.2206 46.3471 35.1433 46.3247C34.7905 46.2205 34.4141 46.2082 33.9605 46.2866C33.9213 46.2933 33.8227 46.2619 33.7421 46.2384C33.6671 46.216 33.592 46.1947 33.5147 46.1768L32.9737 46.0603C32.6646 45.9864 32.3555 45.9136 32.0407 45.8722C31.8794 45.8531 31.7372 45.8733 31.6218 45.8923C31.5782 45.899 31.5199 45.9125 31.4953 45.908C31.334 45.9035 31.2836 45.8845 31.1929 45.8509C31.1279 45.8251 31.0618 45.8005 30.9711 45.7781C30.7168 45.7142 30.4816 45.7568 30.2923 45.7893C30.2184 45.8016 30.1445 45.8173 30.0661 45.8184C29.9586 45.8229 29.8589 45.815 29.7558 45.8117C29.5912 45.805 29.4276 45.7994 29.263 45.8094L29.1353 45.815C28.9561 45.8218 28.7332 45.8296 28.5182 45.9125C28.4308 45.9494 28.2717 45.917 28.106 45.8856C27.9436 45.8531 27.7812 45.824 27.6288 45.824C27.4709 45.8274 27.3499 45.8352 27.2279 45.8509C27.1506 45.8598 27.0722 45.8688 26.9635 45.8699C26.8213 45.8744 26.6779 45.8744 26.5334 45.871C26.3139 45.871 26.0944 45.8666 25.8804 45.8822C25.7863 45.8867 25.6945 45.908 25.5433 45.945C25.447 45.9696 25.3506 46.001 25.2554 46.0312C25.102 46.0816 24.9497 46.1186 24.8433 46.1242C24.5632 46.1186 24.2933 46.1477 24.0211 46.1835C24.1779 46.0637 24.2956 45.9853 24.4165 45.9058C24.5196 45.8386 24.6237 45.7691 24.7548 45.6739C25.0818 45.432 25.3551 45.1408 25.6183 44.8585C25.7673 44.7006 25.9152 44.5415 26.0753 44.3937C26.2512 44.2268 26.4315 44.0633 26.6118 43.9009C26.8806 43.66 27.1495 43.417 27.4071 43.1616L27.6412 42.9331C27.9033 42.6778 28.2023 42.3899 28.4084 42.1166C28.4969 41.9956 28.6078 41.8892 28.759 41.7414L29.4556 41.197C29.4993 41.2306 29.5542 41.2687 29.6158 41.3079C29.6595 41.3359 29.7077 41.3639 29.7211 41.3695C30.0202 41.8008 30.3663 41.9576 30.6194 42.0718C30.7527 42.1334 30.8591 42.1805 30.9632 42.2779C31.166 42.4694 31.3866 42.6598 31.6554 42.7192C31.7305 42.736 31.8055 42.7382 31.9298 42.7405C32.0609 42.8256 32.1908 42.876 32.3062 42.9208C32.3678 42.9443 32.4305 42.9667 32.4832 42.997C32.7318 43.1403 32.9883 43.1997 33.2146 43.2523C33.377 43.2904 33.5315 43.3263 33.648 43.3879C33.8563 43.4976 34.0669 43.5525 34.3357 43.6231C34.6829 43.7172 35.141 43.8169 35.6328 43.7956C35.6966 43.7777 35.7996 43.8213 35.906 43.8527C35.9766 43.8729 36.0483 43.8941 36.1323 43.9132L36.7651 44.0386C37.0586 44.0957 37.352 44.1529 37.6433 44.182C37.8012 44.201 37.9457 44.1798 38.0599 44.163C38.1103 44.1562 38.1585 44.1473 38.2122 44.1473C38.3802 44.1462 38.4475 44.163 38.5404 44.1887C38.6099 44.2066 38.6793 44.2257 38.77 44.2402C38.8428 44.2514 38.9134 44.257 38.9817 44.257C39.1464 44.257 39.2987 44.229 39.4376 44.2033C39.5149 44.1898 39.5933 44.1742 39.6683 44.1686C39.9394 44.1495 40.2127 44.1697 40.4815 44.1383L40.5968 44.1282C40.7772 44.1114 41.0034 44.0913 41.2005 44.0185C41.317 43.9725 41.4817 43.986 41.6732 43.9994C41.8446 44.0129 42.0148 44.0207 42.1828 44.0061C42.3408 43.9882 42.4572 43.9692 42.5782 43.9479C42.66 43.9322 42.7451 43.9188 42.9333 43.8941C43.276 43.8549 43.6199 43.8124 43.9604 43.7497C44.05 43.7329 44.1385 43.7026 44.2874 43.65C44.3938 43.6096 44.498 43.5626 44.6022 43.5156C44.7545 43.4461 44.8978 43.38 45.0188 43.3576C45.4064 43.2927 45.7491 43.1527 46.0806 43.0194L46.1893 42.9746C46.5141 42.8458 46.8456 42.6699 47.2332 42.4213C47.3317 42.3585 47.4325 42.2981 47.5345 42.2376C47.7932 42.083 48.053 41.9262 48.2905 41.728C48.4271 41.6126 48.7475 41.1646 48.5672 40.7591C48.491 40.5866 48.3263 40.4208 48.0822 40.394C48.0463 40.3682 48.0038 40.338 47.9545 40.3077C47.7719 40.1924 47.6308 40.105 47.3967 40.0087L47.2578 39.9594C47.2085 39.9437 47.1525 39.9258 47.1469 39.9336C46.7975 39.5998 46.4547 39.5136 46.2061 39.4498C46.0504 39.4094 45.9597 39.3848 45.8376 39.2986C45.6718 39.1798 45.4209 38.9995 45.1342 38.976C45.0692 38.9715 44.9975 38.9749 44.9113 39.004C44.7735 38.9289 44.6358 38.892 44.5249 38.8606C44.4689 38.8461 44.4106 38.8337 44.3569 38.8068C44.1071 38.6881 43.8596 38.6534 43.6389 38.622C43.4743 38.5996 43.3309 38.5795 43.2222 38.5313C43.0206 38.4417 42.8235 38.4025 42.5435 38.3499C42.1235 38.2659 41.6967 38.239 41.2722 38.2681C41.2308 38.2681 41.1378 38.2491 41.0527 38.2278C40.9777 38.2099 40.9037 38.1908 40.8264 38.1774L40.141 38.062C39.8901 38.0183 39.6392 37.9746 39.3894 37.95C39.2393 37.9388 39.1038 37.9545 38.994 37.969C38.9481 37.9758 38.9022 37.9836 38.8552 37.9836C38.695 37.9814 38.6479 37.969 38.5595 37.9399C38.4945 37.9198 38.4295 37.8996 38.3444 37.8817C38.1137 37.8346 37.8953 37.866 37.7183 37.8895C37.6433 37.8996 37.5671 37.9119 37.492 37.913C37.3924 37.9097 37.2815 37.9063 37.1751 37.8996C37.0261 37.8895 36.8749 37.8806 36.7226 37.8862L36.6016 37.8884C36.4291 37.8906 36.2163 37.8918 36.0237 37.9478C35.9172 37.9802 35.7649 37.9511 35.5868 37.9198C35.4278 37.8906 35.2699 37.8649 35.1153 37.8626C34.9798 37.8638 34.8655 37.8682 34.7557 37.875C34.6729 37.8806 34.5933 37.8839 34.4746 37.8862H34.2069C33.9403 37.8873 33.6738 37.8873 33.4094 37.8996C33.3086 37.9041 33.2101 37.9254 33.0835 37.9556C32.9737 37.9802 32.8651 38.0127 32.7565 38.0452C32.6836 38.0687 32.6108 38.0911 32.5448 38.1068C32.6904 37.9601 32.8326 37.8122 32.9726 37.661C33.0801 37.5479 33.1798 37.4247 33.2773 37.3015L33.3658 37.1906C33.4923 37.0316 33.6155 36.868 33.7376 36.7045C34.0109 36.3416 34.2696 35.9989 34.5653 35.7043C35.0178 35.2496 35.4367 34.7657 35.8545 34.2796C35.9867 34.3468 36.1256 34.4062 36.3137 34.4566C36.3608 34.47 36.4202 34.4823 36.484 34.4958C36.5322 34.5047 36.5848 34.5103 36.568 34.4902C36.9768 34.8385 37.3576 34.8687 37.6354 34.8911C37.7933 34.9023 37.8796 34.9113 38.0129 34.9886C38.2033 35.1017 38.4911 35.2697 38.8014 35.2249C38.8686 35.216 38.9392 35.198 39.0635 35.1622C39.1934 35.2048 39.3144 35.2171 39.4152 35.2283C39.4779 35.2339 39.5429 35.2417 39.5865 35.2574C39.8576 35.3481 40.1141 35.347 40.3392 35.3369C40.5061 35.3336 40.6517 35.3302 40.7536 35.3638C40.9698 35.4433 41.1703 35.4545 41.3473 35.4646C41.4145 35.4691 41.4817 35.4724 41.5657 35.4848C41.9891 35.5273 42.3531 35.459 42.7989 35.3716C42.8448 35.3672 42.9333 35.3772 43.0173 35.3884C43.0946 35.3996 43.1718 35.4097 43.2469 35.4142C43.4115 35.4243 43.5762 35.431 43.8002 35.4377C44.1273 35.4534 44.4554 35.4691 44.7724 35.4467C44.9516 35.4377 45.1028 35.3772 45.2137 35.3324C45.2518 35.3168 45.2899 35.3 45.3291 35.291C45.4915 35.2574 45.5452 35.2641 45.6438 35.2776C45.7132 35.2865 45.7827 35.2944 45.8678 35.2966C46.1434 35.2854 46.3763 35.1958 46.56 35.1107C46.6261 35.0793 46.6911 35.0457 46.7672 35.0233C46.8647 34.9942 46.9632 34.9718 47.0629 34.9494C47.2287 34.9124 47.3933 34.8732 47.5647 34.8094L47.6834 34.7657C47.8537 34.7052 48.0665 34.6302 48.2446 34.4879C48.3185 34.4263 48.4663 34.4073 48.6388 34.3838C48.7956 34.3625 48.9748 34.3389 49.1429 34.2762C49.2941 34.2247 49.4027 34.1709 49.5136 34.1149C49.5842 34.0791 49.6558 34.0433 49.7611 34.0041L50.0389 33.8965C50.2898 33.798 50.5429 33.7005 50.7815 33.5885C50.8857 33.5415 50.9663 33.4821 51.0817 33.3981C51.1713 33.332 51.2564 33.257 51.3404 33.1819C51.4569 33.0789 51.5655 32.9826 51.6619 32.9445C51.9822 32.8202 52.2465 32.6443 52.503 32.4741L52.7584 32.3072C53.0261 32.1392 53.2848 31.9331 53.5962 31.6363C53.7127 31.5254 53.8426 31.429 53.9725 31.3305C54.1596 31.1894 54.3466 31.046 54.5034 30.8847C54.6703 30.7189 54.8596 30.2586 54.6782 29.8923L54.6804 29.8946Z" fill="#FFC19A"/>
  </g>
</svg>