<svg xmlns="http://www.w3.org/2000/svg" width="67" height="67" viewBox="0 0 67 67" fill="none">
  <mask id="mask0_718_1398" style="mask-type:luminance" maskUnits="userSpaceOnUse" x="0" y="0" width="67" height="67">
    <path d="M0 0H66.3465V66.3465H0V0Z" fill="white"/>
  </mask>
  <g mask="url(#mask0_718_1398)">
    <mask id="mask1_718_1398" style="mask-type:luminance" maskUnits="userSpaceOnUse" x="0" y="0" width="67" height="67">
      <path d="M33.1738 0C14.8519 0 0 14.8519 0 33.1738C0 51.4945 14.8519 66.3465 33.1738 66.3465C51.4945 66.3465 66.3465 51.4945 66.3465 33.1738C66.3465 14.8519 51.4945 0 33.1738 0Z" fill="white"/>
    </mask>
    <g mask="url(#mask1_718_1398)">
      <mask id="mask2_718_1398" style="mask-type:luminance" maskUnits="userSpaceOnUse" x="-1" y="-1" width="68" height="68">
        <path d="M66.3514 -0.285645H-0.170898V66.5234H66.3514V-0.285645Z" fill="white"/>
      </mask>
      <g mask="url(#mask2_718_1398)">
        <mask id="mask3_718_1398" style="mask-type:luminance" maskUnits="userSpaceOnUse" x="0" y="0" width="67" height="67">
          <path d="M0 0H66.3465V66.3465H0V0Z" fill="white"/>
        </mask>
        <g mask="url(#mask3_718_1398)">
          <mask id="mask4_718_1398" style="mask-type:luminance" maskUnits="userSpaceOnUse" x="0" y="0" width="67" height="67">
            <path d="M33.1738 0C14.8519 0 0 14.8519 0 33.1738C0 51.4945 14.8519 66.3465 33.1738 66.3465C51.4945 66.3465 66.3465 51.4945 66.3465 33.1738C66.3465 14.8519 51.4945 0 33.1738 0Z" fill="white"/>
          </mask>
          <g mask="url(#mask4_718_1398)">
            <path d="M0 0H66.3465V66.3465H0V0Z" fill="#F4F3EF"/>
          </g>
        </g>
      </g>
    </g>
  </g>
  <mask id="mask5_718_1398" style="mask-type:luminance" maskUnits="userSpaceOnUse" x="17" y="12" width="34" height="44">
    <path d="M17.3198 12.8169H50.581V55.3409H17.3198V12.8169Z" fill="white"/>
  </mask>
  <g mask="url(#mask5_718_1398)">
    <path d="M47.4192 29.5045C44.3771 25.3715 39.198 22.8783 38.7757 22.6005C38.5651 21.775 38.8463 14.2572 38.6133 13.5281C38.5831 13.4284 38.5383 13.3354 38.4755 13.2514C38.4139 13.1663 38.34 13.0957 38.2526 13.0375C38.1664 12.9781 38.0723 12.9367 37.9704 12.9109C37.8696 12.8852 37.7665 12.8773 37.6624 12.8885C37.2368 12.8885 28.2203 13.3321 28.0422 13.8506C28.0142 13.91 28.0221 13.966 28.0646 14.0164C27.9705 14.2359 27.9403 14.4644 27.9761 14.7008C28.1128 18.3421 27.9761 18.0016 28.0982 19.6223C28.1419 20.1286 28.1789 20.4915 28.1946 20.8543C28.1946 20.898 28.1946 21.3606 28.1946 21.4793C26.044 23.5178 24.5308 22.7629 21.36 26.5857C20.9332 27.0886 20.5401 27.6161 20.1806 28.1683C18.6293 30.8441 17.5417 35.6839 17.4275 38.3552C17.2751 41.8072 17.4051 42.6831 17.9337 44.707C18.2485 46.0623 18.6763 47.3806 19.2184 48.6631C19.7135 49.7943 19.5029 49.2477 19.9577 49.9803C21.5638 51.4968 21.7856 52.5217 23.4287 53.4211C25.9959 54.764 27.3948 54.6162 31.0395 55.249C31.2837 55.2927 35.1098 55.1112 35.1467 55.1112C41.5546 53.9643 41.6655 54.605 44.2337 53.3505C44.4443 53.2508 44.7803 53.0694 44.973 52.9809C44.973 52.9809 44.973 52.9473 44.973 52.9327C45.9821 52.1285 46.8715 51.2101 47.6432 50.1763C48.4138 49.1425 49.041 48.0269 49.5238 46.8307C50.216 45.0587 50.5229 42.1399 50.4904 40.2235C50.394 36.6718 49.5282 32.364 47.4192 29.5045Z" fill="#FFC19A"/>
  </g>
  <path d="M49.3727 33.4414C49.1375 33.0774 48.8765 32.7347 48.5887 32.4121C47.985 31.758 47.7072 31.1319 47.2491 31.0916C47.0228 31.0905 46.8067 31.1375 46.6028 31.2349C46.3978 31.3324 46.2254 31.4702 46.0831 31.6471C45.3573 32.4928 44.7054 33.3933 44.1297 34.3476C43.768 34.0183 43.386 33.7147 42.9828 33.437C42.3175 33.0304 41.7294 32.5308 41.2221 31.9395C40.9521 31.6393 40.6374 31.3066 40.2118 31.3245C39.0615 31.3581 37.2963 34.3509 36.9255 34.8583C33.3929 33.1346 33.814 30.489 31.7688 31.758C30.5659 32.4972 29.1378 34.5951 28.4389 35.0879C28.0681 34.9401 26.8775 33.7517 26.5885 33.4784L26.6546 33.5479L26.5482 33.437C25.2635 32.1131 25.3643 31.4321 24.6531 31.8431C23.458 32.5387 21.6939 35.1731 20.9793 35.7208C20.8572 35.5796 20.8908 35.7756 20.2726 34.8617C18.5555 32.2721 18.8926 32.9856 18.5185 32.4972C18.4413 32.4009 18.271 32.4972 18.327 32.6048C18.3819 32.7123 18.4558 32.7717 18.6966 33.0786C20.2065 35.1137 20.4506 37.3773 21.6894 36.2237C23.1365 34.865 23.691 33.6968 24.96 32.6417C25.4226 33.3003 27.8464 36.1643 28.6304 35.9717C29.6373 35.7129 31.5907 32.5308 32.7007 32.1131C33.441 32.4312 33.8107 34.1 36.6634 35.676C37.1439 35.9425 37.4038 35.779 37.7141 35.3388C37.7398 35.3019 39.6193 32.4278 40.2779 32.15C40.6004 32.2945 40.8883 32.9307 42.3432 34.0004C45.0034 35.9201 43.8632 36.2203 46.7014 32.3057C46.8638 32.0795 46.9377 31.9652 47.1673 31.8756C47.4451 32.0873 47.4115 32.1791 48.2258 32.9856C48.9661 33.7595 49.1465 34.4663 49.5318 34.1661C49.6281 34.0888 49.5575 33.708 49.3727 33.4414Z" fill="#F4F3EF"/>
  <path d="M50.1985 37.3672C49.5848 36.5082 48.9284 35.6827 48.2295 34.8919C48.0951 34.7575 47.9349 34.6735 47.749 34.6365C47.5183 34.6343 47.2976 34.6825 47.0893 34.7788C46.8798 34.8762 46.7006 35.014 46.5539 35.191C45.8046 36.0377 45.1325 36.9416 44.5367 37.9037C44.1659 37.57 43.7728 37.2653 43.3573 36.9898C41.6111 35.8059 41.8441 35.7163 41.2594 35.2022C41.144 35.0779 41.0051 34.9882 40.845 34.9334C40.6837 34.8796 40.5202 34.8662 40.3521 34.8953C39.1839 35.1473 37.4624 37.9553 37.1185 38.41C33.8144 36.8453 33.7886 34.4405 32.2866 35.0801C30.7846 35.7208 29.2457 38.0471 28.3866 38.643C28.0539 38.5142 26.6852 37.2295 26.4668 37.0043C25.386 35.8944 25.2751 35.2167 24.7755 35.3019C23.7552 35.4867 21.5677 38.6318 20.7355 39.287C20.0881 38.8244 19.4004 37.2631 18.2087 36.1049L18.2311 36.1273L18.1571 36.0534C18.0787 35.9571 17.9051 36.0534 17.9611 36.1609C18.0093 36.2405 18.0642 36.3144 18.1269 36.3827C19.9067 38.6027 20.1071 40.9593 21.4087 39.7832C23.0596 38.2734 23.2299 37.5039 24.7688 36.1979C25.1396 36.7109 25.5506 37.1914 26.0009 37.6372C27.8501 39.4651 28.3429 39.8896 29.1191 39.2053C30.3781 38.0953 31.7613 36.0534 32.7526 35.6614C33.4302 35.9459 33.8625 37.3997 35.9974 38.7281C37.8074 39.875 37.3818 39.4685 39.0574 37.2821C39.3161 36.945 40.2379 35.8574 40.556 35.6984C40.6546 35.7499 40.7419 35.8171 40.8192 35.8977C42.6359 37.7111 42.3615 37.2037 43.4603 38.1177C45.137 39.5021 44.7069 39.2053 46.8944 36.2237C47.3783 35.5505 47.4343 35.4833 47.6336 35.4206C47.8263 35.5763 47.7008 35.443 48.178 35.9907C48.5386 36.3413 48.8769 36.7109 49.195 37.1007C49.3428 37.2922 49.4806 37.496 49.6464 37.6741C49.6676 37.71 49.6934 37.7413 49.727 37.7671C49.7595 37.794 49.7953 37.8119 49.8357 37.8231C49.876 37.8354 49.9174 37.8388 49.9589 37.8332C50.0003 37.8287 50.0395 37.8164 50.0753 37.7962C50.1123 37.7749 50.1437 37.7492 50.1694 37.7156C50.1952 37.6831 50.2142 37.6473 50.2254 37.6069C50.2366 37.5666 50.24 37.5252 50.2355 37.4837C50.231 37.4423 50.2187 37.4031 50.1985 37.3672Z" fill="#F4F3EF"/>
</svg>