<svg xmlns="http://www.w3.org/2000/svg" width="67" height="67" viewBox="0 0 67 67" fill="none">
  <mask id="mask0_1_7514" style="mask-type:luminance" maskUnits="userSpaceOnUse" x="0" y="0" width="67" height="67">
    <path d="M0 0H66.3465V66.3465H0V0Z" fill="white"/>
  </mask>
  <g mask="url(#mask0_1_7514)">
    <mask id="mask1_1_7514" style="mask-type:luminance" maskUnits="userSpaceOnUse" x="0" y="0" width="67" height="67">
      <path d="M33.1738 0C14.8519 0 0 14.8519 0 33.1727C0 51.4945 14.8519 66.3465 33.1738 66.3465C51.4945 66.3465 66.3465 51.4945 66.3465 33.1727C66.3465 14.8519 51.4945 0 33.1738 0Z" fill="white"/>
    </mask>
    <g mask="url(#mask1_1_7514)">
      <mask id="mask2_1_7514" style="mask-type:luminance" maskUnits="userSpaceOnUse" x="-1" y="-1" width="68" height="68">
        <path d="M66.3519 -0.00756836H-0.17041V66.5148H66.3519V-0.00756836Z" fill="white"/>
      </mask>
      <g mask="url(#mask2_1_7514)">
        <mask id="mask3_1_7514" style="mask-type:luminance" maskUnits="userSpaceOnUse" x="0" y="0" width="67" height="67">
          <path d="M0 0H66.3465V66.3465H0V0Z" fill="white"/>
        </mask>
        <g mask="url(#mask3_1_7514)">
          <mask id="mask4_1_7514" style="mask-type:luminance" maskUnits="userSpaceOnUse" x="0" y="0" width="67" height="67">
            <path d="M33.1738 0C14.8519 0 0 14.8519 0 33.1727C0 51.4945 14.8519 66.3465 33.1738 66.3465C51.4945 66.3465 66.3465 51.4945 66.3465 33.1727C66.3465 14.8519 51.4945 0 33.1738 0Z" fill="white"/>
          </mask>
          <g mask="url(#mask4_1_7514)">
            <path d="M0 0H66.3465V66.3465H0V0Z" fill="#F4F3EF"/>
          </g>
        </g>
      </g>
    </g>
  </g>
  <mask id="mask5_1_7514" style="mask-type:luminance" maskUnits="userSpaceOnUse" x="14" y="34" width="16" height="19">
    <path d="M14.1853 34.6868H29.0764V52.8709H14.1853V34.6868Z" fill="white"/>
  </mask>
  <g mask="url(#mask5_1_7514)">
    <path fill-rule="evenodd" clip-rule="evenodd" d="M20.156 40.2211C19.9499 40.7666 19.6554 41.2538 19.2118 41.6335C18.9923 41.8228 18.7795 41.9841 18.5476 42.1039C18.1489 42.1476 17.7535 42.2036 17.3604 42.2742C16.6144 42.4086 15.8696 42.4971 15.1538 42.804C14.9724 42.8812 14.6375 42.9865 14.4471 43.1848C14.2802 43.3584 14.1816 43.5835 14.1816 43.8658C14.1816 44.0495 14.2477 44.2612 14.4348 44.4236C14.6207 44.5837 15.0878 44.7193 15.1807 44.7517C15.9614 45.0228 16.7667 45.2098 17.5788 45.3129C17.8857 45.3532 18.1937 45.3846 18.5028 45.4092C19.1984 46.0577 19.7976 46.8955 20.1247 47.8733C20.1829 48.0492 20.2445 48.2228 20.305 48.3964C20.324 48.5767 20.3442 48.7559 20.3655 48.9363C20.4764 49.8413 20.5492 50.7474 20.8012 51.6166C20.865 51.8372 20.9524 52.2449 21.1148 52.4756C21.2581 52.6784 21.4441 52.7982 21.6759 52.7982C21.8271 52.7982 22.0019 52.7187 22.134 52.4902C22.2662 52.2651 22.3782 51.6983 22.4051 51.5841C22.5955 50.7743 22.7355 49.9432 22.8251 49.1032C22.8856 48.9004 22.945 48.6966 23.0122 48.4961C23.3639 47.4376 23.8264 46.4251 24.5074 45.6276C24.5758 45.547 24.6486 45.4719 24.7225 45.3991C25.1783 45.3846 25.6308 45.3566 26.0811 45.2927C26.7005 45.2042 27.312 45.0766 27.9314 44.969C28.105 44.9388 28.4422 44.8469 28.646 44.6722C28.8219 44.521 28.9272 44.3172 28.9518 44.0831C28.9865 43.7437 28.8812 43.457 28.6718 43.2262C28.4142 42.9451 27.9236 42.7748 27.6749 42.664C27.3714 42.5296 27.0432 42.5161 26.7307 42.4411C25.6857 42.1868 24.5634 41.8878 23.4848 42.0513C23.4523 42.0569 23.4187 42.0614 23.3863 42.0647C23.1746 41.5999 23.0413 41.1138 22.9461 40.6154C22.9394 39.8526 22.9226 39.091 22.8497 38.3394C22.7769 37.5867 22.6717 36.843 22.5832 36.0904C22.5585 35.8798 22.4835 35.4698 22.3401 35.2223C22.2147 35.0084 22.0478 34.8807 21.854 34.8516C21.5751 34.809 21.3388 34.9367 21.1495 35.1921C20.9177 35.5034 20.7776 36.1004 20.6869 36.4017C20.576 36.7713 20.5648 37.1701 20.5021 37.5509C20.361 38.4122 20.2019 39.3184 20.156 40.2211Z" fill="#FFC19A"/>
  </g>
  <mask id="mask6_1_7514" style="mask-type:luminance" maskUnits="userSpaceOnUse" x="27" y="13" width="26" height="31">
    <path d="M27.3567 13.5171H52.465V43.8627H27.3567V13.5171Z" fill="white"/>
  </mask>
  <g mask="url(#mask6_1_7514)">
    <path fill-rule="evenodd" clip-rule="evenodd" d="M42.4869 34.7507C42.8341 33.83 43.3326 33.0079 44.0796 32.3672C44.4504 32.0491 44.8088 31.777 45.1997 31.5754C45.8728 31.5014 46.5404 31.4062 47.2023 31.2875C48.4602 31.0601 49.7169 30.9123 50.9243 30.3948C51.2312 30.2626 51.7957 30.0857 52.116 29.7519C52.3983 29.4585 52.5641 29.0788 52.5641 28.6038C52.5641 28.2925 52.4532 27.9352 52.1373 27.6619C51.8237 27.3919 51.0374 27.1635 50.8795 27.1086C49.5612 26.6516 48.2048 26.3369 46.835 26.161C46.3164 26.0949 45.7967 26.0412 45.277 25.9997C44.1032 24.9065 43.0917 23.493 42.5407 21.8432C42.4421 21.5486 42.3391 21.2552 42.236 20.9617C42.2047 20.6571 42.1699 20.3535 42.133 20.0511C41.9471 18.5245 41.825 16.9967 41.3993 15.5294C41.2907 15.1576 41.144 14.471 40.8696 14.0812C40.6287 13.7385 40.3162 13.5369 39.9242 13.5369C39.6689 13.5369 39.3754 13.6713 39.1503 14.0555C38.9274 14.4363 38.7403 15.3928 38.6944 15.5843C38.373 16.9508 38.1377 18.3531 37.9854 19.7689C37.8835 20.1116 37.7827 20.4554 37.6696 20.7926C37.0759 22.578 36.2964 24.286 35.1483 25.6312C35.0329 25.7667 34.9109 25.8933 34.7854 26.0176C34.0182 26.0412 33.2521 26.0882 32.4938 26.1968C31.4499 26.3458 30.4172 26.562 29.3733 26.7423C29.081 26.7938 28.5109 26.9484 28.1681 27.2419C27.8702 27.4972 27.6932 27.8411 27.6529 28.2365C27.5935 28.8088 27.7705 29.2938 28.1244 29.6813C28.5579 30.1562 29.3868 30.4441 29.8045 30.6289C30.3175 30.8563 30.8708 30.8787 31.3984 31.0075C33.1613 31.4353 35.0542 31.9394 36.8732 31.6638C36.9281 31.6549 36.9841 31.647 37.039 31.6403C37.3963 32.4255 37.6225 33.2442 37.7816 34.0854C37.7939 35.3712 37.8208 36.6559 37.944 37.9238C38.0672 39.1929 38.2441 40.4473 38.3931 41.7163C38.4357 42.0714 38.5622 42.7636 38.8042 43.1802C39.0147 43.542 39.297 43.7582 39.6229 43.8075C40.0934 43.8792 40.4932 43.663 40.8113 43.2329C41.2022 42.7065 41.4397 41.7007 41.592 41.1921C41.779 40.5683 41.797 39.8962 41.9034 39.2556C42.1419 37.8006 42.4108 36.274 42.4869 34.7507Z" fill="#FFC19A"/>
  </g>
</svg>
