<svg preserveAspectRatio="none" width="100%" height="100%" overflow="visible" style="display: block;" viewBox="0 0 10.5229 10.7539" fill="none" xmlns="http://www.w3.org/2000/svg">
<path id="Vector" d="M8.60762 1.16347C8.74091 1.27324 8.8686 1.3886 8.98956 1.51181C9.11165 1.6339 9.22701 1.76158 9.33566 1.89599C9.44431 2.0304 9.54735 2.1704 9.64256 2.31489C9.73776 2.45938 9.82624 2.60834 9.90689 2.76291C9.98753 2.91636 10.0615 3.07429 10.1264 3.23558C10.1925 3.39686 10.2496 3.56151 10.2989 3.72952C10.3493 3.89753 10.3908 4.06666 10.4232 4.23915C10.4568 4.41163 10.4815 4.58524 10.4983 4.75997C10.5151 4.9347 10.5229 5.11055 10.5229 5.2864C10.5218 5.46225 10.5128 5.63809 10.496 5.81394C10.4792 5.98867 10.4535 6.1634 10.4188 6.33701C10.3852 6.5095 10.3426 6.68087 10.2922 6.85111C10.2418 7.02024 10.1835 7.18713 10.1175 7.35066C10.0514 7.51419 9.97745 7.67435 9.89569 7.83116C9.81392 7.98797 9.72544 8.1403 9.62911 8.28814C9.53391 8.43599 9.43087 8.57936 9.3211 8.71713C9.21133 8.85489 9.09597 8.98706 8.97388 9.11475C8.85068 9.24131 8.72299 9.36116 8.5897 9.4754C8.45642 9.58965 8.31865 9.69605 8.17416 9.79686C8.0308 9.89654 7.88295 9.98951 7.73062 10.0758C7.57941 10.1609 7.42373 10.2393 7.26356 10.3087C7.10451 10.3793 6.9421 10.4409 6.77745 10.4947C6.61281 10.5495 6.44592 10.5943 6.27679 10.6324C6.10766 10.6694 5.93741 10.6985 5.76492 10.7187C5.59356 10.7388 5.42219 10.75 5.2497 10.7534C5.07721 10.7556 4.90584 10.75 4.73447 10.7366C4.5631 10.722 4.39286 10.6985 4.22373 10.6671C4.0546 10.6358 3.88771 10.5966 3.72306 10.5484C3.55842 10.4991 3.39601 10.4431 3.23696 10.3782C3.07791 10.3143 2.92222 10.2415 2.77102 10.1609C2.61869 10.0802 2.47196 9.99287 2.32859 9.89766C2.18523 9.80246 2.04746 9.69941 1.91417 9.59077C1.78201 9.481 1.65432 9.36564 1.53336 9.24243C1.41127 9.12035 1.2959 8.99154 1.18726 8.85825C1.07749 8.72385 0.975568 8.58384 0.880363 8.43935C0.785159 8.29487 0.696674 8.14478 0.61603 7.99133C0.535386 7.83788 0.461463 7.67995 0.3965 7.51867C0.330416 7.35626 0.273294 7.19273 0.222891 7.02472C0.173609 6.85671 0.132166 6.68759 0.0985649 6.5151C0.0660833 6.34261 0.0403221 6.169 0.0246412 5.99427C0.00784031 5.81954 0 5.64369 0 5.46785C0 5.292 0.00896044 5.11615 0.0268813 4.9403C0.0436819 4.76445 0.0694433 4.59084 0.103045 4.41723C0.137767 4.24363 0.179209 4.07226 0.229611 3.90313C0.280014 3.734 0.338257 3.56711 0.40546 3.40358C0.471543 3.24006 0.545467 3.07989 0.627231 2.92308C0.707875 2.76627 0.797479 2.61394 0.892684 2.4661C0.989009 2.31825 1.09205 2.17488 1.20182 2.03712C1.31158 1.89823 1.42695 1.76606 1.54904 1.6395C1.67112 1.51293 1.79881 1.39308 1.9321 1.27884C2.0665 1.16459 2.20427 1.05819 2.34764 0.957383C2.491 0.857698 2.63885 0.764734 2.79118 0.67849C2.94351 0.593365 3.09919 0.514961 3.25824 0.445518C3.41841 0.374955 3.5797 0.313352 3.74546 0.258469C3.91011 0.204706 4.077 0.158784 4.24613 0.121822C4.41526 0.0848601 4.58551 0.0557391 4.75687 0.0355779C4.92824 0.0154171 5.10073 0.00421645 5.27322 0.000856209C5.44571 -0.00250374 5.61708 0.00421637 5.78845 0.017657C5.95981 0.032218 6.13006 0.0546186 6.29919 0.0871005C6.46832 0.118462 6.63521 0.157664 6.79986 0.205826C6.9645 0.253989 7.12691 0.311112 7.28596 0.374955C7.44501 0.439918 7.59957 0.512721 7.7519 0.593365C7.90311 0.672889 8.05096 0.761373 8.19432 0.856578C8.33657 0.951783 8.47546 1.05483 8.60762 1.16347Z" fill="var(--fill-0, #FFC19A)"/>
</svg>
