<svg preserveAspectRatio="none" width="100%" height="100%" overflow="visible" style="display: block;" viewBox="0 0 40.5673 39.6996" fill="none" xmlns="http://www.w3.org/2000/svg">
<g id="Group">
<path id="Vector" d="M40.4956 17.7387C40.4934 17.6927 40.4878 17.6491 40.4811 17.6076L40.4015 17.3455L40.275 17.2503C40.1439 17.1529 40.0017 17.0868 39.7541 17.0319C39.5447 16.9849 39.38 16.9501 39.1292 16.9445C39.0799 16.9445 39.0272 16.9479 38.9656 16.9513C38.9231 16.9546 38.8771 16.9613 38.9141 16.9837C38.4616 16.7385 38.0998 16.7855 37.8321 16.8169C37.6832 16.837 37.6025 16.8449 37.4558 16.7911C37.2598 16.7161 36.9652 16.6007 36.6718 16.6948C36.6079 16.7138 36.5452 16.7429 36.4365 16.7945C36.31 16.7732 36.1957 16.7765 36.1028 16.7799C36.0423 16.7799 35.9796 16.7844 35.9482 16.7754C35.6771 16.7194 35.433 16.753 35.2179 16.7844C35.0589 16.8068 34.9211 16.8292 34.8192 16.8012C34.5985 16.7474 34.3958 16.7519 34.118 16.7586C33.6498 16.7609 33.2119 16.8594 32.8434 16.9569C32.8031 16.9658 32.7112 16.9591 32.6306 16.9513C32.5623 16.9457 32.4939 16.9389 32.4088 16.9378L31.8253 16.9434C31.5285 16.9434 31.2305 16.9445 30.9247 16.9748C30.7635 16.9949 30.6313 17.0521 30.526 17.098C30.4857 17.1159 30.4465 17.135 30.405 17.145C30.2617 17.1809 30.2158 17.1753 30.1239 17.1641C30.0533 17.1551 29.9817 17.1473 29.8999 17.1473H29.8988C29.6456 17.1473 29.4037 17.2514 29.2279 17.3377C29.1651 17.369 29.1035 17.4015 29.0386 17.4206C28.9445 17.4486 28.8482 17.4699 28.7518 17.4911C28.5917 17.527 28.4326 17.5639 28.1952 17.6468C28.0137 17.7051 27.7886 17.7779 27.6071 17.9168C27.5355 17.9716 27.382 17.9851 27.2196 17.9963C27.055 18.0097 26.8937 18.0265 26.7369 18.0702C26.6047 18.1094 26.505 18.1475 26.4064 18.1878C26.328 18.218 26.2508 18.2494 26.1399 18.2808C25.9909 18.3267 25.8408 18.3681 25.6919 18.4096C25.5059 18.4611 25.32 18.5126 25.143 18.5686C25.0321 18.6011 24.9425 18.6526 24.835 18.7131C24.7432 18.7646 24.6536 18.8229 24.5651 18.8822C24.4452 18.9629 24.3321 19.039 24.2414 19.0558C24.1966 19.0648 24.1529 19.0749 24.1103 19.0861L24.3052 18.8408C24.6211 18.4477 24.9369 18.0534 25.2382 17.6468C25.3502 17.63 25.4589 17.5975 25.5619 17.5471L25.665 17.4967C25.8554 17.4038 26.0088 17.3276 26.2071 17.1786C26.2452 17.1495 26.2911 17.1103 26.3392 17.0666C26.3762 17.033 26.4154 16.9938 26.3952 16.9927C26.8982 16.8661 27.1502 16.5917 27.3339 16.3901C27.4391 16.2748 27.5019 16.2087 27.6475 16.1437C27.8435 16.0608 28.1392 15.9354 28.2904 15.6744C28.3262 15.615 28.3553 15.549 28.4024 15.4325C28.5166 15.3518 28.6006 15.2611 28.6712 15.1861C28.7126 15.1401 28.7563 15.0931 28.7832 15.0763C29.0263 14.9184 29.1819 14.7112 29.3197 14.5275C29.4183 14.3953 29.5034 14.2811 29.5885 14.2228C29.77 14.1052 29.9033 13.963 30.0209 13.8375C30.0668 13.7871 30.1138 13.7367 30.1766 13.6773C30.4319 13.4175 30.5831 13.1408 30.7299 12.8698L30.8441 12.6637C30.8687 12.6223 30.9326 12.5629 30.9931 12.5058C31.0524 12.4509 31.1107 12.3949 31.1667 12.3333L31.4657 11.9939C31.6987 11.7497 31.9429 11.4876 32.1501 11.1919C32.2464 11.0598 32.2946 10.922 32.3338 10.8111C32.3495 10.7697 32.3618 10.7271 32.3775 10.6969C32.4626 10.5502 32.5063 10.5087 32.578 10.4437C32.6272 10.3967 32.6765 10.3508 32.7404 10.2813C32.9106 10.0797 32.9801 9.85124 33.0349 9.66755C33.0562 9.59698 33.0764 9.52418 33.1111 9.45138C33.1514 9.36289 33.1973 9.27553 33.2433 9.18928C33.3239 9.0392 33.4023 8.88687 33.4673 8.72334L33.5154 8.60462C33.586 8.43997 33.6745 8.23612 33.689 7.99867C33.6913 7.90234 33.7775 7.77801 33.8783 7.63353C33.9724 7.498 34.0643 7.36135 34.1247 7.22695C34.1964 7.07126 34.2323 6.94693 34.267 6.81813C34.286 6.74756 34.3051 6.677 34.3454 6.57508C34.3913 6.45075 34.4428 6.32866 34.4944 6.20546C34.5851 5.98929 34.6758 5.77312 34.7374 5.56255C34.7721 5.4539 34.7822 5.35534 34.7979 5.21869C34.808 5.12236 34.8125 5.02156 34.8181 4.92299C34.8259 4.75947 34.8326 4.6049 34.8785 4.49065C34.995 4.17704 35.0555 3.86902 35.1126 3.56997C35.1395 3.43108 35.1664 3.29331 35.2 3.14995C35.2549 2.9125 35.2582 2.67728 35.2616 2.47119C35.2638 2.35583 35.265 2.23934 35.2784 2.11502L35.3131 1.78348C35.3389 1.54939 35.3646 1.31642 35.3702 1.07896C35.3736 0.880715 35.2414 0.525657 34.9782 0.341968C34.9536 0.297166 34.9245 0.259084 34.8965 0.229963C34.6848 -0.0052488 34.3734 -0.000768655 34.2144 0.000351615C33.7596 -0.00860883 33.4695 0.224363 33.2769 0.409172C32.8423 0.506616 32.6071 0.788871 32.4256 1.00616C32.2307 1.23577 31.991 1.43738 31.7379 1.65131C31.3761 1.95709 31.0043 2.2707 30.7108 2.70416C30.5988 2.87441 30.461 3.02226 30.3233 3.17011L30.1071 3.40308C30.0074 3.50052 29.8708 3.63605 29.7946 3.85446C29.7745 3.9127 29.7532 3.94407 29.6445 4.04599L29.0632 4.61274C28.7496 4.91739 28.5189 5.31501 28.3408 5.85376C28.3318 5.87168 28.2937 5.91312 28.2657 5.94336C28.2075 6.00833 28.1336 6.08897 28.0764 6.18866C27.9936 6.32418 27.9476 6.46531 27.9409 6.60644C27.7763 6.72628 27.708 6.81477 27.6385 6.91669C27.6206 6.94357 27.5993 6.97493 27.5623 7.0175C27.4033 7.19671 27.3551 7.39608 27.3204 7.54168C27.3092 7.58761 27.2958 7.64473 27.2868 7.66265C27.2364 7.76121 27.1692 7.84858 27.1031 7.93706C27.0426 8.01771 26.9833 8.09723 26.9351 8.17451C26.8724 8.26748 26.8197 8.36828 26.7682 8.46797C26.7313 8.53965 26.6954 8.61358 26.645 8.68638C26.3045 9.18816 26.0648 9.71347 25.889 10.3474C25.8464 10.5109 25.7803 10.6644 25.7165 10.819C25.6571 10.9601 25.6 11.1012 25.5507 11.2491C25.5014 11.4025 25.4902 11.5526 25.479 11.6848C25.4723 11.7632 25.4611 11.8965 25.4499 11.92C25.2696 12.1193 25.1609 12.3333 25.0669 12.5382C24.9873 12.7107 24.9526 12.9067 24.9627 13.1106C24.9649 13.1957 24.9089 13.4724 24.8384 13.6594C24.6614 14.1097 24.5337 14.4356 24.6278 14.8971C24.6636 15.0785 24.6435 15.1256 24.5606 15.3205C24.5225 15.4112 24.4788 15.5131 24.4363 15.6408L24.387 15.7707C24.3142 15.9533 24.2156 16.2019 24.219 16.4752L24.1092 16.5816C23.7206 16.9244 23.4405 17.331 23.2165 17.6591C23.0799 17.8563 22.95 18.0444 22.8648 18.1172C22.3675 18.5328 22.0371 18.9942 21.6787 19.4938C21.6048 19.598 21.5286 19.701 21.4513 19.8018L21.3606 19.9082C21.3528 19.8735 21.3404 19.8376 21.3225 19.7962C21.3673 19.6596 21.383 19.5274 21.3942 19.421C21.4009 19.3616 21.4054 19.3023 21.4233 19.2407C21.495 18.9998 21.5006 18.7691 21.5051 18.5641C21.5096 18.3928 21.514 18.246 21.5499 18.1296C21.6115 17.9392 21.6305 17.7588 21.6473 17.5964C21.6541 17.5303 21.6608 17.462 21.6731 17.3836C21.7257 17.0106 21.7011 16.6757 21.6765 16.352L21.6675 16.2311C21.6641 16.1728 21.6798 16.0866 21.6955 15.9959C21.7089 15.9253 21.7213 15.8559 21.7291 15.7808L21.7885 15.2398C21.8221 14.9441 21.8545 14.6451 21.8646 14.3527C21.8713 14.1993 21.8422 14.0626 21.8198 13.954C21.8109 13.9103 21.7997 13.8655 21.7963 13.8241C21.7851 13.6516 21.7963 13.59 21.8142 13.4959C21.8254 13.4354 21.8366 13.3727 21.8445 13.2954C21.8702 13.0535 21.8153 12.8351 21.7694 12.6603C21.7515 12.5898 21.7325 12.5181 21.7224 12.4386C21.7078 12.3422 21.7011 12.2448 21.6921 12.1462C21.6787 11.9872 21.6641 11.8281 21.6339 11.6624L21.6115 11.5403C21.5824 11.3756 21.5465 11.1707 21.4636 10.9903C21.4144 10.8884 21.411 10.7271 21.4065 10.558C21.4032 10.3922 21.3964 10.2287 21.3684 10.0853C21.3427 9.93748 21.3113 9.82659 21.28 9.71347C21.2587 9.63955 21.2363 9.5645 21.215 9.45586L21.1601 9.20048C21.1052 8.94063 21.0492 8.68078 20.9775 8.42765C20.9551 8.3414 20.9193 8.2574 20.8633 8.13419C20.8196 8.03563 20.7681 7.9393 20.7166 7.8441C20.6438 7.70745 20.5754 7.57976 20.5486 7.47C20.4713 7.14406 20.3458 6.85509 20.2237 6.5762L20.1185 6.32754C20.0042 6.05201 19.853 5.76752 19.6402 5.43262C19.5607 5.30717 19.4923 5.17389 19.4229 5.04172C19.3154 4.83899 19.2067 4.63738 19.0757 4.45145C18.9782 4.31144 18.5829 3.96199 18.1897 4.08407L17.9142 4.19496L17.8862 4.24984C17.7787 4.33721 17.7025 4.45257 17.6398 4.54666C17.4404 4.79755 17.381 5.07308 17.3418 5.25565C17.3318 5.30269 17.325 5.34525 17.3273 5.34973C17.1122 5.64991 17.0641 5.95344 17.0181 6.23906C16.9733 6.53363 16.8983 6.82261 16.8244 7.11382C16.7056 7.57864 16.5824 8.05915 16.5623 8.57101C16.5488 8.85439 16.5108 9.1344 16.4514 9.51522C16.4279 9.64515 16.3999 9.80643 16.4301 9.99572C16.4447 10.0909 16.4413 10.1604 16.4178 10.2959L16.2744 11.099C16.1915 11.566 16.2498 12.0275 16.3259 12.4565C16.3304 12.4867 16.3226 12.5606 16.3159 12.62C16.3058 12.7085 16.2979 12.7981 16.2991 12.8888C16.3024 13.0501 16.3338 13.189 16.3954 13.3122C16.392 13.3133 16.3887 13.3189 16.3853 13.3312C16.3327 13.5172 16.3282 13.6202 16.3271 13.7345C16.3271 13.7703 16.3259 13.8129 16.3203 13.879C16.3002 14.0828 16.345 14.2553 16.382 14.3953C16.3943 14.4446 16.41 14.4939 16.4156 14.5487C16.4301 14.6574 16.4245 14.7672 16.4223 14.8769C16.42 14.9777 16.4178 15.0797 16.4212 15.1737C16.4256 15.2925 16.4368 15.4112 16.4503 15.5288C16.4592 15.6083 16.4682 15.689 16.4716 15.7562C16.4872 16.3207 16.5824 16.8605 16.7874 17.5158C16.8389 17.6681 16.877 17.8249 16.9162 17.9806C16.9565 18.1408 16.9969 18.2998 17.0439 18.451C17.0842 18.5843 17.1526 18.7198 17.2242 18.852C17.2769 18.9517 17.3418 19.0738 17.3441 19.1421C17.3586 19.3896 17.4034 19.6383 17.4774 19.8791C17.5255 20.037 17.6062 20.158 17.6801 20.2621C17.7451 20.3506 17.8873 20.6351 17.9366 20.7908C18.1035 21.259 18.2222 21.5614 18.528 21.8694C18.6825 22.0251 18.7161 22.108 18.7968 22.3074C18.8315 22.3914 18.8696 22.4855 18.9547 22.6714C18.6613 22.9996 18.3723 23.3289 18.1012 23.6682C17.5659 24.3279 17.0988 24.8465 16.6284 25.299C16.3506 25.5679 16.084 25.8669 15.8365 26.1906C15.6685 26.409 15.4971 26.5781 15.2798 26.782C15.0905 26.9556 14.9192 27.1079 14.7232 27.2782L14.638 27.351C14.6279 27.2927 14.61 27.2289 14.5787 27.1292C14.6223 26.9982 14.6335 26.8772 14.6436 26.7753C14.6481 26.7226 14.6537 26.6621 14.6627 26.6375C14.7568 26.3732 14.7556 26.1245 14.7545 25.905C14.7545 25.7426 14.7534 25.6026 14.7904 25.5029C14.8699 25.2923 14.8934 25.0896 14.9147 24.9126C14.9236 24.8286 14.9337 24.7446 14.9505 24.6628C15.0435 24.2249 14.9707 23.8228 14.8968 23.5204C14.89 23.4913 14.9136 23.3916 14.9304 23.3266C14.946 23.2572 14.9617 23.1889 14.9729 23.1127L15.0816 22.3488C15.1152 22.1192 15.1477 21.8896 15.1645 21.6443C15.1712 21.4796 15.1342 21.3396 15.104 21.2265C15.0939 21.1851 15.0793 21.1436 15.0771 21.1033C15.0648 20.9655 15.0771 20.9252 15.104 20.8401C15.1275 20.7684 15.1488 20.6956 15.1656 20.5914C15.2025 20.3327 15.1376 20.1065 15.0849 19.9239C15.0659 19.8533 15.0435 19.785 15.0356 19.7223C15.0256 19.6304 15.0211 19.5386 15.0177 19.4456C15.0088 19.272 14.9987 19.0973 14.9673 18.9259L14.9483 18.8038C14.9236 18.6291 14.8934 18.4107 14.7881 18.208C14.7444 18.1318 14.759 17.9795 14.7747 17.8171C14.7892 17.6535 14.8016 17.4911 14.7836 17.3198C14.7646 17.1854 14.7411 17.0812 14.7176 16.9781C14.6985 16.8953 14.6795 16.8135 14.6671 16.7116C14.6268 16.3588 14.5843 16.0071 14.5283 15.652C14.5103 15.5411 14.4756 15.4504 14.4319 15.3373C14.3916 15.223 14.3379 15.1133 14.283 15.0035C14.2236 14.8814 14.1654 14.7649 14.1609 14.6899C14.1441 14.3707 14.059 14.0794 13.9839 13.823C13.9414 13.6751 13.8965 13.5284 13.8685 13.3772C13.8226 13.124 13.7196 12.9067 13.6289 12.7152C13.5818 12.6178 13.5348 12.5214 13.5012 12.4251L13.4116 12.1462C13.3399 11.9144 13.266 11.6825 13.1674 11.4496C13.0699 11.23 12.6869 10.875 12.2613 10.9489C11.9902 10.9937 11.671 11.1673 11.6867 11.7777C11.4694 11.9782 11.3697 12.2134 11.3014 12.3792C11.2835 12.4206 11.27 12.4598 11.3036 12.4386C10.9374 12.713 10.8175 13.0882 10.7414 13.3234C10.6349 13.6258 10.4871 13.9137 10.3415 14.2026C10.1108 14.6596 9.87107 15.1323 9.75459 15.6856C9.71314 15.9029 9.64146 16.1112 9.56978 16.3184L9.46001 16.6332C9.40625 16.7642 9.33344 16.9445 9.34465 17.182C9.35025 17.2705 9.33792 17.3265 9.28752 17.4564L9.20576 17.6591C9.12399 17.8619 9.05119 18.0422 8.97279 18.2572C8.81934 18.6448 8.76894 19.1387 8.81934 19.7805C8.81934 19.804 8.8003 19.8735 8.78686 19.9194C8.75886 20.0113 8.73422 20.1042 8.72189 20.2017C8.70061 20.3708 8.71853 20.5276 8.77902 20.6721C8.68045 20.8625 8.65693 20.9779 8.63901 21.0988C8.63341 21.1336 8.62781 21.1728 8.60429 21.2512C8.54157 21.4841 8.58413 21.6891 8.61549 21.8392C8.62669 21.8952 8.63901 21.9534 8.63901 21.9781C8.63677 22.1147 8.61213 22.2502 8.59085 22.3869L8.55165 22.6378C8.53485 22.7688 8.53261 22.8999 8.53037 23.0309C8.52925 23.1138 8.52813 23.1967 8.5214 23.2673C8.44524 23.8945 8.47436 24.4836 8.61549 25.1848C8.65245 25.3517 8.67149 25.5219 8.69165 25.6911C8.71405 25.8691 8.73534 26.0461 8.77006 26.2231C8.8059 26.4001 8.87758 26.5557 8.94255 26.6924C8.98511 26.7854 9.05119 26.9254 9.04447 26.978C9.01983 27.2267 9.03551 27.4887 9.09263 27.7452C9.13295 27.9457 9.2304 28.1417 9.36705 28.3064C9.43761 28.3949 9.58546 28.6749 9.66946 28.8754C9.88675 29.4175 10.0861 29.7613 10.5353 30.0369C10.7335 30.1478 10.7906 30.225 10.915 30.3919C10.9855 30.4849 11.0628 30.5891 11.1782 30.719C11.1099 30.7772 11.0426 30.8355 10.9833 30.8926L10.9127 30.962L7.79449 33.4866C7.79561 33.3657 7.79113 33.2391 7.77209 33.1103C7.74969 32.9546 7.73625 32.8 7.72393 32.6444C7.69928 32.3587 7.67464 32.0619 7.594 31.7528C7.566 31.6486 7.58056 31.4974 7.59512 31.3373C7.6052 31.2364 7.61416 31.1345 7.61752 30.9766C7.62088 30.8993 7.62424 30.803 7.60632 30.6977C7.5716 30.4804 7.52232 30.2676 7.47191 30.0537C7.43943 29.9137 7.40695 29.7737 7.37783 29.6247C7.35655 29.5272 7.34871 29.4488 7.34087 29.3716C7.32855 29.2484 7.31511 29.1274 7.27926 28.9784C7.24454 28.825 7.18182 28.6726 7.11462 28.5214C7.04629 28.3657 6.98133 28.219 6.99925 28.1104C7.03061 27.8953 6.98917 27.6747 6.95557 27.4966L6.93429 27.3745C6.90965 27.2121 6.8682 27.0553 6.82452 26.8974C6.79764 26.7977 6.76964 26.698 6.74948 26.5905C6.73492 26.5177 6.73268 26.4426 6.72932 26.3664C6.72036 26.176 6.70804 25.9375 6.58931 25.6967C6.54899 25.6194 6.50979 25.56 6.47282 25.5018C6.41906 25.42 6.38994 25.3752 6.35074 25.2251C6.34178 25.1826 6.34066 25.1366 6.3373 25.0918C6.32946 24.9753 6.31938 24.8309 6.26449 24.6796C6.15585 24.3795 6.01584 24.0916 5.84111 23.7377L5.64398 23.3076C5.6115 23.237 5.57342 23.1676 5.53534 23.0992C5.4939 23.0253 5.44237 22.9346 5.44013 22.8954C5.41549 22.4362 5.32141 22.0722 5.14556 21.7529C5.10524 21.6801 5.07387 21.6029 5.04139 21.5278C4.97531 21.3688 4.89915 21.1907 4.77258 21.0215C4.70538 20.9275 4.66617 20.7886 4.62025 20.6262C4.55977 20.4122 4.49033 20.1681 4.32904 19.9396C4.31 19.9127 4.28536 19.8522 4.26295 19.7928C4.22823 19.6999 4.18567 19.589 4.10839 19.4692C4.10951 19.4658 4.10951 19.4568 4.11063 19.4367C4.11287 19.3583 4.11287 19.281 4.10391 19.2071C4.06583 18.9069 3.84517 18.6739 3.65028 18.4678C3.5898 18.4017 3.5618 18.3189 3.51364 18.1665C3.43187 17.9078 3.31987 17.555 2.96481 17.2783C2.94129 17.2402 2.92449 17.1887 2.90657 17.145C2.88417 17.0868 2.86289 17.0341 2.84272 16.9927C2.73072 16.7665 2.62767 16.6298 2.43054 16.37C2.33422 16.2423 2.21325 16.1392 2.06877 16.0608L1.92764 15.997L1.65659 16.0227C1.50314 16.0653 1.36985 16.1448 1.34857 16.1683C1.12456 16.2636 0.899429 16.4853 0.828866 16.6735C0.735901 16.9098 0.679898 17.1551 0.627256 17.4015C0.601494 17.518 0.575733 17.6334 0.545492 17.7465C0.51861 17.8428 0.487249 17.9403 0.457007 18.0355C0.378604 18.2774 0.29796 18.5272 0.267718 18.8285C0.258758 18.9797 0.238597 19.1287 0.218436 19.2787C0.176994 19.5924 0.134431 19.9183 0.166913 20.2599C0.175873 20.3854 0.135551 20.5466 0.0929894 20.7169C0.0627478 20.839 0.0325064 20.9622 0.0067451 21.1526L2.47679e-05 21.5749C0.0190656 21.8952 0.0515475 22.2133 0.085149 22.5157C0.0929894 22.6154 0.0952295 22.6971 0.0963495 22.7756C0.0997095 22.9111 0.10307 23.041 0.124351 23.1989C0.145632 23.3961 0.204995 23.5719 0.258758 23.7287C0.317 23.8978 0.367403 24.0468 0.346122 24.1398C0.293479 24.3627 0.324841 24.5912 0.349482 24.776L0.366283 24.9093C0.379723 25.0896 0.421165 25.2654 0.463728 25.4402C0.488369 25.5387 0.51301 25.6373 0.527571 25.7303C0.537651 25.8042 0.537651 25.8803 0.538771 25.9565C0.543252 26.1615 0.548852 26.4169 0.666458 26.6689C0.70678 26.7573 0.748222 26.8234 0.788544 26.8884C0.840066 26.9702 0.871428 27.0194 0.90839 27.1774C0.91847 27.2222 0.91847 27.2681 0.92071 27.3151C0.92743 27.4372 0.936391 27.5895 0.999114 27.762C1.13016 28.0925 1.28025 28.4162 1.4337 28.7219L1.64651 29.1767C1.68011 29.2439 1.71819 29.3088 1.75739 29.3738C1.80219 29.45 1.85932 29.5429 1.86156 29.5844C1.89516 30.0671 2.09229 30.4961 2.28046 30.8534L2.34318 30.9766C2.4283 31.148 2.52463 31.3406 2.6848 31.5176C2.76656 31.6094 2.82592 31.7472 2.89425 31.9074C2.98833 32.1269 3.09474 32.3755 3.31651 32.6119C3.34227 32.6354 3.37699 32.6914 3.41059 32.7452C3.47892 32.8549 3.56404 32.9916 3.66149 33.1092C3.67829 33.1909 3.69733 33.2738 3.73765 33.3735C3.83845 33.5986 4.05462 33.7958 4.4052 33.9851C4.48473 34.0321 4.54185 34.1015 4.63481 34.2192L4.73674 34.3435C4.97643 34.6549 5.27772 34.8531 5.63054 34.9371C5.6563 34.9517 5.71903 35.0054 5.75599 35.0379C5.77615 35.0536 5.79519 35.0704 5.81647 35.0872L1.85036 38.2973L1.80331 38.4171C1.71259 38.6479 1.47402 39.2616 1.91196 39.5797C2.02396 39.6615 2.14493 39.6996 2.27486 39.6996C2.62991 39.6996 3.05666 39.4207 3.58532 38.9861C3.86198 38.7599 4.12519 38.528 4.39624 38.2872L4.84426 37.8918C5.03355 37.7305 5.24412 37.5905 5.45357 37.4505C5.5891 37.3587 5.72575 37.2679 5.85679 37.1739L6.73268 36.5388C6.96677 36.3741 7.19974 36.2095 7.43159 36.0415C7.43383 36.0415 7.43607 36.0426 7.43831 36.0426C7.52008 36.1524 7.61192 36.2543 7.72393 36.3741C7.76089 36.4066 7.80905 36.4436 7.86057 36.4817C7.89865 36.5097 7.9625 36.5567 7.9681 36.5567C8.14619 36.9084 8.40604 37.1604 8.73758 37.3127L8.90446 37.3967C9.03887 37.4606 9.11839 37.5009 9.17328 37.5592C9.45105 37.8739 9.6829 38.0363 9.94948 38.0912C10.0324 38.1046 10.1175 38.1057 10.1914 38.0632C10.3381 38.1729 10.4893 38.2256 10.6103 38.2682C10.6708 38.2894 10.7324 38.3107 10.7817 38.3421C11.0404 38.4955 11.307 38.5448 11.5422 38.5885C11.7124 38.6199 11.8603 38.6467 11.9633 38.705C12.175 38.8259 12.3878 38.8775 12.5738 38.9234L12.7048 38.957C13.0923 39.0623 13.5561 39.1597 14.0366 39.0869C14.0802 39.0735 14.1788 39.1149 14.2617 39.1418C14.3334 39.1664 14.4062 39.1888 14.4935 39.2112L14.9572 39.312C15.3022 39.3983 15.6506 39.4745 16.0157 39.5305C16.1859 39.5551 16.3338 39.5282 16.4536 39.5081C16.4996 39.5002 16.5477 39.5002 16.5892 39.4901C16.7527 39.4913 16.8087 39.5114 16.9005 39.5439C16.9722 39.5697 17.0461 39.5943 17.1402 39.6156C17.4146 39.6772 17.6633 39.6245 17.8638 39.5831C17.9388 39.5674 18.0128 39.5517 18.0811 39.5461C18.1808 39.5394 18.2804 39.5428 18.3813 39.5439C18.5627 39.5473 18.7453 39.5484 18.9222 39.5226L19.0589 39.5081C19.2437 39.4935 19.4744 39.4733 19.6704 39.377C19.7656 39.3322 19.9202 39.349 20.1005 39.3692C20.2641 39.3871 20.4489 39.4061 20.6337 39.386C20.8051 39.3703 20.9294 39.3456 21.0615 39.3199C21.1388 39.3042 21.2195 39.2874 21.3091 39.2751C21.6249 39.2392 21.9408 39.2012 22.2981 39.1418L22.7304 39.0309C22.848 38.985 22.9623 38.9279 23.0754 38.8707C23.2311 38.7923 23.3789 38.7184 23.4909 38.7005C23.8449 38.6557 24.154 38.5426 24.4531 38.4328C24.5931 38.3802 24.7342 38.3286 24.8966 38.2805C25.1665 38.1909 25.3939 38.0565 25.6146 37.9265C25.7008 37.875 25.7859 37.8246 25.8744 37.7787C25.9775 37.7238 26.0839 37.6745 26.1914 37.6252C26.4199 37.5188 26.6484 37.4102 26.8466 37.2747C27.0236 37.1604 27.1916 36.8927 27.2151 36.7326C27.2588 36.6161 27.3047 36.4749 27.3126 36.3181L27.289 36.0415L27.1849 35.9228C27.0774 35.7996 26.9497 35.7043 26.8041 35.6383L26.6988 35.5901C26.5039 35.5005 26.3493 35.4322 26.1063 35.3728C26.0615 35.3616 26.0055 35.3527 25.945 35.3426C25.8979 35.337 25.8419 35.3303 25.8565 35.3493C25.4522 35.0301 25.0837 34.9987 24.8148 34.9752C24.6536 34.9606 24.5662 34.9517 24.4295 34.8733C24.2481 34.7646 23.9815 34.5989 23.6679 34.6269C23.6007 34.6336 23.5324 34.6481 23.4092 34.6784C23.2815 34.6313 23.1616 34.6134 23.062 34.6C22.9992 34.5899 22.9343 34.5809 22.9063 34.5686C22.6464 34.46 22.3933 34.4465 22.1704 34.4353C22.0024 34.4252 21.8568 34.4174 21.7571 34.3748C21.56 34.2852 21.3673 34.2505 21.1971 34.2192C21.1164 34.2057 21.0358 34.1912 20.9585 34.1688C20.6057 34.0646 20.2293 34.0523 19.7757 34.1307C19.7365 34.1374 19.638 34.106 19.5573 34.0825C19.4823 34.0601 19.4072 34.0388 19.3299 34.0209L18.789 33.9044C18.4798 33.8305 18.1707 33.7577 17.8559 33.7163C17.6947 33.6972 17.5524 33.7174 17.437 33.7364C17.3934 33.7431 17.3351 33.7566 17.3105 33.7521C17.1492 33.7476 17.0988 33.7286 17.0081 33.695C16.9431 33.6692 16.877 33.6446 16.7863 33.6222C16.532 33.5583 16.2968 33.6009 16.1075 33.6334C16.0336 33.6457 15.9597 33.6614 15.8813 33.6625C15.7738 33.667 15.6741 33.6591 15.571 33.6558C15.4064 33.649 15.2429 33.6434 15.0782 33.6535L14.9505 33.6591C14.7713 33.6658 14.5484 33.6737 14.3334 33.7566C14.246 33.7935 14.087 33.7611 13.9212 33.7297C13.7588 33.6972 13.5964 33.6681 13.444 33.6681C13.2861 33.6714 13.1652 33.6793 13.0431 33.695C12.9658 33.7039 12.8874 33.7129 12.7787 33.714C12.6365 33.7185 12.4931 33.7185 12.3486 33.7151C12.1291 33.7151 11.9096 33.7107 11.6956 33.7263C11.6016 33.7308 11.5097 33.7521 11.3585 33.7891C11.2622 33.8137 11.1659 33.8451 11.0707 33.8753C10.9172 33.9257 10.7649 33.9627 10.6585 33.9683C10.3785 33.9627 10.1085 33.9918 9.83635 34.0276C9.99316 33.9078 10.1108 33.8294 10.2317 33.7499C10.3348 33.6826 10.4389 33.6132 10.57 33.518C10.897 33.2761 11.1703 32.9849 11.4335 32.7026C11.5825 32.5447 11.7304 32.3856 11.8905 32.2378C12.0664 32.0709 12.2467 31.9074 12.427 31.745C12.6959 31.5041 12.9647 31.2611 13.2223 31.0057L13.4564 30.7772C13.7185 30.5219 14.0175 30.234 14.2236 29.9607C14.3121 29.8397 14.423 29.7333 14.5742 29.5855L15.2709 29.0411C15.3145 29.0747 15.3694 29.1128 15.431 29.152C15.4747 29.18 15.5229 29.208 15.5363 29.2136C15.8354 29.6449 16.1815 29.8017 16.4346 29.9159C16.5679 29.9775 16.6743 30.0245 16.7785 30.122C16.9812 30.3135 17.2018 30.5039 17.4706 30.5633C17.5457 30.5801 17.6207 30.5823 17.7451 30.5846C17.8761 30.6697 18.006 30.7201 18.1214 30.7649C18.183 30.7884 18.2457 30.8108 18.2984 30.8411C18.547 30.9844 18.8035 31.0438 19.0298 31.0964C19.1922 31.1345 19.3467 31.1704 19.4632 31.232C19.6716 31.3417 19.8821 31.3966 20.1509 31.4672C20.4982 31.5613 20.9563 31.6609 21.448 31.6397C21.5118 31.6217 21.6149 31.6654 21.7213 31.6968C21.7918 31.717 21.8635 31.7382 21.9475 31.7573L22.5803 31.8827C22.8738 31.9398 23.1672 31.997 23.4585 32.0261C23.6164 32.0451 23.7609 32.0238 23.8751 32.007C23.9255 32.0003 23.9737 31.9914 24.0274 31.9914C24.1955 31.9902 24.2627 32.007 24.3556 32.0328C24.4251 32.0507 24.4945 32.0698 24.5852 32.0843C24.658 32.0955 24.7286 32.1011 24.7969 32.1011C24.9616 32.1011 25.1139 32.0731 25.2528 32.0474C25.3301 32.0339 25.4085 32.0182 25.4835 32.0126C25.7546 31.9936 26.0279 32.0138 26.2967 31.9824L26.412 31.9723C26.5924 31.9555 26.8186 31.9354 27.0158 31.8626C27.1322 31.8166 27.2969 31.8301 27.4884 31.8435C27.6598 31.857 27.83 31.8648 27.998 31.8502C28.156 31.8323 28.2725 31.8133 28.3934 31.792C28.4752 31.7763 28.5603 31.7629 28.7485 31.7382C29.0912 31.699 29.4351 31.6565 29.7756 31.5937C29.8652 31.5769 29.9537 31.5467 30.1026 31.4941C30.209 31.4537 30.3132 31.4067 30.4174 31.3597C30.5697 31.2902 30.7131 31.2241 30.834 31.2017C31.2216 31.1368 31.5643 30.9968 31.8958 30.8635L32.0045 30.8187C32.3293 30.6899 32.6608 30.514 33.0484 30.2654C33.1469 30.2026 33.2477 30.1422 33.3497 30.0817C33.6084 29.9271 33.8683 29.7703 34.1057 29.572C34.2424 29.4567 34.5627 29.0087 34.3824 28.6032C34.3062 28.4307 34.1415 28.2649 33.8974 28.2381C33.8615 28.2123 33.819 28.1821 33.7697 28.1518C33.5871 28.0365 33.446 27.9491 33.2119 27.8528L33.073 27.8035C33.0237 27.7878 32.9677 27.7699 32.9621 27.7777C32.6127 27.4439 32.2699 27.3577 32.0213 27.2939C31.8656 27.2535 31.7749 27.2289 31.6528 27.1426C31.487 27.0239 31.2361 26.8436 30.9494 26.8201C30.8844 26.8156 30.8127 26.819 30.7265 26.8481C30.5887 26.773 30.451 26.7361 30.3401 26.7047C30.2841 26.6901 30.2258 26.6778 30.1721 26.6509C29.9223 26.5322 29.6748 26.4975 29.4541 26.4661C29.2895 26.4437 29.1461 26.4236 29.0375 26.3754C28.8358 26.2858 28.6387 26.2466 28.3587 26.194C27.9387 26.11 27.5119 26.0831 27.0874 26.1122C27.046 26.1122 26.953 26.0932 26.8679 26.0719C26.7929 26.054 26.7189 26.0349 26.6417 26.0215L25.9562 25.9061C25.7053 25.8624 25.4544 25.8187 25.2046 25.7941C25.0545 25.7829 24.919 25.7986 24.8092 25.8131C24.7633 25.8199 24.7174 25.8277 24.6704 25.8277C24.5102 25.8255 24.4632 25.8131 24.3747 25.784C24.3097 25.7639 24.2447 25.7437 24.1596 25.7258C23.9289 25.6787 23.7105 25.7101 23.5335 25.7336C23.4585 25.7437 23.3823 25.756 23.3073 25.7571C23.2076 25.7538 23.0967 25.7504 22.9903 25.7437C22.8413 25.7336 22.6901 25.7247 22.5378 25.7303L22.4168 25.7325C22.2443 25.7347 22.0315 25.7359 21.8389 25.7919C21.7325 25.8243 21.5801 25.7952 21.402 25.7639C21.243 25.7347 21.0851 25.709 20.9305 25.7067C20.795 25.7079 20.6807 25.7123 20.571 25.7191C20.4881 25.7247 20.4086 25.728 20.2898 25.7303H20.0221C19.7556 25.7314 19.489 25.7314 19.2247 25.7437C19.1238 25.7482 19.0253 25.7695 18.8987 25.7997C18.789 25.8243 18.6803 25.8568 18.5717 25.8893C18.4989 25.9128 18.4261 25.9352 18.36 25.9509C18.5056 25.8042 18.6478 25.6563 18.7878 25.5051C18.8954 25.392 18.995 25.2688 19.0925 25.1456L19.181 25.0347C19.3075 24.8757 19.4307 24.7121 19.5528 24.5486C19.8261 24.1857 20.0849 23.843 20.3805 23.5484C20.8331 23.0936 21.252 22.6098 21.6697 22.1237C21.8019 22.1909 21.9408 22.2502 22.129 22.3006C22.176 22.3141 22.2354 22.3264 22.2992 22.3399C22.3474 22.3488 22.4 22.3544 22.3832 22.3343C22.792 22.6826 23.1728 22.7128 23.4506 22.7352C23.6085 22.7464 23.6948 22.7554 23.8281 22.8327C24.0185 22.9458 24.3063 23.1138 24.6166 23.069C24.6838 23.06 24.7544 23.0421 24.8787 23.0063C25.0086 23.0488 25.1296 23.0612 25.2304 23.0724C25.2931 23.078 25.3581 23.0858 25.4018 23.1015C25.6728 23.1922 25.9293 23.1911 26.1544 23.181C26.3213 23.1777 26.4669 23.1743 26.5689 23.2079C26.785 23.2874 26.9855 23.2986 27.1625 23.3087C27.2297 23.3132 27.2969 23.3165 27.3809 23.3289C27.8043 23.3714 28.1683 23.3031 28.6141 23.2157C28.66 23.2113 28.7485 23.2213 28.8325 23.2325C28.9098 23.2437 28.9871 23.2538 29.0621 23.2583C29.2267 23.2684 29.3914 23.2751 29.6154 23.2818C29.9425 23.2975 30.2706 23.3132 30.5876 23.2908C30.7668 23.2818 30.918 23.2213 31.0289 23.1765C31.067 23.1609 31.1051 23.1441 31.1443 23.1351C31.3067 23.1015 31.3605 23.1082 31.459 23.1216C31.5285 23.1306 31.5979 23.1385 31.683 23.1407C31.9586 23.1295 32.1915 23.0399 32.3752 22.9548C32.4413 22.9234 32.5063 22.8898 32.5824 22.8674C32.6799 22.8383 32.7784 22.8159 32.8781 22.7935C33.0439 22.7565 33.2085 22.7173 33.3799 22.6535L33.4986 22.6098C33.6689 22.5493 33.8817 22.4743 34.0598 22.332C34.1337 22.2704 34.2816 22.2514 34.454 22.2278C34.6109 22.2066 34.7901 22.183 34.9581 22.1203C35.1093 22.0688 35.2179 22.015 35.3288 21.959C35.3994 21.9232 35.4711 21.8873 35.5763 21.8481L35.8541 21.7406C36.105 21.6421 36.3581 21.5446 36.5967 21.4326C36.7009 21.3856 36.7815 21.3262 36.8969 21.2422C36.9865 21.1761 37.0716 21.1011 37.1556 21.026C37.2721 20.923 37.3807 20.8267 37.4771 20.7886C37.7974 20.6642 38.0617 20.4884 38.3182 20.3182L38.5736 20.1513C38.8413 19.9833 39.1 19.7772 39.4114 19.4804C39.5279 19.3695 39.6578 19.2731 39.7877 19.1746C39.9748 19.0334 40.1618 18.8901 40.3187 18.7288C40.4855 18.563 40.6748 18.1027 40.4934 17.7364L40.4956 17.7387Z" fill="var(--fill-0, #FFC19A)"/>
</g>
</svg>
