<svg width="288" height="89" viewBox="0 0 288 89" fill="none" xmlns="http://www.w3.org/2000/svg">
<mask id="mask0_1_7179" style="mask-type:luminance" maskUnits="userSpaceOnUse" x="0" y="0" width="288" height="89">
<path d="M0 0H287.54V88.0658H0V0Z" fill="white"/>
</mask>
<g mask="url(#mask0_1_7179)">
<path d="M70.4153 0.396651C71.4155 1.0598 72.5097 0.844273 73.5818 0.855326C74.455 0.860852 75.3115 0.8498 76.0907 1.36374C76.3504 1.52953 76.7262 1.64557 77.0191 1.60137C78.8262 1.33611 80.4122 2.02136 82.0093 2.67345C82.6338 2.92766 83.2858 2.93871 83.9324 2.82266C84.4574 2.72871 84.9658 2.56845 85.4798 2.44135C86.5132 3.19291 87.8339 2.6845 88.9281 3.22055C89.4034 3.45265 90.0278 3.38633 90.481 3.63501C91.2878 4.07158 92.078 4.23184 92.9788 4.08263C93.6199 3.97211 94.2056 4.22632 94.8356 4.46394C96.8582 5.22103 98.809 6.11075 100.721 7.11653C101.572 7.55862 102.434 7.98967 103.418 8.19414C104.125 8.33782 104.816 8.78544 105.402 9.24412C106.032 9.73595 106.645 10.062 107.458 10.0012C108.126 9.94595 108.734 10.0841 109.27 10.5538C110.094 11.2667 111.033 11.8028 112.127 12.0072C112.685 12.1067 113.138 12.3941 113.536 12.7643C113.956 13.1512 114.443 13.3611 115.001 13.3777C116.388 13.4109 117.46 14.0796 118.422 15.0024C118.731 15.2953 119.096 15.7595 119.433 15.765C120.853 15.7706 121.45 16.8924 122.329 17.6605C122.997 18.2408 123.312 19.0753 123.904 19.6776C124.423 20.2081 125.235 20.4458 125.755 20.9763C126.573 21.8107 127.722 22.3081 128.236 23.4852C128.501 24.1041 129.22 24.292 129.817 24.5407C131.082 25.0657 131.966 25.8946 132.408 27.254C132.679 28.0885 133.326 28.7074 134.265 28.9285C135.801 29.2932 136.99 30.1664 138.029 31.349C138.813 32.2332 139.675 33.051 140.736 33.6534C141.383 34.0237 141.875 34.6536 142.422 35.1786C143.914 36.5989 145.323 38.1075 147.114 39.1796C147.666 39.5112 148.13 39.9975 148.595 40.4506C149.291 41.1359 149.965 41.8322 150.882 42.2301C151.899 42.6722 152.651 43.4514 153.425 44.214C153.806 44.5898 154.27 44.8827 154.696 45.2142C156.21 45.0816 156.668 46.2919 157.354 47.2534C158.1 48.3089 159.205 49.0605 159.896 50.1934C160.144 50.6078 160.774 50.8012 161.239 51.072C162.626 51.8899 164.107 52.5641 165.157 53.8683C165.345 54.1059 165.671 54.3822 165.941 54.3878C167.008 54.4099 167.671 55.2885 168.577 55.5538C169.721 55.8909 170.434 56.5927 171.026 57.5377C171.191 57.7974 171.412 58.1787 171.644 58.2174C173.336 58.4606 174.225 59.6984 175.154 60.9032C175.22 60.9916 175.27 61.0966 175.353 61.1574C175.529 61.2789 175.712 61.4282 175.911 61.4724C176.789 61.6492 177.458 62.2018 178.21 62.6439C179.315 63.2905 180.326 64.136 181.675 64.3294C182.067 64.3847 182.426 64.7273 182.78 64.976C183.133 65.2247 183.41 65.6226 183.797 65.7773C184.686 66.131 185.703 66.1862 186.311 67.1036C186.886 67.9767 188.057 67.9601 188.759 68.6454C189.842 69.7064 191.124 70.0822 192.622 69.9496C193.158 69.9054 193.672 70.1375 194.097 70.5298C195.081 71.4472 196.297 71.8285 197.59 72.1269C198.85 72.4253 200.16 72.7458 201.265 73.3758C203.348 74.5474 205.714 75.0447 207.758 76.2605C208.029 76.4208 208.377 76.5976 208.665 76.5589C210.328 76.3324 211.815 77.2718 213.439 77.2331C214.031 77.2165 214.478 77.526 214.843 77.9405C215.318 78.482 215.887 78.681 216.584 78.5594C217.589 78.3881 218.496 78.5649 219.358 79.1562C220.082 79.6536 220.883 79.9133 221.823 79.7807C222.314 79.7144 222.867 79.9686 223.375 80.1233C224.735 80.5267 226.111 80.7644 227.531 80.7146C229.266 80.6538 231.002 80.6317 232.737 80.5986C232.958 80.5931 233.234 80.5102 233.383 80.6152C234.566 81.433 235.925 80.9799 237.191 81.1678C239.363 81.4828 241.518 80.9025 243.69 81.0517C243.983 81.0738 244.364 80.9246 244.574 80.7257C245.53 79.7862 246.773 79.6149 247.917 79.836C249.244 80.0957 250.509 79.7807 251.797 79.8194C252.57 79.847 253.261 79.6812 253.957 79.2612C254.886 78.7031 255.914 78.3328 257.058 78.4489C257.831 78.5263 258.528 78.2886 259.252 77.9847C261.014 77.2497 263.894 78.8578 264.325 80.897C264.385 81.1788 264.319 81.5878 264.148 81.8088C263.684 82.4112 263.208 83.0356 262.606 83.4777C262.02 83.9088 261.153 83.9917 260.639 84.4725C260.058 85.0085 259.473 84.8759 258.848 84.9477C256.803 85.1798 254.748 85.2793 252.852 85.2074C252.073 85.4064 252.012 86.0419 251.675 86.4343C251.31 86.8598 250.885 87.1637 250.277 87.1306C249.741 87.0974 249.183 87.0311 248.658 87.1195C248.254 87.1914 247.906 87.5561 247.497 87.639C247.088 87.7219 246.492 87.7882 246.243 87.5616C245.497 86.8929 244.69 86.9703 243.806 87.02C242.402 87.0974 240.987 87.0421 239.573 87.1085C238.501 87.1527 237.517 87.7163 236.39 87.6335C235.312 87.5561 234.223 87.7163 233.14 87.7163C231.3 87.7163 229.454 87.6777 227.614 87.6556C227.515 87.65 227.376 87.6279 227.321 87.5616C226.536 86.6166 225.508 87.1361 224.575 87.0753C224.381 87.0643 224.105 86.9703 224.027 86.8266C223.436 85.7545 222.574 85.5722 221.563 86.0861C220.971 86.3901 220.518 86.2022 220.065 85.8927C219.706 85.6551 219.413 85.3069 219.043 85.0859C218.684 84.8759 218.275 84.7211 217.866 84.6217C217.556 84.5443 217.214 84.5885 216.888 84.5885C215.583 84.583 214.34 84.5111 213.119 83.8535C211.555 83.008 209.753 83.1351 208.062 83.1185C207.548 82.8533 207.051 82.6378 206.592 82.3559C206.018 82.0078 205.432 81.8144 204.747 81.8862C204.437 81.9193 203.967 81.9304 203.818 81.748C203.017 80.7588 201.641 81.6651 200.812 80.7754C200.519 80.4549 200.055 80.3831 199.602 80.4549C198.507 80.6428 197.817 79.9244 197.087 79.3165C196.85 79.112 196.689 78.8136 196.452 78.6091C195.695 77.946 194.584 78.1063 193.783 77.4763C193.473 77.2386 192.965 77.1779 192.545 77.1779C191.87 77.1779 191.312 76.9402 190.699 76.7137C189.533 76.2771 188.72 75.4979 187.974 74.575C187.776 74.3319 187.505 74.144 187.245 73.9119C186.698 73.9671 186.162 74.0445 185.626 74.0611C184.979 74.0777 184.355 74.0887 184.001 73.315C183.835 72.9558 183.437 72.5856 183.062 72.464C181.105 71.823 179.619 70.2977 177.58 69.7506C176.159 69.3693 174.811 68.5901 173.733 67.4573C173.308 67.0096 172.612 66.8052 172.236 66.3354C171.755 65.7331 171.263 65.2026 170.606 64.7936C170.058 64.4455 169.578 63.9978 169.047 63.6165C168.517 63.2407 168.008 62.7876 167.422 62.55C166.594 62.2129 165.897 61.7597 165.289 61.1076C165.008 60.8037 164.599 60.4058 164.245 60.4113C163.195 60.4113 163.068 59.2066 162.156 59.0021C161.366 58.8253 161.134 57.9466 160.714 57.3222C160.321 56.7364 159.735 56.4711 159.072 56.3772C158.503 56.2998 158.133 56.1009 157.829 55.5427C157.542 55.0067 157.094 54.4541 156.326 54.4541C156.116 54.4541 155.84 54.4651 155.696 54.3491C154.618 53.4594 153.568 52.5254 152.358 51.807C152.203 51.7131 152.137 51.4423 152.065 51.2433C151.827 50.5912 151.38 50.1768 150.755 49.8839C150.38 49.7015 149.844 49.475 149.739 49.1544C149.435 48.2039 148.578 47.9166 147.915 47.4247C146.694 46.5295 145.378 45.7613 144.417 44.5621C144.002 44.0427 143.212 44.1201 142.881 43.4514C142.593 42.8822 142.19 42.3682 141.853 41.8543C141.107 41.1193 139.979 41.4177 139.189 40.6938C138.498 40.0583 137.481 39.7986 136.675 39.268C136.15 38.9144 135.647 38.4336 135.31 37.8975C134.696 36.9194 133.867 36.3557 132.751 36.1899C132.281 36.1181 132.055 35.8749 131.812 35.4605C130.237 32.7803 129.993 32.5482 127.529 30.8074C127.263 30.6195 127.004 30.415 126.772 30.194C125.523 28.9893 124.274 27.7735 123.03 26.5633C122.737 25.3751 121.732 24.933 120.776 24.4744C120.472 24.3252 120.195 24.1981 120.063 23.8996C119.61 22.9049 118.825 22.4462 117.764 22.3578C117.449 22.3357 117.073 22.3026 116.847 22.1202C116.167 21.5731 115.531 21.015 114.564 21.0757C114.404 21.0868 114.227 20.8215 114.05 20.6944C113.183 20.0589 112.326 19.4068 111.431 18.81C111.188 18.6442 110.823 18.5668 110.53 18.6C109.707 18.6884 109.049 18.4729 108.502 17.8374C108.01 17.2737 107.469 16.7487 106.916 16.1685C106.634 16.1353 106.308 16.0414 105.999 16.0745C104.899 16.1961 104.103 15.7816 103.573 14.8145C103.285 14.2896 102.788 14.0685 102.23 14.0243C101.124 13.9414 100.146 13.5877 99.1958 12.9854C98.284 12.4106 97.2561 12.0901 96.1232 12.1399C95.344 12.173 94.6201 11.8801 94.0399 11.3551C93.5204 10.8854 92.9346 10.7251 92.2549 10.7086C90.7407 10.6754 89.3813 9.77464 87.8284 9.89069C87.635 9.90726 87.4305 9.7249 87.2371 9.63095C85.1758 8.66387 83.8053 8.27151 81.6722 8.1223C81.1251 8.08361 80.6056 8.0394 80.1138 7.76309C79.6054 7.47573 79.0583 7.49231 78.5609 7.77967C77.9365 8.13888 77.3507 8.13888 76.7152 7.79625C76.4389 7.64704 76.0907 7.51994 75.7868 7.54757C73.72 7.72441 71.6918 7.05021 69.614 7.35968C68.7795 7.48126 67.8898 7.42047 67.0443 7.09995C66.779 6.99495 66.3867 7.02258 66.1269 7.14968C65.602 7.40942 65.0714 7.44257 64.5686 7.2381C63.5241 6.82364 62.4244 6.95074 61.3523 6.79601C61.0373 6.7518 60.7002 6.74627 60.3852 6.79601C59.6447 6.91758 59.0479 7.55862 58.2245 7.39836C57.4674 7.24916 56.7213 7.39284 55.9698 7.42599C54.8866 7.48126 53.8366 7.51441 52.7646 7.83493C51.8583 8.10572 50.8304 7.95651 49.8578 8.0394C49.3217 8.08361 48.7912 8.20519 48.2662 8.31571C47.5036 8.47597 47.1389 9.36569 46.3265 9.42096C45.68 9.46517 44.9781 9.29385 44.3979 9.49832C43.7016 9.74148 43.0053 9.98463 42.3145 10.2333C41.6071 10.4875 40.9716 10.8467 40.1758 10.797C39.3082 10.7417 38.4793 10.8578 37.6283 11.1838C36.9485 11.4436 36.1307 11.4104 35.3736 11.3993C34.4617 11.3828 33.666 11.5707 33.0304 12.2725C32.8868 12.4272 32.6878 12.6317 32.5055 12.6483C30.831 12.7754 29.5766 13.8696 28.1176 14.4885C27.9242 14.5714 27.6977 14.704 27.5153 14.6709C26.3437 14.4719 25.4816 15.2345 24.498 15.6103C23.4812 16.0027 22.6412 16.6658 21.9283 17.4892C21.6243 17.8429 21.2265 17.9921 20.7733 17.9645C20.1765 17.9313 19.8173 18.4784 19.3199 18.5779C18.491 18.7492 18.1539 19.5339 17.4797 19.86C16.811 20.1915 16.0871 20.4126 15.4571 20.7994C14.8271 21.1807 14.4182 21.9102 13.5948 22.0152C12.8321 22.7833 12.064 23.5515 11.3014 24.3196C11.003 25.5907 9.83693 26.1322 9.12957 27.0551C8.51064 27.0551 7.97459 27.0827 7.43855 27.0441C7.12908 27.0219 6.57094 26.4251 6.57094 26.1433C6.57094 25.2812 6.45488 24.3804 6.66488 23.5625C6.86935 22.7281 7.44408 21.9434 8.37801 21.772C9.05773 21.6449 9.60483 21.4184 10.0525 20.9044C10.7488 20.1031 11.7545 19.5173 11.7766 18.2574C11.7822 18.1137 12.0308 17.9313 12.2021 17.8374C13.44 17.1411 14.4624 16.1685 15.4074 15.1406C16.2915 14.1735 17.3194 13.7811 18.5905 13.8419C19.1265 13.8696 19.6681 13.8475 20.2538 13.8475C21.1933 12.9191 22.3041 12.2172 22.8567 10.9738C23.879 10.5483 24.5809 9.71937 25.3656 8.98991C25.5203 8.85176 25.769 8.68597 25.9348 8.71913C27.2832 8.97886 28.3497 7.80178 29.6926 8.00072C30.096 8.06151 30.6984 8.03388 30.925 7.7852C31.5328 7.12758 32.4336 7.52547 33.0194 7.05021C33.6052 6.57496 34.0694 5.95602 34.9591 6.01681C35.6222 6.06655 36.0312 5.30393 36.7606 5.37577C37.048 5.4034 37.4735 5.26524 37.6393 5.05525C38.3246 4.1379 39.264 4.08816 40.2643 4.11027C41.3585 4.13237 42.3808 3.89474 43.4308 3.53001C44.431 3.18186 45.4258 2.6624 46.5586 2.69003C46.857 2.69556 47.2052 2.54082 47.4483 2.35293C48.1778 1.79478 48.9846 1.60689 49.8799 1.56268C50.2888 1.54058 50.6867 1.28637 51.0846 1.11506C51.6096 0.89401 52.1677 0.827695 52.6651 1.07085C53.9195 1.68978 55.1243 1.6732 56.4229 1.14822C57.4121 0.744801 58.5837 1.06532 59.5894 0.518227C59.7884 0.407703 60.1807 0.689539 60.4902 0.722697C61.1368 0.78901 61.7833 0.80559 62.4299 0.844274C63.6236 0.0484991 64.9664 0.551385 66.2319 0.44086C67.3096 0.346914 68.3982 0.346914 69.4814 0.319284C69.7964 0.313758 70.1887 0.241917 70.4153 0.396651ZM152.811 82.3393C153.59 81.9415 154.535 82.0575 155.248 81.6651C156.072 81.212 156.796 80.4991 157.238 79.5652C156.508 78.0123 154.917 77.421 153.684 76.4208C153.148 75.9842 152.529 75.7576 151.877 75.8295C150.717 75.9566 149.744 75.6416 148.926 74.8237C147.285 74.2213 145.937 73.1271 144.489 72.1987C144.124 71.9666 143.77 71.6019 143.372 71.5411C142.079 71.3477 141.272 70.5132 140.46 69.618C139.874 68.9825 139.217 68.4133 138.614 67.7888C138.15 67.3136 137.564 67.0815 136.99 66.7831C134.685 65.5949 132.419 64.3239 131.292 61.7652C131.132 61.4005 130.717 61.1463 130.408 60.8534C128.756 59.3006 126.667 58.2616 125.246 56.4325C124.904 55.9904 124.395 55.7527 123.815 55.7693C122.981 55.7969 122.373 55.3769 121.853 54.7856C121.638 54.5425 121.4 54.3159 121.196 54.0617C119.422 51.8346 119.112 51.5307 116.78 49.9226C116.338 49.6186 115.885 49.3423 115.421 49.0715C114.946 48.7897 114.537 48.4471 114.299 47.9331C114.072 47.4468 113.896 46.9274 113.608 46.4797C112.84 45.2971 112.044 44.1587 110.464 43.8935C109.745 43.7719 109.137 43.2414 108.342 43.1695C107.982 43.1364 107.485 42.7717 107.347 42.4346C106.933 41.3791 106.181 40.6275 105.391 39.8814C104.998 39.5112 104.628 39.1409 104.457 38.5828C104.252 37.9362 103.766 37.5991 103.114 37.3118C102.246 36.9249 101.357 36.5215 100.616 35.8418C100.152 35.4163 99.5219 35.0184 98.925 34.93C97.328 34.6979 96.1343 33.8358 94.9959 32.8079C94.7583 32.5979 94.4654 32.3271 94.1835 32.3105C92.4262 32.2166 90.912 31.2992 89.2486 30.9069C88.5689 30.7411 88.0108 30.4979 87.6129 29.9619C86.8171 28.8898 85.5571 28.8677 84.4519 28.5251C84.1092 28.4201 83.7169 28.8843 83.2416 28.6964C82.1419 28.2709 80.9925 27.9503 79.9204 27.4696C79.2904 27.1877 78.6825 27.1325 78.0304 27.1325C75.107 27.1269 72.1782 26.9833 69.2658 27.1325C66.9282 27.254 64.5299 26.2925 62.2365 27.4364C62.1591 27.4751 62.0154 27.4585 61.9381 27.4088C61.1147 26.8562 60.3244 26.9501 59.5452 27.5027C58.1084 27.348 56.8705 28.2046 55.4337 28.2377C53.9416 28.2764 52.4993 28.9395 50.9796 29.0114C49.7694 29.0666 48.7194 29.6801 47.5865 30.0006C46.332 31.1003 44.7294 31.4982 43.265 32.1779C42.2869 32.6311 41.1982 32.9074 40.4245 33.7087C39.5127 34.6536 38.1975 35.0018 37.2856 35.9302C36.5451 36.0573 36.0864 36.8531 35.2244 36.7702C34.9591 36.7481 34.6109 36.9691 34.3844 37.1681C33.666 37.8312 32.9752 38.5275 32.2899 39.2238C32.1518 39.362 32.091 39.572 31.9915 39.7488C33.0249 41.0254 33.0028 40.9646 34.2904 40.4175C35.0641 40.0859 35.7383 39.4946 36.6501 39.478C37.4017 39.4615 37.9322 38.6381 38.7611 38.8425C39.6951 39.0746 40.2864 38.0854 41.2092 38.1794C42.2537 38.2954 42.9555 37.5107 43.7955 37.0797C44.0055 36.4994 44.4863 36.3336 45.0223 36.1513C46.0447 35.8031 47.0394 35.3997 48.1668 35.5544C48.4652 35.5986 48.7967 35.5489 49.0565 35.2726C49.5483 34.7476 50.1507 34.7089 50.847 34.8581C51.3609 34.9631 52.0241 35.035 52.4385 34.8029C53.2232 34.3552 54.0024 34.1287 54.8811 34.1121C55.0579 34.1066 55.3066 33.9629 55.4006 33.8081C55.7764 33.1782 56.329 33.0234 57.0197 32.9129C59.0258 32.5924 61.1644 33.3053 63.071 32.1503C63.2257 32.0508 63.4965 32.1282 63.712 32.1337C65.1212 32.1613 66.5304 32.2387 67.9395 32.2166C68.9287 32.2 69.8295 32.3658 70.7855 32.6974C72.0953 33.1505 73.51 33.3881 74.9026 33.5318C76.7428 33.7252 78.5554 33.9518 80.2685 34.7089C80.5504 34.836 80.9096 34.8968 81.2135 34.8471C82.3022 34.6702 82.7387 35.466 83.3356 36.2507C84.0153 36.1844 84.7669 36.1457 85.5074 36.0297C86.3474 35.9026 86.806 36.8089 87.6073 36.737C87.7179 36.7315 87.8229 36.7205 87.9334 36.7094C88.6407 36.6431 89.1768 36.9305 89.6465 37.4444C90.0278 37.8589 90.5086 38.0854 91.1054 37.997C91.3154 37.9638 91.542 38.0025 91.752 37.9804C93.0838 37.8312 94.062 38.3396 94.6864 39.5278C94.8412 39.8207 95.0401 40.0859 95.4104 40.0914C95.9906 40.097 96.4106 40.3678 96.7974 40.7877C97.5435 41.589 98.4829 42.1859 99.4611 42.5893C101.003 43.2303 102.357 44.0151 103.208 45.5071C103.307 45.6784 103.501 45.8276 103.683 45.9216C104.799 46.4853 105.435 47.4413 105.954 48.541C106.816 50.3757 108.22 51.6578 110.11 52.4315C110.491 52.5917 110.939 52.8238 111.138 53.1554C111.602 53.9291 112.199 54.3657 113.061 54.6972C113.829 54.9901 114.371 55.8522 115.128 56.2225C116.653 56.974 117.593 58.3114 118.709 59.4774C118.924 60.5219 119.847 61.0192 120.466 61.7542C120.953 62.34 121.621 62.246 122.312 62.4008C122.693 63.0971 123.064 63.8652 123.522 64.5836C123.749 64.9318 124.091 65.3628 124.451 65.4402C125.235 65.606 125.854 65.8049 126.186 66.6449C126.324 66.993 126.755 67.3191 127.125 67.4738C128.336 67.9878 129.264 68.9217 130.38 69.5627C130.894 69.8612 131.17 70.2369 131.264 70.8227C131.309 71.1211 131.469 71.4361 131.668 71.6627C132.685 72.8121 134 73.5803 135.271 74.3982C135.514 74.5529 135.89 74.5529 136.205 74.5529C137.172 74.5584 137.896 75.0061 138.294 75.846C138.714 76.7247 139.51 77.0452 140.311 77.2718C140.825 77.41 141.306 77.5702 141.808 77.7581C143.842 78.5207 145.561 79.8194 147.418 80.8859C148.689 82.378 150.407 82.4333 152.165 82.3504C152.38 82.3393 152.64 82.4278 152.811 82.3393ZM184.134 46.745C184.134 47.6292 184.134 48.3752 184.134 49.0329C185.432 50.0276 186.714 50.8455 187.488 52.2049C187.571 52.3486 187.842 52.4481 188.035 52.4591C188.477 52.4812 188.864 52.5807 189.257 52.8073C190.102 53.288 190.964 53.7522 191.854 54.1446C192.429 54.3988 193.125 54.4154 193.666 54.7138C195.739 55.8522 196.651 56.2059 198.386 56.3496C199.038 56.4048 199.646 56.554 200.215 56.9353C201.293 57.6537 202.403 58.3224 203.52 58.9745C204.255 59.4 204.957 59.8863 205.929 59.6763C207.156 59.4111 208.283 59.7316 209.25 60.5882C209.587 60.8866 210.035 60.9584 210.477 60.8921C211.92 60.6821 213.003 61.3839 213.942 62.3123C214.268 62.6384 214.5 62.8594 214.992 62.865C216.501 62.865 218.048 62.7323 219.513 63.0197C220.894 63.285 222.276 63.5226 223.674 63.6386C224.541 63.7105 225.42 63.6221 225.967 64.5284C226.05 64.661 226.337 64.7162 226.536 64.7383C229.023 64.9705 231.51 65.1528 234.002 64.8157C234.875 64.6997 235.715 64.6499 236.406 65.407C236.577 65.5949 237.02 65.5562 237.34 65.5839C238.009 65.6391 238.611 65.5618 239.004 64.871C239.136 64.6334 239.506 64.4068 239.783 64.3957C241.623 64.2963 243.474 64.1305 245.314 64.2189C248.343 64.3626 251.36 63.9315 254.388 64.1802C254.493 64.1857 254.604 64.1415 254.709 64.147C255.311 64.1692 255.698 63.9039 256.019 63.3844C256.262 62.981 256.776 62.9092 257.179 63.1026C258.025 63.506 258.798 63.5668 259.638 63.0529C259.981 62.8484 260.467 62.8208 260.893 62.8097C261.644 62.7931 262.401 62.876 263.159 62.8594C263.634 62.8484 263.96 63.0694 264.314 63.3347C264.684 63.6221 265.181 63.6607 265.513 63.3568C266.209 62.7158 267.585 63.296 267.895 62.0084C269.21 61.511 270.486 60.87 271.923 60.8147C273.106 60.7705 274.283 60.8866 275.449 60.5219C275.819 60.4058 276.223 61.0468 276.632 60.7374C277.212 60.3008 277.814 60.2842 278.477 60.3505C279.129 60.4224 279.721 60.3174 280.318 59.925C281.213 59.3392 282.196 58.8861 283.152 58.3943C284.197 57.8637 285.098 57.0735 286.313 56.8414C286.684 56.7696 286.993 56.3275 287.314 56.0401C287.568 55.808 287.551 55.598 287.369 55.2609C287.026 54.6143 287.485 54.023 287.689 53.393C287.441 53.2107 287.176 53.0449 286.943 52.8349C286.651 52.5696 286.761 52.2602 286.932 51.9286C285.96 51.5086 284.843 52.0115 283.887 51.4423C283.263 51.0665 282.545 51.2323 282.069 51.6854C281.13 52.5752 279.886 52.6359 278.776 52.9288C277.737 53.2051 276.687 53.3875 275.698 53.8407C274.719 54.2828 273.686 54.6199 272.747 55.1393C272.155 55.4654 271.597 55.6919 270.923 55.6919C270.055 55.6864 269.188 55.7638 268.32 55.7417C267.231 55.7085 266.187 55.8025 265.109 56.0954C263.965 56.4104 262.799 56.5817 261.777 57.2448C261.512 57.4161 261.175 57.5653 260.871 57.5598C259.445 57.5432 258.102 57.8472 256.732 58.2285C255.825 58.4827 254.759 58.129 253.841 58.35C252.902 58.5711 252.023 58.9635 251.023 58.9193C248.857 58.8253 246.696 59.1237 244.524 58.9911C243.557 58.9358 242.524 58.9524 241.623 59.2398C240.44 59.6156 239.274 59.6156 238.081 59.6156C236.13 59.61 234.185 59.61 232.234 59.5713C231.703 59.5603 231.112 59.5382 230.653 59.3116C230.134 59.0464 229.637 59.0574 229.101 59.0187C227.387 58.8861 225.613 59.2563 223.994 58.3777C223.906 58.3279 223.784 58.3224 223.674 58.3224C222.806 58.3114 221.939 58.3114 221.071 58.3003C220.082 58.2893 219.308 57.6095 218.264 57.5764C216.777 57.5322 215.235 57.2669 213.843 56.753C212.655 56.3164 211.256 56.3717 210.273 55.3548C210.124 55.2001 209.676 55.2885 209.372 55.3217C209.051 55.3659 208.764 55.4322 208.455 55.2222C208.012 54.9183 207.554 54.5646 207.051 54.443C205.155 53.9622 203.42 53.0836 201.624 52.3596C200.723 51.9949 199.889 51.5307 199.126 50.8731C198.325 50.1768 197.33 49.696 196.424 49.1157C195.667 48.635 194.716 48.7621 193.948 48.3808C193.092 47.9552 192.495 47.1484 191.495 46.8445C190.373 46.5018 189.273 46.01 188.317 45.264C187.986 45.0042 187.532 44.8937 187.123 44.7556C186.687 44.6119 186.245 44.6782 185.908 44.9987C185.278 45.59 184.675 46.209 184.134 46.745ZM149.12 21.1586C148.893 21.446 148.81 22.1147 149.031 22.3578C149.821 23.2199 150.639 24.0654 151.419 24.9441C151.7 25.2591 152.021 25.6293 152.093 26.0107C152.203 26.6406 152.419 26.9335 153.087 26.9888C154.276 27.0827 155.154 27.6851 155.392 28.9064C155.53 29.6137 156.022 30.0116 156.42 30.5145C157.354 31.6916 158.884 32.2332 159.642 33.5981C159.78 33.8468 160.139 33.9905 160.421 34.1287C162.322 35.0405 163.565 35.9413 164.571 37.5383C165.201 38.5275 166.019 39.0967 167.102 39.3178C167.649 39.4283 168.13 39.5665 168.517 39.9975C169.025 40.5556 169.567 41.0917 170.103 41.6277C170.252 41.7769 170.445 41.8819 170.688 42.0532C171.479 42.0532 172.341 42.0532 173.523 42.0532C173.949 41.5725 174.325 41.1801 174.645 40.7435C174.745 40.6164 174.75 40.2241 174.684 40.1964C174.032 39.8814 173.744 39.3454 173.595 38.6767C173.418 37.8865 172.91 37.3394 172.203 36.9747C171.147 36.422 170.07 35.9192 169.23 35.0405C168.318 34.0844 167.201 33.4213 165.991 32.935C165.356 32.6753 164.831 32.2884 164.576 31.675C164.261 30.9345 163.847 30.3543 163.035 30.1553C161.935 29.1385 160.553 28.514 159.437 27.4917C158.42 26.5633 157.044 26.0328 156.022 25.1099C154.988 24.1815 154.165 23.0099 153.303 21.9047C152.662 21.0813 151.722 20.805 150.833 20.501C150.197 20.28 149.562 20.5894 149.12 21.1586ZM6.63725 57.499C7.50487 56.869 8.42774 56.3275 9.17931 55.5427C9.38378 55.3272 9.75404 55.0675 9.99719 55.1117C11.0859 55.3106 11.8429 54.8464 12.589 54.128C12.8653 53.8628 13.3571 53.7854 13.7661 53.708C15.12 53.4372 15.6063 51.9065 16.9271 51.5749C17.1923 51.5086 17.3913 51.1439 17.6068 50.9062C17.6731 50.8289 17.6786 50.7073 17.7228 50.6078C18.0986 49.8342 18.4855 49.0715 18.8447 48.2923C19.0712 47.806 18.607 46.7837 18.0986 46.6732C17.2752 46.5074 16.4518 46.314 15.6229 46.2753C15.1145 46.2532 14.5066 46.3692 14.0811 46.6455C12.1966 47.8779 9.79272 48.0934 8.10722 49.7071C6.77541 50.0055 6.28357 51.5694 4.91307 51.807C4.52071 52.3209 4.15045 52.8459 3.73046 53.3322C3.31047 53.8241 2.80206 54.1501 2.15549 54.3878C0.481048 55.0067 0.0168458 55.819 0.0610556 57.5819C0.0721087 57.9024 0.143949 58.2229 0.210263 58.7369C0.630256 58.9745 0.92867 59.1071 1.17735 59.3006C1.51998 59.5658 1.81286 59.8919 2.14996 60.1626C2.44838 60.4003 3.05626 60.3782 3.32705 60.0576C4.2444 58.969 5.5099 58.3058 6.63725 57.499Z" fill="#FFC19A"/>
<mask id="mask1_1_7179" style="mask-type:luminance" maskUnits="userSpaceOnUse" x="-175" y="-210" width="638" height="638">
<path d="M462.163 -209.129H-174.457V427.49H462.163V-209.129Z" fill="black" fill-opacity="0.28"/>
</mask>
<g mask="url(#mask1_1_7179)">
<mask id="mask2_1_7179" style="mask-type:luminance" maskUnits="userSpaceOnUse" x="-2" y="-1" width="291" height="90">
<path d="M288.86 -0.458984H-1.15527V88.6678H288.86V-0.458984Z" fill="white"/>
</mask>
<g mask="url(#mask2_1_7179)">
<mask id="mask3_1_7179" style="mask-type:luminance" maskUnits="userSpaceOnUse" x="0" y="-1" width="288" height="90">
<path d="M0.000244141 -0.000488281H287.54V88.0432H0.000244141V-0.000488281Z" fill="white"/>
</mask>
<g mask="url(#mask3_1_7179)">
<path d="M1.99001 58.0074C1.30476 58.0185 0.730032 58.2008 0.19399 58.5932C0.127675 58.1677 0.0724139 57.8693 0.0613607 57.5819C0.017151 55.819 0.481353 55.0067 2.1558 54.3878C2.80236 54.1501 3.31077 53.8241 3.73077 53.3323C4.15076 52.8459 4.52102 52.321 4.91338 51.807C6.28388 51.5694 6.77571 50.0055 8.10753 49.7071C9.79302 48.0934 12.1969 47.8779 14.0814 46.6455C14.5069 46.3692 15.1148 46.2532 15.6232 46.2753C16.4521 46.314 17.2755 46.5074 18.0989 46.6732C18.2979 46.7174 18.4913 46.9053 18.6405 47.1374C18.3697 47.3142 18.0768 47.4689 17.806 47.6347C17.0766 48.0934 16.3526 48.5631 15.6011 48.9886C13.7111 50.0497 11.9206 51.2102 10.4175 52.8349C9.70461 53.603 8.65462 54.0617 7.75938 54.6641C6.63203 54.6033 6.0352 55.4488 5.28363 56.0567C4.53207 56.6646 3.71419 57.1951 2.89631 57.7201C2.63658 57.8914 2.29395 58.0019 1.99001 58.0074ZM107.458 12.0349C107.856 12.372 108.132 12.7477 108.497 12.8804C109.608 13.2838 110.757 13.5656 111.873 13.9469C112.282 14.0906 112.658 14.3448 113.106 14.2509C113.305 14.2122 113.548 14.1348 113.653 13.9856C113.758 13.8419 113.736 13.5932 113.719 13.3888C113.708 13.3059 113.592 13.2119 113.498 13.1622C113.078 12.9301 112.774 12.6427 112.675 12.1841C112.503 12.1067 112.321 12.0404 112.127 12.0072C111.967 11.9741 111.812 11.9243 111.658 11.8801C111.68 11.9188 111.696 11.9575 111.713 11.9962C111.531 12.0791 111.299 12.278 111.171 12.2283C110.287 11.858 109.425 11.438 108.519 11.018C108.16 11.3662 107.856 11.6535 107.458 12.0349ZM245.431 59.0464C245.453 59.0408 245.475 59.0298 245.497 59.0243C245.469 59.0243 245.442 59.0243 245.414 59.0243C245.42 59.0298 245.425 59.0408 245.431 59.0464ZM278.776 52.9288C277.737 53.2052 276.687 53.3875 275.698 53.8407C274.72 54.2828 273.686 54.6199 272.747 55.1393C272.156 55.4654 271.597 55.6919 270.923 55.6919C270.056 55.6864 269.188 55.7638 268.32 55.7417C267.232 55.7085 266.187 55.8025 265.11 56.0954C263.966 56.4104 262.8 56.5817 261.777 57.2448C261.512 57.4161 261.175 57.5653 260.871 57.5598C259.445 57.5432 258.102 57.8472 256.732 58.2285C255.826 58.4827 254.759 58.129 253.842 58.3501C253.748 58.3722 253.654 58.3998 253.56 58.4219C253.576 58.7037 253.587 58.9745 253.61 59.2453C253.643 59.6598 254.124 60.0355 254.538 59.9471C255.057 59.8256 255.555 59.6156 256.074 59.5161C256.235 59.4829 256.472 59.6321 256.605 59.7703C256.776 59.9416 256.522 60.5108 256.279 60.555C255.754 60.649 255.223 60.7153 254.698 60.8147C254.637 60.8258 254.555 60.9584 254.555 61.0303C254.56 61.1297 254.61 61.2624 254.687 61.3176C254.941 61.511 255.201 61.8039 255.483 61.8316C256.345 61.92 257.218 61.8924 258.08 61.9366C258.395 61.9531 258.727 62.0029 259.014 62.1245C259.174 62.1908 259.318 62.4284 259.362 62.6108C259.412 62.8263 259.412 63.0197 259.384 63.191C259.467 63.1523 259.556 63.1081 259.639 63.0529C259.981 62.8484 260.468 62.8208 260.893 62.8097C261.645 62.7931 262.402 62.876 263.159 62.8594C263.634 62.8484 263.96 63.0694 264.314 63.3347C264.684 63.6221 265.181 63.6607 265.513 63.3568C266.209 62.7158 267.585 63.296 267.895 62.0084C269.21 61.511 270.487 60.87 271.923 60.8147C273.106 60.7705 274.283 60.8866 275.449 60.5219C275.819 60.4058 276.223 61.0468 276.632 60.7374C277.212 60.3008 277.814 60.2842 278.478 60.3505C279.13 60.4224 279.721 60.3174 280.318 59.925C281.213 59.3392 282.197 58.8861 283.153 58.3943C284.197 57.8637 285.098 57.0735 286.314 56.8414C286.684 56.7696 286.993 56.3275 287.314 56.0401C287.568 55.808 287.552 55.598 287.369 55.2609C287.027 54.6143 287.485 54.023 287.69 53.393C287.585 53.3157 287.474 53.2383 287.364 53.1609C287.275 53.2052 287.187 53.2383 287.098 53.2659C286.795 53.3544 286.386 53.4649 286.148 53.3378C285.518 52.9896 284.949 53.0394 284.324 53.2936C284.186 53.3488 283.866 53.2052 283.783 53.0615C283.562 52.6967 283.269 52.2712 283.302 51.8954C283.335 51.4699 283.694 51.5031 284.026 51.5031C283.982 51.481 283.932 51.4644 283.888 51.4423C283.263 51.0665 282.545 51.2323 282.07 51.6854C281.13 52.5752 279.887 52.6359 278.776 52.9288ZM120.776 24.4744C121.732 24.933 122.738 25.3751 123.031 26.5633C124.274 27.7735 125.523 28.9893 126.772 30.194C127.004 30.415 127.264 30.6195 127.529 30.8074C129.994 32.5482 130.237 32.7803 131.812 35.4605C132.055 35.8749 132.282 36.1181 132.751 36.1899C133.868 36.3557 134.697 36.9194 135.31 37.8975C135.614 38.3783 136.05 38.8094 136.52 39.152C136.531 39.152 136.542 39.1575 136.559 39.1575C136.863 39.1851 137.266 39.2901 137.432 39.5057C137.537 39.6438 137.659 39.7543 137.786 39.8538C138.095 39.9975 138.405 40.1522 138.686 40.3291C139.012 40.4506 139.35 40.5501 139.67 40.6828C139.654 40.7822 139.637 40.8817 139.62 40.9812C140.355 41.3404 141.234 41.2464 141.853 41.8543C141.941 41.9869 142.035 42.1251 142.129 42.2577C142.295 42.219 142.455 42.1748 142.616 42.0975C142.936 41.9538 143.235 42.1804 143.257 42.4953C143.273 42.7109 143.262 42.9319 143.273 43.1474C143.284 43.4016 143.29 43.6503 143.312 43.9045C143.677 44.1256 144.135 44.2085 144.417 44.5622C144.439 44.5898 144.467 44.6174 144.489 44.645C144.937 44.3632 145.357 43.9432 145.843 43.8327C146.567 43.6669 146.567 44.5014 146.882 44.8827C147.44 45.5458 148.451 45.6895 148.777 46.5903C149.186 46.7229 149.595 46.8445 149.988 46.9992C150.186 47.0821 150.38 47.2092 150.529 47.3639C151.48 48.3421 152.64 48.3255 153.85 48.0768C153.944 48.0602 154.094 47.9663 154.099 47.8945C154.121 47.6955 154.165 47.3805 154.06 47.3032C153.021 46.5626 152.115 45.6011 150.728 45.4353C150.104 45.3579 149.49 45.0871 148.893 44.8385C148.606 44.7224 148.346 44.4848 148.142 44.2416C147.849 43.8935 147.794 43.468 147.899 43.0203C147.998 42.6059 148.319 42.3627 148.866 42.3406C149.739 42.313 150.59 42.2743 151.38 42.7993C151.723 43.0259 152.11 43.1917 152.508 43.3409C152.016 42.8988 151.502 42.5009 150.883 42.2301C149.965 41.8322 149.291 41.1359 148.595 40.4506C148.131 39.9975 147.667 39.5112 147.114 39.1796C146.186 38.6215 145.357 37.9473 144.566 37.2289C144.279 37.3007 143.981 37.4223 143.677 37.6046C143.356 37.8036 142.815 37.8146 142.433 37.7041C141.61 37.4665 140.814 37.1294 140.029 36.7757C139.449 36.516 138.814 36.306 138.609 35.56C138.526 35.256 138.228 35.0184 138.123 34.7144C137.913 34.101 137.443 33.9795 136.89 33.8579C136.371 33.7363 135.907 33.3329 135.398 33.2776C134.415 33.1671 133.812 32.714 133.442 31.8132C133.188 31.1887 132.668 30.7853 132.027 30.5477C131.524 30.3598 131.038 30.1277 130.524 29.9785C130.082 29.8514 129.767 29.6524 129.518 29.249C129.364 29.0059 129.032 28.724 128.778 28.724C127.756 28.724 126.899 28.2543 126.004 27.884C125.506 27.6796 125.015 27.4419 124.501 27.3093C123.992 27.1767 123.793 26.8396 123.733 26.3975C123.616 25.552 123.185 24.9496 122.345 24.8115C121.677 24.7065 121.102 24.4523 120.538 24.1262C120.378 24.0323 120.212 23.9549 120.047 23.8775C120.052 23.8831 120.058 23.8886 120.063 23.8996C120.196 24.1981 120.472 24.3252 120.776 24.4744ZM231.333 63.3292C232.008 63.0142 232.743 62.7379 233.472 62.6716C235.119 62.5113 236.567 61.826 238.037 61.1905C238.744 60.8921 239.418 60.5937 240.197 60.5992C240.689 60.5992 240.966 60.3174 241.17 59.8974C241.286 59.6598 241.452 59.4332 241.629 59.2398H241.623C240.441 59.6156 239.275 59.6156 238.081 59.6156C236.13 59.61 234.185 59.61 232.234 59.5713C231.704 59.5603 231.112 59.5382 230.654 59.3116C230.372 59.1679 230.096 59.1071 229.814 59.074C229.123 59.3116 228.41 59.4277 227.653 59.3614C226.785 59.2895 225.945 59.2674 225.15 59.8034C224.691 60.1184 224.122 59.9748 223.619 59.6874C222.701 59.1679 221.757 59.1569 220.85 59.6929C220.093 60.1405 219.391 59.8698 218.584 59.5935C218.43 60.3174 218.292 61.0358 218.131 61.7487C218.021 62.2295 218.076 62.6108 218.292 62.865C218.701 62.8926 219.109 62.9368 219.513 63.0197C220.894 63.285 222.276 63.5226 223.674 63.6386C224.304 63.6884 224.94 63.6607 225.448 63.9868C226.266 63.3457 227.216 63.1192 228.327 63.3458C229.333 64.2023 230.311 63.8044 231.333 63.3292ZM116.062 15.5606C116.598 15.6158 117.145 15.6877 117.604 15.2898C117.737 15.0632 117.864 14.8422 117.991 14.6156C117.438 14.1514 116.841 13.7867 116.173 13.5767C115.952 13.853 115.714 14.1182 115.51 14.4056C115.139 14.914 115.421 15.4887 116.062 15.5606ZM240.446 81.1733C240.286 81.1844 240.126 81.1954 239.965 81.2065C240.142 81.2341 240.308 81.2341 240.446 81.1733ZM256.61 78.471C256.616 78.4544 256.621 78.4434 256.627 78.4268C256.345 78.4268 256.074 78.4544 255.809 78.5097C255.892 78.576 255.991 78.6423 256.074 78.681C256.306 78.8026 256.527 78.7086 256.61 78.471ZM233.931 85.3456C233.489 85.4285 233.091 85.3843 232.803 84.9809C232.682 84.804 232.56 84.6327 232.428 84.4504C232.345 84.4504 232.24 84.4227 232.157 84.4559C230.991 84.9422 229.775 85.3346 229.046 86.5227C228.935 86.7051 228.449 86.6553 228.139 86.7051C228.078 86.2022 228.045 85.6882 227.935 85.1964C227.907 85.0693 227.631 84.9367 227.46 84.9146C227.122 84.8759 226.846 85.2019 226.901 85.4838C227.034 86.1524 227.46 86.5503 228.09 86.7548C228.051 87.0698 228.023 87.4124 227.863 87.6556C227.78 87.6556 227.697 87.6556 227.614 87.6556C227.515 87.65 227.377 87.6279 227.321 87.5616C226.537 86.6166 225.509 87.1361 224.575 87.0753C224.381 87.0643 224.105 86.9703 224.028 86.8266C223.436 85.7545 222.574 85.5722 221.563 86.0861C221.121 86.3127 220.762 86.263 220.414 86.1027C221.248 86.0419 221.867 85.6606 222.215 84.9146C222.508 84.2901 222.895 84.2183 223.514 84.4393C223.862 84.5664 225.851 83.9585 226.205 83.7541C226.603 83.5275 226.675 82.9085 226.294 82.6875C225.929 82.4775 225.525 82.2344 225.127 82.2012C223.939 82.1183 222.74 82.1238 221.591 82.0962C220.032 80.6152 219.645 80.3997 217.291 79.3386C216.75 79.0955 216.225 78.8081 215.711 78.5152C215.976 78.5926 216.269 78.6147 216.584 78.5594C217.59 78.3881 218.496 78.5649 219.358 79.1562C220.082 79.6536 220.883 79.9133 221.823 79.7807C221.928 79.7697 222.033 79.7752 222.143 79.7862C222.652 80.1454 223.215 80.256 223.801 80.2339C225.022 80.5654 226.255 80.7589 227.531 80.7146C229.267 80.6539 231.002 80.6317 232.737 80.5986C232.958 80.5931 233.234 80.5102 233.384 80.6152C234.566 81.4331 235.926 80.9799 237.191 81.1678C237.91 81.2728 238.617 81.2728 239.33 81.2396C239.302 81.2838 239.275 81.3336 239.269 81.3944C239.219 81.7094 239.214 82.0354 239.197 82.3559C239.181 82.6764 239.186 83.0025 239.159 83.3285C239.12 83.7817 238.639 84.1022 238.241 83.9254C237.65 83.6656 237.086 83.2291 236.473 83.1517C235.887 83.0743 235.257 83.3506 234.644 83.4722C234.638 83.7927 234.66 84.1133 234.627 84.4283C234.561 85.0417 234.389 85.2572 233.931 85.3456ZM234.627 83.4556C234.539 83.2567 234.622 82.7925 234.174 83.1959C234.323 83.2788 234.472 83.3672 234.627 83.4556ZM215.064 78.1394C214.987 78.0731 214.915 78.0178 214.843 77.9405C214.771 77.8521 214.688 77.7747 214.606 77.7029C214.628 77.8134 214.672 77.9128 214.733 77.946C214.843 78.0123 214.954 78.0731 215.064 78.1394ZM70.4156 0.396651C71.4158 1.0598 72.51 0.844274 73.5821 0.855327C74.4553 0.860853 75.3118 0.8498 76.091 1.36374C76.3508 1.52952 76.7265 1.64557 77.0194 1.60136C78.8265 1.33611 80.4125 2.02136 82.0096 2.67345C82.6341 2.92766 83.2861 2.93871 83.9327 2.82266C84.4577 2.72871 84.9661 2.56845 85.4801 2.44135C85.9498 2.78398 86.4748 2.86134 87.0163 2.90003C87.1877 3.20949 87.37 3.51344 87.6132 3.75659C88.0166 4.15448 90.4371 5.0663 90.8902 4.83973C91.791 4.38658 92.316 4.77341 92.8962 5.32603C93.0344 5.45314 93.3218 5.6134 93.4378 5.55261C94.0512 5.23209 94.438 5.54708 94.8415 5.94497C95.1509 6.25444 95.5267 6.50312 95.9909 6.46443C97.0354 6.36496 97.8975 6.88443 98.7209 7.36521C100.036 8.1444 101.501 8.52018 102.91 9.0286C104.181 9.48727 104.219 9.39333 105.214 10.6091C104.662 11.438 103.96 11.6535 103.037 11.2115C102.904 11.1451 102.656 11.2888 102.479 11.3772C102.407 11.4104 102.357 11.5541 102.357 11.648C102.352 11.753 102.385 11.9133 102.451 11.952C102.727 12.0846 103.031 12.3001 103.302 12.2725C104.667 12.1178 105.811 12.8472 107.043 13.1733C107.673 13.339 108.077 13.9414 108.088 14.6819C108.088 14.8974 108.066 15.113 108.06 15.3285C108.044 15.6822 107.889 15.964 107.541 16.0193C107.358 16.0524 107.082 15.9806 106.972 15.8479C106.618 15.4445 106.336 14.9582 105.695 15.0135C104.866 15.0798 104.114 14.8753 103.391 14.5714C103.109 14.2398 102.716 14.074 102.285 14.0353C102.103 13.9303 101.926 13.8309 101.733 13.759C100.003 13.0683 100.003 13.0738 98.9032 11.6978C98.124 11.6978 97.2564 11.6757 96.3943 11.7088C95.6593 11.7364 95.2559 11.3662 94.8194 10.8025C94.3607 10.2112 93.6589 10.3217 93.272 10.8909C92.957 10.7749 92.6199 10.7141 92.2552 10.7086C91.6473 10.6975 91.0615 10.5428 90.4813 10.3715C90.4481 10.2609 90.4205 10.1449 90.4039 10.0233C90.3431 9.62543 90.0502 9.2607 89.8458 8.89044C89.8016 8.81308 89.6634 8.78544 89.481 8.68045C88.7682 8.98439 88.0055 9.31596 87.2374 9.63095C87.0606 9.54806 86.8892 9.47622 86.7235 9.39885C86.6516 9.29385 86.6129 9.16675 86.6185 9.04518C86.624 8.94018 86.635 8.82965 86.6627 8.73018C86.7235 8.52571 86.8008 8.32124 86.8727 8.11125C86.1985 7.82941 85.5353 7.50889 84.839 7.29889C84.5793 7.22153 84.2146 7.34863 83.9327 7.46468C83.5238 7.64152 83.148 7.81836 82.7225 7.53099C81.7001 6.84574 80.8988 7.22153 80.1473 7.77415C80.1362 7.76862 80.1252 7.76862 80.1141 7.76309C79.6057 7.47573 79.0586 7.49231 78.5612 7.77967C77.9368 8.13888 77.351 8.13888 76.7155 7.79625C76.6934 7.7852 76.6713 7.77415 76.6492 7.76309C77.0968 7.76309 77.5499 7.77415 77.9976 7.74651C78.1191 7.74099 78.2518 7.51442 78.3291 7.35968C78.3623 7.29889 78.2905 7.14968 78.2297 7.07232C77.8649 6.63022 77.3676 6.40365 76.8205 6.49759C75.9363 6.65233 75.6158 5.90076 75.0576 5.5084C74.5326 5.83445 74.0076 6.15497 73.4826 6.47549C73.5213 6.78496 73.5048 7.11653 73.6153 7.40389C73.6319 7.44257 73.6595 7.46468 73.6761 7.49784C72.3277 7.37626 70.9793 7.15521 69.6143 7.35968C68.7798 7.48126 67.8901 7.42047 67.0446 7.09995C66.7794 6.99495 66.387 7.02258 66.1273 7.14968C65.6023 7.40942 65.0717 7.44257 64.5689 7.2381C63.5244 6.82364 62.4247 6.95074 61.3526 6.79601C61.0376 6.7518 60.7005 6.74627 60.3855 6.79601C59.645 6.91758 59.0482 7.55862 58.2248 7.39836C57.4677 7.24916 56.7216 7.39284 55.9701 7.426C54.8869 7.48126 53.837 7.51441 52.7649 7.83493C51.8586 8.10572 50.8307 7.95651 49.8581 8.0394C49.7531 8.04493 49.6481 8.06704 49.5431 8.08361C49.4049 7.98414 49.2612 7.90125 49.112 7.88467C48.8357 7.84599 48.4213 7.95098 48.2555 8.14993C48.2002 8.21072 48.1726 8.27703 48.1615 8.34887C47.4708 8.56439 47.1005 9.36569 46.3268 9.42096C46.2329 9.42648 46.1389 9.42096 46.045 9.42096C45.94 9.36569 45.8405 9.31043 45.73 9.27175C45.0282 9.02307 44.3098 8.80202 43.5969 8.57545C43.2598 8.47045 42.7735 9.03412 42.8619 9.42648C42.9006 9.61438 42.9669 9.79674 43.0277 9.9791C42.7901 10.062 42.5524 10.1449 42.3148 10.2333C41.6074 10.4875 40.9719 10.8467 40.1762 10.797C39.3085 10.7417 38.4796 10.8578 37.6286 11.1838C36.9488 11.4436 36.131 11.4104 35.3739 11.3993C34.462 11.3828 33.6663 11.5707 33.0308 12.2725C32.8871 12.4272 32.6881 12.6317 32.5058 12.6483C30.8313 12.7754 29.5769 13.8696 28.118 14.4885C27.9245 14.5714 27.698 14.704 27.5156 14.6709C26.344 14.4719 25.4819 15.2345 24.4983 15.6103C23.4815 16.0027 22.6415 16.6658 21.9286 17.4892C21.6246 17.8429 21.2268 17.9921 20.7736 17.9645C20.1768 17.9313 19.8176 18.4784 19.3202 18.5779C18.4913 18.7492 18.1542 19.5339 17.48 19.86C16.8113 20.1915 16.0874 20.4126 15.4574 20.7994C14.8274 21.1807 14.4185 21.9102 13.5951 22.0152C12.8324 22.7833 12.0643 23.5515 11.3017 24.3196C11.0033 25.5907 9.83723 26.1322 9.12988 27.0551C8.51094 27.0551 7.9749 27.0827 7.43886 27.0441C7.12939 27.0219 6.57124 26.4251 6.57124 26.1433C6.57124 25.2812 6.45519 24.3804 6.66519 23.5625C6.86966 22.7281 7.44438 21.9434 8.37831 21.772C9.05804 21.6449 9.60513 21.4184 10.0528 20.9044C10.7491 20.1031 11.7548 19.5174 11.7769 18.2574C11.7825 18.1137 12.0311 17.9313 12.2025 17.8374C13.4403 17.1411 14.4627 16.1685 15.4077 15.1406C16.2919 14.1735 17.3197 13.7811 18.5908 13.8419C19.1268 13.8696 19.6684 13.8475 20.2541 13.8475C21.1936 12.9191 22.3044 12.2172 22.857 10.9738C23.8793 10.5483 24.5812 9.71937 25.3659 8.98991C25.5206 8.85176 25.7693 8.68597 25.9351 8.71913C27.2835 8.97886 28.3501 7.80178 29.6929 8.00072C30.0963 8.06151 30.6987 8.03388 30.9253 7.7852C31.5332 7.12758 32.4339 7.52547 33.0197 7.05021C33.6055 6.57496 34.0697 5.95602 34.9594 6.01681C35.6226 6.06655 36.0315 5.30393 36.761 5.37577C37.0483 5.4034 37.4738 5.26524 37.6396 5.05525C38.3249 4.1379 39.2643 4.08816 40.2646 4.11027C41.3588 4.13237 42.3811 3.89474 43.4311 3.53001C44.4313 3.18186 45.4316 2.6624 46.5589 2.69003C46.8573 2.69556 47.2055 2.54082 47.4487 2.35293C48.1781 1.79478 48.9849 1.60689 49.8802 1.56268C50.2891 1.54058 50.687 1.28637 51.0849 1.11506C51.6099 0.89401 52.168 0.827695 52.6654 1.07638C53.9198 1.68978 55.1246 1.67321 56.4232 1.14822C57.4124 0.744801 58.584 1.06532 59.5897 0.518227C59.7887 0.407703 60.181 0.68954 60.4905 0.722698C61.1371 0.789011 61.7836 0.80559 62.4302 0.844274C63.6239 0.0484991 64.9668 0.551385 66.2323 0.440861C67.3099 0.346914 68.3985 0.346914 69.4817 0.319283C69.7967 0.313757 70.189 0.241917 70.4156 0.396651ZM101.175 10.6257L101.152 10.7915L101.34 10.7307L101.175 10.6257ZM67.3264 3.29239C67.0557 3.30896 66.7517 3.49133 66.5362 3.68475C66.3041 3.88922 66.597 4.50815 66.9507 4.77341C67.3154 5.0442 67.7133 5.14919 68.1498 5.12709C69.1888 5.07735 69.9293 5.74603 70.7637 6.19365C71.1616 7.24363 71.7971 6.99495 72.5321 6.56943C72.7808 6.43128 73.1455 6.48654 73.4605 6.46443C73.4495 6.25444 73.4329 6.04997 73.4384 5.8455C73.4495 5.12709 73.2782 4.56342 72.4106 4.54131C71.4545 4.51921 71.029 3.56317 70.189 3.27581C69.2551 3.27581 68.288 3.24818 67.3264 3.29239ZM141.03 70.2204C140.836 70.0269 140.648 69.8225 140.46 69.618C140.206 69.3417 139.935 69.082 139.665 68.8222C139.952 69.4577 140.394 69.9385 141.03 70.2204ZM114.299 47.9331C114.537 48.4471 114.946 48.7897 115.421 49.0715C115.615 49.1821 115.797 49.3092 115.985 49.4252C115.355 49.2981 114.725 49.1158 114.1 48.95C113.962 48.9113 113.769 49.1047 113.603 49.1931C115.04 51.0444 116.62 52.752 118.328 54.023C118.781 54.3601 119.074 54.7414 119.372 55.1835C119.748 55.7362 120.262 56.123 120.986 56.1064C121.539 56.0898 122.075 56.1396 122.489 56.5651C123.042 57.1343 123.727 57.3056 124.484 57.4935C125.606 57.7698 126.667 58.2948 127.739 58.7424C127.822 58.8087 127.91 58.8695 127.993 58.9358C128.126 59.1071 128.153 59.3392 128.131 59.5713C128.093 59.8642 128.01 60.1461 127.955 60.4113C129.684 61.3895 129.69 61.3674 130.723 61.2734C130.767 61.2734 130.812 61.2513 130.856 61.2403C131.038 61.4005 131.204 61.5663 131.292 61.7653C132.42 64.3239 134.685 65.5949 136.99 66.7831C137.487 67.0428 137.99 67.2583 138.416 67.6175C137.333 67.9767 136.454 67.8607 135.691 67.0373C135.105 66.4017 134.431 65.8436 133.845 65.2081C132.939 64.2244 131.867 63.5723 130.579 63.2131C129.966 63.0363 129.237 62.8981 128.811 62.4837C127.689 61.3895 126.02 61.3674 124.904 60.2842C124.418 59.8145 123.688 59.9305 123.036 59.9913C122.942 60.0024 122.776 60.0963 122.771 60.1516C122.771 60.3395 122.76 60.6158 122.87 60.7042C124.042 61.6547 125.319 62.4671 126.667 63.1247C127.374 63.4673 128.082 63.8486 128.419 64.5007C128.905 65.4347 129.728 65.9375 130.524 66.4294C131.541 67.0538 132.287 67.9601 133.21 68.6786C135.846 70.7122 138.499 72.7237 141.201 74.6634C142.334 75.4813 143.301 76.5258 144.671 77.001C144.964 77.1005 145.252 77.316 145.467 77.5481C146.451 78.6036 147.711 79.206 148.976 79.8249C149.75 80.2007 150.452 80.7036 151.176 81.1678C151.761 81.5436 152.353 81.9138 152.939 82.2841C152.9 82.3007 152.856 82.3172 152.811 82.3393C152.64 82.4278 152.38 82.3393 152.165 82.3504C151.474 82.3836 150.789 82.3891 150.137 82.3007C147.573 80.9357 145.191 79.3055 142.881 77.5371C140.582 75.7687 138.167 74.1495 135.78 72.4972C135.542 72.3369 135.155 72.3866 134.835 72.3424C134.73 72.138 134.763 71.6516 134.326 72.0772C134.475 72.1877 134.625 72.2982 134.774 72.4032C134.569 72.8785 134.078 73.0664 133.696 73.3703C132.967 72.8729 132.265 72.3369 131.668 71.6627C131.475 71.4417 131.32 71.1377 131.27 70.8448C131.348 70.8172 131.431 70.784 131.508 70.7509C131.884 70.5685 132.243 70.3475 132.602 70.1485C132.431 69.5517 132.027 69.1372 131.58 68.8775C130.723 68.3912 129.955 67.822 129.248 67.1367C128.551 66.4736 127.728 65.932 127.059 65.2357C126.755 64.9207 126.446 64.6831 126.092 64.4344C123.661 62.7489 121.229 61.0634 118.715 59.505C118.715 59.494 118.709 59.4885 118.709 59.4774C118.118 58.8585 117.576 58.1953 116.968 57.593C117.046 57.5488 117.129 57.5156 117.189 57.5266C117.499 57.5653 117.786 57.7477 118.09 57.8306C118.289 57.8803 118.51 57.8748 118.715 57.8472C118.798 57.8361 118.919 57.698 118.919 57.6151C118.925 57.4161 118.925 57.0845 118.825 57.0459C118.041 56.7198 117.234 56.449 116.421 56.1561C116.228 56.3385 116.051 56.5043 115.874 56.6701C115.653 56.5209 115.427 56.3772 115.183 56.2556C115.101 55.913 114.979 55.598 114.553 55.4322C114.172 55.283 113.807 55.0288 113.426 54.8906C113.31 54.8133 113.188 54.747 113.061 54.6972C112.199 54.3657 111.602 53.9291 111.138 53.1554C110.939 52.8238 110.492 52.5917 110.11 52.4315C108.22 51.6578 106.817 50.3757 105.955 48.541C105.435 47.4413 104.8 46.4853 103.683 45.9216C103.501 45.8277 103.308 45.6784 103.208 45.5071C102.357 44.0151 101.003 43.2303 99.4614 42.5893C98.4832 42.1859 97.5438 41.5891 96.7977 40.7878C96.4109 40.3678 95.9909 40.097 95.4107 40.0914C95.0404 40.0859 94.8415 39.8207 94.6867 39.5278C94.0623 38.3396 93.0841 37.8312 91.7523 37.9804C91.5423 38.0025 91.3157 37.9639 91.1057 37.997C90.5089 38.0854 90.0281 37.8589 89.6468 37.4444C89.1771 36.9305 88.6411 36.6431 87.9337 36.7094C87.8232 36.7205 87.7182 36.7315 87.6077 36.737C86.8063 36.8089 86.3477 35.9026 85.5077 36.0297C84.7672 36.1457 84.0156 36.1844 83.3359 36.2507C82.7391 35.466 82.3025 34.6702 81.2138 34.8471C80.9099 34.8968 80.5507 34.836 80.2688 34.7089C78.5557 33.9518 76.7431 33.7252 74.9029 33.5318C73.5103 33.3881 72.0956 33.1505 70.7859 32.6974C69.8298 32.3658 68.929 32.2 67.9398 32.2166C66.5307 32.2387 65.1215 32.1613 63.7123 32.1337C63.4968 32.1282 63.226 32.0508 63.0713 32.1503C61.1647 33.3053 59.0261 32.5924 57.0201 32.9129C56.3293 33.0234 55.7767 33.1782 55.4009 33.8081C55.3069 33.9629 55.0582 34.1066 54.8814 34.1121C54.0027 34.1287 53.2235 34.3552 52.4388 34.8029C52.0244 35.035 51.3612 34.9631 50.8473 34.8581C50.151 34.7089 49.5486 34.7476 49.0568 35.2726C48.797 35.5489 48.4655 35.5986 48.1671 35.5544C47.0397 35.3997 46.045 35.8031 45.0226 36.1513C44.4866 36.3336 44.0058 36.4994 43.7958 37.0797C43.4145 37.2731 43.0553 37.5439 42.6851 37.7704C42.4972 37.7649 42.2982 37.7539 42.1545 37.8368C41.9059 37.986 41.6516 38.091 41.3919 38.1849C41.3311 38.1849 41.2703 38.1904 41.2096 38.1794C40.8338 38.1407 40.5188 38.2788 40.2093 38.4446C39.0654 38.5662 37.8883 38.3949 36.7444 38.4612C35.4899 38.5331 34.4897 38.848 33.6165 39.8317C33.3623 40.1136 33.0639 40.3733 32.7379 40.5833C32.5444 40.4175 32.3234 40.1578 31.9918 39.7488C32.0913 39.572 32.1521 39.362 32.2902 39.2238C32.9755 38.5275 33.6663 37.8312 34.3847 37.1681C34.6113 36.9691 34.9594 36.7481 35.2247 36.7702C36.0868 36.8531 36.5454 36.0573 37.2859 35.9302C38.1978 35.0018 39.513 34.6537 40.4248 33.7087C41.1985 32.9074 42.2872 32.6311 43.2653 32.1779C44.7298 31.4982 46.3324 31.1003 47.5868 30.0006C48.7197 29.6801 49.7697 29.0667 50.9799 29.0114C52.4996 28.9395 53.942 28.2764 55.434 28.2377C56.8708 28.2046 58.1087 27.348 59.5455 27.5027C60.3247 26.9501 61.115 26.8562 61.9384 27.4088C62.0158 27.4585 62.1594 27.4751 62.2368 27.4364C64.5302 26.2925 66.9286 27.2541 69.2661 27.1325C72.1785 26.9833 75.1074 27.1269 78.0307 27.1325C78.6828 27.1325 79.2907 27.1877 79.9207 27.4696C80.9928 27.9504 82.1422 28.2709 83.2419 28.6964C83.7172 28.8843 84.1096 28.4201 84.4522 28.5251C85.5574 28.8677 86.8174 28.8898 87.6132 29.9619C88.0111 30.4979 88.5692 30.7411 89.2489 30.9069C90.9123 31.2992 92.4265 32.2166 94.1838 32.3105C94.4657 32.3271 94.7586 32.5979 94.9962 32.8079C96.1346 33.8358 97.3283 34.6979 98.9253 34.93C99.5222 35.0184 100.152 35.4163 100.616 35.8418C101.357 36.5215 102.247 36.9249 103.114 37.3118C103.766 37.5991 104.253 37.9362 104.457 38.5828C104.628 39.1409 104.999 39.5112 105.391 39.8815C106.181 40.6275 106.933 41.3791 107.347 42.4346C107.485 42.7717 107.983 43.1364 108.342 43.1695C109.138 43.2414 109.746 43.7719 110.464 43.8935C112.045 44.1587 112.84 45.2971 113.608 46.4797C113.896 46.9274 114.073 47.4468 114.299 47.9331ZM120.649 58.0516C120.461 58.0516 120.268 58.1787 120.074 58.2451C120.207 59.074 120.782 59.4608 121.505 59.7095C121.588 59.5327 121.738 59.3558 121.743 59.179C121.754 58.3335 121.467 58.0351 120.649 58.0516ZM258.859 78.2444C258.677 78.3439 258.423 78.4599 258.368 78.6257C258.08 79.4215 257.837 80.2339 257.633 81.0517C257.611 81.1402 257.903 81.3999 258.075 81.422C258.384 81.4717 258.743 81.4883 259.02 81.3723C259.816 81.0462 260.567 80.6041 261.368 80.3002C261.904 80.0957 262.424 80.2781 262.838 80.7146C263.082 80.9688 263.054 81.3723 262.744 81.4662C262.336 81.5823 261.788 81.5546 261.529 81.8199C260.562 82.8201 259.202 82.8754 258.047 83.4114C257.506 83.6656 256.671 83.218 256.367 84.0248C256.201 84.4504 256.5 84.7764 256.699 85.1356C257.412 85.0859 258.13 85.0306 258.848 84.9477C259.473 84.8759 260.059 85.0085 260.639 84.4725C261.153 83.9917 262.021 83.9088 262.606 83.4777C263.209 83.0357 263.684 82.4112 264.148 81.8088C264.319 81.5878 264.386 81.1788 264.325 80.897C263.91 78.9352 261.247 77.3879 259.473 77.9128C259.268 78.0234 259.064 78.1284 258.859 78.2444ZM6.63756 57.499C7.50517 56.869 8.42805 56.3275 9.17962 55.5427C9.38408 55.3272 9.75434 55.0675 9.99749 55.1117C11.0862 55.3106 11.8432 54.8464 12.5893 54.128C12.8656 53.8628 13.3574 53.7854 13.7664 53.708C14.0869 53.6417 14.3522 53.5036 14.5953 53.3323C14.3632 53.2162 14.1587 52.9509 14.1808 52.6802C14.1974 52.4702 14.3135 52.2712 14.3632 52.0612C14.424 51.8402 14.3135 51.691 14.0593 51.6578C13.9543 51.6412 13.8216 51.6357 13.7387 51.691C13.2801 52.0004 12.9595 52.4039 12.7385 52.9288C12.4788 53.5533 12.0035 53.9954 11.3017 54.0949C10.8651 54.1612 10.4783 54.2938 10.1135 54.5646C7.49965 56.5154 4.64812 58.1345 1.97343 60.0024C2.03422 60.0521 2.08948 60.1129 2.15027 60.1627C2.44869 60.4003 3.05657 60.3782 3.32735 60.0577C4.2447 58.969 5.51021 58.3058 6.63756 57.499Z" fill="#FFC19A"/>
</g>
</g>
</g>
</g>
</svg>
