<svg width="391" height="25" viewBox="0 0 391 25" fill="none" xmlns="http://www.w3.org/2000/svg">
<mask id="mask0_64_8711" style="mask-type:luminance" maskUnits="userSpaceOnUse" x="30" y="0" width="330" height="25">
<path d="M30.7051 0.000213623H359.666V24.121H30.7051V0.000213623Z" fill="white"/>
</mask>
<g mask="url(#mask0_64_8711)">
<path d="M358.659 11.4134H204.401C202.605 10.6387 200.113 9.45045 199.094 8.42972C197.689 7.02162 195.229 4.44099 195.229 0.117249L195.208 0.546482C195.109 4.69748 192.748 7.04779 191.369 8.42972C190.35 9.45045 187.864 10.6387 186.067 11.4134H31.809C31.5896 11.4134 31.4015 11.4919 31.2448 11.649C31.0881 11.8008 31.0098 11.9892 31.0098 12.2143C31.0098 12.4341 31.0881 12.6226 31.2448 12.7744C31.4015 12.9314 31.5896 13.0099 31.809 13.0099H185.931C187.733 13.7847 190.324 15.0043 191.369 16.0512C192.758 17.4384 195.135 19.8044 195.213 23.992L195.229 24.3218C195.229 19.9981 197.689 17.4646 199.094 16.0512C200.139 15.0043 202.73 13.7847 204.537 13.0099H358.659C358.879 13.0099 359.067 12.9314 359.218 12.7744C359.375 12.6226 359.453 12.4341 359.453 12.2143C359.453 11.9892 359.375 11.8008 359.218 11.649C359.067 11.4919 358.879 11.4134 358.659 11.4134Z" fill="white"/>
</g>
<path d="M15.7647 10.7261C15.5663 10.7261 15.3782 10.7627 15.1954 10.8413C15.0126 10.9145 14.8558 11.0245 14.7148 11.1606C14.5738 11.3019 14.4693 11.4642 14.3909 11.6474C14.3178 11.8306 14.2812 12.019 14.2812 12.218C14.2812 12.4116 14.3178 12.6053 14.3909 12.7833C14.4693 12.9665 14.5738 13.1288 14.7148 13.2701C14.8558 13.4062 15.0126 13.5161 15.1954 13.5894C15.3782 13.6679 15.5663 13.7046 15.7647 13.7046C15.9632 13.7046 16.1513 13.6679 16.3341 13.5894C16.5169 13.5161 16.6789 13.4062 16.8147 13.2701C16.9557 13.1288 17.0654 12.9665 17.1386 12.7833C17.2117 12.6053 17.2535 12.4116 17.2535 12.218C17.2535 12.019 17.2117 11.8306 17.1386 11.6474C17.0654 11.4642 16.9557 11.3019 16.8147 11.1606C16.6789 11.0245 16.5169 10.9145 16.3341 10.8413C16.1513 10.7627 15.9632 10.7261 15.7647 10.7261Z" fill="white"/>
<path d="M1.4835 10.7261C1.285 10.7261 1.09695 10.7627 0.914127 10.8413C0.731303 10.9145 0.574595 11.0245 0.433558 11.1606C0.29252 11.3019 0.188049 11.4642 0.109695 11.6474C0.0365644 11.8306 0 12.019 0 12.218C0 12.4116 0.0365644 12.6053 0.109695 12.7833C0.188049 12.9665 0.29252 13.1288 0.433558 13.2701C0.574595 13.4062 0.731303 13.5161 0.914127 13.5894C1.09695 13.6679 1.285 13.7046 1.4835 13.7046C1.68199 13.7046 1.87004 13.6679 2.05287 13.5894C2.23569 13.5161 2.39762 13.4062 2.53344 13.2701C2.67447 13.1288 2.77895 12.9665 2.8573 12.7833C2.93043 12.6053 2.97222 12.4116 2.97222 12.218C2.97222 12.019 2.93043 11.8306 2.8573 11.6474C2.77895 11.4642 2.67447 11.3019 2.53344 11.1606C2.39762 11.0245 2.23569 10.9145 2.05287 10.8413C1.87004 10.7627 1.68199 10.7261 1.4835 10.7261Z" fill="white"/>
<mask id="mask1_64_8711" style="mask-type:luminance" maskUnits="userSpaceOnUse" x="386" y="10" width="5" height="5">
<path d="M386.412 10.5286H390.043V14.5487H386.412V10.5286Z" fill="white"/>
</mask>
<g mask="url(#mask1_64_8711)">
<path d="M388.983 10.7273C388.784 10.7273 388.596 10.764 388.413 10.8425C388.231 10.9158 388.069 11.0257 387.928 11.1618C387.792 11.3031 387.682 11.4654 387.609 11.6486C387.531 11.8318 387.494 12.0203 387.494 12.2192C387.494 12.4129 387.531 12.6065 387.609 12.7845C387.682 12.9677 387.792 13.13 387.928 13.2713C388.069 13.4074 388.231 13.5173 388.413 13.5906C388.596 13.6691 388.784 13.7058 388.983 13.7058C389.176 13.7058 389.369 13.6691 389.547 13.5906C389.73 13.5173 389.892 13.4074 390.033 13.2713C390.169 13.13 390.278 12.9677 390.351 12.7845C390.43 12.6065 390.466 12.4129 390.466 12.2192C390.466 12.0203 390.43 11.8318 390.351 11.6486C390.278 11.4654 390.169 11.3031 390.033 11.1618C389.892 11.0257 389.73 10.9158 389.547 10.8425C389.369 10.764 389.176 10.7273 388.983 10.7273Z" fill="white"/>
</g>
<path d="M374.696 10.7261C374.503 10.7261 374.31 10.7627 374.132 10.8413C373.949 10.9145 373.787 11.0245 373.646 11.1606C373.511 11.3019 373.401 11.4642 373.328 11.6474C373.249 11.8306 373.213 12.019 373.213 12.218C373.213 12.4116 373.249 12.6053 373.328 12.7833C373.401 12.9665 373.511 13.1288 373.646 13.2701C373.787 13.4062 373.949 13.5161 374.132 13.5894C374.31 13.6679 374.503 13.7046 374.696 13.7046C374.895 13.7046 375.083 13.6679 375.266 13.5894C375.449 13.5161 375.611 13.4062 375.752 13.2701C375.887 13.1288 375.997 12.9665 376.07 12.7833C376.149 12.6053 376.185 12.4116 376.185 12.218C376.185 12.019 376.149 11.8306 376.07 11.6474C375.997 11.4642 375.887 11.3019 375.752 11.1606C375.611 11.0245 375.449 10.9145 375.266 10.8413C375.083 10.7627 374.895 10.7261 374.696 10.7261Z" fill="white"/>
</svg>
