<svg width="588" height="35" viewBox="0 0 588 35" fill="none" xmlns="http://www.w3.org/2000/svg">
<mask id="mask0_1324_1919" style="mask-type:luminance" maskUnits="userSpaceOnUse" x="46" y="0" width="496" height="35">
<path d="M46.249 0.000366211H541.758V34.8427H46.249V0.000366211Z" fill="white"/>
</mask>
<g mask="url(#mask0_1324_1919)">
<path d="M540.245 16.4879H307.888C305.182 15.3688 301.429 13.6524 299.894 12.178C297.778 10.144 294.072 6.41627 294.072 0.170654L294.04 0.790679C293.891 6.78677 290.334 10.1818 288.257 12.178C286.723 13.6524 282.978 15.3688 280.271 16.4879H47.9148C47.5843 16.4879 47.3011 16.6013 47.065 16.8281C46.829 17.0474 46.7109 17.3196 46.7109 17.6448C46.7109 17.9623 46.829 18.2345 47.065 18.4538C47.3011 18.6807 47.5843 18.7941 47.9148 18.7941H280.066C282.781 19.9131 286.684 21.6749 288.257 23.1872C290.35 25.1909 293.93 28.6086 294.048 34.6576L294.072 35.134C294.072 28.8884 297.778 25.2287 299.894 23.1872C301.468 21.6749 305.371 19.9131 308.093 18.7941H540.245C540.575 18.7941 540.858 18.6807 541.087 18.4538C541.323 18.2345 541.441 17.9623 541.441 17.6448C541.441 17.3196 541.323 17.0474 541.087 16.8281C540.858 16.6013 540.575 16.4879 540.245 16.4879Z" fill="white"/>
</g>
<path d="M23.7424 15.4935C23.4434 15.4935 23.1601 15.5464 22.8847 15.6598C22.6094 15.7657 22.3733 15.9245 22.1609 16.1211C21.9484 16.3252 21.7911 16.5596 21.673 16.8243C21.5629 17.0889 21.5078 17.3611 21.5078 17.6484C21.5078 17.9282 21.5629 18.208 21.673 18.465C21.7911 18.7297 21.9484 18.9641 22.1609 19.1682C22.3733 19.3648 22.6094 19.5236 22.8847 19.6295C23.1601 19.7429 23.4434 19.7958 23.7424 19.7958C24.0414 19.7958 24.3246 19.7429 24.6 19.6295C24.8754 19.5236 25.1193 19.3648 25.3239 19.1682C25.5363 18.9641 25.7016 18.7297 25.8117 18.465C25.9219 18.208 25.9848 17.9282 25.9848 17.6484C25.9848 17.3611 25.9219 17.0889 25.8117 16.8243C25.7016 16.5596 25.5363 16.3252 25.3239 16.1211C25.1193 15.9245 24.8754 15.7657 24.6 15.6598C24.3246 15.5464 24.0414 15.4935 23.7424 15.4935Z" fill="white"/>
<path d="M2.23457 15.4935C1.93558 15.4935 1.65233 15.5464 1.37694 15.6598C1.10155 15.7657 0.865504 15.9245 0.653062 16.1211C0.440619 16.3252 0.283256 16.5596 0.165232 16.8243C0.0550765 17.0889 0 17.3611 0 17.6484C0 17.9282 0.0550765 18.208 0.165232 18.465C0.283256 18.7297 0.440619 18.9641 0.653062 19.1682C0.865504 19.3648 1.10155 19.5236 1.37694 19.6295C1.65233 19.7429 1.93558 19.7958 2.23457 19.7958C2.53356 19.7958 2.81682 19.7429 3.09221 19.6295C3.3676 19.5236 3.61151 19.3648 3.81608 19.1682C4.02852 18.9641 4.18589 18.7297 4.30391 18.465C4.41407 18.208 4.47701 17.9282 4.47701 17.6484C4.47701 17.3611 4.41407 17.0889 4.30391 16.8243C4.18589 16.5596 4.02852 16.3252 3.81608 16.1211C3.61151 15.9245 3.3676 15.7657 3.09221 15.6598C2.81682 15.5464 2.53356 15.4935 2.23457 15.4935Z" fill="white"/>
<mask id="mask1_1324_1919" style="mask-type:luminance" maskUnits="userSpaceOnUse" x="582" y="15" width="6" height="7">
<path d="M582.045 15.2082H587.513V21.0152H582.045V15.2082Z" fill="white"/>
</mask>
<g mask="url(#mask1_1324_1919)">
<path d="M585.916 15.4945C585.617 15.4945 585.334 15.5474 585.059 15.6609C584.783 15.7667 584.539 15.9255 584.327 16.1221C584.122 16.3262 583.957 16.5606 583.847 16.8253C583.729 17.0899 583.674 17.3621 583.674 17.6495C583.674 17.9292 583.729 18.209 583.847 18.4661C583.957 18.7307 584.122 18.9651 584.327 19.1693C584.539 19.3659 584.783 19.5247 585.059 19.6305C585.334 19.7439 585.617 19.7969 585.916 19.7969C586.207 19.7969 586.499 19.7439 586.766 19.6305C587.041 19.5247 587.285 19.3659 587.498 19.1693C587.702 18.9651 587.868 18.7307 587.978 18.4661C588.096 18.209 588.151 17.9292 588.151 17.6495C588.151 17.3621 588.096 17.0899 587.978 16.8253C587.868 16.5606 587.702 16.3262 587.498 16.1221C587.285 15.9255 587.041 15.7667 586.766 15.6609C586.499 15.5474 586.207 15.4945 585.916 15.4945Z" fill="white"/>
</g>
<path d="M564.396 15.4935C564.105 15.4935 563.813 15.5464 563.546 15.6598C563.271 15.7657 563.027 15.9245 562.814 16.1211C562.61 16.3252 562.444 16.5596 562.334 16.8243C562.216 17.0889 562.161 17.3611 562.161 17.6484C562.161 17.9282 562.216 18.208 562.334 18.465C562.444 18.7297 562.61 18.9641 562.814 19.1682C563.027 19.3648 563.271 19.5236 563.546 19.6295C563.813 19.7429 564.105 19.7958 564.396 19.7958C564.695 19.7958 564.978 19.7429 565.253 19.6295C565.529 19.5236 565.773 19.3648 565.985 19.1682C566.19 18.9641 566.355 18.7297 566.465 18.465C566.583 18.208 566.638 17.9282 566.638 17.6484C566.638 17.3611 566.583 17.0889 566.465 16.8243C566.355 16.5596 566.19 16.3252 565.985 16.1211C565.773 15.9245 565.529 15.7657 565.253 15.6598C564.978 15.5464 564.695 15.4935 564.396 15.4935Z" fill="white"/>
</svg>
